<svg width="2008" height="2008" viewBox="0 0 2008 2008" fill="none" xmlns="http://www.w3.org/2000/svg">
<g filter="url(#filter0_d_3829_772)">
<g clip-path="url(#clip0_3829_772)">
<rect x="4" width="2000" height="2000" rx="200" fill="#336C7B"/>
<path d="M1494.59 443.31C1494.59 443.31 1511.81 431.72 1509.2 415.05C1506.59 398.399 1484.81 380.897 1484.81 380.897C1484.81 380.897 1469.25 403.142 1471.86 419.802C1474.47 436.462 1494.59 443.31 1494.59 443.31Z" fill="#CADCE0"/>
<path d="M1759.25 333.044C1734.51 346.263 1735.94 378.207 1735.94 378.207L1736.76 378.657C1714.23 387.558 1693.2 399.821 1673.95 414.165C1670.08 417.064 1666.36 420.128 1662.64 423.191C1667.29 417.745 1671.15 410.628 1671.08 401.915C1670.9 380.107 1646.23 353.997 1646.23 353.997C1646.23 353.997 1621.96 379.918 1622.13 401.715C1622.29 423.521 1646.87 435.702 1646.87 435.702C1646.87 435.702 1648.56 434.866 1651.03 433.243C1642.3 441.18 1633.96 449.546 1626.05 458.311C1627.19 454.526 1627.73 450.395 1627.22 445.944C1624.62 423.231 1596.04 398.462 1596.04 398.462C1596.04 398.462 1573.72 427.854 1576.33 450.539C1578.73 471.351 1601.43 481.678 1605.22 483.271C1597.21 493.793 1589.63 504.642 1582.52 515.792C1583.34 510.78 1583.02 505.649 1581.58 500.778C1576.13 482.601 1554.57 465.693 1544.27 458.459C1557.34 451.898 1568.24 440.012 1568.24 440.012C1568.24 440.012 1544.34 425.153 1526.62 427.407C1508.9 429.662 1501.83 448.472 1501.83 448.472C1501.83 448.472 1514.39 464.758 1532.11 462.503C1533.27 462.363 1534.42 461.958 1535.55 461.675C1534.68 463.733 1533.72 466.169 1532.72 468.903C1524.12 465.662 1507.89 460.69 1495.78 463.741C1487.76 465.768 1482.59 471.054 1479.25 476.156C1490.51 457.157 1504.17 439.411 1520.68 423.766C1525.02 424.872 1546.59 429.478 1560.46 416.447C1575.97 401.908 1577.93 369.017 1577.93 369.017C1577.93 369.017 1542.91 370.881 1527.41 385.43C1511.9 399.98 1519.84 423.559 1519.84 423.559L1520.55 423.745C1505.76 434.65 1492.8 447.8 1481.59 462.153C1479.29 465.137 1477.12 468.198 1474.98 471.272C1477.34 466.279 1478.8 460.17 1476.83 453.544C1472.01 437.306 1448.08 422.51 1448.08 422.51C1448.08 422.51 1435.66 446.459 1440.5 462.698C1445.32 478.937 1466.15 483.363 1466.15 483.363C1466.15 483.363 1467.27 482.362 1468.77 480.653C1463.9 488.372 1459.46 496.306 1455.45 504.454C1455.59 501.126 1455.03 497.805 1453.78 494.713C1446.97 478.267 1420.47 465.206 1420.47 465.206C1420.47 465.206 1410.22 491.365 1417.04 507.821C1423.41 523.21 1443.01 526.396 1445.53 526.735C1441.81 536.192 1438.51 545.802 1435.62 555.541C1435.21 551.546 1433.89 547.698 1431.76 544.293C1421.19 527.67 1390.05 518.069 1390.05 518.069C1390.05 518.069 1384.14 548.157 1394.68 564.779C1404.55 580.305 1426.42 580.42 1429.3 580.368C1426.74 591.567 1424.58 602.855 1422.83 614.209C1422.6 615.892 1422.48 617.566 1422.25 619.24C1421.71 613.381 1419.42 607.82 1415.69 603.277C1402.31 587.069 1368.31 580.77 1368.31 580.77C1368.31 580.77 1366.26 613.144 1379.63 629.352C1393.01 645.561 1418.45 641.488 1418.45 641.488C1418.45 641.488 1419.3 639.682 1420.22 636.781C1419.18 647.305 1418.35 657.839 1417.9 668.379C1417.28 686.508 1417.21 704.622 1418.19 722.726C1419.06 740.812 1420.68 758.852 1423.07 776.801C1423.57 780.335 1424.1 783.859 1424.64 787.372C1417.36 777.075 1410.57 766.434 1404.31 755.486C1390.58 731.084 1379.71 705.453 1372.8 678.927C1365.84 652.455 1362.92 625.085 1364.13 597.741C1365.35 570.366 1370.8 543.144 1378.79 516.19C1365.09 541.157 1356.27 568.509 1352.81 596.778C1349.21 625.06 1351.32 654.158 1358.6 682.045C1365.89 709.96 1378.21 736.626 1394.47 760.775C1402.58 772.906 1411.61 784.397 1421.48 795.145C1423.24 796.997 1425.01 798.829 1426.8 800.641C1428.54 810.577 1430.51 820.45 1432.99 830.256C1432.04 821.637 1431.21 813.005 1430.5 804.363C1437.87 811.634 1445.61 818.525 1454.12 824.572C1448.5 818.369 1443.11 811.958 1437.96 805.354C1441.74 794.586 1446.25 784.085 1451.45 773.925C1456.54 763.811 1462.28 754.037 1468.63 744.663C1478.66 729.977 1490.43 716.563 1503.69 704.719C1502.45 709.53 1501.04 714.298 1499.92 719.129C1495.34 738.431 1491.47 757.895 1488.31 777.479C1481.96 791.808 1476.33 806.484 1473.21 821.706C1476.83 813.015 1480.92 804.573 1485.34 796.301C1482.55 816.805 1480.27 837.393 1479.58 858.068C1483.58 835.034 1488.24 812.163 1493.56 789.454C1494.56 785.064 1495.7 780.714 1496.76 776.338C1505.3 762.248 1514.59 748.618 1524.57 735.505C1545.1 708.781 1568.27 684.195 1593.73 662.118C1595.61 660.489 1597.59 658.964 1599.47 657.354C1614.58 653.961 1630.11 651.613 1645.95 650.018C1634.14 648.446 1622.22 647.902 1610.31 648.39C1631.39 631.573 1653.6 616.244 1676.8 602.511C1706.42 584.969 1737.77 569.831 1770.09 555.948C1735.71 564.511 1702.43 577.048 1670.95 593.305C1640.01 609.093 1611.06 628.522 1584.73 651.179C1580.57 651.887 1576.42 652.549 1572.3 653.524C1556.51 657.26 1541.3 663.137 1527.1 670.991C1528.89 665.786 1530.53 660.54 1532.42 655.374C1536.17 644.856 1540.12 634.405 1544.27 624.023C1549.93 627.959 1572.29 641.954 1594.74 633.33C1620.71 623.328 1640.2 585.642 1640.2 585.642C1640.2 585.642 1597.69 571.752 1571.72 581.717C1567.03 583.512 1562.72 586.188 1559.03 589.602C1564.86 576.713 1571.12 564.029 1577.81 551.57C1579.85 553.532 1600.71 572.852 1625.03 566.656C1650.65 560.133 1673.57 526.936 1673.57 526.936C1673.57 526.936 1635.39 509.313 1609.78 515.836C1603.07 517.557 1596.95 521.043 1592.05 525.931C1599.66 513.019 1607.86 500.464 1616.62 488.308C1615.79 489.862 1615.4 490.814 1615.4 490.814C1615.4 490.814 1631.53 513.512 1655.69 511.329C1679.84 509.144 1705.92 482.614 1705.92 482.614C1705.92 482.614 1674.33 461.321 1650.19 463.505C1639.88 464.441 1632.07 469.546 1626.46 475.093C1627.61 473.578 1628.72 472.049 1629.89 470.554C1639.33 458.665 1649.44 447.331 1660.19 436.609C1656.93 440.448 1655.24 443.496 1655.24 443.496C1655.24 443.496 1668.28 466.509 1691.53 466.596C1714.75 466.692 1742.29 443.822 1742.29 443.822C1742.29 443.822 1714.39 420.734 1691.14 420.655C1681.19 420.625 1673.19 424.827 1667.27 429.641C1687.92 410.039 1711.07 392.667 1736.9 378.708C1741.94 381.459 1767.35 394.11 1789.53 382.261C1814.27 369.079 1828.65 328.694 1828.65 328.694C1828.65 328.694 1784.01 319.826 1759.25 333.044ZM1485.36 590.311C1486.34 592.517 1487.56 594.48 1488.87 596.35C1478.91 596.206 1455.18 596.959 1441.89 606.568C1438.54 608.987 1436.05 611.859 1434.17 614.891C1435.69 604.155 1437.68 593.51 1439.92 582.915C1440.93 583.486 1461.04 594.7 1478.2 585.213C1479.79 584.34 1481.3 583.252 1482.75 582.093C1483.4 584.947 1484.21 587.722 1485.36 590.311ZM1483.78 544.61C1474.35 544.665 1463.73 545.892 1455.94 550.189C1451.42 552.703 1447.67 556.404 1445.1 560.894C1447.83 550.24 1451.2 539.765 1454.9 529.415C1454.77 530.044 1454.72 530.453 1454.72 530.453C1454.72 530.453 1469.09 542.073 1485.02 539.008C1484.57 540.867 1484.16 542.735 1483.78 544.61ZM1567.94 666.639C1548.06 685.82 1530.15 706.809 1515.07 729.482C1511.22 735.3 1507.55 741.239 1504.08 747.29C1506.33 738.777 1508.59 730.273 1511.01 721.822C1513.98 711.748 1517.04 701.713 1520.19 691.717C1534.92 681.275 1550.98 672.842 1567.94 666.639ZM1505.49 684.802C1486.29 699.492 1470.38 718.031 1458.77 739.23C1453.08 749.494 1448.39 760.289 1444.78 771.461C1441.36 782.533 1438.63 793.855 1437.99 805.338C1435.2 801.793 1432.49 798.213 1429.85 794.6C1429.42 788.536 1428.94 782.478 1428.62 776.406C1427.61 758.497 1427.07 740.565 1427.01 722.627C1427.08 704.702 1427.37 686.805 1428.59 668.983C1429.11 660.43 1429.8 651.886 1430.63 643.357C1435.66 645.222 1455.25 651.41 1470.06 640.714C1483.32 631.12 1490.09 609.901 1492.47 600.825C1506.54 615.693 1529.69 617.862 1529.69 617.862C1529.69 617.862 1531.41 615.881 1533.61 612.568C1528.47 625.324 1523.68 638.22 1519.26 651.243C1515.94 661.392 1512.81 671.615 1509.82 681.851C1508.4 682.862 1506.87 683.741 1505.49 684.802ZM1542.53 591.288C1543.75 584.47 1543.48 576.906 1540.08 569.295C1532.78 552.975 1512.47 539.258 1499.69 531.895C1511.69 522.338 1520.08 507.186 1520.08 507.186C1520.08 507.186 1492.07 497.256 1474.65 503.482C1467.19 506.132 1462.58 511.44 1459.61 516.661C1460.15 515.316 1460.56 513.932 1461.11 512.607C1465.56 501.944 1470.63 491.549 1476.29 481.471C1474.69 484.979 1474.07 487.606 1474.07 487.606C1474.07 487.606 1488.71 502.3 1505.94 497.959C1514.37 495.847 1522.35 489.459 1528.33 483.465C1525.91 493.677 1524.76 504.99 1527.62 514.52C1534.32 536.791 1561.17 544 1565.29 544.983C1558.08 558.147 1551.34 571.561 1545.08 585.201C1544.18 587.191 1543.41 589.268 1542.53 591.288Z" fill="#CADCE0"/>
<path d="M1697.03 394.799C1697.03 394.799 1722.87 385.83 1725.61 364.211C1728.37 342.574 1707.36 313.799 1707.36 313.799C1707.36 313.799 1679.77 336.598 1677.03 358.236C1674.26 379.853 1697.03 394.799 1697.03 394.799ZM1704.29 403.539C1704.29 403.539 1714.17 427.885 1737.25 430.725C1760.31 433.564 1790.73 414.164 1790.73 414.164C1790.73 414.164 1766.11 388.001 1743.04 385.18C1719.97 382.34 1704.29 403.539 1704.29 403.539Z" fill="#CADCE0"/>
<path d="M480.802 443.31C480.802 443.31 463.578 431.72 466.191 415.05C468.805 398.399 490.583 380.897 490.583 380.897C490.583 380.897 506.14 403.142 503.527 419.802C500.923 436.462 480.802 443.31 480.802 443.31Z" fill="#CADCE0"/>
<path d="M216.144 333.044C240.876 346.263 239.45 378.207 239.45 378.207L238.634 378.657C261.16 387.558 282.192 399.821 301.443 414.165C305.309 417.064 309.03 420.128 312.751 423.191C308.1 417.745 304.24 410.628 304.312 401.915C304.495 380.107 329.159 353.997 329.159 353.997C329.159 353.997 353.435 379.918 353.26 401.715C353.096 423.521 328.524 435.702 328.524 435.702C328.524 435.702 326.83 434.866 324.359 433.243C333.095 441.18 341.432 449.546 349.338 458.311C348.198 454.526 347.656 450.395 348.168 445.944C350.774 423.231 379.352 398.462 379.352 398.462C379.352 398.462 401.671 427.854 399.064 450.539C396.664 471.351 373.958 481.678 370.167 483.271C378.182 493.793 385.756 504.642 392.871 515.792C392.05 510.78 392.37 505.649 393.807 500.778C399.258 482.601 420.817 465.693 431.122 458.459C418.05 451.898 407.152 440.012 407.152 440.012C407.152 440.012 431.051 425.153 448.771 427.407C466.491 429.662 473.56 448.472 473.56 448.472C473.56 448.472 461.001 464.758 443.28 462.503C442.119 462.363 440.972 461.958 439.836 461.675C440.708 463.733 441.671 466.169 442.67 468.903C451.274 465.662 467.497 460.69 479.613 463.741C487.627 465.768 492.8 471.054 496.139 476.156C484.884 457.157 471.219 439.411 454.712 423.766C450.369 424.872 428.804 429.478 414.933 416.447C399.42 401.908 397.456 369.017 397.456 369.017C397.456 369.017 432.48 370.881 447.985 385.43C463.49 399.98 455.55 423.559 455.55 423.559L454.842 423.745C469.633 434.65 482.592 447.8 493.796 462.153C496.098 465.137 498.275 468.198 500.406 471.272C498.055 466.279 496.592 460.17 498.565 453.544C503.382 437.306 527.314 422.51 527.314 422.51C527.314 422.51 539.73 446.459 534.895 462.698C530.069 478.937 509.242 483.363 509.242 483.363C509.242 483.363 508.126 482.362 506.616 480.653C511.491 488.372 515.932 496.306 519.942 504.454C519.798 501.126 520.365 497.805 521.606 494.713C528.418 478.267 554.926 465.206 554.926 465.206C554.926 465.206 565.169 491.365 558.348 507.821C551.978 523.21 532.384 526.396 529.864 526.735C533.576 536.192 536.881 545.802 539.771 555.541C540.182 551.546 541.503 547.698 543.635 544.293C554.196 527.67 585.345 518.069 585.345 518.069C585.345 518.069 591.254 548.157 580.712 564.779C570.842 580.305 548.968 580.42 546.092 580.368C548.652 591.567 550.808 602.855 552.556 614.209C552.792 615.892 552.914 617.566 553.14 619.24C553.679 613.381 555.966 607.82 559.704 603.277C573.08 587.069 607.077 580.77 607.077 580.77C607.077 580.77 609.135 613.144 595.76 629.352C582.384 645.561 556.941 641.488 556.941 641.488C556.941 641.488 556.092 639.682 555.172 636.781C556.213 647.305 557.039 657.839 557.489 668.379C558.115 686.508 558.183 704.622 557.206 722.726C556.335 740.812 554.706 758.852 552.322 776.801C551.819 780.335 551.295 783.859 550.751 787.372C558.036 777.075 564.821 766.434 571.083 755.486C584.813 731.084 595.683 705.453 602.595 678.927C609.553 652.455 612.474 625.085 611.259 597.741C610.037 570.366 604.593 543.144 596.603 516.19C610.305 541.157 619.122 568.509 622.581 596.778C626.182 625.06 624.067 654.158 616.788 682.045C609.503 709.96 597.182 736.626 580.925 760.775C572.813 772.906 563.781 784.397 553.908 795.145C552.155 796.997 550.381 798.829 548.586 800.641C546.854 810.577 544.882 820.45 542.404 830.256C543.355 821.637 544.185 813.005 544.892 804.363C537.518 811.634 529.779 818.525 521.269 824.572C526.893 818.369 532.285 811.958 537.432 805.354C533.648 794.586 529.139 784.085 523.938 773.925C518.849 763.811 513.111 754.037 506.76 744.663C496.734 729.977 484.96 716.563 471.696 704.719C472.939 709.53 474.347 714.298 475.469 719.129C480.047 738.431 483.918 757.895 487.077 777.479C493.431 791.808 499.063 806.484 502.185 821.706C498.559 813.015 494.467 804.573 490.051 796.301C492.839 816.805 495.125 837.393 495.81 858.068C491.81 835.034 487.15 812.163 481.829 789.454C480.832 785.064 479.687 780.714 478.634 776.338C470.088 762.248 460.805 748.618 450.823 735.505C430.292 708.781 407.119 684.195 381.657 662.118C379.778 660.489 377.796 658.964 375.919 657.354C360.807 653.961 345.281 651.613 329.437 650.018C341.248 648.446 353.173 647.902 365.078 648.39C344.005 631.573 321.788 616.244 298.587 602.511C268.966 584.969 237.623 569.831 205.301 555.948C239.685 564.511 272.956 577.048 304.441 593.305C335.384 609.093 364.328 628.522 390.659 651.179C394.818 651.887 398.972 652.549 403.088 653.524C418.881 657.26 434.089 663.137 448.29 670.991C446.504 665.786 444.864 660.54 442.968 655.374C439.216 644.856 435.266 634.405 431.118 624.023C425.458 627.959 403.101 641.954 380.647 633.33C354.679 623.328 335.19 585.642 335.19 585.642C335.19 585.642 377.7 571.752 403.673 581.717C408.366 583.512 412.671 586.188 416.357 589.602C410.534 576.713 404.272 564.029 397.58 551.57C395.545 553.532 374.684 572.852 350.358 566.656C324.742 560.133 301.816 526.936 301.816 526.936C301.816 526.936 339.999 509.313 365.616 515.836C372.318 517.557 378.438 521.043 383.336 525.931C375.73 513.019 367.532 500.464 358.769 488.308C359.597 489.862 359.993 490.814 359.993 490.814C359.993 490.814 343.86 513.512 319.698 511.329C295.555 509.144 269.474 482.614 269.474 482.614C269.474 482.614 301.058 461.321 325.201 463.505C335.507 464.441 343.319 469.546 348.929 475.093C347.776 473.578 346.669 472.049 345.499 470.554C336.063 458.665 325.947 447.331 315.202 436.609C318.465 440.448 320.152 443.496 320.152 443.496C320.152 443.496 307.107 466.509 283.865 466.596C260.642 466.692 233.102 443.822 233.102 443.822C233.102 443.822 261.004 420.734 284.246 420.655C294.203 420.625 302.205 424.827 308.117 429.641C287.47 410.039 264.322 392.667 238.488 378.708C233.446 381.459 208.04 394.11 185.86 382.261C161.122 369.079 146.737 328.694 146.737 328.694C146.737 328.694 191.384 319.826 216.144 333.044ZM490.03 590.311C489.052 592.517 487.835 594.48 486.516 596.35C496.481 596.206 520.213 596.959 533.503 606.568C536.855 608.987 539.345 611.859 541.218 614.891C539.706 604.155 537.712 593.51 535.468 582.915C534.465 583.486 514.352 594.7 497.195 585.213C495.601 584.34 494.091 583.252 492.641 582.093C491.994 584.947 491.18 587.722 490.03 590.311ZM491.61 544.61C501.037 544.665 511.662 545.892 519.447 550.189C523.97 552.703 527.721 556.404 530.295 560.894C527.556 550.24 524.194 539.765 520.495 529.415C520.617 530.044 520.673 530.453 520.673 530.453C520.673 530.453 506.301 542.073 490.371 539.008C490.82 540.867 491.233 542.735 491.61 544.61ZM407.451 666.639C427.335 685.82 445.236 706.809 460.324 729.482C464.175 735.3 467.84 741.239 471.312 747.29C469.058 738.777 466.796 730.273 464.379 721.822C461.407 711.748 458.348 701.713 455.201 691.717C440.468 681.275 424.41 672.842 407.451 666.639ZM469.903 684.802C489.096 699.492 505.007 718.031 516.616 739.23C522.314 749.494 526.999 760.289 530.606 771.461C534.031 782.533 536.764 793.855 537.403 805.338C540.19 801.793 542.901 798.213 545.538 794.6C545.971 788.536 546.452 782.478 546.771 776.406C547.782 758.497 548.318 740.565 548.377 722.627C548.306 704.702 548.022 686.805 546.804 668.983C546.277 660.43 545.595 651.886 544.76 643.357C539.732 645.222 520.136 651.41 505.327 640.714C492.066 631.12 485.298 609.901 482.919 600.825C468.848 615.693 445.7 617.862 445.7 617.862C445.7 617.862 443.978 615.881 441.778 612.568C446.921 625.324 451.707 638.22 456.132 651.243C459.455 661.392 462.579 671.615 465.571 681.851C466.989 682.862 468.518 683.741 469.903 684.802ZM432.859 591.288C431.642 584.47 431.912 576.906 435.312 569.295C442.606 552.975 462.917 539.258 475.696 531.895C463.7 522.338 455.314 507.186 455.314 507.186C455.314 507.186 483.317 497.256 500.737 503.482C508.204 506.132 512.814 511.44 515.779 516.661C515.244 515.316 514.827 513.932 514.284 512.607C509.828 501.944 504.759 491.549 499.103 481.471C500.699 484.979 501.321 487.606 501.321 487.606C501.321 487.606 486.68 502.3 469.45 497.959C461.023 495.847 453.04 489.459 447.06 483.465C449.476 493.677 450.636 504.99 447.766 514.52C441.074 536.791 414.218 544 410.099 544.983C417.309 558.147 424.052 571.561 430.315 585.201C431.21 587.191 431.98 589.268 432.859 591.288Z" fill="#CADCE0"/>
<path d="M278.359 394.799C278.359 394.799 252.523 385.83 249.776 364.211C247.019 342.574 268.026 313.799 268.026 313.799C268.026 313.799 295.616 336.598 298.364 358.236C301.13 379.853 278.359 394.799 278.359 394.799ZM271.098 403.539C271.098 403.539 261.223 427.885 238.144 430.725C215.084 433.564 184.656 414.164 184.656 414.164C184.656 414.164 209.278 388.001 232.349 385.18C255.418 382.34 271.098 403.539 271.098 403.539Z" fill="#CADCE0"/>
<g opacity="0.3">
<path d="M2069.88 2045H1893.95L1795.42 1503.11H1908.02L2069.88 2045Z" fill="#9D9D9D"/>
<path d="M1883.39 1986.94L1890.43 2029.17L1997.75 2006.29L1883.39 1986.94ZM1862.27 1869.06L1869.31 1911.29L1976.63 1890.17L1862.27 1869.06ZM1841.16 1754.7L1848.2 1793.41L1948.48 1774.06L1841.16 1754.7ZM1820.05 1638.58L1827.09 1677.29L1923.85 1657.94L1820.05 1638.58ZM1798.94 1524.22L1805.97 1559.41L1895.7 1541.82L1798.94 1524.22ZM2047.01 1969.35L2036.45 1928.88L1937.93 1948.23L2047.01 1969.35ZM2011.82 1851.47L2001.27 1814.52L1909.78 1832.12L2011.82 1851.47ZM1976.63 1733.59L1966.08 1698.4L1878.11 1716L1976.63 1733.59ZM1941.45 1617.47L1930.89 1580.52L1839.4 1599.88L1941.45 1617.47Z" fill="#3C3C3C"/>
<path d="M1857 1422.18C2054.05 1372.92 2330.27 1420.42 2193.04 1636.82L2184.24 1584.04L2134.98 1626.27L2149.06 1561.17L2101.55 1601.64L2110.35 1540.06L2057.57 1578.76L2069.88 1510.15L2010.07 1548.86L2018.86 1489.04L1960.8 1525.98L1967.84 1473.2L1916.82 1497.83V1455.61L1881.63 1467.92L1857 1422.18Z" fill="#EBEBEB"/>
<path d="M1853.48 1469.68C1828.85 1232.17 1936.18 883.812 2178.97 1019.28L2112.11 1038.64L2156.1 1093.18L2076.93 1086.14L2117.39 1138.92L2041.74 1137.16L2080.44 1195.22L1997.75 1191.7L2036.46 1260.32L1962.57 1258.56L1997.75 1325.42H1934.42L1955.53 1383.48L1904.51 1388.75L1915.06 1429.22L1853.48 1469.68Z" fill="white"/>
<path d="M1867.56 1427.46C1827.09 1188.18 1621.25 889.09 1415.4 1107.25L1487.53 1101.97L1459.38 1170.59L1536.8 1137.16L1510.4 1200.5L1586.06 1172.35L1563.19 1242.72L1645.88 1209.3L1626.52 1288.47L1698.66 1260.32L1681.06 1337.73L1744.4 1314.86L1739.12 1379.96L1791.9 1367.64L1793.66 1409.86L1867.56 1427.46Z" fill="white"/>
<path d="M1878.11 1464.41C1732.08 1262.08 1411.88 1068.55 1329.19 1350.05L1392.53 1316.62L1397.8 1390.51L1450.58 1328.93L1457.62 1399.31L1512.16 1343.01L1524.48 1416.9L1582.54 1353.57L1601.89 1434.5L1654.67 1379.96L1675.78 1457.37L1721.53 1411.63L1747.92 1473.2L1788.38 1439.78L1809.5 1478.48L1878.11 1464.41Z" fill="#EBEBEB"/>
<path d="M1886.91 1432.74C1672.26 1390.51 1366.13 1455.61 1505.12 1679.05L1517.44 1622.75L1568.46 1664.97L1557.9 1596.36L1607.17 1636.82L1601.89 1569.97L1656.43 1608.67L1647.63 1536.54L1710.97 1575.25L1703.93 1511.91L1765.51 1547.1L1760.23 1492.56L1814.77 1515.43L1816.53 1471.44L1853.48 1483.76L1886.91 1432.74Z" fill="#EBEBEB"/>
<path d="M1835.89 1430.98C1980.16 1244.48 2300.37 1063.27 2384.82 1325.42L2321.48 1293.75L2316.2 1362.36L2263.42 1306.06L2256.38 1371.16L2201.84 1320.14L2191.28 1386.99L2133.23 1328.93L2113.87 1402.83L2061.09 1351.81L2039.98 1422.18L1994.23 1379.96L1967.84 1436.26L1927.38 1406.35L1906.27 1441.53L1835.89 1430.98Z" fill="#EBEBEB"/>
<path d="M1941.45 1492.56C1960.8 1515.43 1960.8 1548.86 1941.45 1566.45C1920.34 1584.04 1888.67 1578.77 1867.55 1554.13C1848.2 1531.26 1848.2 1497.83 1867.55 1480.24C1888.67 1462.65 1922.09 1467.93 1941.45 1492.56Z" fill="#2A2A2A"/>
<path d="M1950.25 1390.51C1980.16 1406.35 1992.47 1438.02 1980.16 1464.41C1966.08 1489.04 1932.65 1497.84 1902.75 1482C1872.84 1466.17 1860.52 1434.5 1872.84 1408.11C1885.15 1383.48 1920.34 1376.44 1950.25 1390.51Z" fill="#221307"/>
<path d="M1878.11 1515.43C1857 1552.38 1811.26 1568.21 1779.59 1550.62C1746.16 1531.26 1737.36 1485.52 1760.23 1448.57C1781.35 1411.63 1827.09 1395.79 1858.76 1413.38C1890.43 1432.74 1899.22 1478.48 1878.11 1515.43Z" fill="#424242"/>
</g>
<path d="M1035.38 1643.87C907.25 1643.87 796.833 1619.4 704.125 1570.44C611.938 1520.96 540.844 1450.12 490.844 1357.94C441.365 1265.23 416.625 1154.29 416.625 1025.13C416.625 901.167 441.625 792.833 491.625 700.125C541.625 607.417 612.198 535.281 703.344 483.719C794.49 432.156 902.042 406.375 1026 406.375C1116.63 406.375 1198.66 420.438 1272.09 448.562C1345.53 476.687 1408.29 517.573 1460.38 571.219C1512.46 624.344 1552.56 688.927 1580.69 764.969C1608.81 841.01 1622.88 926.687 1622.88 1022V1122H551V884.5H1226C1225.48 850.125 1216.62 819.917 1199.44 793.875C1182.77 767.312 1160.11 746.74 1131.47 732.156C1103.34 717.052 1071.31 709.5 1035.38 709.5C1000.48 709.5 968.448 717.052 939.281 732.156C910.115 746.74 886.677 767.052 868.969 793.094C851.781 819.135 842.667 849.604 841.625 884.5V1140.75C841.625 1179.29 849.698 1213.67 865.844 1243.88C881.99 1274.08 905.167 1297.78 935.375 1314.97C965.583 1332.16 1002.04 1340.75 1044.75 1340.75C1074.44 1340.75 1101.52 1336.58 1126 1328.25C1151 1319.92 1172.35 1307.94 1190.06 1292.31C1207.77 1276.17 1220.79 1256.9 1229.13 1234.5H1622.88C1609.33 1317.83 1577.3 1390.23 1526.78 1451.69C1476.26 1512.63 1409.33 1560.02 1326 1593.87C1243.19 1627.21 1146.31 1643.87 1035.38 1643.87Z" fill="white"/>
<g clip-path="url(#clip1_3829_772)">
<path d="M189.35 1224.39L224.831 1294L459.078 1223.69L436.37 1179.14L189.35 1224.39Z" fill="#3A6E7C"/>
<path d="M249.929 1286.46L231.805 1292.2L219.209 1245.12L249.929 1286.46ZM300.82 1271.04L282.696 1276.77L269.405 1230.06L300.82 1271.04ZM350.32 1256.33L333.588 1261.35L321.02 1217.78L350.32 1256.33ZM400.516 1241.27L383.784 1246.29L371.925 1204.1L400.516 1241.27ZM450.016 1226.56L434.676 1230.87L423.54 1191.82L450.016 1226.56ZM223.891 1218.18L242.029 1214.2L254.242 1257.08L223.891 1218.18ZM277.621 1208.33L294.367 1205.06L305.857 1244.8L277.621 1208.33ZM331.352 1198.48L347.401 1195.56L358.182 1233.91L331.352 1198.48ZM384.386 1188.98L401.131 1185.71L411.926 1225.81L384.386 1188.98Z" fill="#0C4250"/>
<path d="M478.676 1183.01C458.425 1095.12 383.927 995.421 325.991 1093.35L348.646 1086.19L341.876 1114.19L364.79 1095.5L358.362 1122.45L380.949 1106.55L376.28 1135.24L400.942 1116.53L397.693 1148L419.584 1132.46L416.676 1162.88L436.138 1149.45L436.683 1174.6L453.388 1166.08L455.612 1182.49L478.676 1183.01Z" fill="#336C7B"/>
<path d="M460.589 1193.98C559.52 1155.82 675.69 1043.11 573.131 974.382L578.958 1004.73L548.511 998.333L567.261 1028.23L538.22 1022.87L554.173 1052.45L523.398 1048.84L541.466 1080.85L506.515 1079.37L522.114 1108.25L488.568 1107.81L501.341 1132.87L474.115 1136.22L482.316 1157.47L464.179 1161.46L460.589 1193.98Z" fill="#5E8A96"/>
<path d="M474.456 1179.9C577.277 1147.65 737.115 1168.77 692.321 1294.2L679.862 1264.6L658.394 1289.57L656.006 1252.2L636.271 1275.42L632.151 1239.81L608.922 1263.05L605.47 1223.6L578.052 1247.22L574.641 1213.01L547.564 1235.58L543.839 1205.91L519.15 1221.13L513.378 1197.76L496.318 1205.58L474.456 1179.9Z" fill="#5E8A96"/>
<path d="M457.711 1183.17C567.204 1200.14 708.344 1287.78 613.656 1377.27L614.107 1345.47L583.809 1358.28L597.526 1324.98L568.265 1336.39L579.539 1303.46L547.822 1313.49L561.17 1277.75L525.25 1286.41L536.182 1254.53L501.299 1261.79L510.171 1234.47L480.487 1236.45L485.551 1213.7L465.981 1213.15L457.711 1183.17Z" fill="#336C7B"/>
<path d="M468.468 1173.31C528.46 1249.71 564.445 1383.94 448.019 1374.02L467.808 1357.79L440.814 1346.12L470.088 1336.46L444.144 1325.13L471.658 1313.74L445.346 1299.97L475.657 1288.9L447.571 1271.65L474.047 1261.66L447.708 1244.4L470.35 1235.48L450.302 1218.52L467.348 1208.95L455.024 1196.82L468.468 1173.31Z" fill="#336C7B"/>
<path d="M479.452 1193.13C524.136 1098.45 531.25 935.224 410.511 954.682L435.813 973.353L409.732 989.279L442.65 998.806L418.316 1014.72L449.5 1026.01L425.18 1043.66L459.858 1054.92L434.527 1077.48L465.357 1088.07L441.773 1110.62L467.703 1120.2L450.752 1141.99L470.746 1151.97L461.083 1167.42L479.452 1193.13Z" fill="#336C7B"/>
<path d="M433.801 1163.79C420.85 1160.75 407.625 1167.49 404.568 1178.69C401.866 1190.59 410.34 1202.06 424.343 1205.44C437.294 1208.49 450.519 1201.74 453.576 1190.54C456.278 1178.64 447.449 1166.48 433.801 1163.79Z" fill="#0C4250"/>
<path d="M472.4 1139.73C460.104 1131.09 445.092 1132.61 437.135 1142.8C430.229 1153.34 433.49 1168.34 445.786 1176.97C458.083 1185.61 473.095 1184.1 481.052 1173.9C488.312 1164.07 484 1148.73 472.4 1139.73Z" fill="#0C4250"/>
<path d="M437.53 1193.46C427.172 1209.26 430.133 1230.55 443.48 1239.53C457.877 1248.85 477.748 1243.11 487.752 1226.61C498.111 1210.81 495.15 1189.52 481.803 1180.54C467.76 1171.91 447.889 1177.66 437.53 1193.46Z" fill="#0C4250"/>
</g>
<g opacity="0.5" clip-path="url(#clip2_3829_772)">
<path d="M66.6563 2071H176.031L237.281 1734.12H167.281L66.6563 2071Z" fill="#9D9D9D"/>
<path d="M182.594 2034.91L178.219 2061.16L111.5 2046.94L182.594 2034.91ZM195.719 1961.62L191.344 1987.88L124.625 1974.75L195.719 1961.62ZM208.844 1890.53L204.469 1914.59L142.125 1902.56L208.844 1890.53ZM221.969 1818.34L217.594 1842.41L157.438 1830.37L221.969 1818.34ZM235.094 1747.25L230.719 1769.12L174.937 1758.19L235.094 1747.25ZM80.875 2023.97L87.4375 1998.81L148.688 2010.84L80.875 2023.97ZM102.75 1950.69L109.312 1927.72L166.188 1938.66L102.75 1950.69ZM124.625 1877.41L131.187 1855.53L185.875 1866.47L124.625 1877.41ZM146.5 1805.22L153.062 1782.25L209.938 1794.28L146.5 1805.22Z" fill="#3C3C3C"/>
<path d="M199 1683.81C76.5 1653.19 -95.2187 1682.72 -9.90622 1817.25L-4.43747 1784.44L26.1875 1810.69L17.4375 1770.22L46.9687 1795.37L41.5 1757.09L74.3125 1781.16L66.6563 1738.5L103.844 1762.56L98.375 1725.37L134.469 1748.34L130.094 1715.53L161.812 1730.84V1704.59L183.687 1712.25L199 1683.81Z" fill="#EBEBEB"/>
<path d="M201.186 1713.34C216.499 1565.69 149.78 1349.13 -1.15757 1433.34L40.4049 1445.38L13.0612 1479.28L62.2799 1474.91L37.1237 1507.72L84.1549 1506.63L60.0924 1542.72L111.499 1540.53L87.4361 1583.19L133.374 1582.09L111.499 1623.66H150.874L137.749 1659.75L169.467 1663.03L162.905 1688.19L201.186 1713.34Z" fill="white"/>
<path d="M192.437 1687.09C217.594 1538.34 345.562 1352.41 473.531 1488.03L428.687 1484.75L446.188 1527.41L398.062 1506.63L414.469 1546L367.437 1528.5L381.656 1572.25L330.25 1551.47L342.281 1600.69L297.437 1583.19L308.375 1631.31L269 1617.09L272.281 1657.56L239.469 1649.91L238.375 1676.16L192.437 1687.09Z" fill="white"/>
<path d="M185.875 1710.06C276.656 1584.28 475.719 1463.97 527.125 1638.97L487.75 1618.19L484.469 1664.12L451.656 1625.84L447.281 1669.59L413.375 1634.59L405.719 1680.53L369.625 1641.15L357.594 1691.47L324.781 1657.56L311.656 1705.69L283.219 1677.25L266.812 1715.53L241.656 1694.75L228.531 1718.81L185.875 1710.06Z" fill="#EBEBEB"/>
<path d="M180.405 1690.37C313.843 1664.12 504.155 1704.59 417.749 1843.5L410.093 1808.5L378.374 1834.75L384.936 1792.09L354.311 1817.25L357.593 1775.69L323.686 1799.75L329.155 1754.9L289.78 1778.97L294.155 1739.59L255.874 1761.47L259.155 1727.56L225.249 1741.78L224.155 1714.44L201.186 1722.09L180.405 1690.37Z" fill="#EBEBEB"/>
<path d="M212.125 1689.28C122.437 1573.34 -76.625 1460.69 -129.125 1623.66L-89.7501 1603.97L-86.4688 1646.62L-53.6563 1611.62L-49.2813 1652.09L-15.375 1620.37L-8.81253 1661.94L27.2812 1625.84L39.3125 1671.78L72.125 1640.06L85.25 1683.81L113.687 1657.56L130.094 1692.56L155.25 1673.97L168.375 1695.84L212.125 1689.28Z" fill="#EBEBEB"/>
<path d="M146.5 1727.56C134.469 1741.78 134.469 1762.56 146.5 1773.5C159.625 1784.44 179.313 1781.16 192.438 1765.84C204.469 1751.62 204.469 1730.84 192.438 1719.91C179.313 1708.97 158.531 1712.25 146.5 1727.56Z" fill="#2A2A2A"/>
<path d="M141.033 1664.13C122.439 1673.97 114.783 1693.66 122.439 1710.06C131.189 1725.38 151.971 1730.84 170.564 1721C189.158 1711.16 196.814 1691.47 189.158 1675.06C181.502 1659.75 159.627 1655.38 141.033 1664.13Z" fill="#221307"/>
<path d="M185.876 1741.78C199.001 1764.75 227.438 1774.59 247.126 1763.66C267.907 1751.62 273.376 1723.19 259.157 1700.22C246.032 1677.25 217.594 1667.41 197.907 1678.34C178.219 1690.37 172.751 1718.81 185.876 1741.78Z" fill="#424242"/>
</g>
<g clip-path="url(#clip3_3829_772)">
<path d="M1102.2 1731.54L1016.48 1733.98C1016.48 1733.98 974.784 1721.56 925.144 1693.3C881.841 1668.64 854.341 1644.99 837.203 1608.35C823.923 1579.93 815.375 1540.65 818.507 1507.1C821.64 1473.55 822.546 1470.35 826.008 1471.98C829.47 1473.61 828.579 1528.14 857.346 1579.76C886.113 1631.39 928.322 1649.49 954.556 1664.29C980.789 1679.09 1102.2 1731.54 1102.2 1731.54Z" fill="#6394A1"/>
<path d="M864.395 1759.44C907.104 1756.53 978.685 1768.41 1036.06 1770.21C1089.58 1771.93 1133.35 1767.96 1158.52 1758.11C1183.68 1748.26 1189.85 1731.34 1187.27 1721.53C1183.35 1706.76 1156.04 1700.66 1141.7 1693.98C1116.06 1682.05 1100.69 1668.84 1091.22 1655.04C1082.91 1642.91 1077.18 1624.84 1087.46 1613.4C1099.82 1599.67 1120.68 1596.46 1130.43 1595.02C1140.18 1593.57 1158.48 1593.14 1160.1 1589.71C1161.72 1586.29 1120.88 1573.88 1090.8 1579.6C1061.05 1585.26 1045.78 1606.35 1045.02 1631.39C1043.34 1687.31 1104.06 1717.55 1104.06 1717.55C1104.06 1717.55 1065.42 1735.26 991.186 1724.98C973.061 1722.47 909.627 1711.55 879.451 1716.18C833.028 1723.3 813.711 1745.2 802.014 1757.18C790.317 1769.15 777.203 1784.13 779.937 1786.02C782.707 1787.93 816.329 1762.72 864.395 1759.44Z" fill="#3C6772"/>
<path d="M1133.75 1713.85C1123.26 1710.63 1095.48 1702.96 1064.06 1685.98C1042.19 1674.19 1007.84 1650.42 1011.65 1610.67C1014.73 1578.69 1024.69 1557.31 1052.42 1534.8C1078.12 1513.93 1054.67 1518.76 1042.12 1528.34C1033.41 1534.99 996.789 1563.53 991.881 1606.61C986.172 1656.7 1032.32 1692.56 1032.32 1692.56C1032.32 1692.56 974.732 1669.23 952.522 1644.62C930.276 1620 917.433 1588.55 912.877 1593.35C911.17 1595.14 909.506 1626.4 936.346 1657.12C965.016 1689.91 997.289 1706 1016.35 1713.75C1035.42 1721.49 1054.93 1727.46 1054.93 1727.46C1054.93 1727.46 1075.47 1728.16 1090.61 1724.73C1104.67 1721.56 1136.95 1714.85 1133.75 1713.85Z" fill="#336C7B"/>
<path d="M868.56 1555.08C867.39 1556.64 865.788 1578.35 883.606 1598.07C901.424 1617.8 923.441 1618.55 923.441 1618.55C923.441 1618.55 913.595 1583.67 902.39 1572.73C891.149 1561.76 870.12 1552.96 868.56 1555.08Z" fill="#336C7B"/>
<path d="M953.282 1538.47C952.268 1537.69 927.349 1549.13 920.217 1563.6C913.102 1578.04 917.206 1601.74 917.206 1601.74C917.206 1601.74 934.628 1602.54 948.057 1580.67C957.781 1564.91 955.15 1539.91 953.282 1538.47ZM907.916 1565.14C910.06 1564.16 916.811 1544.46 909.104 1527.56C900.993 1509.78 870.519 1495.19 868.885 1498.65C866.935 1502.78 869.999 1507.64 871.031 1516.89C872.027 1526.13 878.775 1545.43 887.068 1553.57C895.38 1561.77 905.771 1566.11 907.916 1565.14ZM918.791 1547.77C923.072 1549.31 943.437 1541.21 951.728 1525.47C960.019 1509.73 960.644 1492.66 958.241 1491.53C955.839 1490.4 933.024 1492.16 922.872 1509.09C911.932 1527.43 916.835 1547.06 918.791 1547.77ZM912.507 1515.86C916.693 1515.51 922.995 1491.44 913.694 1474.35C905.14 1458.61 889.523 1453.45 887.132 1453.57C884.741 1453.69 879.028 1469.83 887.428 1488.83C894.392 1504.55 908.652 1516.16 912.507 1515.86ZM923.359 1492.86C926.418 1494.44 943.432 1491.15 953.256 1482.87C968.035 1470.41 973.241 1448.11 970.903 1445.93C968.547 1443.78 945.41 1444.48 933.794 1454.64C920.122 1466.59 918.426 1490.32 923.359 1492.86ZM919.859 1463.48C924.028 1465.45 935.073 1440.21 933.2 1428.53C931.326 1416.85 919.358 1400.01 918.116 1396.88C916.873 1393.74 914.779 1392.32 911.268 1396.2C907.773 1400.03 896.615 1421.85 900.119 1439.14C903.623 1456.43 919.012 1463.08 919.859 1463.48ZM938.625 1438.09C938.848 1441 944.914 1439.59 949.335 1439.55C953.79 1439.54 971.253 1440.61 983.698 1430.8C995.594 1421.43 1003.06 1404.61 1002.49 1403.52C1001.98 1402.41 979.715 1396.31 964.453 1404.4C945.858 1414.24 938.256 1432.64 938.625 1438.09ZM939.561 1415.51C941.774 1416.03 958.61 1403.33 966.614 1389.57C974.618 1375.81 966.941 1354.83 965.47 1353.92C963.999 1353.01 943.773 1359.53 937.285 1374.65C928.738 1394.5 936.89 1414.85 939.561 1415.51ZM986.154 1514.85C982.735 1513.58 969.52 1540.22 977.287 1560.55C985.002 1580.91 998.33 1587.63 998.33 1587.63L1009.38 1580.79C1009.38 1580.79 1009.97 1558.01 1004.92 1543.18C999.039 1525.9 990.261 1516.4 986.154 1514.85Z" fill="#336C7B"/>
<path d="M1065.88 1582.41C1068.11 1578.14 1049.36 1570.38 1035.98 1569.16C1021.78 1567.86 1007.66 1575.45 1007.66 1575.45L1003.92 1591.44C1003.92 1591.44 1018.45 1597.9 1034.22 1596.79C1055.06 1595.27 1063.82 1586.31 1065.88 1582.41ZM1023.54 1557.46C1023.54 1557.46 1037.66 1565.89 1054.61 1565.56C1072.31 1565.22 1087.94 1553.6 1088.2 1549.48C1088.46 1545.37 1070.15 1538.85 1060.78 1537.19C1051.42 1535.54 1033.57 1539.77 1033.57 1539.77L1023.54 1557.46ZM1015.39 1555.95C1015.39 1555.95 1002.63 1536.4 1003.45 1520.29C1004.62 1497.31 1026.01 1477.42 1029.72 1479C1033.44 1480.54 1037.78 1503.1 1037.01 1512.89C1036.2 1522.66 1031.13 1541 1031.13 1541L1015.39 1555.95ZM1048.53 1487.01C1042.23 1502.01 1043.75 1520.48 1048.25 1523.03C1052.74 1525.58 1069.25 1517.52 1077.82 1499.36C1086.38 1481.2 1079.57 1464.25 1077.84 1463.43C1076.12 1462.58 1057.23 1466.37 1048.53 1487.01Z" fill="#336C7B"/>
<path d="M1056.77 1521.74C1054.24 1525.25 1071.88 1538.59 1090.52 1539.35C1109.2 1540.13 1125.29 1526.17 1126.49 1525.01C1130.32 1521.28 1102.11 1509.48 1088.31 1509.54C1075.75 1509.61 1060.43 1516.72 1056.77 1521.74ZM1082.41 1503C1084.34 1505.77 1103.73 1510.72 1117.83 1507.66C1139.95 1502.89 1150.05 1484.59 1150.1 1482.29C1150.16 1479.98 1124.33 1470.55 1106.9 1477.1C1090.14 1483.41 1080.62 1500.47 1082.41 1503Z" fill="#336C7B"/>
</g>
</g>
</g>
<defs>
<filter id="filter0_d_3829_772" x="0" y="0" width="2008" height="2008" filterUnits="userSpaceOnUse" color-interpolation-filters="sRGB">
<feFlood flood-opacity="0" result="BackgroundImageFix"/>
<feColorMatrix in="SourceAlpha" type="matrix" values="0 0 0 0 0 0 0 0 0 0 0 0 0 0 0 0 0 0 127 0" result="hardAlpha"/>
<feOffset dy="4"/>
<feGaussianBlur stdDeviation="2"/>
<feComposite in2="hardAlpha" operator="out"/>
<feColorMatrix type="matrix" values="0 0 0 0 0 0 0 0 0 0 0 0 0 0 0 0 0 0 0.25 0"/>
<feBlend mode="normal" in2="BackgroundImageFix" result="effect1_dropShadow_3829_772"/>
<feBlend mode="normal" in="SourceGraphic" in2="effect1_dropShadow_3829_772" result="shape"/>
</filter>
<clipPath id="clip0_3829_772">
<rect x="4" width="2000" height="2000" rx="200" fill="white"/>
</clipPath>
<clipPath id="clip1_3829_772">
<rect width="500" height="303" fill="white" transform="matrix(-0.454165 -0.890918 -0.890918 0.454165 791.281 1304.26)"/>
</clipPath>
<clipPath id="clip2_3829_772">
<rect width="700" height="700" fill="white" transform="matrix(-1 0 0 1 549 1371)"/>
</clipPath>
<clipPath id="clip3_3829_772">
<path d="M747.227 1566.44L875.007 1295.64L1224.56 1460.58L1189.38 1535.13C1138.24 1643.52 1008.92 1689.92 900.53 1638.78L747.227 1566.44Z" fill="white"/>
</clipPath>
</defs>
</svg>
