<svg width="2008" height="2008" viewBox="0 0 2008 2008" fill="none" xmlns="http://www.w3.org/2000/svg">
<g filter="url(#filter0_d_3829_768)">
<rect x="4" width="2000" height="2000" rx="200" fill="#336C7B"/>
<g clip-path="url(#clip0_3829_768)" filter="url(#filter1_d_3829_768)">
<path d="M304 200C277.478 200 252.043 210.536 233.289 229.289C214.536 248.043 204 273.478 204 300L204 1700C204 1726.52 214.536 1751.96 233.289 1770.71C252.043 1789.46 277.478 1800 304 1800H804V1700H404V1600H804V1500H604V1400H804V1300H404V1200H804V1100H604V1000H804V900H404V800H804V400H904V800H1004V600H1104V800H1204V400H1304V800H1404V600H1504V800H1604V400H1704V800H1804V300C1804 273.478 1793.46 248.043 1774.71 229.289C1755.96 210.536 1730.52 200 1704 200H304Z" fill="white"/>
</g>
</g>
<defs>
<filter id="filter0_d_3829_768" x="0" y="0" width="2008" height="2008" filterUnits="userSpaceOnUse" color-interpolation-filters="sRGB">
<feFlood flood-opacity="0" result="BackgroundImageFix"/>
<feColorMatrix in="SourceAlpha" type="matrix" values="0 0 0 0 0 0 0 0 0 0 0 0 0 0 0 0 0 0 127 0" result="hardAlpha"/>
<feOffset dy="4"/>
<feGaussianBlur stdDeviation="2"/>
<feComposite in2="hardAlpha" operator="out"/>
<feColorMatrix type="matrix" values="0 0 0 0 0 0 0 0 0 0 0 0 0 0 0 0 0 0 0.25 0"/>
<feBlend mode="normal" in2="BackgroundImageFix" result="effect1_dropShadow_3829_768"/>
<feBlend mode="normal" in="SourceGraphic" in2="effect1_dropShadow_3829_768" result="shape"/>
</filter>
<filter id="filter1_d_3829_768" x="200" y="200" width="1608" height="1608" filterUnits="userSpaceOnUse" color-interpolation-filters="sRGB">
<feFlood flood-opacity="0" result="BackgroundImageFix"/>
<feColorMatrix in="SourceAlpha" type="matrix" values="0 0 0 0 0 0 0 0 0 0 0 0 0 0 0 0 0 0 127 0" result="hardAlpha"/>
<feOffset dy="4"/>
<feGaussianBlur stdDeviation="2"/>
<feComposite in2="hardAlpha" operator="out"/>
<feColorMatrix type="matrix" values="0 0 0 0 0 0 0 0 0 0 0 0 0 0 0 0 0 0 0.25 0"/>
<feBlend mode="normal" in2="BackgroundImageFix" result="effect1_dropShadow_3829_768"/>
<feBlend mode="normal" in="SourceGraphic" in2="effect1_dropShadow_3829_768" result="shape"/>
</filter>
<clipPath id="clip0_3829_768">
<rect width="1600" height="1600" fill="white" transform="translate(204 200)"/>
</clipPath>
</defs>
</svg>
