<svg width="2008" height="2008" viewBox="0 0 2008 2008" fill="none" xmlns="http://www.w3.org/2000/svg">
<g filter="url(#filter0_d_3829_737)">
<g clip-path="url(#clip0_3829_737)">
<rect x="4" width="2000" height="2000" rx="200" fill="#336C7B"/>
<path d="M1004.3 1900C879.9 1900 762.9 1876.4 653.3 1829.2C543.767 1781.93 448.467 1717.8 367.4 1636.8C286.333 1555.8 222.167 1460.6 174.9 1351.2C127.633 1241.8 104 1124.83 104 1000.3C104 875.767 127.633 758.767 174.9 649.3C222.1 539.767 286.133 444.467 367 363.4C447.867 282.333 543.1 218.167 652.7 170.9C762.3 123.633 879.3 100 1003.7 100C1128.1 100 1245.1 123.633 1354.7 170.9C1464.23 218.1 1559.53 282.167 1640.6 363.1C1721.67 444.033 1785.83 539.267 1833.1 648.8C1880.37 758.333 1904 875.3 1904 999.7C1904 1124.1 1880.4 1241.1 1833.2 1350.7C1786 1460.3 1721.87 1555.6 1640.8 1636.6C1559.73 1717.6 1464.53 1781.77 1355.2 1829.1C1245.87 1876.43 1128.9 1900.07 1004.3 1900ZM1004 1800C1227.33 1800 1416.5 1722.5 1571.5 1567.5C1726.5 1412.5 1804 1223.33 1804 1000C1804 776.667 1726.5 587.5 1571.5 432.5C1416.5 277.5 1227.33 200 1004 200C780.667 200 591.5 277.5 436.5 432.5C281.5 587.5 204 776.667 204 1000C204 1223.33 281.5 1412.5 436.5 1567.5C591.5 1722.5 780.667 1800 1004 1800ZM1004.5 1500C865.7 1500 747.6 1451.43 650.2 1354.3C552.8 1257.17 504.067 1139.23 504 1000.5C503.933 861.767 552.5 743.6 649.7 646C746.9 548.4 864.833 499.733 1003.5 500C1142.17 500.267 1260.3 548.833 1357.9 645.7C1455.5 742.567 1504.2 860.5 1504 999.5C1503.8 1138.5 1455.23 1256.63 1358.3 1353.9C1261.37 1451.17 1143.43 1499.87 1004.5 1500ZM1004 1400C1114 1400 1208.17 1360.83 1286.5 1282.5C1364.83 1204.17 1404 1110 1404 1000C1404 890 1364.83 795.833 1286.5 717.5C1208.17 639.167 1114 600 1004 600C894 600 799.833 639.167 721.5 717.5C643.167 795.833 604 890 604 1000C604 1110 643.167 1204.17 721.5 1282.5C799.833 1360.83 894 1400 1004 1400ZM1004 1100C977.2 1100 953.833 1090.03 933.9 1070.1C913.967 1050.17 904 1026.8 904 1000C904 973.2 913.967 949.833 933.9 929.9C953.833 909.967 977.2 900 1004 900C1030.8 900 1054.17 909.967 1074.1 929.9C1094.03 949.833 1104 973.2 1104 1000C1104 1026.8 1094.03 1050.17 1074.1 1070.1C1054.17 1090.03 1030.8 1100 1004 1100Z" fill="#63919D"/>
<path d="M1237.33 725.999C1237.33 695.358 1231.3 665.016 1219.57 636.707C1207.84 608.397 1190.66 582.675 1168.99 561.008C1147.32 539.341 1121.6 522.154 1093.29 510.427C1064.98 498.701 1034.64 492.666 1004 492.666C973.356 492.666 943.014 498.701 914.705 510.427C886.395 522.154 860.673 539.341 839.006 561.008C817.339 582.675 800.152 608.397 788.425 636.707C776.699 665.016 770.664 695.358 770.664 725.999C770.664 772.233 784.297 815.233 807.497 851.499H807.231L1004 1159.33L1200.76 851.499H1200.53C1224.56 814.053 1237.33 770.493 1237.33 725.999ZM1004 825.999C977.476 825.999 952.04 815.464 933.287 796.71C914.533 777.956 903.997 752.521 903.997 725.999C903.997 699.478 914.533 674.042 933.287 655.289C952.04 636.535 977.476 625.999 1004 625.999C1030.52 625.999 1055.95 636.535 1074.71 655.289C1093.46 674.042 1104 699.478 1104 725.999C1104 752.521 1093.46 777.956 1074.71 796.71C1055.95 815.464 1030.52 825.999 1004 825.999Z" fill="white"/>
<path d="M1829.83 263.499C1829.83 244.348 1826.06 225.385 1818.73 207.691C1811.4 189.998 1800.66 173.921 1787.12 160.38C1773.58 146.838 1757.5 136.096 1739.81 128.767C1722.11 121.438 1703.15 117.666 1684 117.666C1664.85 117.666 1645.88 121.438 1628.19 128.767C1610.5 136.096 1594.42 146.838 1580.88 160.38C1567.34 173.921 1556.59 189.998 1549.26 207.691C1541.94 225.385 1538.16 244.348 1538.16 263.499C1538.16 292.395 1546.68 319.27 1561.18 341.937H1561.02L1684 534.333L1806.98 341.937H1806.83C1821.85 318.533 1829.83 291.308 1829.83 263.499ZM1684 325.999C1667.42 325.999 1651.52 319.415 1639.8 307.694C1628.08 295.973 1621.5 280.075 1621.5 263.499C1621.5 246.923 1628.08 231.026 1639.8 219.305C1651.52 207.584 1667.42 200.999 1684 200.999C1700.57 200.999 1716.47 207.584 1728.19 219.305C1739.91 231.026 1746.5 246.923 1746.5 263.499C1746.5 280.075 1739.91 295.973 1728.19 307.694C1716.47 319.415 1700.57 325.999 1684 325.999Z" fill="white"/>
<path d="M506.831 263.499C506.831 244.348 503.059 225.385 495.73 207.691C488.401 189.998 477.659 173.921 464.117 160.38C450.575 146.838 434.499 136.096 416.805 128.767C399.112 121.438 380.148 117.666 360.997 117.666C341.846 117.666 322.883 121.438 305.189 128.767C287.496 136.096 271.42 146.838 257.878 160.38C244.336 173.921 233.594 189.998 226.265 207.691C218.936 225.385 215.164 244.348 215.164 263.499C215.164 292.395 223.685 319.27 238.185 341.937H238.018L360.997 534.333L483.977 341.937H483.831C498.85 318.533 506.833 291.308 506.831 263.499ZM360.997 325.999C344.421 325.999 328.524 319.415 316.803 307.694C305.082 295.973 298.497 280.075 298.497 263.499C298.497 246.923 305.082 231.026 316.803 219.305C328.524 207.584 344.421 200.999 360.997 200.999C377.573 200.999 393.471 207.584 405.192 219.305C416.913 231.026 423.497 246.923 423.497 263.499C423.497 280.075 416.913 295.973 405.192 307.694C393.471 319.415 377.573 325.999 360.997 325.999Z" fill="white"/>
<path d="M1149.83 1607.5C1149.83 1588.35 1146.06 1569.38 1138.73 1551.69C1131.4 1534 1120.66 1517.92 1107.12 1504.38C1093.58 1490.84 1077.5 1480.1 1059.81 1472.77C1042.11 1465.44 1023.15 1461.67 1004 1461.67C984.846 1461.67 965.883 1465.44 948.189 1472.77C930.496 1480.1 914.42 1490.84 900.878 1504.38C887.336 1517.92 876.594 1534 869.265 1551.69C861.936 1569.38 858.164 1588.35 858.164 1607.5C858.164 1636.4 866.685 1663.27 881.185 1685.94H881.018L1004 1878.33L1126.98 1685.94H1126.83C1141.85 1662.53 1149.83 1635.31 1149.83 1607.5ZM1004 1670C987.421 1670 971.524 1663.41 959.803 1651.69C948.082 1639.97 941.497 1624.08 941.497 1607.5C941.497 1590.92 948.082 1575.03 959.803 1563.31C971.524 1551.58 987.421 1545 1004 1545C1020.57 1545 1036.47 1551.58 1048.19 1563.31C1059.91 1575.03 1066.5 1590.92 1066.5 1607.5C1066.5 1624.08 1059.91 1639.97 1048.19 1651.69C1036.47 1663.41 1020.57 1670 1004 1670Z" fill="white"/>
</g>
</g>
<defs>
<filter id="filter0_d_3829_737" x="0" y="0" width="2008" height="2008" filterUnits="userSpaceOnUse" color-interpolation-filters="sRGB">
<feFlood flood-opacity="0" result="BackgroundImageFix"/>
<feColorMatrix in="SourceAlpha" type="matrix" values="0 0 0 0 0 0 0 0 0 0 0 0 0 0 0 0 0 0 127 0" result="hardAlpha"/>
<feOffset dy="4"/>
<feGaussianBlur stdDeviation="2"/>
<feComposite in2="hardAlpha" operator="out"/>
<feColorMatrix type="matrix" values="0 0 0 0 0 0 0 0 0 0 0 0 0 0 0 0 0 0 0.25 0"/>
<feBlend mode="normal" in2="BackgroundImageFix" result="effect1_dropShadow_3829_737"/>
<feBlend mode="normal" in="SourceGraphic" in2="effect1_dropShadow_3829_737" result="shape"/>
</filter>
<clipPath id="clip0_3829_737">
<rect x="4" width="2000" height="2000" rx="200" fill="white"/>
</clipPath>
</defs>
</svg>
