<svg width="2008" height="2008" viewBox="0 0 2008 2008" fill="none" xmlns="http://www.w3.org/2000/svg">
<g filter="url(#filter0_d_3829_700)">
<g clip-path="url(#clip0_3829_700)">
<rect x="-96" y="-100" width="2200" height="2200" rx="200" fill="#336C7B"/>
<g filter="url(#filter1_d_3829_700)">
<path d="M381.5 825.625C363.463 844.474 363.417 874.229 381.453 893.078V893.078L643.672 1153.8L675.875 1187.5L722.75 1234.38L831.172 1341.3V1341.3C846.56 1356.71 870.596 1359.36 888.971 1347.66L889.563 1347.29C889.698 1347.2 889.813 1347.13 889.948 1347.04C893.058 1345.03 935.495 1317.71 982.016 1295.88C1006.2 1284.53 1031.84 1274.31 1049.42 1271.03V1271.03C1059.68 1269.06 1069.04 1274.03 1075.54 1282.2C1093.42 1304.71 1132.7 1353.92 1178.33 1410.16C1240.58 1487.03 1306.11 1568.73 1339.44 1602.06C1374.68 1637.08 1422.34 1656.73 1472.02 1656.73C1521.7 1656.73 1569.37 1637.08 1604.61 1602.06C1676.91 1529.72 1676.56 1411.84 1605.12 1338.91C1604.79 1338.58 1604.61 1338.13 1604.61 1337.67V1337.67C1604.61 1337.2 1604.44 1336.77 1604.11 1336.44C1570.3 1302.76 1490.32 1235.9 1414.16 1174.28C1366.91 1136.06 1319.55 1097.98 1272.08 1060.05C1272.27 1060.23 1269.12 1058.03 1272.08 1041.02C1274.98 1024 1283.8 999.813 1295.52 976.563C1311.48 945.558 1329.59 915.704 1349.7 887.219L1350.01 886.796C1363.33 868.47 1361.33 843.177 1345.3 827.172V827.172L1238.38 718.75L1191.5 671.875L1157.8 639.625L897.078 377.453V377.453C878.229 359.417 848.521 359.417 829.672 377.453V377.453L381.5 825.625V825.625ZM593.844 797.828C594.594 788.922 598.062 781.891 604.109 775.891C628.25 751.891 722.234 786.859 762.312 803.688C802.625 820.563 834.078 815.266 856.062 793.469C893.562 756.297 805.344 658 847.25 616.188C889.203 574.656 978.359 650.266 1005.45 623.547V623.547C1006.28 622.719 1007.62 622.719 1008.45 623.548L1048.7 663.837C1071.73 686.894 1071.72 724.253 1048.68 747.298L740.681 1055.33C723.504 1072.51 695.652 1072.51 678.473 1055.33L648.056 1024.92C646.471 1023.33 646.447 1020.62 648.031 1019.03V1019.03C680.094 987.156 649.484 921.813 631.906 894.531C611.281 862.281 591.641 824.594 593.844 797.828ZM790.109 1167.02C782.831 1159.71 782.841 1147.89 790.133 1140.6L1144.58 786.156C1151.88 778.856 1163.72 778.856 1171.02 786.156V786.156L1196.67 811.338C1229.27 843.345 1232.44 893.218 1212.03 934.094V934.094C1198.11 962.078 1185.31 992.5 1179.78 1024.89C1174.32 1056.85 1175.53 1097.24 1203.51 1126.27C1204.27 1127.06 1205.17 1127.7 1206.15 1128.18L1206.26 1128.24C1207.17 1128.68 1207.99 1129.27 1208.7 1129.98V1129.98C1208.95 1130.23 1209.17 1130.43 1209.46 1130.66C1215.07 1135.09 1282.46 1188.31 1355.56 1247.55C1431.92 1309.42 1517.05 1381.23 1538.66 1402.84C1575.69 1439.83 1575.69 1497.67 1538.66 1534.66C1530.07 1543.43 1519.82 1550.41 1508.5 1555.17C1497.18 1559.93 1485.03 1562.38 1472.75 1562.38C1460.47 1562.38 1448.32 1559.93 1437 1555.17C1425.68 1550.41 1415.43 1543.43 1406.84 1534.66C1385.23 1513.09 1313.47 1427.92 1251.55 1351.56C1192.31 1278.46 1139.09 1211.07 1134.66 1205.46C1134.43 1205.17 1134.23 1204.95 1133.98 1204.7V1204.7C1133.27 1203.99 1132.68 1203.17 1132.24 1202.26L1132.18 1202.14C1131.7 1201.17 1131.06 1200.27 1130.28 1199.51C1100.89 1171.05 1062.37 1172.91 1031.84 1178.69C1000.91 1184.59 970.672 1197.77 942.453 1210.94V1210.94C899.658 1230.91 848.638 1226.58 815.538 1192.89L790.109 1167.02V1167.02ZM1409.75 1457.03C1409.75 1470.63 1415.15 1483.68 1424.77 1493.29C1434.39 1502.91 1447.43 1508.31 1461.03 1508.31C1474.63 1508.31 1487.68 1502.91 1497.29 1493.29C1506.91 1483.68 1512.31 1470.63 1512.31 1457.03C1512.31 1443.43 1506.91 1430.39 1497.29 1420.77C1487.68 1411.15 1474.63 1405.75 1461.03 1405.75C1447.43 1405.75 1434.39 1411.15 1424.77 1420.77C1415.15 1430.39 1409.75 1443.43 1409.75 1457.03Z" fill="white"/>
</g>
</g>
</g>
<defs>
<filter id="filter0_d_3829_700" x="0" y="0" width="2008" height="2008" filterUnits="userSpaceOnUse" color-interpolation-filters="sRGB">
<feFlood flood-opacity="0" result="BackgroundImageFix"/>
<feColorMatrix in="SourceAlpha" type="matrix" values="0 0 0 0 0 0 0 0 0 0 0 0 0 0 0 0 0 0 127 0" result="hardAlpha"/>
<feOffset dy="4"/>
<feGaussianBlur stdDeviation="2"/>
<feComposite in2="hardAlpha" operator="out"/>
<feColorMatrix type="matrix" values="0 0 0 0 0 0 0 0 0 0 0 0 0 0 0 0 0 0 0.25 0"/>
<feBlend mode="normal" in2="BackgroundImageFix" result="effect1_dropShadow_3829_700"/>
<feBlend mode="normal" in="SourceGraphic" in2="effect1_dropShadow_3829_700" result="shape"/>
</filter>
<filter id="filter1_d_3829_700" x="250" y="250" width="1508" height="1508" filterUnits="userSpaceOnUse" color-interpolation-filters="sRGB">
<feFlood flood-opacity="0" result="BackgroundImageFix"/>
<feColorMatrix in="SourceAlpha" type="matrix" values="0 0 0 0 0 0 0 0 0 0 0 0 0 0 0 0 0 0 127 0" result="hardAlpha"/>
<feOffset dy="4"/>
<feGaussianBlur stdDeviation="2"/>
<feComposite in2="hardAlpha" operator="out"/>
<feColorMatrix type="matrix" values="0 0 0 0 0 0 0 0 0 0 0 0 0 0 0 0 0 0 0.25 0"/>
<feBlend mode="normal" in2="BackgroundImageFix" result="effect1_dropShadow_3829_700"/>
<feBlend mode="normal" in="SourceGraphic" in2="effect1_dropShadow_3829_700" result="shape"/>
</filter>
<clipPath id="clip0_3829_700">
<rect x="4" width="2000" height="2000" rx="200" fill="white"/>
</clipPath>
</defs>
</svg>
