<svg width="2008" height="2000" viewBox="0 0 2008 2000" fill="none" xmlns="http://www.w3.org/2000/svg">
<g filter="url(#filter0_d_3881_728)">
<g clip-path="url(#clip0_3881_728)">
<path fill-rule="evenodd" clip-rule="evenodd" d="M963.791 1696.05L18.0359 1266.24C-4.28053 1256.13 -4.87595 1220.14 17.1671 1213L384.282 1093.99L423.006 652.759C425.351 626.305 455.871 620.909 468.224 644.774L992.065 1657.01C998.082 1669.17 997.527 1679.21 990.502 1688.88C983.484 1698.54 973.48 1700.5 963.791 1696.05ZM847.764 1584.4L402.709 1147.69L101.655 1245.3L847.764 1584.4Z" fill="black"/>
<path fill-rule="evenodd" clip-rule="evenodd" d="M1041.05 1697.14L1986.72 1267.3C2009.03 1257.19 2009.65 1221.23 1987.62 1214.1L1620.73 1095.26L1582.32 654.286C1579.99 627.847 1549.49 622.462 1537.12 646.318L1012.81 1658.14C1006.79 1670.29 1007.34 1680.33 1014.36 1689.98C1021.36 1699.65 1031.36 1701.6 1041.05 1697.14ZM1157.11 1585.53L1602.28 1148.93L1903.14 1246.4L1157.11 1585.53Z" fill="#336C7B"/>
<path d="M1004.5 793.782C973.574 793.782 943.914 780.12 922.046 755.8C900.178 731.481 887.893 698.496 887.893 664.103C887.893 629.71 900.178 596.725 922.046 572.406C943.914 548.086 973.574 534.423 1004.5 534.423C1035.43 534.423 1065.09 548.086 1086.95 572.406C1108.82 596.725 1121.11 629.71 1121.11 664.103C1121.11 681.133 1118.09 697.996 1112.23 713.729C1106.37 729.463 1097.78 743.758 1086.95 755.8C1076.13 767.842 1063.27 777.394 1049.12 783.911C1034.98 790.428 1019.81 793.782 1004.5 793.782ZM1004.5 301C917.907 301 834.86 339.255 773.63 407.35C712.399 475.445 678 567.802 678 664.103C678 936.43 1004.5 1548 1004.5 1548C1004.5 1548 1331 936.43 1331 664.103C1331 567.802 1296.6 475.445 1235.37 407.35C1174.14 339.255 1091.09 301 1004.5 301Z" fill="#8FA6AC"/>
</g>
</g>
<defs>
<filter id="filter0_d_3881_728" x="0" y="0" width="2008" height="2008" filterUnits="userSpaceOnUse" color-interpolation-filters="sRGB">
<feFlood flood-opacity="0" result="BackgroundImageFix"/>
<feColorMatrix in="SourceAlpha" type="matrix" values="0 0 0 0 0 0 0 0 0 0 0 0 0 0 0 0 0 0 127 0" result="hardAlpha"/>
<feOffset dy="4"/>
<feGaussianBlur stdDeviation="2"/>
<feComposite in2="hardAlpha" operator="out"/>
<feColorMatrix type="matrix" values="0 0 0 0 0 0 0 0 0 0 0 0 0 0 0 0 0 0 0.25 0"/>
<feBlend mode="normal" in2="BackgroundImageFix" result="effect1_dropShadow_3881_728"/>
<feBlend mode="normal" in="SourceGraphic" in2="effect1_dropShadow_3881_728" result="shape"/>
</filter>
<clipPath id="clip0_3881_728">
<rect x="4" width="2000" height="2000" rx="200" fill="white"/>
</clipPath>
</defs>
</svg>
