<svg width="2000" height="2000" viewBox="0 0 2000 2000" fill="none" xmlns="http://www.w3.org/2000/svg">
<g filter="url(#filter0_d_3871_679)">
<g clip-path="url(#clip0_3871_679)">
<path d="M1892 573.323C1880.32 559.525 1869.73 555.106 1871.95 533.599C1874.71 507.008 1858.26 531.34 1848.9 517.397C1843.78 509.777 1851.73 480.706 1848.73 469.022C1841.09 439.259 1799.82 404.12 1776 383.87C1735.96 349.825 1850.93 111.526 1806.93 82C1740.09 37.1468 1601 183 1496.5 251C1402.58 336.691 1406.6 353.206 1324.5 383.87C1219.12 423.228 1111.62 428.736 1002.92 447.5C941.964 458.023 838.334 506.209 777.5 517.397C723.902 527.254 539.389 529.627 485.5 533.599C369.472 542.151 381.471 577.917 298 669C269.142 700.489 217.519 713.721 197.012 753.17C176.862 791.932 154.236 850.974 147.5 896.5C137.309 965.377 126.062 974.181 121.646 1043.65C108.783 1245.99 121.202 1481.66 197.012 1663.18C228.53 1738.64 200.651 1896.22 268.12 1924.5C367.18 1966.02 542.678 1851.42 644.664 1811.39C773.422 1760.86 897.553 1657.8 1002.92 1556.25C1095.42 1467.1 1177.85 1359.87 1250.51 1247.85C1376.15 1054.15 1474.8 1012.61 1675 939.999C1710.6 927.087 1795.89 770.027 1830.83 753.17C1864.59 736.878 1910.35 683.917 1917.5 640.899C1924.28 600.127 1913.33 598.533 1892 573.323Z" stroke="#336C7B" stroke-width="30" stroke-linecap="round"/>
<path d="M1675.5 708.919C1666.12 699.676 1674.04 741.131 1675.5 727C1677.31 709.529 1683.06 718.226 1675.5 708.919ZM1675.5 708.919C1692.65 725.807 1674.44 753.431 1669.65 780.186C1664.6 808.414 1629.27 842.666 1602.9 852.937C1575.61 863.564 1546.21 863.854 1518.34 871.875C1361.62 916.974 1248.81 1044.97 1152.46 1170.81C1096.74 1243.58 1033.25 1313.07 961.601 1370.52C879.973 1435.96 779.242 1595.97 678.5 1627.5C598.705 1652.48 464.092 1746.68 385.5 1718C331.971 1698.47 286.321 1563.62 260.473 1513.5C198.302 1392.96 253.077 1154.15 260.473 1021.09C263.013 975.407 267.689 927.984 274.786 882.771C279.477 852.886 300.211 827.588 315.559 802.338C331.179 776.641 347.56 751.82 369.865 731.476C434.386 672.632 511.799 615.558 603.08 611.496C645.476 609.609 689.073 601.011 731.16 595.246C778.929 588.702 827.654 589.962 875.529 583.858C960.9 572.973 1040.15 558.116 1122.63 533.626C1186.89 514.546 1258.15 486.924 1326.21 489.557C1386.17 491.877 1525.82 322.064 1579.08 352.501C1614.13 372.537 1668.5 505.041 1700.5 527.999C1719.54 541.654 1669.08 629.799 1675.5 649.499C1675.5 649.499 1671.37 703.833 1675.5 708.919Z" stroke="#336C7B" stroke-width="30" stroke-linecap="round"/>
<path d="M1460.86 768.459C1453.61 761.322 1447.11 758.964 1448.24 748.052C1449.64 734.561 1439.88 746.76 1434.04 739.573C1430.85 735.645 1435.38 720.948 1433.43 714.976C1428.47 699.763 1421.81 681.789 1407.1 671.244C1382.38 653.515 1373 617.297 1345.92 601.824C1304.77 578.319 1258.07 580.446 1211.75 578.653C1159.17 576.617 1104.12 597.944 1054.48 612.674C990.758 631.582 929.535 643.052 863.582 651.454C826.597 656.165 788.955 655.19 752.052 660.241C719.538 664.692 685.858 671.329 653.105 672.785C582.587 675.918 522.784 719.987 472.942 765.423C455.71 781.131 443.057 800.298 430.99 820.14C419.134 839.637 403.117 859.171 399.494 882.247C394.014 917.16 390.402 953.779 388.442 989.055C382.733 1091.8 340.408 1253.92 388.442 1347C408.413 1385.7 431.586 1541.42 472.94 1556.5C533.657 1578.65 626.853 1497.78 688.497 1478.5C766.323 1454.16 867.047 1309.44 930.106 1258.9C985.459 1214.55 1034.5 1160.89 1077.55 1104.7C1151.98 1007.53 1239.12 908.699 1360.19 873.88C1381.72 867.688 1404.43 867.465 1425.52 859.26C1445.89 851.33 1473.18 824.882 1477.08 803.085C1480.78 782.425 1474.1 781.501 1460.86 768.459Z" stroke="#336C7B" stroke-width="30" stroke-linecap="round"/>
<path d="M1276.16 838.032C1278.8 823.275 1330.96 784.798 1321.49 775.483C1317.95 764.616 1236.67 751.391 1226.17 743.859C1208.5 731.195 1201.8 705.324 1182.45 694.272C1153.06 677.482 1119.69 679.001 1086.6 677.719C1049.04 676.264 1009.71 691.497 974.243 702.019C928.722 715.523 884.983 723.715 837.866 729.716C811.443 733.081 784.551 732.384 758.187 735.991C734.959 739.17 710.897 743.91 687.498 744.949C637.119 747.187 594.396 778.664 558.788 811.117C546.478 822.337 537.438 836.027 528.818 850.2C520.348 864.127 508.906 878.079 506.318 894.563C502.403 919.5 499.823 945.657 498.424 970.854C494.346 1044.24 437.182 1189.51 471.5 1256C485.768 1283.64 499.273 1442.22 528.818 1453C572.195 1468.82 679.958 1322.77 723.997 1309C779.597 1291.61 840.35 1199.7 885.399 1163.61C924.944 1131.93 959.982 1093.6 990.731 1053.46C1043.9 984.06 1106.16 913.468 1192.65 888.599C1208.03 884.176 1224.26 884.017 1239.32 878.156C1253.88 872.492 1273.38 853.601 1276.16 838.032Z" stroke="#336C7B" stroke-width="30" stroke-linecap="round"/>
<path d="M917.817 1035.04C899.37 1059.1 878.351 1082.08 854.626 1101.07C827.599 1122.7 789.854 1172.58 756.497 1183C730.075 1191.26 598.525 1328.49 572.499 1319C554.773 1312.54 557.062 1185.07 548.5 1168.5C527.907 1128.64 619.997 1029.49 622.439 985.491C623.278 970.386 624.824 954.705 627.172 939.755C628.724 929.873 635.588 921.509 640.669 913.161C645.841 904.664 651.263 896.458 658.649 889.732C680.011 870.278 705.643 851.409 735.869 850.07C749.908 849.448 742.56 836.404 756.497 834.5C807 827.599 809.147 798.516 825 796.5C853.269 792.905 931.186 781.595 958.497 773.501C1024.68 753.888 953.163 1012.08 917.819 1035.04" stroke="#336C7B" stroke-width="30" stroke-linecap="round"/>
</g>
</g>
<defs>
<filter id="filter0_d_3871_679" x="-4" y="0" width="2008" height="2008" filterUnits="userSpaceOnUse" color-interpolation-filters="sRGB">
<feFlood flood-opacity="0" result="BackgroundImageFix"/>
<feColorMatrix in="SourceAlpha" type="matrix" values="0 0 0 0 0 0 0 0 0 0 0 0 0 0 0 0 0 0 127 0" result="hardAlpha"/>
<feOffset dy="4"/>
<feGaussianBlur stdDeviation="2"/>
<feComposite in2="hardAlpha" operator="out"/>
<feColorMatrix type="matrix" values="0 0 0 0 0 0 0 0 0 0 0 0 0 0 0 0 0 0 0.25 0"/>
<feBlend mode="normal" in2="BackgroundImageFix" result="effect1_dropShadow_3871_679"/>
<feBlend mode="normal" in="SourceGraphic" in2="effect1_dropShadow_3871_679" result="shape"/>
</filter>
<clipPath id="clip0_3871_679">
<rect width="2000" height="2000" rx="200" fill="white"/>
</clipPath>
</defs>
</svg>
