<svg width="2008" height="2008" viewBox="0 0 2008 2008" fill="none" xmlns="http://www.w3.org/2000/svg">
<g filter="url(#filter0_d_3884_693)">
<g clip-path="url(#clip0_3884_693)">
<g clip-path="url(#clip1_3884_693)">
<path fill-rule="evenodd" clip-rule="evenodd" d="M1002.91 988.408L994.162 1012.16C993.955 1012.72 994.577 1013.22 995.082 1012.9L1003.5 1007.6L1011.92 1012.9C1012.42 1013.22 1013.04 1012.72 1012.83 1012.16L1004.08 988.408C1003.97 988.128 1003.79 988.001 1003.5 988.002C1003.21 988.002 1003 988.164 1002.91 988.408ZM1002.87 992.128V1006.51L995.971 1010.87L1002.87 992.128Z" fill="black"/>
</g>
<g clip-path="url(#clip2_3884_693)">
<path d="M1343.66 4.64493C1346.98 -2.0496 1356.21 -2.86147 1360.65 3.14946L1407.22 66.1376C1407.81 66.9407 1408.28 67.8282 1408.61 68.7706L1651.64 761.215C1652.17 762.711 1653.04 764.06 1654.19 765.152L1748.01 854.322C1748.98 855.241 1749.75 856.345 1750.29 857.567L1822.26 1022.31L1547.91 1125.99C1547.13 1126.29 1546.32 1126.48 1545.49 1126.58L1311.2 1152.81C1308.88 1153.07 1306.54 1152.51 1304.59 1151.23L1167.25 1060.99L1024.15 970.316C1022.55 969.302 1020.69 968.763 1018.8 968.763H936.133C933.247 968.763 930.502 967.516 928.603 965.343L864.012 891.414L886.045 865.226C886.373 864.835 886.671 864.421 886.936 863.985L1049.42 596.893L1343.66 4.64493Z" fill="#336C7B"/>
<path d="M612.752 1099.66L1849.98 1185.94L1735.61 1423.93L874.407 1516.16L333.77 1185.94L612.752 1099.66Z" fill="#889EA7"/>
<path d="M1794.27 1216.78C1795.58 1216.06 1797.04 1215.64 1798.53 1215.55L1898.05 1209.86C1899.49 1209.78 1900.92 1210.01 1902.27 1210.53L1999 1248.41L1901.19 1313.22C1900.55 1313.64 1899.96 1314.14 1899.44 1314.69L1678.43 1548.88L1459.43 1806.45C1458.72 1807.28 1457.89 1807.99 1456.95 1808.55L1248.06 1933.79C1243.54 1936.5 1237.7 1935.24 1234.7 1930.91L1078.47 1705.49C1077.6 1704.23 1076.45 1703.19 1075.11 1702.45L960.975 1638.97C956.948 1636.73 951.912 1637.53 948.78 1640.91L833.757 1765.04C833.134 1765.71 832.606 1766.47 832.189 1767.28L719.775 1987.08C715.621 1995.21 703.65 1993.98 701.23 1985.18L590.584 1582.91C590.345 1582.04 589.991 1581.21 589.531 1580.44L516.767 1458.42C516.072 1457.26 515.148 1456.25 514.05 1455.45L394.028 1368.38C393.138 1367.74 392.148 1367.24 391.097 1366.92L95.6524 1276.03C93.8589 1275.48 92.2568 1274.43 91.0293 1273.01L8 1177.01H327.34C328.157 1177.01 328.971 1177.11 329.763 1177.31L612.889 1248.01C613.945 1248.27 614.951 1248.71 615.867 1249.3L799.895 1367.41L951.049 1454.88C953.033 1456.03 955.35 1456.46 957.614 1456.11L1519.01 1367.68C1520.16 1367.5 1521.26 1367.12 1522.28 1366.56L1794.27 1216.78Z" fill="#A9C9D2"/>
<path d="M1021.69 947.939L1309.34 1132.39L1815.32 1004.46L1860.37 1090.74L1903.69 1212.71H1791.06L1539.75 1337.72L1214.85 1364.43L1024.14 1272.44L826.376 1180.45H703.949L612.75 1102.64L633.544 1072.89L746.176 998.513L872.672 885.465L931.587 947.939H1021.69Z" fill="#6796A2"/>
</g>
</g>
</g>
<defs>
<filter id="filter0_d_3884_693" x="0" y="0" width="2008" height="2008" filterUnits="userSpaceOnUse" color-interpolation-filters="sRGB">
<feFlood flood-opacity="0" result="BackgroundImageFix"/>
<feColorMatrix in="SourceAlpha" type="matrix" values="0 0 0 0 0 0 0 0 0 0 0 0 0 0 0 0 0 0 127 0" result="hardAlpha"/>
<feOffset dy="4"/>
<feGaussianBlur stdDeviation="2"/>
<feComposite in2="hardAlpha" operator="out"/>
<feColorMatrix type="matrix" values="0 0 0 0 0 0 0 0 0 0 0 0 0 0 0 0 0 0 0.25 0"/>
<feBlend mode="normal" in2="BackgroundImageFix" result="effect1_dropShadow_3884_693"/>
<feBlend mode="normal" in="SourceGraphic" in2="effect1_dropShadow_3884_693" result="shape"/>
</filter>
<clipPath id="clip0_3884_693">
<rect x="4" width="2000" height="2000" rx="200" fill="white"/>
</clipPath>
<clipPath id="clip1_3884_693">
<rect width="25" height="25" fill="white" transform="translate(991 988)"/>
</clipPath>
<clipPath id="clip2_3884_693">
<rect width="2000" height="2000" fill="white" transform="translate(4)"/>
</clipPath>
</defs>
</svg>
