<svg width="2000" height="2000" viewBox="0 0 2000 2000" fill="none" xmlns="http://www.w3.org/2000/svg">
<g filter="url(#filter0_d_3884_2219)">
<g clip-path="url(#clip0_3884_2219)">
<path fill-rule="evenodd" clip-rule="evenodd" d="M998.912 988.408L990.162 1012.16C989.955 1012.72 990.577 1013.22 991.082 1012.9L999.499 1007.6L1007.92 1012.9C1008.42 1013.22 1009.04 1012.72 1008.83 1012.16L1000.08 988.408C999.975 988.128 999.789 988.001 999.498 988.002C999.207 988.002 999.001 988.164 998.912 988.408ZM998.873 992.128V1006.51L991.971 1010.87L998.873 992.128Z" fill="black"/>
</g>
<path d="M914.5 117.625C913.938 119.594 914.969 119.406 883.75 122.031C866.031 123.531 860.688 124.375 854.219 126.719C852.156 127.469 843.625 128.969 835.281 130C826.562 131.031 817.938 132.719 815.125 133.75C812.406 134.781 804.719 136.469 798.062 137.5C790.469 138.719 784 140.313 780.719 141.719C777.906 143.031 771.625 144.719 766.75 145.469C761.5 146.219 755.875 147.719 752.969 149.219C750.25 150.531 744.156 152.406 739.281 153.438C734.5 154.469 728.594 156.344 726.25 157.563C723.906 158.781 718.656 160.469 714.531 161.313C710.406 162.156 705.531 163.844 703.75 165.063C701.969 166.281 697.188 167.969 693.25 168.813C689.219 169.75 684.531 171.438 682.469 172.844C680.5 174.156 676 176.031 672.531 176.969C668.969 177.813 664.562 179.688 662.688 180.906C660.812 182.219 656.875 184 653.969 184.844C651.062 185.688 646.844 187.563 644.594 188.969C642.344 190.469 638.219 192.156 635.594 192.813C632.875 193.375 629.125 195.156 627.25 196.656C625.281 198.156 622.656 199.656 621.344 199.938C615.812 201.156 612.625 202.469 610.094 204.531C608.688 205.75 605.031 207.719 602.125 208.844C599.125 209.969 596.031 211.656 595.188 212.594C594.344 213.531 590.969 215.219 587.781 216.344C584.5 217.375 580.562 219.344 579.062 220.563C577.562 221.875 574.469 223.563 572.125 224.313C569.781 225.156 566.969 226.75 565.656 227.969C564.438 229.188 561.344 231.156 558.812 232.188C556.281 233.313 553.375 235 552.344 235.938C551.312 236.969 548.125 238.75 545.219 239.969C542.406 241.281 539.5 242.969 538.75 243.906C538 244.75 535.094 246.625 532.188 248.125C529.281 249.625 526.375 251.5 525.625 252.344C524.875 253.281 522.062 254.875 519.438 256.094C516.719 257.313 514.188 258.906 513.812 259.656C513.344 260.406 511.188 261.906 509.031 263.031C506.875 264.156 503.688 266.219 502 267.719C500.312 269.125 497.5 271.094 495.812 271.938C494.125 272.781 492.25 274.375 491.594 275.406C491.031 276.438 488.594 278.125 486.344 279.063C484.094 280.094 480.906 282.156 479.125 283.75C477.344 285.25 474.625 287.219 472.938 288.063C471.344 288.906 469 290.781 467.781 292.281C466.469 293.781 464.969 295 464.312 295C463.656 295 461.406 296.594 459.25 298.469C451.562 305.406 447.25 308.875 443.406 311.219C441.25 312.531 439 314.5 438.25 315.438C437.594 316.375 435.812 317.969 434.219 319C432.719 319.938 429.906 322.281 428.031 324.063C418.656 333.063 416.031 335.313 415.094 335.313C414.531 335.313 413.5 336.531 412.656 338.031C411.906 339.531 410.312 341.125 409.188 341.5C404.219 343.094 352.094 395.5 330.906 420.344C329.219 422.312 325.938 425.969 323.594 428.406C321.25 430.844 319.375 433.187 319.375 433.562C319.375 434.031 317.594 436.281 315.438 438.625C309.812 444.625 305.125 450.437 302.219 454.844C300.906 456.906 298.75 459.625 297.438 460.844C296.125 462.062 295 463.562 295 464.219C295 464.875 293.781 466.469 292.281 467.781C290.781 469 288.719 471.719 287.688 473.687C286.656 475.656 284.875 478.187 283.75 479.219C282.625 480.25 280.844 482.781 279.812 484.844C278.688 486.906 276.438 490.187 274.75 492.156C272.969 494.031 271.562 496 271.562 496.469C271.562 496.937 270.062 499.187 268.094 501.437C266.219 503.594 263.875 507.25 262.938 509.406C262 511.656 260.406 513.812 259.375 514.375C258.438 514.844 257.125 516.812 256.562 518.687C255.906 520.562 254.219 523.375 252.812 524.969C251.406 526.656 249.156 530.125 247.844 532.75C246.531 535.281 244.75 538.094 243.812 538.844C242.969 539.594 241.094 542.781 239.594 545.875C238.188 549.062 236.5 551.969 235.938 552.344C235.281 552.719 233.781 555.437 232.469 558.344C231.25 561.25 229.188 564.625 227.969 565.937C226.656 567.25 225.062 570.156 224.312 572.406C223.469 574.562 221.781 577.656 220.562 579.156C219.344 580.562 217.562 584.031 216.625 586.75C215.781 589.469 214.094 592.844 212.875 594.25C211.75 595.656 209.875 599.312 208.75 602.219C207.625 605.219 205.75 608.687 204.531 610C203.312 611.312 201.438 615.344 200.406 619C199.375 622.656 197.594 626.406 196.562 627.344C195.531 628.281 193.938 631.469 193.188 634.281C192.344 637.187 190.469 641.406 189.062 643.75C187.656 646.094 185.781 650.5 184.844 653.594C184 656.687 182.219 660.812 180.906 662.687C179.688 664.562 177.812 669.156 176.875 672.812C175.938 676.469 174.531 680.219 173.781 681.062C171.438 683.781 170.312 686.5 168.906 693.625C168.062 697.375 166.375 701.969 165.156 703.75C163.844 705.719 162.344 710.031 161.5 714.156C160.75 718.094 159.062 723.437 157.75 725.969C156.438 728.5 154.562 734.312 153.531 738.906C152.5 743.594 150.625 749.406 149.312 752.031C147.719 755.031 146.406 760.094 145.469 766.187C144.625 772.281 143.219 777.344 141.719 780.25C140.125 783.437 138.906 788.125 137.969 795.625C137.125 801.531 135.438 809.594 134.125 813.437C132.812 817.375 130.938 826.656 129.906 834.531C128.875 842.219 127.188 851.312 126.156 854.687C124.469 860.312 123.719 866.125 120.625 899.5C119.406 912.437 119.125 913.75 117.25 913.75C116.125 913.75 115.938 927.062 115.938 1001.41C115.938 1077.06 116.125 1089.06 117.25 1089.06C119.688 1089.06 119.219 1086.16 122.969 1126.38C123.906 1136.13 125.031 1143.25 126.25 1146.16C127.188 1148.59 128.875 1157.78 130 1166.5C131.312 1177.28 132.531 1183.47 133.844 1185.91C134.875 1188.06 136.469 1194.72 137.5 1202.31C138.719 1210.56 140.219 1216.84 141.719 1220.13C143.031 1222.94 144.719 1229.22 145.469 1234.09C146.312 1239.06 148.094 1245.81 149.594 1249.28C151.094 1252.66 152.781 1258.19 153.438 1261.56C154 1264.94 155.688 1270.19 157.094 1273.28C158.594 1276.38 160.469 1282.28 161.312 1286.41C162.156 1290.53 163.844 1295.41 165.062 1297.19C166.281 1299.06 168.156 1304.13 169.281 1308.44C170.406 1312.84 172.188 1317.63 173.219 1319.13C174.344 1320.63 176.031 1324.75 176.875 1328.22C177.812 1331.78 179.875 1336.66 181.469 1339.09C183.062 1341.44 184.375 1343.88 184.375 1344.44C184.375 1346.97 186.438 1352.59 188.594 1355.59C189.812 1357.47 191.688 1361.97 192.812 1365.63C193.844 1369.19 195.812 1373.31 197.125 1374.72C198.344 1376.03 199.656 1378.28 199.938 1379.59C201.25 1385.5 202.562 1388.78 204.625 1390.94C205.75 1392.25 207.625 1395.72 208.75 1398.81C209.875 1401.81 211.656 1405.09 212.594 1406.03C213.625 1407.06 215.406 1410.63 216.625 1414C217.938 1417.47 220 1421.31 221.312 1422.72C222.625 1424.13 223.75 1425.81 223.75 1426.47C223.75 1428.16 226.562 1433.31 228.906 1435.94C230.031 1437.25 231.531 1439.88 232.188 1441.84C232.844 1443.81 234.438 1446.81 235.938 1448.41C237.344 1450.09 239.219 1453.47 240.156 1455.91C241.094 1458.34 242.781 1461.16 243.906 1462C245.031 1462.94 246.906 1465.75 248.031 1468.28C249.156 1470.91 251.125 1474 252.344 1475.31C253.562 1476.63 255.25 1479.25 256 1481.13C256.844 1483 258.344 1485.34 259.375 1486.38C260.406 1487.31 262.281 1490.13 263.688 1492.66C265 1495.28 267.062 1498.38 268.281 1499.69C269.406 1501 271.094 1503.44 271.938 1505.03C272.781 1506.72 274.469 1508.78 275.688 1509.53C276.906 1510.38 278.219 1512.06 278.5 1513.38C278.875 1514.59 280.562 1517.22 282.25 1519.19C283.938 1521.06 286.281 1524.44 287.406 1526.59C288.531 1528.84 290.406 1531.28 291.719 1532.13C292.938 1532.97 294.25 1534.47 294.625 1535.59C295 1536.72 296.781 1539.16 298.656 1541.03C300.531 1542.91 302.781 1545.63 303.625 1547.13C306.531 1551.81 317.781 1566.25 322.188 1570.84C324.062 1572.72 326.219 1575.34 327.156 1576.75C328 1578.06 329.594 1579.47 330.625 1579.84C331.656 1580.22 333.156 1581.72 334 1583.31C334.844 1585 336.812 1587.63 338.5 1589.31C340.094 1591 344.406 1595.59 347.969 1599.63C362.5 1615.84 407.594 1660 409.656 1660C410.312 1660 411.625 1661.22 412.469 1662.81C413.406 1664.31 414.625 1665.63 415.094 1665.63C416.031 1665.63 417.438 1666.84 428.312 1677.34C430.75 1679.69 433.094 1681.56 433.562 1681.56C434.031 1681.56 436.094 1683.16 438.156 1685.03C441.625 1688.31 446.688 1692.34 453.812 1697.22C455.406 1698.34 458.219 1700.5 460 1702.09C466.562 1708 470.875 1711.28 475 1713.63C477.344 1714.94 480.25 1717.19 481.469 1718.5C482.688 1719.81 485.125 1721.31 486.812 1721.88C488.5 1722.44 490.562 1723.94 491.312 1725.16C492.156 1726.47 494.219 1728.16 495.906 1729C497.5 1729.84 500.219 1731.72 501.719 1733.13C503.312 1734.53 506.5 1736.41 508.938 1737.34C511.375 1738.28 514 1739.97 514.844 1741.19C515.594 1742.41 517.844 1744.09 519.812 1744.84C521.688 1745.69 524.312 1747.38 525.625 1748.59C526.938 1749.81 530.031 1751.78 532.656 1752.91C535.188 1754.03 538 1755.91 538.938 1757.03C539.781 1758.16 542.594 1759.84 545.031 1760.78C547.469 1761.72 550.938 1763.69 552.531 1765.09C554.219 1766.59 557.219 1768.19 559.188 1768.75C561.156 1769.22 563.594 1770.53 564.625 1771.66C566.5 1773.72 572.594 1777.19 574.469 1777.19C575.031 1777.19 576.906 1778.41 578.594 1779.91C580.281 1781.41 583.938 1783.38 586.75 1784.22C589.469 1785.16 593.031 1786.94 594.625 1788.16C596.219 1789.28 599.969 1791.16 602.875 1792.19C605.875 1793.22 609.719 1795.28 611.5 1796.88C613.281 1798.38 615.25 1799.69 615.906 1799.69C618.906 1799.69 624.156 1801.84 627.25 1804.28C629.125 1805.78 632.875 1807.56 635.594 1808.13C638.219 1808.78 642.062 1810.28 643.938 1811.59C645.812 1812.81 650.031 1814.69 653.312 1815.72C656.594 1816.75 660.719 1818.63 662.688 1819.84C664.562 1821.06 669.156 1822.94 673 1823.88C676.75 1824.81 681.438 1826.69 683.312 1828C685.188 1829.31 689.406 1830.91 692.688 1831.47C695.969 1832.13 700.75 1833.81 703.281 1835.31C705.906 1836.72 711.156 1838.59 715 1839.53C718.844 1840.47 724 1842.16 726.438 1843.38C728.781 1844.59 734.5 1846.28 739.094 1847.13C743.594 1847.97 749.875 1849.94 752.969 1851.34C756.156 1852.84 762.344 1854.63 767.031 1855.38C771.719 1856.13 777.906 1857.81 780.812 1859.22C784.375 1860.81 789.625 1862.13 796.75 1863.06C802.562 1863.81 810.344 1865.41 813.906 1866.72C817.656 1867.94 827.031 1869.81 835.281 1870.94C843.344 1872.06 851.688 1873.47 853.75 1874.22C859.562 1876.28 866.875 1877.31 885.625 1878.91C907.375 1880.69 914.031 1881.63 914.5 1883.03C915.062 1884.72 1086.81 1884.53 1087.47 1882.84C1087.94 1881.53 1092.62 1880.97 1124.88 1877.97C1134.53 1877.03 1142.5 1875.81 1145.88 1874.69C1148.88 1873.66 1158.25 1871.97 1166.69 1870.94C1177.28 1869.63 1183.19 1868.41 1185.72 1867.09C1187.97 1865.97 1194.53 1864.47 1202.31 1863.34C1211.03 1862.13 1216.66 1860.72 1220.12 1859.13C1222.94 1857.81 1229.59 1856.03 1235.31 1855C1241.5 1853.97 1246.84 1852.56 1248.72 1851.34C1250.5 1850.31 1256.12 1848.53 1261.19 1847.5C1266.44 1846.38 1271.59 1844.78 1273.09 1843.66C1274.5 1842.63 1279.75 1840.94 1284.81 1839.81C1290.06 1838.78 1295.41 1837 1297.47 1835.69C1299.44 1834.38 1303.94 1832.69 1307.5 1831.94C1311.06 1831.09 1315.84 1829.22 1318 1827.81C1320.25 1826.31 1324.75 1824.44 1328.12 1823.59C1331.5 1822.75 1335.72 1821.06 1337.5 1819.84C1339.28 1818.63 1342.94 1817.13 1345.47 1816.47C1348.09 1815.91 1352.69 1814.03 1355.78 1812.34C1358.88 1810.66 1363.75 1808.59 1366.56 1807.66C1369.38 1806.72 1372.84 1805.03 1374.25 1803.81C1375.66 1802.69 1379.31 1801 1382.22 1800.16C1385.22 1799.31 1388.69 1797.63 1390 1796.41C1391.31 1795.19 1394.88 1793.31 1397.88 1792.28C1400.97 1791.25 1404.34 1789.47 1405.47 1788.44C1406.5 1787.41 1409.97 1785.72 1412.97 1784.69C1416.06 1783.66 1419.62 1781.69 1421.03 1780.38C1422.34 1779.16 1424.97 1777.66 1426.75 1777.19C1428.53 1776.63 1431.53 1775.22 1433.22 1773.91C1435 1772.59 1438.56 1770.53 1441.09 1769.31C1443.72 1768.09 1446.44 1766.31 1447.19 1765.47C1447.94 1764.53 1451.59 1762.38 1455.34 1760.69C1459.09 1759 1462.47 1756.94 1462.75 1756.19C1463.03 1755.44 1464.72 1754.31 1466.5 1753.75C1468.28 1753.09 1471.94 1751.03 1474.56 1748.97C1477.28 1747 1480 1745.31 1480.66 1745.31C1481.31 1745.31 1483.47 1743.91 1485.34 1742.13C1487.31 1740.44 1491.06 1737.91 1493.59 1736.59C1496.22 1735.28 1499.31 1733.13 1500.53 1731.81C1501.84 1730.5 1503.34 1729.38 1504.09 1729.38C1504.75 1729.38 1506.91 1727.97 1508.78 1726.19C1510.75 1724.5 1513.66 1722.44 1515.16 1721.59C1516.75 1720.84 1520.12 1718.41 1522.66 1716.34C1525.19 1714.19 1527.81 1712.5 1528.47 1712.5C1529.12 1712.5 1530.53 1711.28 1531.75 1709.69C1532.88 1708.19 1534.66 1706.59 1535.69 1706.31C1536.72 1705.94 1539.06 1704.25 1540.94 1702.47C1542.72 1700.69 1545.53 1698.34 1547.12 1697.22C1555.84 1691.13 1559.5 1688.31 1562.03 1685.69C1563.53 1684.09 1566.16 1682.03 1567.84 1681.19C1569.44 1680.34 1571.12 1678.84 1571.41 1677.81C1571.78 1676.69 1573.56 1674.91 1575.44 1673.69C1577.31 1672.47 1581.62 1668.81 1584.91 1665.72C1588.19 1662.53 1592.12 1659.25 1593.53 1658.5C1594.94 1657.75 1596.53 1656.63 1596.91 1655.88C1597.28 1655.22 1600.84 1651.75 1604.69 1648.28C1617.25 1636.94 1631.03 1623.25 1643.03 1610.31C1649.41 1603.38 1655.22 1597.28 1655.97 1596.91C1656.62 1596.53 1657.84 1594.84 1658.69 1593.25C1660.09 1590.63 1661.78 1588.56 1670.88 1579.38C1672.66 1577.59 1674.06 1575.53 1674.06 1574.88C1674.06 1574.22 1675.56 1572.81 1677.34 1571.78C1679.12 1570.75 1680.81 1569.06 1681.09 1568.03C1681.47 1567 1683.25 1564.56 1685.12 1562.69C1688.31 1559.5 1691.31 1555.66 1697.22 1547.13C1698.34 1545.53 1700.69 1542.72 1702.47 1540.94C1704.25 1539.06 1705.94 1536.72 1706.31 1535.59C1706.69 1534.47 1708 1532.97 1709.22 1532.13C1710.53 1531.28 1712.31 1529.03 1713.34 1527.06C1714.28 1525.19 1716.06 1522.75 1717.19 1521.72C1718.41 1520.69 1720.19 1517.97 1721.31 1515.63C1722.44 1513.28 1724.69 1510.09 1726.38 1508.41C1727.97 1506.81 1729.38 1504.84 1729.38 1504.19C1729.38 1503.53 1730.69 1501.56 1732.19 1499.78C1733.78 1498.09 1736.03 1494.72 1737.25 1492.38C1738.47 1489.94 1740.53 1486.94 1741.84 1485.72C1743.25 1484.5 1744.56 1482.34 1744.84 1481.03C1745.12 1479.63 1746.72 1477 1748.31 1475.22C1749.91 1473.53 1752.16 1469.97 1753.38 1467.34C1754.5 1464.72 1756.19 1462 1757.03 1461.25C1757.88 1460.5 1759.56 1457.78 1760.78 1455.16C1761.91 1452.63 1763.78 1449.72 1764.81 1448.69C1765.94 1447.75 1767.44 1444.94 1768.28 1442.5C1769.12 1440.06 1770.62 1437.25 1771.66 1436.31C1773.91 1434.25 1777.19 1428.25 1777.19 1426.19C1777.19 1425.44 1778.41 1423.47 1780 1421.78C1781.5 1420.09 1783.66 1416.06 1784.69 1412.88C1785.81 1409.69 1787.41 1406.41 1788.44 1405.47C1789.47 1404.53 1791.06 1401.25 1792.19 1397.97C1793.22 1394.78 1795.09 1391.22 1796.31 1390.09C1797.53 1388.97 1799.22 1385.5 1800.06 1382.5C1800.91 1379.41 1802.69 1375.75 1803.91 1374.25C1805.12 1372.84 1806.81 1369.09 1807.66 1366.09C1808.59 1363 1810.47 1358.59 1811.97 1356.34C1813.47 1354 1815.16 1350.44 1815.62 1348.38C1816.19 1346.22 1817.97 1341.53 1819.75 1337.97C1821.53 1334.31 1823.41 1329.25 1824.06 1326.72C1824.62 1324.09 1826.31 1320.25 1827.81 1318C1829.22 1315.84 1831.09 1311.06 1831.94 1307.41C1832.69 1303.84 1834.47 1299.06 1835.78 1296.91C1837 1294.66 1838.78 1289.5 1839.62 1285.38C1840.47 1281.34 1842.16 1276.28 1843.38 1274.13C1844.59 1272.06 1846.47 1266.25 1847.5 1261.09C1848.53 1256.03 1850.31 1250.5 1851.34 1248.72C1852.56 1246.75 1853.97 1241.5 1855.09 1235.03C1856.12 1228.94 1857.81 1222.56 1859.12 1219.84C1860.44 1217.22 1861.94 1211.78 1862.5 1207.66C1864.09 1196.22 1865.31 1190.59 1867.19 1186.28C1868.12 1184.03 1869.72 1175.59 1870.84 1166.88C1871.97 1158.34 1873.66 1148.69 1874.69 1145.31C1876.47 1139.69 1878.06 1126.28 1880.12 1099.47C1880.78 1091.31 1881.34 1088.5 1882.47 1087.66C1883.97 1086.62 1884.06 1079.31 1884.06 1000.19C1884.06 929.406 1883.88 913.844 1882.84 913.469C1881.53 913 1880.78 907 1877.97 876.531C1877.12 868.094 1875.72 858.812 1874.69 855.437C1873.66 852.062 1871.97 842.5 1870.84 834.062C1869.53 823.844 1868.31 817.469 1867.09 815.125C1865.97 812.969 1864.47 806.219 1863.34 798.719C1862.03 789.719 1860.72 784.187 1858.75 779.687C1857.16 776.125 1855.94 772.281 1855.94 771.062C1855.84 766.844 1853.22 756.344 1850.97 751.375C1849.66 748.656 1847.88 742.844 1847.03 738.531C1846.19 734.219 1844.5 728.594 1843.19 726.062C1841.97 723.625 1840.19 718.281 1839.44 714.25C1838.59 710.125 1837 705.531 1835.59 703.562C1834.28 701.594 1832.41 696.625 1831.47 692.406C1830.34 687.812 1828.75 683.687 1827.44 682.094C1826.12 680.594 1824.62 676.75 1823.78 672.906C1822.94 669.25 1821.25 664.75 1819.94 662.781C1818.72 660.812 1816.94 656.875 1816.09 653.969C1815.34 651.062 1813.47 646.844 1811.97 644.5C1810.47 642.156 1808.59 637.75 1807.66 634.75C1806.81 631.75 1805.12 628.187 1803.91 626.875C1802.78 625.562 1801.09 622 1800.16 618.906C1799.31 615.812 1797.53 612.25 1796.31 610.937C1795.09 609.531 1793.41 606.344 1792.66 603.625C1791.81 601 1790.22 597.625 1788.91 596.125C1787.69 594.625 1785.62 590.594 1784.31 587.031C1783.09 583.562 1780.94 579.625 1779.62 578.219C1778.31 576.812 1777.19 575.125 1777.19 574.562C1777.19 572.594 1773.81 566.5 1771.66 564.625C1770.53 563.594 1769.22 561.25 1768.75 559.375C1768.28 557.5 1766.41 554.125 1764.72 551.781C1762.94 549.531 1760.97 546.156 1760.31 544.375C1759.66 542.594 1758.16 540.062 1757.03 538.75C1755.81 537.437 1753.94 534.531 1752.81 532.187C1751.69 529.844 1749.53 526.656 1748.12 525.156C1746.72 523.562 1745.22 521.312 1744.84 520C1744.47 518.687 1742.97 516.344 1741.47 514.844C1740.06 513.25 1738.19 510.437 1737.44 508.562C1736.59 506.594 1734.72 503.687 1733.22 502C1731.81 500.312 1729.84 497.594 1729 495.906C1728.16 494.312 1726.66 492.344 1725.53 491.5C1724.5 490.75 1722.62 488.125 1721.41 485.594C1720.28 483.156 1718.41 480.25 1717.19 479.219C1716.06 478.187 1714.38 475.844 1713.44 473.969C1712.5 472.187 1711 470.031 1710.06 469.281C1709.22 468.625 1707.44 466.281 1706.12 464.219C1704.81 462.156 1703.03 459.906 1702 459.25C1701.06 458.594 1699.66 456.812 1698.91 455.219C1697.59 452.781 1695.44 450.062 1685.59 438.625C1683.62 436.469 1681.66 433.937 1681.19 433C1680.72 432.156 1678.84 429.812 1676.97 427.937C1668.06 418.75 1665.62 416.031 1665.62 415.094C1665.62 414.531 1664.41 413.5 1662.81 412.656C1661.31 411.812 1660 410.5 1660 409.75C1660 408.906 1658.22 406.469 1656.06 404.219C1653.81 402.062 1645.94 393.812 1638.44 385.844C1622.5 369.062 1623.72 370.281 1610.78 358.281C1595.78 344.5 1592.41 341.313 1588.75 337.656C1586.97 335.875 1585 334.375 1584.44 334.375C1583.88 334.375 1581.72 332.594 1579.56 330.344C1574.69 325.375 1568.59 319.938 1562.78 315.344C1560.34 313.375 1555.75 309.719 1552.75 307.188C1549.66 304.563 1546.84 302.5 1546.38 302.5C1546 302.5 1543.84 300.813 1541.78 298.75C1539.62 296.688 1537.38 295 1536.72 295C1536.06 295 1534.47 293.781 1533.25 292.375C1532.03 290.875 1528.84 288.531 1526.12 287.031C1523.41 285.625 1521.25 284.031 1521.25 283.656C1521.25 283.188 1519.28 281.781 1516.84 280.375C1514.31 278.969 1510.75 276.344 1508.78 274.656C1506.91 272.969 1504.84 271.563 1504.19 271.563C1503.53 271.563 1501.75 270.344 1500.16 268.844C1498.66 267.344 1495.09 264.906 1492.38 263.594C1489.66 262.188 1487.12 260.5 1486.94 259.844C1486.66 259.188 1484.41 257.688 1482.06 256.563C1479.62 255.438 1476.62 253.563 1475.31 252.344C1474 251.125 1470.91 249.156 1468.28 248.031C1465.75 246.906 1463.03 245.125 1462.38 244.188C1461.62 243.156 1458.72 241.375 1455.81 240.063C1452.91 238.75 1449.62 236.969 1448.59 235.938C1447.56 235 1444.66 233.313 1442.03 232.188C1439.5 231.063 1436.31 229.188 1435 227.969C1433.69 226.75 1430.78 225.063 1428.53 224.313C1426.38 223.469 1423.28 221.781 1421.78 220.563C1420.38 219.344 1416.91 217.563 1414.19 216.625C1411.47 215.781 1408.09 214.094 1406.69 212.875C1405.28 211.75 1401.72 209.875 1398.81 208.75C1395.81 207.719 1392.25 205.75 1390.75 204.531C1389.25 203.219 1385.59 201.531 1382.69 200.688C1379.78 199.844 1376.5 198.438 1375.47 197.5C1372.75 195.063 1370.22 193.938 1365.16 192.813C1362.72 192.25 1358.97 190.563 1356.81 189.156C1354.75 187.656 1350.44 185.688 1347.34 184.844C1344.25 184 1340.22 182.313 1338.44 181.094C1336.66 179.875 1332.16 178 1328.41 176.969C1324.75 176.031 1320.53 174.25 1319.03 173.219C1317.62 172.188 1312.84 170.406 1308.44 169.281C1304.03 168.25 1298.97 166.375 1297.19 165.156C1295.31 163.844 1290.62 162.25 1286.41 161.313C1282.28 160.469 1277.12 158.781 1274.88 157.469C1272.72 156.25 1267.38 154.563 1263.16 153.719C1258.94 152.969 1252.75 151.094 1249.38 149.688C1246 148.188 1239.25 146.313 1234.38 145.469C1229.5 144.625 1223.22 142.938 1220.41 141.625C1217.12 140.125 1210.84 138.625 1203.06 137.5C1196.31 136.563 1188.81 134.875 1186.47 133.844C1183.66 132.531 1176.53 131.219 1166.31 129.906C1157.41 128.781 1148.41 127.094 1145.88 126.063C1142.78 124.844 1136.12 123.813 1125.72 122.875C1091.31 119.875 1089.06 119.594 1089.06 117.25C1089.06 116.125 1075.75 115.938 1001.97 115.938C918.156 115.938 914.875 116.031 914.5 117.625ZM1069.38 174.063C1073.22 174.625 1080.44 175.938 1085.31 176.875C1090.19 177.813 1098.62 178.844 1104.06 179.219C1121.31 180.25 1133.22 181.75 1138.47 183.531C1141.19 184.469 1146.91 185.688 1151.22 186.25C1168.75 188.688 1176.44 190.094 1178.97 191.313C1180.38 192.063 1187.12 193.75 1193.97 195.063C1200.91 196.375 1209.16 198.531 1212.34 199.844C1215.62 201.156 1221.62 202.656 1225.66 203.219C1229.78 203.781 1235.59 205.375 1239.06 206.875C1242.44 208.469 1248.53 210.344 1252.56 211.188C1256.69 211.938 1262.22 213.813 1265.03 215.313C1267.84 216.813 1273 218.5 1276.94 219.063C1281.72 219.906 1284.62 220.938 1286.5 222.438C1288.84 224.5 1293.53 226.188 1301.03 227.875C1302.34 228.156 1304.97 229.469 1306.94 230.781C1308.81 232.094 1313.22 233.781 1316.69 234.719C1320.16 235.563 1324.19 237.25 1325.59 238.469C1327.09 239.594 1330.66 241.281 1333.56 242.125C1336.47 242.969 1340.59 244.75 1342.66 246.25C1344.81 247.75 1348.94 249.625 1352.03 250.469C1355.03 251.406 1359.25 253.375 1361.31 254.875C1363.38 256.375 1366.84 258.063 1369.09 258.625C1371.34 259.188 1374.62 260.781 1376.5 262.281C1378.28 263.688 1381.75 265.656 1384.19 266.5C1386.62 267.438 1389.44 268.844 1390.47 269.688C1392.91 271.844 1397.97 274.375 1399.75 274.375C1400.5 274.375 1402.84 275.781 1404.91 277.563C1407.06 279.344 1410.81 281.5 1413.34 282.344C1415.88 283.188 1418.69 284.688 1419.62 285.813C1420.66 286.844 1423.28 288.625 1425.53 289.563C1427.78 290.594 1431.53 292.844 1433.78 294.625C1436.12 296.406 1438.56 297.813 1439.22 297.813C1439.97 297.813 1441.94 299.031 1443.62 300.531C1445.31 301.938 1448.88 304.281 1451.41 305.594C1454.03 306.813 1456.94 308.781 1457.88 309.906C1458.91 311.031 1461.53 312.719 1463.78 313.75C1466.03 314.688 1468.09 316.188 1468.38 317.031C1468.75 317.875 1470.91 319.469 1473.34 320.688C1475.69 321.906 1478.5 323.875 1479.53 325C1480.56 326.125 1483.38 328.094 1485.72 329.313C1488.16 330.531 1490.31 332.125 1490.59 332.875C1490.88 333.625 1492.75 335.125 1494.72 336.156C1496.69 337.094 1499.31 339.063 1500.62 340.469C1501.84 341.781 1504.38 343.844 1506.25 344.875C1508.03 346 1511.31 348.531 1513.47 350.5C1515.72 352.469 1517.78 354.062 1518.25 354.062C1518.72 354.062 1520.97 355.75 1523.22 357.812C1525.47 359.875 1528.66 362.687 1530.16 363.906C1536.25 368.969 1554.06 384.625 1562.97 392.781C1582.38 410.687 1589.69 417.906 1600 429.156C1604.41 434.031 1609.28 439.187 1610.88 440.781C1612.47 442.281 1616.59 446.969 1620.06 451.094C1623.44 455.219 1627.94 460.469 1630 462.812C1632.06 465.156 1635.06 468.531 1636.56 470.312C1638.16 472.094 1640.88 475.281 1642.66 477.344C1644.44 479.406 1646.88 482.406 1648 484.094C1649.22 485.687 1652.69 490.281 1655.78 494.312C1658.88 498.25 1662.44 503.125 1663.75 505.187C1665.06 507.156 1667.03 509.406 1668.25 510.25C1669.38 511 1670.97 513.156 1671.72 515.031C1672.47 516.812 1674.34 519.812 1675.94 521.5C1677.44 523.281 1679.59 526.375 1680.62 528.344C1681.56 530.312 1683.06 532.187 1683.91 532.469C1684.66 532.844 1686.34 535.375 1687.56 538.187C1688.78 540.906 1690.47 543.625 1691.22 544C1691.97 544.469 1693.75 547 1695.06 549.625C1696.47 552.344 1698.34 555.156 1699.38 556.094C1700.31 556.937 1701.62 559 1702.28 560.594C1702.94 562.281 1705 565.656 1706.97 568.281C1708.94 570.812 1710.81 574.187 1711.09 575.594C1711.47 577 1712.97 579.344 1714.28 580.75C1715.69 582.156 1717.66 585.344 1718.59 587.969C1719.62 590.5 1721.5 593.875 1722.81 595.469C1724.22 596.969 1726 600.344 1726.94 602.781C1727.88 605.219 1729.66 608.5 1730.88 610C1732.19 611.5 1733.78 614.781 1734.53 617.312C1735.28 619.844 1737.16 623.5 1738.75 625.469C1740.25 627.437 1742.03 630.719 1742.59 632.875C1743.16 634.937 1744.75 638.219 1746.25 640.094C1747.66 641.875 1749.81 646.375 1750.84 650.031C1751.88 653.594 1753.66 657.344 1754.59 658.187C1755.62 659.125 1757.31 662.687 1758.34 666.156C1759.38 669.625 1761.16 673.656 1762.28 675.062C1763.41 676.469 1765 680.406 1765.94 683.875C1766.78 687.344 1768.66 691.75 1769.97 693.719C1771.28 695.687 1773.06 700.281 1773.91 704.031C1774.75 707.875 1776.44 712.094 1777.84 713.969C1779.53 716.125 1780.84 719.781 1781.97 725.594C1782.91 730.281 1784.5 735.25 1785.44 736.562C1787.59 739.469 1789 743.594 1790.31 751.469C1790.88 754.75 1792.66 759.812 1794.16 762.625C1796.97 767.875 1797.62 772.844 1795.94 776.031C1794.91 777.812 1791.44 777.812 1574.31 777.812C1391.22 777.812 1353.53 778 1352.59 779.031C1352.03 779.781 1349.78 780.906 1347.62 781.562C1342.66 782.969 1335.16 790.656 1333.75 795.531C1330.84 805.937 1332.06 819.156 1336.28 823.094C1337.5 824.219 1339.56 826.75 1340.88 828.719C1342.19 830.687 1344.25 832.656 1345.47 833.125C1346.69 833.594 1348.38 835.281 1349.22 836.781C1349.97 838.375 1351.84 840.25 1353.34 841.094C1354.84 841.844 1356.34 843.344 1356.72 844.281C1357 845.312 1358.69 847 1360.38 848.031C1362.06 849.062 1363.94 851.031 1364.5 852.25C1365.06 853.562 1366.84 855.25 1368.34 856.094C1369.94 856.844 1371.91 858.812 1372.66 860.312C1373.41 861.812 1375.28 863.687 1376.78 864.531C1378.28 865.281 1379.88 866.781 1380.16 867.812C1380.53 868.937 1382.41 870.812 1384.38 872.031C1386.34 873.25 1388.22 875.125 1388.59 876.25C1388.88 877.281 1390.47 878.781 1391.97 879.531C1393.47 880.375 1395.34 882.25 1396.09 883.75C1396.84 885.25 1398.81 887.219 1400.31 887.969C1401.81 888.719 1403.69 890.594 1404.53 892.094C1405.28 893.594 1406.78 895.187 1407.81 895.469C1408.94 895.844 1410.81 897.719 1412.03 899.687C1413.25 901.656 1415.12 903.531 1416.25 903.906C1417.28 904.187 1418.78 905.781 1419.62 907.281C1420.38 908.781 1422.06 910.562 1423.38 911.125C1424.69 911.781 1426.38 913.469 1427.12 914.969C1427.97 916.375 1429.94 918.437 1431.62 919.469C1433.31 920.406 1435.19 922.281 1435.75 923.5C1436.31 924.719 1438.09 926.5 1439.59 927.437C1441.19 928.375 1442.78 929.969 1443.06 930.906C1443.34 931.844 1444.84 933.437 1446.44 934.375C1447.94 935.312 1450.09 937.375 1451.03 938.969C1451.97 940.562 1453.84 942.437 1455.16 943C1459.09 944.781 1458.81 945.437 1447.84 958.562C1442.41 965.031 1434.91 973.562 1430.12 978.625C1428.16 980.687 1426.56 982.75 1426.56 983.219C1426.56 984.062 1423.66 987.344 1415.78 995.312C1414 997.094 1412.5 998.969 1412.5 999.344C1412.5 999.812 1409.69 1002.91 1406.31 1006.37C1402.84 1009.84 1399 1014.16 1397.59 1015.94C1396.28 1017.72 1389.81 1025.31 1383.25 1032.81C1376.69 1040.31 1370.03 1047.91 1368.44 1049.69C1366.94 1051.47 1363.84 1055.03 1361.69 1057.47C1359.44 1059.91 1355.97 1063.84 1353.91 1066.19C1351.84 1068.53 1348.28 1072.47 1345.94 1075C1341.44 1079.97 1336.84 1085.22 1329.06 1094.22C1326.44 1097.31 1322.69 1101.53 1320.72 1103.69C1318.75 1105.75 1316.78 1108.37 1316.5 1109.41C1316.12 1110.44 1314.91 1111.75 1313.59 1112.31C1312.38 1112.87 1310.5 1115.03 1309.47 1117.09C1308.34 1119.16 1306.66 1121.03 1305.62 1121.41C1304.59 1121.78 1303.09 1123.19 1302.34 1124.69C1301.59 1126.09 1300 1128.16 1298.88 1129.09C1297.66 1130.03 1296.06 1131.81 1295.12 1133.13C1294.28 1134.44 1290.81 1138.38 1287.44 1142.03C1279.94 1149.91 1278.91 1151.69 1277.59 1158.91C1276.19 1166.69 1276.28 1170.53 1278.34 1177C1280.03 1182.44 1280.97 1183.56 1311.62 1214.31C1328.97 1231.84 1343.59 1246.47 1344.16 1247.03C1349.31 1252.09 1374.91 1277.78 1377.25 1280.31C1380.16 1283.41 1380.25 1283.88 1379.5 1287.44C1379.03 1289.59 1377.81 1292.13 1376.78 1292.97C1375.84 1293.91 1373.88 1298.22 1372.56 1302.44C1371.34 1306.66 1369.66 1310.69 1368.91 1311.25C1368.16 1311.91 1366.47 1315.84 1365.16 1320.06C1363.84 1324.19 1361.78 1329.16 1360.56 1331.03C1359.25 1332.91 1357.56 1337.13 1356.72 1340.31C1355.88 1343.59 1354.19 1347.53 1352.88 1348.94C1351.66 1350.44 1350.25 1353.44 1349.69 1355.59C1347.81 1362.91 1346.78 1365.44 1345.38 1366.66C1343.69 1368.06 1341.72 1372.47 1340.88 1376.97C1340.59 1378.84 1339.09 1382.22 1337.59 1384.47C1336.09 1386.72 1334.12 1391.31 1333.28 1394.69C1332.44 1398.06 1330.75 1402.28 1329.44 1404.16C1328.22 1405.94 1326.34 1410.25 1325.41 1413.63C1324.47 1417.09 1322.69 1421.13 1321.38 1422.72C1320.06 1424.22 1318.47 1427.78 1317.81 1430.5C1317.16 1433.22 1315.28 1437.81 1313.59 1440.63C1311.91 1443.44 1310.03 1448.03 1309.38 1450.66C1308.72 1453.38 1307.12 1457.03 1305.62 1458.81C1304.12 1460.78 1302.62 1464.25 1301.97 1467.53C1300.09 1477.19 1298.03 1477.66 1296.81 1468.84C1295.97 1462.75 1298.69 1426.84 1300.38 1420.75C1302.06 1414.84 1303.66 1394.31 1304.41 1370.03C1304.97 1350.63 1304.12 1345.75 1299.44 1342.66C1298.12 1341.81 1296.62 1340.13 1296.06 1338.81C1295.5 1337.59 1293.44 1335.63 1291.66 1334.5C1289.78 1333.38 1286.69 1331.03 1284.62 1329.25C1282.66 1327.47 1279.66 1325.5 1277.88 1324.75C1276.19 1324 1274.31 1322.69 1273.84 1321.66C1273.28 1320.72 1271.31 1318.94 1269.34 1317.81C1267.38 1316.69 1265.22 1314.91 1264.56 1313.97C1263.91 1312.94 1261.94 1311.53 1260.34 1310.69C1258.66 1309.84 1255.75 1307.69 1253.69 1305.91C1251.72 1304.13 1248.81 1302.06 1247.12 1301.41C1245.53 1300.75 1243.38 1299.25 1242.34 1298.13C1241.41 1297.09 1238.97 1295.22 1237 1294.19C1235.03 1293.06 1233.44 1291.84 1233.44 1291.38C1233.44 1291 1231.66 1289.41 1229.5 1287.81C1227.34 1286.22 1224.81 1283.69 1223.88 1282.09C1222.84 1280.5 1220.41 1278.53 1217.88 1277.5C1215.53 1276.47 1212.34 1274.69 1210.66 1273.38C1208.97 1272.16 1206.72 1270.84 1205.59 1270.56C1204.47 1270.19 1202.59 1268.78 1201.56 1267.47C1200.53 1266.16 1197.91 1264 1195.75 1262.59C1193.5 1261.19 1191.16 1259.31 1190.41 1258.38C1189.66 1257.44 1186.94 1255.66 1184.5 1254.44C1181.97 1253.13 1179.62 1251.44 1179.34 1250.69C1179.06 1249.94 1177.28 1248.53 1175.41 1247.59C1173.53 1246.56 1171.19 1244.88 1170.16 1243.75C1169.12 1242.63 1166.22 1240.28 1163.59 1238.59C1161.06 1236.91 1158.16 1234.66 1157.12 1233.63C1156.19 1232.5 1154.03 1231.19 1152.34 1230.63C1150.56 1230.06 1148.5 1228.56 1147.75 1227.34C1146.91 1226.03 1144.56 1224.16 1142.5 1223.13C1140.53 1222.09 1138.47 1220.69 1138.09 1219.94C1137.44 1218.72 1132.19 1214.88 1122.91 1208.78C1121.12 1207.66 1118.41 1205.41 1116.81 1203.81C1115.22 1202.22 1112.5 1200.16 1110.81 1199.31C1109.12 1198.47 1107.53 1197.16 1107.16 1196.41C1106.88 1195.66 1105.28 1194.16 1103.59 1193.13C1101.91 1192.09 1100.31 1190.59 1100.03 1189.94C1099.75 1189.19 1101.16 1186.75 1103.12 1184.5C1115.12 1171.09 1117 1168.75 1117.66 1166.97C1117.94 1165.94 1118.59 1165 1119.06 1165C1120 1165 1124.03 1161.06 1128.44 1155.72C1130.22 1153.56 1133.5 1150.09 1135.75 1147.94C1137.91 1145.78 1139.69 1143.63 1139.69 1143.16C1139.69 1142.69 1141.47 1140.44 1143.72 1138.28C1145.88 1136.03 1149.16 1132.56 1150.94 1130.41C1152.72 1128.25 1155.53 1125.16 1157.12 1123.47C1164.44 1115.69 1178.12 1100.22 1179.53 1098.16C1180.38 1096.84 1184.12 1092.72 1187.88 1088.87C1191.62 1085.12 1195 1081.09 1195.38 1080.06C1195.66 1078.94 1197.06 1077.53 1198.38 1076.78C1199.69 1076.12 1201.56 1073.97 1202.59 1072.09C1203.53 1070.12 1205.22 1068.34 1206.25 1067.97C1207.28 1067.69 1208.12 1067.03 1208.12 1066.56C1208.12 1065.81 1212.62 1060.56 1220.78 1051.84C1225.09 1047.25 1229.78 1042 1242.25 1027.66C1247.22 1021.94 1252.75 1015.84 1254.53 1014.06C1256.31 1012.28 1257.81 1010.31 1257.81 1009.75C1257.81 1009.19 1259.5 1007.41 1261.56 1005.72C1263.62 1004.12 1265.31 1002.25 1265.31 1001.69C1265.31 1001.12 1267.09 998.875 1269.34 996.719C1271.5 994.562 1274.88 990.906 1276.84 988.656C1278.72 986.406 1283.69 980.969 1287.81 976.562C1291.94 972.156 1297.28 965.687 1299.72 962.031C1304.12 955.656 1304.22 955.375 1304.59 947.219C1304.69 942.719 1304.59 937.469 1304.31 935.687C1303.47 931.562 1292.97 919.375 1287.25 916C1285 914.687 1282.66 912.719 1282.09 911.781C1281.62 910.844 1279.84 909.344 1278.25 908.5C1276.66 907.656 1273.75 905.5 1271.88 903.625C1269.91 901.656 1266.81 898.844 1264.94 897.344C1263.06 895.75 1259.41 892.562 1256.88 890.031C1254.34 887.594 1251.91 885.625 1251.53 885.625C1251.16 885.625 1248.72 883.75 1246.09 881.406C1243.56 879.062 1241.12 877.187 1240.75 877.187C1240.09 877.187 1236.72 874.375 1225.28 864.25C1223.03 862.375 1220.12 859.75 1218.72 858.437C1217.22 857.125 1214.59 855.062 1212.81 854.031C1211.03 852.906 1208.59 851.031 1207.56 849.812C1206.44 848.594 1202.69 845.312 1199.31 842.5C1195.84 839.687 1190.97 835.562 1188.34 833.312C1185.81 831.156 1183.38 829.375 1182.91 829.375C1182.53 829.375 1180.47 827.781 1178.31 825.812C1176.16 823.937 1172.59 820.75 1170.44 818.875C1168.19 817 1162.66 812.125 1157.97 808.094C1153.38 803.969 1147.66 799.375 1145.31 797.687C1142.97 796.094 1140.06 793.75 1138.84 792.437C1137.62 791.031 1136.12 790 1135.38 790C1134.72 790 1133.41 788.969 1132.56 787.656C1131.72 786.437 1127.97 783.719 1124.03 781.562L1117 777.812H661.562H206.031L204.906 775.75C203.406 772.844 204.531 765.437 207.156 760.75C208.469 758.5 210.156 753.156 211.094 748.844C211.938 744.531 213.625 738.906 214.938 736.375C216.25 733.844 218.125 728.406 219.156 724.281C220.188 720.25 221.969 715.469 223.188 713.687C224.406 711.906 226.094 707.594 226.938 704.031C227.875 700.562 229.562 696.062 230.781 694.187C232.094 692.312 233.875 687.812 234.812 684.25C235.75 680.594 237.531 676.562 238.562 675.156C239.688 673.75 241.469 669.719 242.5 666.156C243.531 662.687 245.406 658.562 246.625 657.062C247.938 655.656 249.531 652 250.375 648.906C251.125 645.906 253.094 641.594 254.688 639.344C256.375 637.094 258.062 633.719 258.625 631.844C259.094 629.969 260.688 626.875 262.188 625.094C263.594 623.219 265.469 619.656 266.219 617.219C267.062 614.781 268.75 611.5 270.062 610C271.281 608.5 273.062 605.219 274 602.781C274.844 600.344 276.531 597.25 277.75 595.937C278.875 594.625 280.75 591.25 281.875 588.437C283 585.625 284.875 582.25 286.094 580.937C287.312 579.625 289 576.906 289.844 574.844C290.688 572.781 292.375 570.062 293.594 568.75C294.812 567.437 296.594 564.531 297.625 562.187C298.656 559.844 300.156 557.312 301 556.562C301.938 555.906 303.625 553.281 304.938 550.75C306.156 548.312 308.406 544.937 309.906 543.156C311.406 541.469 313 538.937 313.281 537.531C313.656 536.125 315.156 533.969 316.562 532.75C318.062 531.531 320.219 528.531 321.531 526C322.844 523.469 324.812 520.562 325.938 519.531C327.062 518.5 328.75 516.156 329.781 514.281C330.719 512.406 332.125 510.625 332.875 510.344C333.625 510.062 335.125 508.187 336.156 506.219C337.094 504.25 339.062 501.625 340.469 500.312C341.875 499 343.562 496.844 344.312 495.437C345.062 494.031 347.594 490.75 349.844 488.125C352.188 485.5 354.062 483.062 354.062 482.594C354.062 482.219 355.562 480.25 357.344 478.187C359.125 476.219 362.219 472.656 364.094 470.406C366.062 468.156 369.438 464.5 371.688 462.156C373.844 459.906 375.625 457.75 375.625 457.375C375.625 457 377.219 455.031 379.094 452.875C381.062 450.812 385.188 446.219 388.281 442.75C391.375 439.187 397.469 432.625 401.875 428.125C406.281 423.625 410.312 419.406 410.781 418.844C413.875 415.469 431.219 399.156 454.375 377.781C455.688 376.562 457 375.625 457.375 375.625C457.75 375.625 460.094 373.75 462.531 371.406C464.969 369.062 468.812 365.594 471.062 363.625C473.219 361.75 476.5 358.75 478.188 357.062C479.969 355.469 481.844 354.062 482.406 354.062C482.969 354.062 485.5 352.187 488.125 349.844C490.75 347.594 494.031 345.063 495.531 344.219C497.031 343.469 499.094 341.875 500.031 340.656C500.969 339.438 503.406 337.375 505.469 336.063C507.531 334.75 509.875 332.969 510.531 332.125C511.281 331.188 513.25 329.969 514.844 329.313C516.438 328.656 518.969 326.875 520.562 325.469C522.062 324.063 525.25 321.906 527.594 320.781C529.938 319.563 532.375 317.875 533.125 317.031C533.781 316.188 535.938 314.688 537.719 313.75C539.594 312.813 541.938 311.125 542.969 310C544 308.875 547.469 306.719 550.656 305.219C553.75 303.719 556.562 301.844 556.844 301.094C557.125 300.438 559.375 298.938 561.906 297.813C564.344 296.688 567.438 294.813 568.75 293.594C570.062 292.375 572.969 290.594 575.312 289.563C577.656 288.531 580.281 286.844 581.312 285.813C582.25 284.688 585.156 283.094 587.688 282.25C590.219 281.406 593.688 279.531 595.281 278.125C596.969 276.719 599.875 275.031 601.75 274.469C603.625 273.813 606.719 272.125 608.688 270.531C610.562 269.031 614.5 267.156 617.219 266.313C620.031 265.469 623.688 263.688 625.281 262.188C626.969 260.781 630.25 259.094 632.5 258.438C634.844 257.875 638.312 256.094 640.281 254.5C642.25 252.906 646.094 251.125 648.719 250.375C651.344 249.719 655.281 247.844 657.438 246.25C659.594 244.75 661.75 243.438 662.219 243.438C664.844 243.438 673.094 240.25 675.344 238.375C676.75 237.156 680.312 235.656 683.312 235.094C686.219 234.438 690.438 232.75 692.688 231.25C694.938 229.75 699.812 227.875 703.562 227.031C707.781 226.094 711.438 224.594 713.219 223.094C715 221.5 718.281 220.281 722.5 219.438C726.062 218.781 731.875 217 735.344 215.406C738.812 213.906 744.906 212.031 748.844 211.188C757.281 209.5 758.781 208.938 761.875 206.688C763.281 205.75 768.156 204.438 774.062 203.594C780.625 202.563 785.781 201.25 789.531 199.375C792.625 197.875 797.312 196.469 799.844 196.094C808.188 195.063 818.781 192.719 824.031 190.938C826.844 189.906 835.469 188.313 843.25 187.281C850.938 186.25 859.375 184.563 861.812 183.625C866.688 181.75 868.562 181.469 895.656 179.219C904.938 178.469 916.75 176.875 921.906 175.844C927.531 174.625 937.094 173.594 946.562 173.125C968.312 172.094 1060.66 172.75 1069.38 174.063ZM1100.12 836.875C1107.72 841 1109.5 842.219 1113.16 845.781C1121.31 853.75 1124.59 856.562 1125.72 856.562C1126.38 856.562 1128.44 858.156 1130.41 860.031C1136.5 866.031 1151.31 878.594 1154.97 880.75C1158.06 882.625 1158.25 884.969 1155.44 886.937C1153.56 888.25 1105.84 888.437 668.594 888.437C402.062 888.437 183.438 888.062 182.781 887.687C182.125 887.312 181.281 886 180.906 884.875C179.688 881.781 181.281 868.281 183.438 862.187C184.469 859.375 185.875 853.094 186.625 848.312C188.5 836.219 189.344 835.187 197.219 834.812C200.781 834.625 404.5 834.625 650.125 834.812C1095.16 835 1096.66 835 1100.12 836.875ZM1646.5 835H1810.66L1811.78 837.437C1812.34 838.75 1813.47 844.375 1814.31 849.812C1815.16 855.344 1816.47 861.062 1817.31 862.656C1819.56 866.969 1821.16 882.156 1819.66 885.625L1818.53 888.437H1653.72C1512.53 888.437 1488.25 888.25 1484.41 887.031C1480.47 885.906 1477.28 883.094 1458.53 864.344C1444.75 850.562 1436.88 842.031 1436.5 840.437C1436.22 839.031 1435 837.344 1433.78 836.687C1432.09 835.656 1435.47 835.375 1455.16 835C1468.09 834.719 1479.44 834.531 1480.47 834.719C1481.5 834.812 1556.22 835 1646.5 835ZM1230.62 949.187L1232.03 953.125L1228.28 956.781C1224.25 960.719 1220.5 964.844 1206.72 980.781C1201.75 986.406 1196.31 992.781 1194.44 994.844C1192.56 996.906 1189.38 1000.56 1187.22 1003C1185.06 1005.44 1182.53 1008.16 1181.69 1009.09C1180.75 1010.03 1179.25 1011.53 1178.41 1012.47C1177.47 1013.41 1175.12 1015.94 1173.25 1018.09C1171.38 1020.25 1168.19 1023.72 1166.22 1025.78C1164.25 1027.84 1162 1030.47 1161.25 1031.5C1160.5 1032.62 1154.22 1039.84 1147.38 1047.44C1140.44 1055.12 1133.41 1063.09 1131.62 1065.16C1122.91 1075.28 1121.12 1077.34 1116.91 1081.84C1114.47 1084.56 1111 1088.41 1109.12 1090.47C1107.34 1092.53 1104.06 1096.19 1101.91 1098.53C1079.78 1122.72 1073.12 1130.31 1073.12 1131.34C1073.12 1131.72 1069.56 1135.56 1065.25 1139.88C1060.94 1144.19 1057.09 1148.69 1056.81 1149.81C1056.44 1150.84 1055.41 1152.06 1054.38 1152.34C1053.44 1152.63 1051.94 1154.03 1051.09 1155.44C1050.16 1156.84 1048.28 1159.19 1046.78 1160.78C1045.38 1162.28 1042.09 1165.75 1039.66 1168.28C1037.22 1170.91 1034.41 1174.28 1033.47 1175.78C1032.62 1177.38 1030.84 1180 1029.62 1181.69C1024.84 1188.16 1025.59 1202.41 1031.03 1208.41C1037.78 1215.91 1044.25 1221.81 1051.28 1226.78C1053.34 1228.28 1055.41 1230.06 1055.78 1230.53C1056.06 1231.09 1058.12 1232.5 1060.28 1233.53C1062.44 1234.66 1065.16 1236.72 1066.38 1238.22C1067.59 1239.72 1069.19 1240.94 1069.84 1240.94C1070.59 1240.94 1073.03 1242.53 1075.28 1244.41C1079.69 1248.16 1086.44 1253.31 1091.12 1256.41C1092.72 1257.44 1095.25 1259.5 1096.84 1260.91C1098.34 1262.31 1101.25 1264.38 1103.22 1265.41C1105.28 1266.34 1106.88 1267.66 1106.88 1268.13C1106.88 1268.59 1108.09 1270.47 1109.69 1272.16C1111.19 1273.94 1112.22 1275.63 1111.84 1276C1111.56 1276.28 910.938 1276.56 666.062 1276.56H220.938L216.625 1267.56C214.188 1262.41 211.656 1255.38 210.906 1251.34C210.062 1247.41 208.281 1241.69 206.781 1238.59C205.281 1235.31 203.781 1229.97 203.219 1225.66C202.656 1221.63 201.156 1215.72 199.938 1212.53C196.75 1204.28 196.844 1204.47 195.156 1194.34C194.219 1189.28 192.531 1181.97 191.219 1178.13C190 1174.28 188.125 1164.91 187.094 1157.22C186.062 1149.63 184.469 1141.28 183.438 1138.66C182.031 1135.19 181.094 1128.34 179.688 1110.72C178.656 1097.97 177.156 1085.12 176.406 1082.12C173.406 1070.59 172.844 1058.78 172.75 1006.09C172.656 977.219 172.938 952.469 173.312 951.062C174.906 945.719 136.375 946.094 702.812 945.625C990.25 945.344 1226.31 945.156 1227.34 945.156C1228.75 945.156 1229.59 946.281 1230.62 949.187ZM1821.44 946.75C1828 948.719 1827.91 948.437 1828.47 983.969L1829.03 1015.75L1813.19 1031.69C1804.47 1040.5 1796.78 1048.28 1796.03 1048.94C1795.38 1049.59 1793.31 1051.66 1791.62 1053.44C1789.84 1055.22 1787.97 1057.09 1787.41 1057.66C1786.84 1058.12 1783.47 1061.5 1779.91 1065.16C1776.34 1068.72 1773.06 1072 1772.69 1072.37C1772.03 1073.03 1735.47 1109.59 1733.59 1111.47C1733.12 1111.94 1727.78 1117.28 1721.88 1123.19C1715.97 1129.09 1710.72 1134.34 1710.16 1134.91C1709.03 1136.03 1688.5 1156.75 1685.97 1159.19C1685.12 1160.03 1683.25 1161.81 1681.94 1163.13C1680.62 1164.44 1677.72 1167.25 1675.66 1169.41L1671.81 1173.44L1673.88 1175.97C1675 1177.47 1677.06 1180.19 1678.28 1182.16C1679.59 1184.13 1681.75 1186.19 1682.97 1186.75C1684.28 1187.31 1686.16 1189.19 1687.19 1190.97C1688.22 1192.66 1690 1194.53 1691.31 1195.09C1692.53 1195.66 1694.03 1197.16 1694.59 1198.38C1695.16 1199.59 1696.84 1201.38 1698.44 1202.31C1699.94 1203.25 1702.19 1205.5 1703.41 1207.28C1705 1209.72 1706.31 1210.56 1708.75 1210.75C1714.19 1211.31 1718.97 1209.34 1721.03 1205.78C1722.06 1204 1723.75 1202.31 1724.78 1202.03C1725.81 1201.66 1727.69 1199.78 1728.91 1197.81C1730.12 1195.84 1732 1193.97 1733.12 1193.59C1734.16 1193.31 1735.66 1191.72 1736.41 1190.22C1737.25 1188.72 1739.12 1186.84 1740.62 1186.09C1742.12 1185.34 1744 1183.47 1744.84 1181.97C1745.59 1180.47 1747.09 1178.88 1748.12 1178.59C1749.25 1178.22 1751.12 1176.34 1752.34 1174.38C1753.56 1172.41 1755.44 1170.53 1756.47 1170.16C1757.5 1169.88 1759.19 1168.19 1760.22 1166.5C1761.25 1164.81 1763.22 1162.94 1764.53 1162.38C1765.84 1161.81 1767.44 1160.22 1768 1158.91C1768.56 1157.59 1770.44 1155.63 1772.12 1154.59C1773.81 1153.56 1775.5 1151.88 1775.78 1150.84C1776.16 1149.81 1778.03 1147.94 1780 1146.72C1781.97 1145.5 1783.84 1143.63 1784.22 1142.59C1784.5 1141.56 1786.19 1139.88 1787.97 1138.75C1789.75 1137.63 1791.44 1135.94 1791.72 1134.91C1792.09 1133.97 1793.59 1132.47 1795.09 1131.72C1796.59 1130.88 1798.38 1129.09 1799.22 1127.5C1799.97 1126 1801.75 1124.13 1803.25 1123.28C1804.66 1122.44 1806.72 1120.28 1807.94 1118.5C1809.06 1116.72 1810.66 1115.31 1811.41 1115.31C1812.16 1115.31 1813.84 1113.62 1815.16 1111.56C1817.69 1107.53 1818.53 1107.06 1820.22 1109.03C1821.72 1110.91 1819.84 1129.56 1817.41 1136.97C1816.38 1140.25 1814.5 1150.38 1813.28 1159.38C1811.97 1169.69 1810.47 1177.38 1809.25 1180C1808.22 1182.34 1806.44 1189.66 1805.31 1196.41C1804.09 1203.81 1802.41 1210.19 1801.09 1212.91C1799.78 1215.34 1798.19 1221.34 1797.34 1226.41C1796.41 1232.13 1795.09 1236.91 1793.59 1239.44C1792.38 1241.5 1790.88 1246.19 1790.31 1249.84C1789.66 1253.69 1787.69 1259.59 1785.62 1263.91C1783.56 1268.13 1781.5 1272.63 1781.03 1274.03L1780 1276.56L1613.97 1276.38L1447.84 1276.09L1444.28 1270.47C1442.31 1267.38 1439.78 1263.16 1438.66 1261.09C1436.88 1257.91 1435.09 1255.75 1427.69 1248.25C1426.66 1247.22 1404.53 1225.66 1401.34 1222.66C1400.88 1222.09 1395.53 1216.84 1389.62 1210.94C1383.72 1205.03 1378.09 1199.41 1377.16 1198.47C1365.16 1186.66 1350.62 1171.47 1350.62 1170.91C1350.62 1170.44 1349.41 1169.31 1347.81 1168.47C1344.34 1166.41 1344.34 1165.66 1347.62 1161.63C1351.47 1156.75 1368.06 1137.81 1371.62 1134.06C1373.31 1132.28 1375.28 1129.75 1375.94 1128.53C1376.97 1126.56 1380.44 1122.63 1386.06 1117.19C1386.81 1116.44 1388.12 1115.03 1388.97 1114.09C1389.81 1113.16 1392.06 1110.62 1393.94 1108.47C1395.91 1106.31 1399.66 1102 1402.28 1098.91C1408.28 1091.78 1415.41 1083.62 1417.09 1081.84C1417.75 1081.19 1419.72 1078.75 1421.5 1076.59C1426.38 1070.41 1430.41 1065.91 1434.81 1061.69C1436.97 1059.53 1438.75 1057.37 1438.75 1056.91C1438.75 1056.34 1440.34 1054.37 1442.31 1052.41C1444.19 1050.44 1447.38 1047.06 1449.34 1044.81C1451.22 1042.56 1454.59 1038.81 1456.84 1036.37C1459 1034.03 1462.66 1029.81 1465 1027.19C1467.34 1024.47 1471.47 1019.69 1474.19 1016.5C1476.91 1013.31 1480.75 1009 1482.62 1006.75C1484.5 1004.59 1487.88 1000.94 1489.94 998.687C1492.09 996.437 1494.16 993.812 1494.44 992.687C1494.81 991.562 1495.94 990.437 1496.97 990.156C1497.91 989.781 1499.31 988.469 1500.06 987.062C1500.81 985.656 1504.47 981.25 1508.31 977.312C1521.16 963.625 1523.22 960.906 1525.09 954.625C1526.69 949.187 1527.25 948.437 1530.44 947.219C1533.53 945.906 1550.31 945.719 1675.84 945.719C1783.38 945.625 1818.62 945.906 1821.44 946.75ZM1193.31 1335.06C1197.53 1336 1199.59 1337.13 1202.5 1340.22C1204.56 1342.28 1206.62 1344.06 1207.19 1344.06C1207.66 1344.06 1209.72 1345.47 1211.59 1347.25C1213.56 1348.94 1216.56 1351.09 1218.34 1352.03C1220.12 1352.88 1222.56 1354.84 1223.78 1356.34C1225.09 1357.84 1226.59 1359.06 1227.25 1359.06C1227.91 1359.06 1230.34 1360.66 1232.59 1362.63C1234.84 1364.59 1238.5 1367.31 1240.66 1368.72C1246.47 1372.38 1247.12 1375.47 1245.72 1391.59C1245.06 1398.72 1243.94 1407.25 1243.28 1410.63C1241.59 1418.88 1241.22 1423.28 1239.06 1457.78C1238.03 1474.09 1236.53 1490.97 1235.88 1495.28C1234.09 1505.59 1231.84 1528.47 1231.09 1542.81C1230.06 1564.28 1228.66 1580.69 1226.78 1591.09C1223.78 1607.88 1221.06 1660.56 1222.56 1672.47C1223.22 1677.53 1223.69 1678.38 1229.03 1683.91C1234.56 1689.63 1235.12 1689.91 1241.31 1691.03C1248.53 1692.25 1258.56 1691.59 1262.41 1689.63C1266.16 1687.56 1272.62 1681.28 1273.94 1678.19C1274.59 1676.69 1276.28 1673.59 1277.59 1671.25C1279 1668.91 1280.59 1664.78 1281.25 1662.06C1281.91 1659.34 1283.5 1655.78 1284.81 1654.28C1286.12 1652.69 1287.91 1648.66 1288.84 1645.28C1289.78 1641.91 1291.19 1638.44 1291.94 1637.59C1294 1635.16 1295.88 1630.84 1297.19 1625.5C1297.75 1622.88 1298.69 1620.34 1299.16 1620.06C1300.66 1619.22 1303.66 1612.56 1304.69 1607.97C1305.25 1605.53 1306.94 1601.78 1308.44 1599.63C1309.84 1597.56 1311.81 1593.06 1312.66 1589.69C1313.41 1586.41 1315 1582.75 1316.03 1581.63C1317.06 1580.5 1318.94 1576.28 1320.16 1572.34C1321.47 1568.31 1323.25 1564.09 1324.28 1563.06C1325.31 1561.94 1326.81 1558.38 1327.56 1555.09C1328.31 1551.81 1330.09 1547.5 1331.5 1545.34C1332.91 1543.28 1334.97 1538.41 1336.19 1534.56C1337.31 1530.72 1339.19 1526.69 1340.31 1525.47C1341.44 1524.34 1342.94 1520.88 1343.69 1517.88C1344.53 1514.78 1346.22 1510.75 1347.53 1508.69C1348.84 1506.72 1350.62 1502.22 1351.66 1498.66C1352.59 1495.19 1354.47 1490.78 1355.78 1488.81C1357.09 1486.94 1358.97 1482.44 1360.09 1478.78C1361.12 1475.13 1362.62 1471.56 1363.38 1470.91C1365.25 1468.94 1366.19 1466.97 1367.41 1461.72C1368.06 1459.09 1369.66 1455.44 1370.97 1453.56C1372.28 1451.59 1374.16 1447 1375.19 1443.34C1376.12 1439.59 1378 1435.38 1379.22 1433.88C1380.44 1432.47 1381.66 1430.5 1381.94 1429.66C1382.22 1428.72 1383.06 1425.44 1384 1422.34C1384.84 1419.25 1386.34 1415.78 1387.38 1414.66C1388.41 1413.53 1390.09 1409.78 1391.03 1406.31C1391.97 1402.84 1393.56 1399.09 1394.59 1398.06C1397.03 1395.25 1398.25 1392.81 1399.38 1387.56C1399.94 1385.03 1401.62 1381.09 1403.03 1378.75C1404.53 1376.41 1406.22 1372.38 1406.88 1369.66C1407.44 1366.94 1409.22 1362.91 1410.62 1360.75C1412.12 1358.5 1414 1354.28 1414.84 1351.38C1416.72 1344.81 1423.19 1334.88 1425.91 1334.22C1427.03 1333.94 1501.47 1333.84 1591.38 1333.94C1751.97 1334.22 1754.88 1334.22 1756.19 1336C1757.97 1338.44 1757.97 1338.25 1754.22 1344.06C1752.44 1346.88 1750.66 1350.53 1750.38 1352.31C1750 1354 1748.41 1357.47 1746.62 1359.91C1744.94 1362.44 1743.16 1366.09 1742.59 1368.16C1742.03 1370.22 1740.25 1373.5 1738.75 1375.47C1737.16 1377.44 1735.28 1381.28 1734.44 1384C1733.69 1386.72 1732.38 1389.44 1731.53 1390.19C1730.69 1390.84 1728.72 1394.13 1727.22 1397.5C1725.72 1400.88 1723.56 1404.63 1722.44 1405.94C1721.31 1407.25 1719.53 1410.16 1718.59 1412.5C1717.66 1414.84 1715.88 1417.75 1714.75 1419.06C1713.62 1420.38 1711.84 1423.47 1710.72 1426C1709.69 1428.44 1707.53 1431.91 1706.03 1433.59C1704.53 1435.38 1703.03 1438 1702.66 1439.5C1702.38 1441.09 1701.25 1443.06 1700.22 1444C1699.19 1444.94 1696.84 1448.41 1694.97 1451.59C1693.19 1454.88 1691.31 1457.5 1690.84 1457.5C1690.28 1457.5 1688.88 1459.84 1687.56 1462.66C1686.34 1465.56 1684.66 1468.09 1683.91 1468.38C1683.16 1468.66 1681.28 1471.28 1679.59 1474.19C1678 1477.19 1676.03 1479.91 1675.38 1480.28C1674.62 1480.66 1673.03 1483.09 1671.72 1485.53C1670.5 1488.06 1668.81 1490.31 1668.06 1490.59C1667.31 1490.88 1665.81 1492.75 1664.88 1494.72C1663.84 1496.69 1662.06 1499.13 1660.94 1500.16C1659.81 1501.19 1657.19 1504.47 1655.12 1507.38C1653.16 1510.38 1651.09 1512.81 1650.62 1512.81C1650.16 1512.81 1649.03 1514.22 1648.19 1515.81C1647.34 1517.5 1645 1520.78 1643.03 1523.13C1640.97 1525.47 1637.97 1528.94 1636.28 1531C1632.81 1535.13 1626.06 1542.63 1622.03 1546.84C1620.53 1548.53 1618.56 1550.78 1617.81 1551.91C1617.06 1552.94 1612.56 1558 1607.97 1562.97C1603.28 1568.03 1597.84 1573.94 1595.78 1576.19C1590.81 1581.53 1589.22 1583.22 1580.59 1591.56C1572.91 1598.97 1539.91 1628.69 1530.62 1636.56C1528.84 1638.16 1525.47 1640.97 1523.12 1642.94C1520.78 1645 1517.5 1647.34 1515.91 1648.38C1514.22 1649.31 1512.81 1650.44 1512.81 1650.81C1512.81 1651.19 1510.38 1653.16 1507.38 1655.13C1504.47 1657.19 1501.19 1659.81 1500.16 1660.94C1499.12 1662.06 1496.78 1663.75 1494.91 1664.78C1493.03 1665.72 1491.25 1667.13 1490.97 1667.88C1490.69 1668.63 1488.34 1670.31 1485.81 1671.63C1483.28 1672.94 1480.94 1674.53 1480.66 1675.28C1480.38 1675.94 1477.66 1677.91 1474.47 1679.59C1471.38 1681.19 1468.38 1683.44 1467.81 1684.38C1467.34 1685.31 1465.47 1686.53 1463.78 1687.09C1462 1687.75 1459.56 1689.25 1458.34 1690.56C1457.12 1691.88 1453.66 1694.22 1450.75 1695.72C1447.84 1697.22 1445.22 1698.81 1444.84 1699.38C1444.47 1699.94 1442.03 1701.44 1439.41 1702.75C1436.69 1704.16 1433.69 1705.94 1432.66 1706.97C1431.62 1707.91 1428.34 1709.69 1425.44 1711C1422.53 1712.31 1419.72 1714 1419.25 1714.84C1418.78 1715.69 1416.06 1717.38 1413.16 1718.59C1410.25 1719.72 1406.31 1722.06 1404.53 1723.66C1402.66 1725.25 1400.59 1726.56 1399.75 1726.56C1397.88 1726.56 1391.59 1729.84 1390.09 1731.63C1389.44 1732.38 1386.72 1733.69 1384 1734.44C1381.28 1735.28 1377.44 1737.16 1375.47 1738.75C1373.5 1740.25 1370.41 1741.94 1368.44 1742.5C1366.56 1742.97 1363.28 1744.66 1361.22 1746.16C1359.16 1747.66 1355.03 1749.53 1351.94 1750.47C1348.94 1751.31 1345.09 1753.09 1343.41 1754.31C1341.72 1755.53 1337.69 1757.41 1334.41 1758.44C1331.12 1759.47 1327.28 1761.16 1325.88 1762.28C1324.47 1763.41 1320.44 1765 1316.88 1765.94C1313.31 1766.88 1309.19 1768.47 1307.69 1769.59C1306.09 1770.72 1301.22 1772.59 1296.72 1773.91C1292.31 1775.22 1287.53 1777.09 1286.12 1778.13C1284.72 1779.16 1279.84 1780.84 1275.16 1781.88C1270.56 1783 1265.22 1784.88 1263.44 1786.09C1261.47 1787.41 1257.06 1788.91 1252.19 1789.84C1247.78 1790.59 1242.25 1792.38 1239.81 1793.59C1237.19 1795 1231.66 1796.5 1226.31 1797.34C1221.16 1798.19 1215.34 1799.78 1212.72 1801.09C1209.81 1802.59 1204.47 1804 1198.09 1804.94C1192.56 1805.78 1184.22 1807.66 1179.53 1809.16C1174.28 1810.94 1166.5 1812.53 1158.91 1813.38C1145.5 1814.97 1141.28 1815.72 1135.09 1817.97C1132.75 1818.72 1125.62 1819.84 1119.16 1820.31C1095.53 1822.19 1087.19 1823.22 1079.12 1825C1066.84 1827.72 1027.28 1829.13 983.125 1828.47C944.406 1827.81 925.469 1826.69 918.156 1824.53C913.562 1823.22 905.969 1822.28 880.938 1820.31C872.312 1819.66 866.219 1818.63 861.719 1817.03C858.156 1815.81 850.938 1814.31 845.781 1813.75C832.469 1812.25 825.625 1811.03 822.625 1809.44C820 1808.13 809.969 1805.97 800.312 1804.84C797.5 1804.47 792.625 1802.97 789.531 1801.47C785.969 1799.78 780.344 1798.28 774.062 1797.25C768.625 1796.41 763.188 1795 761.875 1794.06C758.688 1791.91 756.906 1791.34 748.281 1789.75C743.875 1788.91 739.281 1787.41 737.219 1786C735.156 1784.69 729.906 1782.81 725.031 1781.78C720.344 1780.75 715.75 1779.34 715 1778.69C712.469 1776.44 708.062 1774.66 702.812 1773.53C700 1772.97 695.875 1771.19 693.625 1769.69C691.375 1768.19 687.156 1766.5 684.25 1765.94C681.344 1765.28 677.031 1763.59 674.781 1762.09C672.531 1760.69 668.406 1758.72 665.5 1757.97C662.688 1757.13 659.031 1755.44 657.438 1754.22C655.844 1753 652 1751.31 648.906 1750.47C645.812 1749.53 641.875 1747.66 640 1746.16C638.219 1744.75 634.844 1743.06 632.5 1742.5C630.156 1741.94 626.781 1740.25 624.906 1738.75C623.125 1737.34 619.562 1735.47 617.125 1734.63C614.688 1733.78 611.312 1732.09 609.719 1730.88C608.031 1729.56 604.656 1727.69 602.125 1726.56C599.594 1725.53 596.5 1723.56 595.281 1722.34C593.969 1721.13 591.062 1719.44 588.625 1718.69C586.281 1717.84 583.188 1716.16 581.875 1715.03C580.562 1713.81 578.031 1712.22 576.25 1711.56C574.469 1710.91 571.375 1709.13 569.406 1707.63C567.438 1706.13 564.062 1704.06 561.906 1703.13C559.656 1702.09 557.031 1700.41 556 1699.28C555.062 1698.16 551.781 1696.09 548.875 1694.59C545.875 1693.09 543.438 1691.41 543.438 1690.84C543.438 1690.38 541.094 1688.88 538.281 1687.56C535.375 1686.34 532.844 1684.66 532.562 1683.91C532.188 1683.16 529.469 1681.19 526.375 1679.5C523.375 1677.91 520.469 1675.84 520 1675C519.531 1674.06 517.75 1672.84 516.062 1672.19C514.375 1671.44 511.281 1669.47 509.219 1667.78C497.688 1657.94 494.312 1655.31 493.656 1655.31C493.188 1655.31 490.75 1653.44 488.125 1651.09C485.5 1648.75 482.969 1646.88 482.406 1646.88C481.844 1646.88 479.969 1645.47 478.188 1643.78C476.5 1642.19 473.219 1639.19 471.062 1637.31C468.812 1635.34 465.062 1631.97 462.719 1629.81C460.281 1627.56 455.5 1623.44 452.031 1620.63C448.469 1617.81 441.812 1611.91 437.219 1607.5C432.531 1603.09 426.625 1597.56 424 1595.03C421.375 1592.59 418.562 1589.88 417.812 1589.03C417.062 1588.19 415.375 1586.59 414.156 1585.56C412.938 1584.44 411.438 1582.94 410.688 1582.19C410.031 1581.44 405.906 1577.13 401.688 1572.63C389.312 1559.59 387.438 1557.53 384.25 1553.41C382.562 1551.25 379.75 1547.88 377.875 1545.91C376.094 1543.94 373.188 1540.66 371.312 1538.59C369.531 1536.53 366.25 1532.88 364.094 1530.44C361.938 1528.09 358.656 1524.16 356.875 1521.72C355.094 1519.38 352.281 1515.81 350.688 1513.94C349.094 1512.06 346.562 1508.59 344.969 1506.25C343.375 1503.91 341.125 1501.19 340 1500.16C338.875 1499.13 337.094 1496.69 336.156 1494.81C335.219 1492.94 333.812 1490.97 333.062 1490.59C332.406 1490.22 331.188 1488.53 330.344 1487.03C329.594 1485.44 327.812 1483.19 326.406 1481.88C325 1480.56 322.656 1477.19 321.25 1474.38C319.75 1471.56 317.688 1468.66 316.656 1468C315.625 1467.44 314.031 1465.28 313.281 1463.31C312.438 1461.44 310.75 1458.81 309.625 1457.5C308.406 1456.19 306.344 1453 305.031 1450.38C303.719 1447.84 301.938 1445.03 301 1444.38C300.156 1443.63 298.656 1441.09 297.625 1438.84C296.688 1436.59 294.625 1433.31 293.219 1431.63C291.719 1429.94 290.219 1427.31 289.844 1425.72C289.562 1424.22 287.875 1421.5 286.188 1419.81C284.5 1418.13 282.625 1414.94 281.969 1412.78C281.406 1410.63 279.438 1407.16 277.656 1405C275.875 1402.84 274.375 1400.5 274.375 1399.75C274.375 1397.78 271.094 1391.5 269.312 1390.09C268.469 1389.34 267.156 1386.53 266.312 1383.72C265.469 1380.91 263.688 1377.25 262.188 1375.66C260.781 1373.97 259.094 1370.69 258.438 1368.44C257.781 1366.09 256.094 1362.53 254.594 1360.47C253.094 1358.5 251.219 1354.47 250.375 1351.47C249.531 1348.56 247.656 1344.81 246.156 1343.03C244.656 1341.25 243.438 1339.38 243.438 1338.81C243.438 1336.66 245.969 1334.78 249.531 1334.41C251.594 1334.22 463.562 1334.03 720.625 1333.94C1110.25 1333.84 1188.91 1334.03 1193.31 1335.06Z" fill="#336C7B"/>
<path d="M1102.37 254.781C1100.22 255.156 1097.31 256.094 1095.9 256.75C1092.62 258.344 1083.72 270.062 1082.5 274.281C1080.53 281.406 1081.84 290.125 1085.78 295.937C1087.09 297.719 1088.69 302.312 1089.53 306.062C1091.03 313.187 1091.97 315.531 1094.69 319.094C1095.62 320.312 1096.84 323.969 1097.5 327.344C1098.15 330.719 1099.65 334.937 1100.87 336.812C1102.09 338.594 1103.97 343.469 1105.09 347.781C1106.12 352 1108 357.25 1109.31 359.406C1110.53 361.562 1112.22 366.156 1112.97 369.719C1113.81 373.187 1115.22 377.125 1116.15 378.437C1119.06 382.562 1120 384.906 1121.03 390.344C1121.59 393.344 1123.19 397.844 1124.69 400.469C1126.19 403 1128.25 408.531 1129.37 412.656C1130.4 416.781 1132.09 421.281 1133.12 422.687C1134.15 424 1135.65 428.031 1136.5 431.594C1137.44 435.062 1139.5 440.594 1141.28 443.875C1142.97 447.156 1144.37 450.812 1144.37 452.031C1144.37 454.75 1146.9 461.875 1148.5 463.75C1149.25 464.5 1150.09 467.125 1150.47 469.562L1151.12 473.875L1146.15 474.531C1143.34 474.812 1043.97 475 925.186 474.812L709.373 474.531L707.217 472C706.092 470.687 703.748 468.812 702.155 468.062C700.467 467.219 699.061 466.094 699.061 465.625C699.061 464.406 687.342 452.5 686.217 452.5C685.655 452.5 683.592 451.281 681.623 449.875C679.561 448.375 676.655 446.875 675.155 446.5C673.561 446.031 632.498 445.75 583.748 445.844C496.842 446.031 495.155 446.031 492.811 447.906C491.498 448.844 489.342 450.156 487.936 450.719C483.717 452.406 477.061 461.031 475.936 466.281C475.28 469.281 474.998 496.562 475.186 547.187C475.467 618.531 475.561 623.781 477.155 626.969C479.311 631.281 482.592 634.375 489.53 638.781L495.155 642.344L822.436 642.625C1144.56 642.812 1149.72 642.812 1151.31 644.594C1153.28 646.75 1152.62 649.656 1148.12 659.219C1146.72 662.312 1144.84 668.031 1144 671.969C1143.15 675.812 1141.84 679.844 1141.19 680.875C1139.22 683.687 1136.87 692.406 1136.87 696.906C1136.87 699.156 1137.44 702.437 1138.19 704.219C1139.97 708.344 1146.34 717.062 1149.53 719.5C1155.15 723.906 1154.4 723.906 1233.9 723.906C1275.15 723.906 1310.87 723.531 1313.4 723.156C1319.31 722.125 1325.87 716.5 1329.34 709.562C1330.75 706.656 1332.34 703.844 1332.81 703.375C1333.37 702.812 1333.75 687.531 1333.75 662.969C1333.75 641.031 1334.22 617.875 1334.87 610.844C1335.44 604 1335.9 587.5 1336 574.375C1336.09 549.156 1334.97 537.531 1331.78 528.906C1330.84 526.281 1329.44 520.187 1328.59 515.219C1327.09 505.469 1325.87 501.437 1323.34 497.031C1322.4 495.437 1321 491.125 1320.15 487.375C1319.22 483.531 1317.62 479.5 1316.4 478C1315.28 476.594 1313.5 472.75 1312.56 469.469C1311.72 466.094 1309.84 462.156 1308.44 460.562C1307.12 458.969 1305.25 455.594 1304.31 453.062C1303.37 450.625 1301.59 447.719 1300.47 446.687C1299.25 445.656 1297.56 442.937 1296.72 440.687C1295.87 438.437 1294.37 436.094 1293.34 435.625C1292.4 435.062 1290.25 432.156 1288.75 429.062C1287.25 425.969 1285.09 423.062 1284.06 422.5C1283.03 421.937 1281.53 420.156 1280.69 418.469C1279.84 416.781 1277.78 414.062 1276.19 412.469C1274.59 410.781 1272.25 408.344 1270.94 407.031C1269.62 405.625 1268.22 404.125 1267.65 403.656C1267.19 403.094 1264.47 400.281 1261.84 397.375C1259.12 394.469 1255.94 391.094 1254.81 389.875C1251.53 386.5 1251.06 386.031 1246.56 381.156C1242.81 377.031 1238.97 373 1237 371.125C1236.62 370.75 1234.28 368.312 1231.84 365.687C1221.34 354.531 1192.56 324.437 1180 311.5C1172.5 303.812 1163.69 294.531 1160.31 290.969C1152.81 282.906 1138.37 267.812 1136.31 265.937C1135.56 265.187 1133.12 262.75 1130.97 260.594C1124.87 254.5 1114.37 252.344 1102.37 254.781ZM1200.9 417.062C1202.69 419.312 1208.78 425.781 1214.4 431.5C1219.94 437.219 1226.22 443.875 1228.28 446.312C1230.34 448.75 1233.34 452.031 1234.94 453.719C1236.53 455.406 1238.59 458.031 1239.44 459.719C1240.28 461.312 1241.69 463.281 1242.72 463.937C1243.65 464.594 1245.53 467.219 1246.84 469.844C1248.06 472.375 1250.03 475.281 1251.15 476.312C1252.19 477.25 1253.78 480.156 1254.62 482.875C1255.47 485.5 1257.34 489.344 1258.84 491.406C1260.25 493.469 1262.03 497.5 1262.87 500.406C1263.72 503.219 1265.4 507.156 1266.62 509.031C1268.22 511.281 1269.62 515.687 1270.84 522.062C1271.87 527.406 1273.56 533.594 1274.59 535.937C1277.4 542.219 1278.81 561.344 1278.06 582.625C1277.69 592.281 1277.22 614.5 1276.94 632.031C1276.65 649.562 1276.19 664.187 1275.81 664.562C1274.22 666.156 1258.94 667.094 1235.87 666.906C1211.69 666.719 1211.59 666.719 1210.19 664.562C1208.87 662.594 1208.97 661.656 1210.37 654.719C1211.31 650.5 1212.9 645.906 1213.84 644.5C1214.87 643.094 1216.28 639.156 1217.12 635.594C1217.87 632.125 1219.56 626.031 1220.87 622.094C1223.87 612.625 1223.78 609.719 1219.94 602.031C1216.28 594.906 1209.25 587.969 1204.19 586.469C1202.31 586 1072.56 585.625 868.561 585.531C592.186 585.531 535.842 585.25 534.342 584.219C532.748 583 532.655 580.75 532.655 544.375C532.655 507.25 532.748 505.75 534.436 504.437C536.03 503.312 545.873 503.125 595.655 503.125H654.905L658.28 506.125C660.061 507.812 664.936 512.594 669.155 516.625C677.405 524.687 684.998 529.844 690.998 531.344C693.53 531.906 780.998 532.187 947.498 532L1200.15 531.719L1207.65 527.312C1215.9 522.437 1216.47 521.781 1220.4 512.125C1223.59 504.437 1223.78 499.75 1221.34 494.875C1220.4 493 1218.9 488.406 1218.06 484.844C1217.12 481.187 1215.44 476.5 1214.12 474.344C1212.9 472.187 1211.12 467.406 1210.37 463.75C1209.53 460.094 1207.75 455.594 1206.44 453.625C1205.03 451.562 1203.34 446.969 1202.31 442.281C1201.28 437.312 1199.78 433.281 1198.28 431.312C1194.06 425.781 1192.75 413.125 1196.31 413.125C1196.97 413.125 1199.03 414.906 1200.9 417.062Z" fill="#336C7B"/>
<path d="M418.751 1015.84C415.095 1019.41 412.188 1022.87 412.188 1023.34C412.188 1023.91 410.876 1025.03 409.282 1025.78C407.688 1026.62 405.532 1028.78 404.501 1030.56C403.47 1032.34 402.157 1033.75 401.595 1033.75C401.126 1033.75 397.751 1036.84 394.188 1040.5C390.626 1044.25 387.438 1047.62 387.063 1048C386.688 1048.28 385.188 1049.87 383.595 1051.37C382.095 1052.97 380.407 1054.66 379.845 1055.12C378.626 1056.34 371.97 1063 370.751 1064.22C370.282 1064.69 368.688 1066.28 367.376 1067.69C365.97 1069 364.47 1070.59 363.907 1071.06C363.438 1071.62 361.751 1073.31 360.157 1074.91C356.595 1078.47 355.282 1079.78 351.532 1083.44C349.938 1085.12 348.157 1086.81 347.688 1087.37C347.126 1087.84 345.438 1089.53 343.938 1091.12C340.282 1094.78 340.095 1094.87 331.938 1103.12C328.001 1106.97 324.532 1110.53 324.063 1110.91C323.407 1111.56 314.032 1120.94 308.313 1126.75C307.751 1127.22 306.063 1128.91 304.563 1130.5C302.97 1132 301.376 1133.69 300.907 1134.16C300.532 1134.62 298.751 1136.12 297.157 1137.44C295.47 1138.75 294.063 1140.34 294.063 1140.91C294.063 1141.56 292.751 1142.78 291.251 1143.62C289.657 1144.56 287.688 1146.53 286.751 1148.03C285.907 1149.62 284.22 1151.31 283.001 1151.78C281.876 1152.34 280.001 1154.31 278.97 1156.09C277.845 1157.87 276.626 1159.37 276.063 1159.37C275.595 1159.37 272.501 1162.09 269.126 1165.37C262.845 1171.75 262.188 1173.53 264.438 1177.94C266.595 1181.97 296.22 1210.75 298.938 1211.41C300.532 1211.78 302.595 1211.41 304.938 1210.19C307.095 1209.06 332.032 1184.78 364.845 1151.87C395.782 1120.94 430.095 1086.62 441.063 1075.66C452.126 1064.69 462.157 1053.91 463.47 1051.66L465.907 1047.62L464.126 1044.25C462.157 1040.41 435.532 1013.69 431.876 1011.81C426.063 1008.72 425.688 1008.81 418.751 1015.84Z" fill="#336C7B"/>
<path d="M1006.38 1010.12C1005.53 1010.5 1001.5 1014.06 997.469 1018.09C993.438 1022.03 985.75 1029.72 980.313 1035.06C974.875 1040.41 966.156 1049.12 960.906 1054.47C955.656 1059.81 948.719 1066.84 945.438 1069.94C942.156 1073.12 936.906 1078.37 933.719 1081.66C930.438 1084.94 923.313 1092.16 917.781 1097.69C905.688 1109.59 905.031 1110.25 897.063 1118.5C893.594 1122.06 889.938 1125.62 889 1126.47C887.969 1127.31 882.906 1132.37 877.75 1137.72C864.906 1150.94 864.625 1151.22 862.563 1153C858.719 1156.28 843.438 1172.41 843.438 1173.16C843.438 1177.28 871.281 1207 878.781 1210.75C882.438 1212.62 882.625 1212.62 885.25 1211.03C886.75 1210.09 895.375 1201.84 904.375 1192.75C913.375 1183.56 923.688 1173.34 927.156 1169.87C954.25 1143.44 1044.72 1052.03 1045.66 1050.16C1046.78 1048.19 1046.69 1047.34 1045.47 1044.91C1042.19 1038.72 1010.88 1008.81 1008.25 1009.47C1008.06 1009.47 1007.22 1009.75 1006.38 1010.12Z" fill="#336C7B"/>
<path d="M617.031 1012.09C614.688 1013.5 490.844 1136.59 463.375 1164.81L455.031 1173.34L457.562 1176.25C458.875 1177.84 460 1179.63 460 1180.09C460 1181.03 479.312 1200.63 481.562 1202.13C482.406 1202.59 484.094 1204.47 485.5 1206.34C487.375 1208.88 488.969 1209.91 492.438 1210.66C497.781 1211.88 500.969 1210.75 503.125 1206.72C503.875 1205.31 505.656 1203.63 507.156 1202.88C508.562 1202.13 510.25 1200.44 510.812 1199.13C511.375 1197.91 513.25 1195.94 515.031 1194.91C516.719 1193.88 518.125 1192.56 518.125 1192.19C518.125 1191.72 522.906 1186.66 528.719 1181.03C534.438 1175.31 539.781 1170.06 540.531 1169.41C541.188 1168.66 546.531 1163.41 552.25 1157.69C557.969 1151.97 563.594 1146.34 564.812 1145.13C567.531 1142.31 568.75 1141.09 571.375 1138.56C575.5 1134.53 593.406 1116.53 595.375 1114.47C596.5 1113.34 598.656 1111.19 600.156 1109.69C601.75 1108.09 603.438 1106.41 603.906 1105.84C604.469 1105.28 609.531 1100.31 615.156 1094.69C620.875 1088.97 626.031 1083.81 626.781 1083.06C628.469 1081.28 633.344 1076.41 635.219 1074.63C636.062 1073.88 641.875 1067.97 648.25 1061.5C660.812 1048.66 661.75 1046.78 657.25 1042.66C655.938 1041.44 654.438 1040.03 653.875 1039.56C651.344 1036.94 639.625 1025.31 638.312 1024.09C637.375 1023.34 635.781 1021.75 634.656 1020.53C633.531 1019.31 631.844 1017.63 631 1016.78C630.156 1015.94 628.469 1014.16 627.25 1012.75C624.625 1009.84 621.062 1009.56 617.031 1012.09Z" fill="#336C7B"/>
<path d="M809.969 1011.44C808.75 1012 807.813 1012.84 807.813 1013.22C807.813 1013.88 802.094 1020.25 797.125 1025.22C794.5 1027.75 770.5 1051 769.469 1052.03C768.906 1052.5 767.219 1054.19 765.625 1055.78C764.125 1057.28 762.25 1059.25 761.406 1060C760.656 1060.75 757 1064.31 753.438 1067.97C749.875 1071.53 746.125 1075.28 745.281 1076.12C744.344 1077.06 736.469 1085.12 727.656 1094.12C708.625 1113.62 711.156 1111.09 700.375 1121.41C695.594 1126 691.094 1130.41 690.438 1131.06C689.781 1131.72 680.219 1141.28 669.344 1152.34C658.375 1163.41 649.375 1173.06 649.375 1173.91C649.375 1175.59 652.656 1179.16 666.438 1192.94C667.938 1194.53 669.531 1196.12 670 1196.59C671.313 1197.91 676.656 1203.16 678.063 1204.47C678.813 1205.22 680.594 1207.19 682.094 1208.97L684.719 1212.16L689.219 1210.94C693.438 1209.72 698.781 1204.56 771.344 1131.81C862.469 1040.41 853.75 1049.22 853.75 1047.81C853.75 1045.94 847.375 1038.81 833.969 1025.78C832.844 1024.75 829.281 1021.09 826 1017.53C822.063 1013.41 819.344 1011.25 817.938 1011.25C816.719 1011.25 814.938 1011.06 813.906 1010.78C812.875 1010.59 811.094 1010.88 809.969 1011.44Z" fill="#336C7B"/>
<path d="M1611.44 1011.81C1610.22 1012.66 1608.91 1014.34 1608.44 1015.56C1607.87 1016.78 1606.47 1018.28 1605.16 1018.75C1603.84 1019.22 1602.06 1020.81 1601.22 1022.22C1600.37 1023.72 1598.41 1025.69 1596.81 1026.72C1595.22 1027.75 1593.34 1029.81 1592.69 1031.22C1592.03 1032.63 1590.25 1034.41 1588.75 1035.16C1587.25 1035.91 1585.84 1037.41 1585.47 1038.44C1585.09 1039.47 1583.59 1040.97 1582.09 1041.81C1580.5 1042.56 1578.53 1044.53 1577.59 1046.03C1576.56 1047.63 1574.5 1049.78 1572.91 1050.72C1571.31 1051.66 1569.53 1053.53 1568.97 1054.75C1568.41 1055.97 1566.91 1057.47 1565.69 1058.03C1564.37 1058.59 1562.59 1060.47 1561.56 1062.16C1560.53 1063.94 1558.66 1065.81 1557.34 1066.38C1556.12 1066.94 1554.44 1068.63 1553.69 1070.03C1552.94 1071.53 1551.25 1073.31 1549.84 1074.06C1548.44 1074.81 1546.75 1076.59 1546 1078.09C1545.25 1079.5 1543.56 1081.09 1542.25 1081.56C1541.03 1082.03 1539.16 1083.91 1538.12 1085.59C1537.09 1087.38 1535.12 1089.34 1533.81 1090C1532.5 1090.75 1530.81 1092.53 1530.06 1093.94C1529.31 1095.34 1527.53 1097.13 1526.03 1097.97C1524.53 1098.72 1522.94 1100.22 1522.66 1101.34C1522.28 1102.38 1520.78 1104.06 1519.19 1105C1517.69 1105.94 1515.62 1108 1514.59 1109.59C1513.66 1111.09 1511.69 1113.06 1510.09 1113.81C1508.59 1114.66 1507 1116.16 1506.72 1117.19C1506.34 1118.31 1504.47 1120.19 1502.5 1121.41C1500.53 1122.63 1498.66 1124.5 1498.28 1125.63C1498 1126.66 1496.41 1128.16 1494.91 1129C1493.41 1129.75 1491.62 1131.44 1491.06 1132.66C1490.5 1133.97 1488.62 1135.84 1486.84 1136.88C1485.16 1137.91 1483.28 1139.78 1482.81 1141C1482.34 1142.31 1480.66 1144 1479.16 1144.84C1477.56 1145.59 1475.59 1147.56 1474.84 1149.06C1474.09 1150.56 1472.59 1152.25 1471.56 1152.81C1469.03 1154.13 1459.37 1163.88 1459.37 1165C1459.37 1165.47 1457.78 1166.97 1455.72 1168.19C1453.75 1169.5 1451.87 1171.38 1451.59 1172.31C1451.12 1174.28 1454.03 1180 1455.53 1180C1456 1180 1457.22 1181.5 1458.34 1183.28C1459.37 1185.06 1461.25 1187.03 1462.56 1187.59C1463.78 1188.16 1465.28 1189.66 1465.84 1190.88C1466.41 1192.09 1468.19 1193.97 1469.78 1194.91C1471.37 1195.84 1473.53 1198 1474.47 1199.59C1475.41 1201.19 1477.19 1202.97 1478.41 1203.53C1479.53 1204 1481.22 1205.69 1482.06 1207.28C1484.59 1211.59 1487.5 1212.44 1492.75 1210.47C1495.09 1209.53 1497.81 1207.94 1498.66 1206.91C1499.5 1205.88 1501.19 1204.09 1502.31 1203.06C1504.75 1201 1510.37 1195.38 1525.66 1179.81C1544.22 1161.16 1547.41 1157.97 1549.28 1156.09C1550.41 1155.06 1552.56 1152.91 1554.06 1151.41C1555.66 1149.81 1557.25 1148.13 1557.81 1147.66C1558.28 1147.09 1559.69 1145.69 1560.81 1144.47C1562.03 1143.25 1564 1141.38 1565.22 1140.25C1566.44 1139.22 1568.22 1137.44 1569.25 1136.41C1573.37 1132.19 1590.06 1115.41 1595.97 1109.5C1599.53 1106.03 1603.19 1102.28 1604.31 1101.06C1605.34 1099.84 1606.94 1098.25 1607.78 1097.5C1608.62 1096.75 1610.31 1095.06 1611.62 1093.75C1612.94 1092.44 1616.69 1088.78 1619.87 1085.59C1623.16 1082.41 1626.62 1078.84 1627.75 1077.63C1628.78 1076.41 1630.37 1074.81 1631.12 1074.06C1631.97 1073.31 1635.91 1069.38 1639.84 1065.34C1643.78 1061.41 1647.44 1058.13 1647.81 1058.13C1648.28 1058.13 1648.84 1057.38 1649.12 1056.44C1649.41 1055.59 1651.09 1053.25 1652.87 1051.19L1656.16 1047.53L1653.16 1043.88C1651.47 1041.81 1643.87 1033.84 1636.28 1026.06C1625.22 1014.81 1621.66 1011.81 1618.94 1011.16C1614.25 1010.03 1613.87 1010.13 1611.44 1011.81Z" fill="#336C7B"/>
<path d="M366.625 1389.53L364.281 1391.87L364.562 1416.34L364.844 1440.81L367.375 1442.97C369.062 1444.37 371.781 1445.41 375.156 1445.78C379 1446.34 381.625 1447.37 384.812 1449.62C387.25 1451.41 390.531 1453.66 392.031 1454.69C393.625 1455.72 395.875 1457.78 397 1459.37C398.219 1460.87 399.625 1462.19 400.188 1462.19C400.844 1462.19 403.094 1463.97 405.25 1466.12C407.406 1468.37 411.062 1471.75 413.219 1473.72C415.469 1475.69 419.125 1478.87 421.375 1480.84C423.625 1482.81 427.094 1484.97 429.25 1485.72C431.312 1486.37 434.5 1488.06 436.281 1489.47C438.25 1491.06 441.625 1492.47 444.812 1493.12C447.719 1493.69 452.875 1495.28 456.25 1496.59C461.594 1498.75 463.938 1499.12 475.938 1499.5C490.188 1499.87 495.531 1499.22 504.062 1496.03C506.875 1495 511.656 1493.69 514.562 1493.12C517.844 1492.47 521.219 1491.06 523.281 1489.37C525.156 1487.87 527.875 1486.47 529.281 1486.09C530.781 1485.81 533.594 1484.12 535.562 1482.44C537.625 1480.84 540.625 1478.41 542.406 1477.19C545.125 1475.31 549.25 1471.47 563.125 1458.16C564.906 1456.37 567.719 1454.31 569.406 1453.47C571 1452.62 572.969 1451.03 573.719 1449.91C575.688 1447.09 583.75 1445.31 595 1445.12C606.625 1444.94 613.75 1446.81 617.312 1451.03C618.531 1452.53 620.125 1453.75 620.781 1453.75C621.531 1453.75 623.969 1455.53 626.312 1457.69C628.656 1459.94 631.281 1462.37 632.219 1463.22C633.156 1464.06 634.562 1465.37 635.312 1466.12C641.031 1472.03 646.656 1477.19 647.406 1477.19C647.969 1477.19 650.5 1479.06 653.125 1481.41C655.75 1483.75 659.031 1485.91 660.438 1486.19C661.844 1486.56 664.469 1488.06 666.25 1489.47C668.5 1491.25 671.781 1492.56 676.562 1493.59C680.406 1494.34 685.469 1495.84 687.812 1496.87C698.688 1501.47 708.438 1499.87 710.312 1493.22C710.781 1491.34 711.25 1480.28 711.25 1468.56V1447.37L708.438 1445.03C706.938 1443.72 704.688 1442.31 703.562 1442.03C702.344 1441.66 698.406 1439.97 694.656 1438.19C691 1436.41 687.438 1435 686.781 1435C686.125 1435 684.062 1433.41 682.094 1431.44C680.219 1429.56 677.875 1427.31 677.031 1426.47C676.094 1425.62 674.312 1423.84 672.906 1422.44C671.594 1421.12 668.781 1418.59 666.719 1416.72C664.656 1414.94 661.188 1411.75 658.938 1409.69C656.781 1407.62 653.125 1405 650.969 1403.97C648.812 1402.84 646 1400.97 644.781 1399.75C643.562 1398.53 640.844 1397.03 638.688 1396.47C636.625 1395.91 632.594 1394.12 629.781 1392.62C623.688 1389.16 611.406 1387.28 595 1387.19C577.938 1387.19 568.469 1388.59 560.781 1392.34C557.219 1394.12 552.531 1396 550.469 1396.66C548.406 1397.22 545.312 1399 543.625 1400.41C541.938 1401.91 539.219 1403.78 537.531 1404.62C535.938 1405.47 533.125 1407.53 531.438 1409.12C529.844 1410.72 526.469 1413.72 524.125 1415.78C521.781 1417.84 518.031 1421.22 515.875 1423.37C513.812 1425.44 510.906 1427.87 509.5 1428.72C508.188 1429.56 506.781 1431.06 506.406 1432C506.125 1433.22 503.781 1434.53 500.031 1435.94C496.844 1437.06 493 1438.84 491.406 1439.97C489.062 1441.66 487.281 1442.03 480.156 1442.03C472.844 1442.03 471.062 1441.66 467.031 1439.59C464.5 1438.19 461.312 1436.78 460.094 1436.41C458.781 1436.03 452.219 1430.78 445.469 1424.78C425.969 1407.53 421.75 1404.06 420.719 1404.06C420.156 1404.06 418.094 1402.66 416.125 1400.87C414.062 1399 410.5 1397.03 407.312 1396.09C404.406 1395.25 401.031 1393.84 399.812 1392.91C396.719 1390.56 395.312 1390.09 384.906 1388.59C371.781 1386.62 369.438 1386.72 366.625 1389.53Z" fill="#336C7B"/>
<path d="M807.905 1389.63C805.842 1392.25 805.842 1392.72 806.123 1416.34C806.405 1440.44 806.405 1440.53 808.655 1442.88C810.155 1444.47 811.936 1445.31 813.905 1445.31C818.405 1445.31 826.842 1448.13 828.248 1450.09C828.905 1451.13 830.873 1452.53 832.467 1453.38C834.155 1454.22 836.967 1456.47 838.842 1458.34C847.186 1466.78 857.592 1476.25 859.561 1477.28C860.78 1477.84 863.03 1479.53 864.53 1481.03C866.123 1482.44 869.498 1484.59 872.03 1485.72C874.655 1486.84 877.655 1488.72 878.78 1489.84C880.186 1491.16 883.561 1492.47 888.342 1493.5C892.467 1494.44 897.998 1496.03 900.811 1497.06C907.936 1499.88 933.623 1500.63 939.998 1498.28C942.342 1497.44 948.53 1495.56 953.873 1494.16C960.717 1492.28 964.186 1490.88 966.061 1489.09C967.561 1487.69 969.248 1486.56 969.905 1486.56C973.373 1486.56 983.03 1479.16 997.373 1465.47C999.811 1463.13 1002.25 1461.25 1002.72 1461.25C1003.28 1461.25 1004.31 1460.03 1005.15 1458.44C1005.9 1456.94 1007.97 1454.97 1009.65 1454.13C1011.25 1453.28 1013.97 1451.41 1015.65 1449.91C1019.5 1446.53 1027.09 1445.03 1038.44 1445.22C1048.09 1445.41 1056.62 1447.28 1057.47 1449.44C1057.75 1450.19 1059.44 1451.5 1061.12 1452.34C1062.81 1453.28 1065.72 1455.34 1067.5 1457.13C1076.59 1466.03 1086.62 1474.94 1090.65 1477.84C1093.09 1479.53 1095.44 1481.59 1095.81 1482.34C1096.28 1483 1098.53 1484.31 1101.06 1485.25C1103.5 1486.09 1106.31 1487.59 1107.34 1488.44C1110.53 1491.25 1114.65 1492.94 1120.94 1494.06C1124.22 1494.63 1128.53 1495.94 1130.5 1496.97C1132.65 1498.09 1137.06 1499.03 1141.47 1499.41C1148.59 1499.97 1148.97 1499.88 1151.31 1497.53C1152.9 1495.94 1153.75 1493.97 1153.84 1492C1153.84 1490.31 1153.94 1479.53 1153.94 1468C1153.94 1447.75 1153.84 1447 1151.87 1444.84C1150.75 1443.72 1148.5 1442.41 1146.9 1442.13C1141.94 1441.09 1127.12 1433.41 1123.19 1429.84C1121.22 1428.06 1117.75 1424.97 1115.59 1423C1113.34 1421.13 1110.62 1418.5 1109.5 1417.28C1104.25 1411.94 1096.56 1405.56 1093.75 1404.34C1092.44 1403.78 1089.62 1401.91 1087.47 1400.03C1085.22 1398.25 1082.03 1396.47 1080.44 1396.09C1078.75 1395.72 1075.28 1394.22 1072.65 1392.81C1065.53 1388.78 1058.12 1387.75 1037.03 1387.75C1016.78 1387.75 1010.03 1388.69 1002.62 1392.44C1000.19 1393.66 995.873 1395.53 992.967 1396.66C990.155 1397.69 987.248 1399.38 986.592 1400.31C985.936 1401.25 983.78 1402.66 981.811 1403.5C977.967 1405.09 972.342 1409.78 960.717 1421.13C956.592 1425.06 952.467 1428.53 951.436 1428.81C950.498 1429.19 949.186 1430.31 948.53 1431.53C947.873 1432.75 943.655 1435.38 937.842 1438.19C928.373 1442.69 928.186 1442.69 920.78 1442.22C914.498 1441.84 912.061 1441.19 905.592 1438C901.373 1435.94 896.405 1432.84 894.623 1431.16C892.842 1429.38 889.28 1426.09 886.655 1423.75C880.092 1417.94 875.311 1413.53 870.998 1409.59C869.03 1407.72 865.467 1405.19 863.123 1404.06C860.78 1402.84 857.967 1400.97 856.936 1399.75C855.811 1398.63 852.623 1396.94 849.905 1396.19C847.186 1395.34 843.342 1393.56 841.467 1392.25C837.811 1389.81 833.03 1388.78 818.03 1387.66C809.967 1387 809.967 1387 807.905 1389.63Z" fill="#336C7B"/>
<path d="M726.625 1609.75C724.938 1610.5 723.344 1611.62 722.969 1612.19C722.594 1612.84 722.312 1622.5 722.312 1633.66C722.406 1664.5 722.031 1661.59 725.5 1663.75C727.094 1664.69 731.313 1666 734.781 1666.56C738.719 1667.22 741.719 1668.34 742.75 1669.47C743.594 1670.41 746.219 1672.28 748.375 1673.59C750.625 1674.91 752.5 1676.31 752.5 1676.69C752.5 1677.06 756.156 1680.53 760.563 1684.38C764.969 1688.22 769.75 1692.53 771.063 1693.84C772.469 1695.16 775.375 1697.41 777.625 1698.81C779.875 1700.22 781.844 1701.91 782.125 1702.66C782.406 1703.31 784.656 1704.81 787 1705.94C789.438 1707.16 792.531 1709.03 793.938 1710.16C795.438 1711.38 799.469 1712.97 803.219 1713.91C806.875 1714.66 811.469 1716.16 813.344 1717.09C818.5 1719.81 826.563 1720.94 839.594 1720.94C851.875 1720.94 862.375 1719.25 866.125 1716.81C867.344 1716.06 871.281 1714.75 874.844 1713.91C878.969 1712.97 882.625 1711.47 884.781 1709.69C886.656 1708.28 889.656 1706.41 891.531 1705.66C893.313 1704.81 895.563 1703.22 896.313 1701.91C897.156 1700.69 898.938 1699.19 900.25 1698.53C903.156 1697.22 910.563 1691.03 920.219 1681.75C924.156 1677.91 928.844 1674.06 930.625 1673.12C932.406 1672.19 934.656 1670.59 935.594 1669.56C939.344 1665.44 961.563 1664.31 969.156 1667.88C975.344 1670.78 982.844 1676.5 994.188 1687C1007.78 1699.38 1013.59 1704.06 1018.56 1706.5C1021 1707.72 1024.09 1709.59 1025.41 1710.72C1026.81 1711.75 1030.75 1713.25 1034.31 1714C1037.88 1714.75 1042.94 1716.44 1045.66 1717.75C1049.13 1719.53 1052.59 1720.28 1057.84 1720.66C1064.41 1721.12 1065.34 1720.94 1067.31 1719.16C1069.66 1716.81 1069.56 1718.69 1069.56 1689.53L1069.47 1667.03L1067.22 1665.06C1065.91 1663.94 1062.91 1662.72 1060.56 1662.44C1058.22 1662.06 1055.13 1660.84 1053.72 1659.62C1052.22 1658.5 1049.31 1656.81 1047.06 1655.78C1044.81 1654.84 1042.75 1653.53 1042.38 1652.97C1041.63 1651.75 1021 1633.09 1014.53 1627.84C1012.09 1625.97 1009.56 1624.38 1008.81 1624.38C1008.06 1624.38 1005.81 1622.88 1003.75 1621C1001.31 1618.75 998.219 1617.16 994.656 1616.22C991.656 1615.47 987.531 1613.88 985.469 1612.66C980.219 1609.56 971.969 1608.44 953.5 1608.44C935.594 1608.44 929.406 1609.28 923.031 1612.56C920.594 1613.78 916.281 1615.47 913.469 1616.31C910.563 1617.16 907.094 1618.84 905.594 1620.06C904.188 1621.28 901.281 1623.06 899.219 1624.19C897.156 1625.22 894.438 1627.19 893.125 1628.59C891.813 1630 889.656 1631.69 888.25 1632.44C886.844 1633.19 884.969 1635.06 884.219 1636.56C883.375 1638.16 882.156 1639.38 881.5 1639.38C880.844 1639.38 876.906 1642.56 872.875 1646.5C868.75 1650.44 863.219 1654.84 860.594 1656.25C857.875 1657.75 854.5 1659.81 853.188 1660.84C850.938 1662.62 849.438 1662.81 839.219 1662.81C829.469 1662.81 827.406 1662.53 825.531 1661.03C824.313 1660.09 820.938 1658.12 818.125 1656.62C813.063 1654 810.531 1651.94 801.344 1642.84C798.813 1640.41 796.375 1638.44 795.906 1638.44C795.438 1638.44 794.5 1637.41 793.75 1636.19C793.094 1634.88 791.313 1633.38 789.813 1632.72C788.313 1632.16 786.25 1630.38 785.125 1628.88C784.094 1627.28 781.656 1625.41 779.875 1624.66C778.094 1623.91 775 1622.03 773.125 1620.53C771.156 1618.94 766.938 1616.88 763.656 1615.84C760.375 1614.81 755.5 1612.94 752.875 1611.62C746.875 1608.72 731.313 1607.5 726.625 1609.75Z" fill="#336C7B"/>
</g>
<defs>
<filter id="filter0_d_3884_2219" x="-4" y="0" width="2008" height="2008" filterUnits="userSpaceOnUse" color-interpolation-filters="sRGB">
<feFlood flood-opacity="0" result="BackgroundImageFix"/>
<feColorMatrix in="SourceAlpha" type="matrix" values="0 0 0 0 0 0 0 0 0 0 0 0 0 0 0 0 0 0 127 0" result="hardAlpha"/>
<feOffset dy="4"/>
<feGaussianBlur stdDeviation="2"/>
<feComposite in2="hardAlpha" operator="out"/>
<feColorMatrix type="matrix" values="0 0 0 0 0 0 0 0 0 0 0 0 0 0 0 0 0 0 0.25 0"/>
<feBlend mode="normal" in2="BackgroundImageFix" result="effect1_dropShadow_3884_2219"/>
<feBlend mode="normal" in="SourceGraphic" in2="effect1_dropShadow_3884_2219" result="shape"/>
</filter>
<clipPath id="clip0_3884_2219">
<rect width="25" height="25" fill="white" transform="translate(987 988)"/>
</clipPath>
</defs>
</svg>
