<svg width="2008" height="2008" viewBox="0 0 2008 2008" fill="none" xmlns="http://www.w3.org/2000/svg">
<g filter="url(#filter0_d_3884_684)">
<g clip-path="url(#clip0_3884_684)">
<g clip-path="url(#clip1_3884_684)">
<path fill-rule="evenodd" clip-rule="evenodd" d="M1002.91 988.408L994.162 1012.16C993.955 1012.72 994.577 1013.22 995.082 1012.9L1003.5 1007.6L1011.92 1012.9C1012.42 1013.22 1013.04 1012.72 1012.83 1012.16L1004.08 988.408C1003.97 988.128 1003.79 988.001 1003.5 988.002C1003.21 988.002 1003 988.164 1002.91 988.408ZM1002.87 992.128V1006.51L995.971 1010.87L1002.87 992.128Z" fill="black"/>
</g>
<path fill-rule="evenodd" clip-rule="evenodd" d="M975.828 -4.72082C975.828 -3.09627 979.709 -3.09627 982.222 -4.72082C983.677 -5.6623 983.138 -5.96546 979.984 -5.98081C977.697 -5.99105 975.828 -5.42437 975.828 -4.72082ZM987.822 -4.97026C988.605 -3.70388 1020.11 -3.81133 1021.38 -5.08539C1021.88 -5.58811 1014.39 -6 1004.74 -6C995.086 -6 987.473 -5.53694 987.822 -4.97026ZM1028.83 -4.60058C1028.43 -3.96355 1029.58 -3.44165 1031.38 -3.44165C1035.3 -3.44165 1035.62 -4.17078 1032.1 -5.09051C1030.69 -5.45891 1029.22 -5.23761 1028.83 -4.60058ZM949.291 -3.83947C950.522 -3.51712 952.537 -3.51712 953.767 -3.83947C954.998 -4.16055 953.991 -4.42406 951.529 -4.42406C949.068 -4.42406 948.061 -4.16055 949.291 -3.83947ZM963.383 -3.83436C964.627 -3.50945 966.354 -3.53119 967.22 -3.88169C968.085 -4.23218 967.068 -4.49697 964.957 -4.47139C962.847 -4.4458 962.139 -4.15927 963.383 -3.83436ZM1044.54 -3.79726C1046.81 -3.51456 1050.84 -3.51073 1053.49 -3.78703C1056.14 -4.06461 1054.29 -4.29486 1049.36 -4.30126C1044.44 -4.30637 1042.27 -4.07996 1044.54 -3.79726ZM1113.94 1.67505C1116.47 3.30856 1120.71 3.30856 1119.7 1.67505C1119.26 0.971504 1117.36 0.40483 1115.47 0.415063C1112.78 0.430413 1112.44 0.705436 1113.94 1.67505ZM878.395 2.54873C879.317 2.91841 880.421 2.87236 880.845 2.44767C881.27 2.02299 880.515 1.7211 879.167 1.77611C877.678 1.83751 877.374 2.14067 878.395 2.54873ZM1158.47 7.66543C1159.39 8.03511 1160.49 7.98906 1160.92 7.56437C1161.34 7.13969 1160.59 6.8378 1159.24 6.89281C1157.75 6.95421 1157.45 7.25737 1158.47 7.66543ZM1168.3 9.3501C1171.85 10.8774 1174.36 10.8774 1173.41 9.3501C1172.98 8.64656 1171.07 8.11186 1169.18 8.16047C1166.11 8.24106 1166.01 8.36897 1168.3 9.3501ZM1200.59 15.3136C1201.47 15.6692 1202.91 15.6692 1203.78 15.3136C1204.66 14.9593 1203.94 14.6689 1202.19 14.6689C1200.43 14.6689 1199.71 14.9593 1200.59 15.3136ZM1231.36 21.7364C1232.28 22.106 1233.39 22.06 1233.81 21.6353C1234.24 21.2106 1233.48 20.9087 1232.13 20.9637C1230.64 21.0251 1230.34 21.3283 1231.36 21.7364ZM1236.48 23.0155C1237.4 23.3852 1238.5 23.3392 1238.93 22.9145C1239.35 22.4898 1238.6 22.1879 1237.25 22.2429C1235.76 22.3043 1235.46 22.6075 1236.48 23.0155ZM1360.13 61.7963C1363.64 63.307 1365.66 63.307 1363.32 61.7963C1362.27 61.1145 1360.54 60.5875 1359.49 60.6271C1358.22 60.6732 1358.44 61.071 1360.13 61.7963ZM1391.46 74.588C1392.51 75.2698 1393.95 75.8276 1394.66 75.8276C1395.36 75.8276 1395.07 75.2698 1394.02 74.588C1392.96 73.9062 1391.52 73.3485 1390.82 73.3485C1390.12 73.3485 1390.4 73.9062 1391.46 74.588ZM1406.07 80.8291C1406.45 81.4482 1408.07 82.2836 1409.66 82.6852C1412.46 83.3888 1412.47 83.3491 1410.08 81.5595C1407.33 79.5052 1404.99 79.0792 1406.07 80.8291ZM1486.66 121.319C1488.02 122.351 1489.72 123.197 1490.42 123.197C1491.12 123.197 1490.58 122.351 1489.22 121.319C1487.85 120.285 1486.16 119.441 1485.45 119.441C1484.75 119.441 1485.29 120.285 1486.66 121.319ZM984.584 290.794C979.201 292.125 972.871 294.387 970.517 295.824C968.162 297.259 965.02 298.436 963.535 298.439C960.951 298.444 953.766 303.145 948.332 308.387C946.925 309.744 944.479 311.536 942.897 312.369C941.315 313.202 940.02 314.688 940.02 315.672C940.02 316.654 938.724 317.864 937.142 318.359C935.56 318.854 933.114 320.374 931.707 321.735C917.118 335.861 885.11 368.196 883.11 370.828C881.703 372.681 878.97 375.699 877.036 377.538C875.101 379.376 873.519 381.351 873.519 381.927C873.519 382.502 869.261 387.203 864.058 392.375C858.854 397.545 854.217 402.975 853.751 404.441C853.287 405.907 847.186 412.724 840.193 419.591C833.2 426.456 827.48 433.105 827.48 434.366C827.48 435.634 826.051 437.201 824.282 437.874C822.524 438.543 821.085 439.636 821.085 440.306C821.085 440.975 818.253 444.385 814.79 447.885C811.326 451.386 807.643 455.89 806.602 457.894C805.562 459.899 800.914 465.407 796.273 470.136C791.632 474.865 787.835 479.626 787.835 480.717C787.835 481.807 786.396 483.355 784.638 484.157C782.879 484.958 781.441 486.077 781.441 486.644C781.441 487.21 779.714 489.44 777.604 491.599C775.494 493.758 773.767 496.307 773.767 497.262C773.767 498.218 769.451 503.46 764.176 508.91C758.901 514.361 754.584 519.461 754.584 520.245C754.584 521.028 751.419 524.991 747.551 529.05C743.682 533.11 740.517 536.995 740.517 537.684C740.517 538.373 737.915 541.67 734.734 545.01C731.553 548.349 728.618 552.355 728.212 553.913C727.806 555.471 726.379 557.093 725.043 557.518C723.705 557.942 721.944 559.545 721.129 561.081C720.316 562.616 718.59 564.625 717.294 565.544C716 566.463 714.94 568.068 714.94 569.111C714.94 570.153 712.047 574.006 708.511 577.674C704.975 581.34 701.765 585.562 701.379 587.058C700.992 588.552 699.281 590.41 697.577 591.187C695.872 591.963 694.478 593.212 694.478 593.961C694.478 594.711 691.313 598.464 687.444 602.303C683.576 606.142 680.41 610.104 680.41 611.109C680.41 612.113 679.112 613.984 677.527 615.266C674.895 617.395 671.589 621.606 668.261 627.073C667.558 628.228 664.248 631.977 660.908 635.404C657.566 638.83 654.833 642.053 654.833 642.565C654.833 643.077 651.662 647.454 647.784 652.293C641.126 660.601 640.107 661.797 637.015 664.927C636.32 665.631 634.146 668.133 632.185 670.488C630.221 672.842 627.267 676.008 625.618 677.523C623.968 679.038 621.835 681.782 620.878 683.621C619.923 685.459 615.085 691.084 610.131 696.12C605.175 701.156 601.121 705.852 601.121 706.556C601.121 707.259 598.387 710.664 595.046 714.123C584.583 724.953 580.659 729.421 580.659 730.502C580.659 731.402 565.626 747.974 557.715 755.794C556.267 757.226 555.082 758.828 555.082 759.355C555.082 761.078 546.239 769.202 543.036 770.42C538.968 771.967 533.054 770.242 528.084 766.059C525.944 764.258 523.068 762.784 521.693 762.784C520.319 762.784 518.84 761.865 518.409 760.741C517.978 759.617 515.263 757.578 512.376 756.209C501.271 750.945 495.463 747.644 493.815 745.659C492.874 744.524 491.038 743.597 489.733 743.597C488.429 743.597 486.419 742.158 485.266 740.399C484.114 738.64 482.489 737.201 481.655 737.201C480.82 737.201 476.505 734.754 472.066 731.764C467.626 728.775 462.361 725.284 460.364 724.009C458.368 722.732 453.973 719.14 450.598 716.027C447.223 712.913 443.774 710.36 442.935 710.352C442.094 710.345 440.656 709.306 439.737 708.043C435.791 702.622 416.128 694.493 408.013 694.927C393.76 695.686 384.982 697.39 379.367 700.487C375.922 702.387 372.345 703.942 371.419 703.942C370.495 703.942 369.16 705.021 368.455 706.338C367.75 707.656 364.708 709.376 361.696 710.16C358.683 710.944 353.341 713.626 349.824 716.119C346.308 718.612 341.371 722.018 338.853 723.688C336.336 725.357 331.553 729.081 328.224 731.961C324.897 734.843 321.449 737.201 320.564 737.201C319.678 737.201 317.702 738.64 316.174 740.399C314.644 742.158 312.8 743.597 312.075 743.597C311.35 743.597 310.209 745.036 309.54 746.795C308.871 748.553 307.304 749.995 306.055 749.999C303.883 750.004 301.059 752.419 289.718 763.97C286.904 766.835 283.451 769.534 282.045 769.967C280.638 770.4 276.815 773.566 273.549 777.002C270.283 780.439 266.962 783.251 266.168 783.251C265.375 783.251 264.092 784.642 263.318 786.34C262.543 788.04 260.787 789.724 259.414 790.083C258.04 790.443 256.604 791.93 256.223 793.39C255.842 794.849 254.676 796.043 253.632 796.043C251.752 796.043 243.988 802.962 233.677 813.827C230.738 816.924 226.399 821.241 224.037 823.421C213.988 832.689 189.327 857.931 189.327 858.949C189.327 859.558 187.889 860.712 186.13 861.514C184.372 862.314 182.933 863.365 182.933 863.847C182.933 865.04 140.537 907.262 137.799 908.793C136.598 909.466 135.615 910.621 135.615 911.359C135.615 912.097 133.025 915.148 129.86 918.139C126.695 921.13 124.105 924.539 124.105 925.714C124.105 926.891 122.678 928.504 120.932 929.298C119.188 930.094 117.432 931.779 117.031 933.044C116.629 934.308 115.18 935.698 113.809 936.133C112.438 936.568 111.317 937.497 111.317 938.195C111.317 938.893 106.715 944.068 101.092 949.692C95.4689 955.317 90.5031 961.372 90.0581 963.148C89.6117 964.925 87.8942 966.994 86.2394 967.749C84.5845 968.503 82.8926 970.183 82.4808 971.484C82.0677 972.784 81.2019 973.848 80.5548 973.848C79.9077 973.848 78.5381 975.863 77.5086 978.325C76.4804 980.788 74.7462 982.802 73.6554 982.802C72.5645 982.802 71.6719 983.383 71.6719 984.093C71.6719 984.803 69.9454 987.191 67.8353 989.399C65.7252 991.608 63.9987 994.081 63.9987 994.894C63.9987 995.708 59.68 1000.66 54.4021 1005.9C49.1242 1011.14 44.4449 1016.57 44.0024 1017.98C43.5599 1019.39 40.3973 1023.24 36.9738 1026.54C33.5502 1029.84 30.7483 1033.38 30.7483 1034.41C30.7483 1035.43 27.8708 1039.21 24.3539 1042.8C20.8371 1046.39 17.9596 1050.07 17.9596 1050.96C17.9596 1051.85 16.3777 1054.07 14.4428 1055.89C12.5091 1057.7 9.27616 1061.08 7.25811 1063.39C3.62231 1067.56 3.59929 1067.7 4.47787 1079.24C5.37819 1091.06 9.59204 1129.87 11.0563 1139.82L11.8556 1145.26L47.1995 1145.25C69.1806 1145.25 84.4758 1144.71 87.6576 1143.82C90.7678 1142.96 107.816 1142.29 131.139 1142.12C152.24 1141.97 174.109 1141.2 179.736 1140.42C187.042 1139.41 301.925 1138.98 581.57 1138.93L973.174 1138.86L980.237 1136.22C984.121 1134.76 991.863 1133.12 997.44 1132.55C1003.86 1131.91 1009.15 1130.58 1011.85 1128.94C1014.19 1127.51 1018.49 1125.95 1021.39 1125.48C1024.61 1124.95 1027.73 1123.41 1029.38 1121.51C1031.36 1119.23 1033.39 1118.4 1036.96 1118.4C1040.15 1118.4 1043.33 1117.29 1046.17 1115.2C1048.55 1113.44 1051.46 1112 1052.63 1112C1053.81 1112 1056.15 1110.91 1057.84 1109.58C1059.53 1108.25 1063.16 1106.23 1065.9 1105.08C1068.64 1103.94 1073.65 1100.42 1077.02 1097.27C1080.38 1094.11 1084 1091.53 1085.05 1091.53C1086.1 1091.53 1089 1088.45 1091.5 1084.68C1097.98 1074.91 1097.89 1068.15 1091.17 1060.94L1086.3 1055.72H1073.7C1063.42 1055.72 1058.37 1054.96 1046.28 1051.59C1038.13 1049.32 1029.51 1046.15 1027.12 1044.55C1024.74 1042.95 1021.94 1041.64 1020.91 1041.64C1019.88 1041.64 1017.33 1040.21 1015.24 1038.45C1013.15 1036.69 1010.15 1035.25 1008.56 1035.25C1006.98 1035.25 1004.34 1033.81 1002.68 1032.05C1000.79 1030.03 998.279 1028.85 995.882 1028.85C993.75 1028.85 990.902 1027.68 989.39 1026.19C986.023 1022.87 978.758 1017.85 974.549 1015.95C972.79 1015.16 970.201 1013.88 968.794 1013.11C967.387 1012.34 964.492 1010.8 962.361 1009.69C960.229 1008.58 957.209 1006.39 955.647 1004.83C954.054 1003.24 951.222 1001.99 949.194 1001.99C946.993 1001.99 944.407 1000.74 942.577 998.792C940.828 996.93 938.147 995.594 936.159 995.594C934.28 995.594 931.749 994.497 930.535 993.155C929.321 991.812 924.484 988.794 919.787 986.448C915.088 984.101 909.618 980.881 907.63 979.294C905.642 977.706 903.216 976.406 902.239 976.406C901.262 976.406 898.697 974.68 896.538 972.569C894.212 970.295 891.258 968.732 889.287 968.732C887.382 968.732 884.696 967.365 882.998 965.534C881.265 963.663 878.62 962.336 876.626 962.336C874.751 962.336 871.356 960.753 869.081 958.818C864.146 954.621 857.814 950.851 852.039 948.67C849.72 947.795 846.334 945.906 844.513 944.473C842.692 943.041 840.555 941.869 839.764 941.869C838.973 941.869 837.625 940.746 836.768 939.374C835.91 937.999 833.045 936.478 830.385 935.987C827.733 935.497 824.294 933.742 822.745 932.087C821.003 930.226 818.469 929.077 816.103 929.077C813.741 929.077 811.6 928.109 810.505 926.544C809.53 925.151 806.717 923.17 804.256 922.141C801.795 921.113 799.067 919.41 798.195 918.36C797.324 917.31 794.984 916.092 792.995 915.656C791.006 915.219 788.367 913.742 787.13 912.375C785.892 911.007 784.079 909.889 783.099 909.889C782.12 909.889 779.96 908.422 778.298 906.63C776.527 904.719 773.246 903.048 770.367 902.593C767.661 902.165 764.19 900.468 762.639 898.817C761.09 897.168 758.927 895.819 757.834 895.819C756.741 895.819 754.596 894.379 753.066 892.621C751.538 890.862 748.996 889.423 747.418 889.423C745.841 889.423 742.923 888.063 740.935 886.4C738.947 884.737 736.024 882.972 734.441 882.475C732.858 881.98 730.98 880.486 730.269 879.157C729.53 877.777 726.928 876.376 724.196 875.892C721.567 875.425 717.977 873.764 716.219 872.202C711.822 868.297 704.165 863.839 701.856 863.839C700.806 863.839 697.772 862.112 695.117 860.002C692.462 857.891 689.284 856.164 688.055 856.164C686.825 856.164 684.877 854.725 683.725 852.966C682.265 850.737 680.474 849.768 677.81 849.768C675.484 849.768 673.121 848.715 671.765 847.074C670.541 845.593 667.238 843.265 664.425 841.903C656.109 837.873 651.903 835.585 647.16 832.503C644.698 830.904 640.958 829.195 638.847 828.705C636.737 828.215 633.981 826.71 632.723 825.36C631.465 824.009 629.698 822.906 628.797 822.906C627.897 822.906 625.908 821.466 624.38 819.708C622.626 817.69 620.249 816.51 617.944 816.51C615.627 816.51 612.819 815.104 610.274 812.672C608.066 810.562 605.715 808.835 605.048 808.835C604.382 808.835 602.087 807.237 599.95 805.282L596.062 801.731L618.733 779.188C631.202 766.789 642.642 755.378 644.155 753.83C645.666 752.282 647.586 750.353 648.42 749.545C649.253 748.735 652.045 745.833 654.622 743.094C665.62 731.407 683.205 714.785 685.445 713.954C686.78 713.461 699.685 701.365 714.124 687.074C728.563 672.783 742.686 659.075 745.51 656.613C748.332 654.15 750.992 651.128 751.421 649.897C751.849 648.665 752.804 647.659 753.543 647.659C755.235 647.659 771.21 631.455 771.21 629.739C771.21 629.041 771.77 628.471 772.454 628.471C773.665 628.471 777.82 624.61 812.375 591.375C835.576 569.061 844.135 560.396 845.541 557.796C846.207 556.566 847.296 555.558 847.958 555.558C848.622 555.558 855.191 549.514 862.559 542.127C869.926 534.739 876.804 528.695 877.841 528.695C878.878 528.695 880.788 527.347 882.082 525.701C883.377 524.053 885.682 522.04 887.204 521.225C888.726 520.41 890.336 518.592 890.783 517.184C891.23 515.776 892.636 514.624 893.91 514.624C895.184 514.624 896.977 513.719 897.895 512.612C898.813 511.506 901.761 509.479 904.445 508.109C907.13 506.739 909.327 505.025 909.327 504.3C909.327 503.575 911.243 502.181 913.585 501.202C915.927 500.223 918.587 498.526 919.496 497.43C920.406 496.333 921.846 495.437 922.695 495.437C923.544 495.437 926.989 494.045 930.35 492.342C933.71 490.641 937.98 488.872 939.838 488.41C941.696 487.95 944.494 486.38 946.055 484.922C948.18 482.938 951.392 482.048 958.843 481.379C965.175 480.809 970.648 479.48 973.89 477.727C977.873 475.572 981.176 474.97 989.001 474.97C994.509 474.97 1000.27 475.647 1001.81 476.473C1004.59 477.967 1009.71 479.283 1020.45 481.261C1023.76 481.87 1026.91 483.406 1028.12 485.002C1029.25 486.493 1032.19 488.107 1034.66 488.591C1037.61 489.173 1041.19 491.566 1045.2 495.652C1048.54 499.052 1052.09 501.833 1053.1 501.833C1055.76 501.833 1070.48 517.091 1072.59 522.036C1073.57 524.352 1075.27 526.59 1076.36 527.007C1077.44 527.424 1078.87 529.181 1079.53 530.912C1080.19 532.643 1081.87 534.358 1083.27 534.724C1084.67 535.09 1085.81 535.967 1085.81 536.673C1085.81 538.576 1092.33 548.859 1096.36 553.324C1098.3 555.465 1099.88 557.767 1099.88 558.441C1099.88 559.114 1101.32 561.376 1103.07 563.466C1104.83 565.556 1106.27 567.985 1106.27 568.864C1106.27 569.743 1107.71 571.814 1109.47 573.466C1111.23 575.119 1112.67 577.836 1112.67 579.504C1112.67 581.172 1114.06 583.931 1115.76 585.635C1117.47 587.34 1119.21 589.828 1119.63 591.165C1120.06 592.502 1121.54 594.624 1122.93 595.881C1124.32 597.139 1125.45 598.862 1125.45 599.711C1125.45 600.562 1127.18 603.43 1129.29 606.085C1131.4 608.741 1133.13 611.609 1133.13 612.459C1133.13 613.309 1134.23 614.999 1135.57 616.215C1136.91 617.43 1138.39 619.917 1138.84 621.74C1139.7 625.151 1143.24 630.4 1147.97 635.285C1149.45 636.814 1151.59 639.866 1152.72 642.067C1153.85 644.269 1155.6 646.388 1156.62 646.777C1157.63 647.167 1158.84 649.179 1159.29 651.249C1159.74 653.319 1161.52 656.336 1163.25 657.955C1164.97 659.573 1166.38 661.555 1166.38 662.361C1166.38 663.167 1167.82 665.078 1169.58 666.607C1171.33 668.137 1172.77 670.214 1172.77 671.223C1172.77 672.233 1173.55 673.833 1174.49 674.778C1176.14 676.425 1182.11 685.072 1185.04 690.045C1185.8 691.347 1187.26 693.424 1188.28 694.659C1189.3 695.895 1191.11 699.066 1192.3 701.704C1193.5 704.343 1195.32 706.501 1196.37 706.501C1197.41 706.501 1198.95 707.796 1199.79 709.379C1200.64 710.961 1202.18 712.888 1203.22 713.656C1204.79 714.814 1202.87 717.325 1192.14 728.119C1185.01 735.304 1179.17 741.606 1179.17 742.126C1179.17 742.645 1176.84 745.57 1173.99 748.625C1171.14 751.681 1167.67 756.404 1166.29 759.122C1164.9 761.84 1163.22 764.063 1162.54 764.063C1161.87 764.063 1160.13 766.394 1158.67 769.243C1157.22 772.092 1155.25 774.722 1154.29 775.089C1151.65 776.104 1137.95 796.548 1134.4 804.76C1132.58 808.987 1132.83 815.947 1134.86 817.631C1135.81 818.422 1139.98 819.416 1144.13 819.842C1151.1 820.557 1151.91 820.364 1154.77 817.284C1156.48 815.45 1158.57 813.951 1159.42 813.951C1160.27 813.951 1163.07 811.504 1165.64 808.515C1168.21 805.525 1172.17 800.946 1174.42 798.34C1176.68 795.735 1179.15 793.575 1179.92 793.543C1180.68 793.511 1188.69 786.319 1197.72 777.559C1206.75 768.8 1215.69 760.991 1217.59 760.204C1219.48 759.417 1221.67 757.373 1222.46 755.662C1223.23 753.952 1224.73 752.551 1225.77 752.551C1226.82 752.551 1228.27 751.438 1229 750.08C1229.72 748.72 1231.44 747.251 1232.81 746.816C1234.18 746.38 1235.66 744.904 1236.1 743.534C1236.53 742.165 1238.21 740.713 1239.82 740.308C1241.43 739.904 1245.54 736.736 1248.96 733.27C1252.37 729.803 1255.91 726.967 1256.82 726.967C1257.72 726.967 1261.29 724.089 1264.73 720.571C1268.17 717.054 1271.5 714.176 1272.13 714.176C1272.76 714.176 1276.12 711.553 1279.61 708.348C1283.1 705.142 1287.68 701.603 1289.79 700.482C1291.9 699.361 1294.38 697.379 1295.3 696.077C1296.21 694.774 1297.81 693.709 1298.84 693.709C1299.87 693.709 1301.37 692.27 1302.17 690.511C1302.97 688.752 1304.65 687.313 1305.91 687.313C1307.16 687.313 1308.95 686.226 1309.88 684.897C1310.81 683.568 1313.73 681.578 1316.36 680.477C1319 679.376 1321.5 677.585 1321.91 676.497C1322.33 675.41 1323.44 674.521 1324.38 674.521C1325.32 674.521 1326.89 673.376 1327.87 671.976C1330 668.938 1336.9 663.817 1342.22 661.323C1344.33 660.334 1347.15 658.294 1348.49 656.789C1349.83 655.285 1351.92 654.054 1353.13 654.054C1354.35 654.054 1356.13 652.871 1357.09 651.424C1358.33 649.579 1360.94 648.502 1365.88 647.808C1369.75 647.265 1375.21 645.57 1378.01 644.041C1384.63 640.432 1396.44 640.228 1402.18 643.624C1404.37 644.924 1409.62 646.709 1413.84 647.595C1418.06 648.478 1422.66 650.232 1424.07 651.491C1425.48 652.748 1428.5 654.175 1430.79 654.659C1433.09 655.144 1435.55 656.646 1436.27 657.996C1437 659.346 1438.59 660.45 1439.81 660.45C1441.04 660.45 1443.53 662.033 1445.34 663.968C1450.57 669.543 1456.6 674.521 1458.12 674.521C1458.89 674.521 1481.47 696.467 1508.3 723.29C1535.12 750.113 1558.6 772.598 1560.46 773.258C1562.32 773.918 1564.15 775.616 1564.52 777.03C1564.89 778.445 1566.37 779.91 1567.8 780.286C1569.24 780.661 1571.57 782.933 1572.98 785.335C1574.4 787.736 1577.54 790.867 1579.95 792.291C1582.36 793.716 1584.65 795.692 1585.03 796.684C1585.41 797.675 1587.91 799.616 1590.58 800.998C1593.25 802.38 1596.38 804.565 1597.53 805.853C1598.69 807.141 1604.3 812.741 1610 818.297C1620 828.036 1622.63 832.874 1619.1 835.058C1618.39 835.493 1617.82 836.881 1617.82 838.142C1617.82 839.403 1616.23 842.151 1614.3 844.247C1611.12 847.7 1608.87 851.041 1604.04 859.541C1603.14 861.118 1601.3 862.759 1599.94 863.189C1598.59 863.619 1597.17 864.963 1596.78 866.179C1596.4 867.394 1593.2 871.408 1589.69 875.098C1586.17 878.789 1583.29 882.35 1583.29 883.013C1583.29 884.103 1579.99 888.019 1573.02 895.224C1571.63 896.656 1570.5 898.748 1570.5 899.872C1570.5 900.997 1569.31 902.229 1567.85 902.61C1566.39 902.991 1564.9 904.427 1564.54 905.801C1564.18 907.175 1562.5 908.931 1560.8 909.707C1559.1 910.48 1557.71 911.788 1557.71 912.612C1557.71 913.437 1554.54 917.128 1550.68 920.816C1546.81 924.505 1543.64 928.197 1543.64 929.021C1543.64 929.845 1539.33 935.051 1534.05 940.59C1528.78 946.128 1524.46 951.579 1524.46 952.701C1524.46 953.823 1523.54 955.094 1522.42 955.525C1521.29 955.956 1519.27 958.672 1517.93 961.56C1516.58 964.449 1513.74 969.115 1511.62 971.929C1509.49 974.744 1506.8 978.485 1505.64 980.244C1504.48 982.003 1502.43 984.683 1501.09 986.199C1499.76 987.714 1498.11 991.422 1497.43 994.435C1496.76 997.449 1495.15 1000.66 1493.85 1001.56C1492.56 1002.47 1491.11 1004.81 1490.63 1006.76C1490.15 1008.71 1488.79 1011.74 1487.61 1013.5C1486.42 1015.26 1484.58 1019 1483.51 1021.82C1481.86 1026.16 1480.93 1027 1477.42 1027.34C1474.7 1027.6 1472.13 1026.83 1469.92 1025.1C1468.08 1023.65 1465.79 1022.46 1464.85 1022.46C1463.91 1022.46 1462.19 1021.01 1461.03 1019.25C1459.62 1017.1 1457.3 1015.78 1453.97 1015.25C1451.24 1014.81 1449.01 1013.74 1449.01 1012.86C1449.01 1011.98 1448.12 1010.52 1447.03 1009.62C1444.35 1007.39 1446.8 1005.87 1453.1 1005.85C1456.3 1005.83 1458.9 1004.83 1461.13 1002.76C1462.95 1001.08 1466.29 999.349 1468.55 998.917C1471.69 998.32 1473.35 996.88 1475.54 992.836C1479.15 986.181 1478.11 984.707 1468.41 982.781C1464.42 981.988 1459.61 980.239 1457.72 978.893C1455.83 977.548 1451.11 976.075 1447.23 975.619C1442.19 975.025 1439.38 973.93 1437.34 971.761C1435.77 970.095 1433.44 968.732 1432.16 968.732C1430.88 968.732 1429.82 968.156 1429.82 967.452C1429.82 966.749 1431.73 966.173 1434.06 966.173C1436.38 966.173 1439.4 965.328 1440.77 964.295C1442.13 963.262 1445.12 962.398 1447.41 962.377C1452.36 962.328 1457.01 958.214 1456.44 954.393C1456 951.42 1455.83 951.308 1443.25 945.535C1438.33 943.275 1432.86 940.449 1431.1 939.257C1429.34 938.063 1426.47 936.66 1424.71 936.137C1421.37 935.144 1414.48 929.362 1414.48 927.559C1414.48 926.987 1418.36 926.451 1423.11 926.368C1434.42 926.17 1438.83 925.123 1440.56 922.23C1441.7 920.325 1441.5 919.57 1439.58 918.392C1438.27 917.585 1435.39 915.655 1433.19 914.103C1430.99 912.55 1427.31 910.42 1425.03 909.371C1422.74 908.321 1420.87 906.847 1420.87 906.097C1420.87 905.346 1419 903.83 1416.72 902.729C1414.43 901.627 1411.56 899.375 1410.33 897.723L1408.1 894.721L1415.45 893.831C1425.21 892.646 1426.78 891.654 1427.68 886.094C1428.7 879.815 1427.01 877.107 1421.41 876.055C1418.1 875.436 1414.57 873.025 1409.22 867.742C1405.08 863.649 1401.69 859.907 1401.69 859.426C1401.69 858.945 1400.29 856.719 1398.59 854.479C1396.89 852.24 1395.07 848.681 1394.56 846.57C1394.05 844.46 1392.56 841.36 1391.26 839.682C1389.96 838.004 1388.9 835.307 1388.9 833.689C1388.9 826.638 1384.15 820.753 1381 823.903C1380.26 824.639 1379.16 827.922 1378.55 831.201C1377.93 834.479 1376.34 838.702 1375.01 840.586C1373.68 842.471 1372.19 846.39 1371.7 849.298C1370.98 853.648 1369.03 856.402 1360.7 864.875C1355.13 870.536 1349.44 875.527 1348.05 875.967C1344.35 877.143 1339.02 884.025 1339.02 887.633C1339.02 891.436 1342.51 892.995 1353.59 894.154C1357.88 894.602 1360.68 895.208 1359.8 895.5C1358.92 895.793 1358.21 897.153 1358.21 898.524C1358.21 899.894 1357.2 901.383 1355.97 901.831C1354.74 902.28 1351.84 904.276 1349.53 906.268C1347.22 908.26 1344.52 909.889 1343.53 909.889C1342.54 909.889 1340.9 911.073 1339.89 912.518C1338.87 913.964 1336.44 915.577 1334.48 916.102C1329.27 917.495 1327.7 920.629 1330.6 923.841C1332.59 926.04 1334.8 926.484 1345.26 926.794C1356.02 927.112 1357.14 927.35 1354.15 928.687C1352.28 929.527 1350.26 931.048 1349.68 932.066C1349.09 933.085 1346.46 934.814 1343.82 935.909C1341.18 937.004 1339.02 938.535 1339.02 939.31C1339.02 940.086 1337.15 941.604 1334.87 942.685C1332.58 943.765 1328.7 945.75 1326.24 947.094C1323.77 948.44 1320.24 949.541 1318.39 949.541C1316.53 949.543 1313.65 950.663 1311.99 952.032L1308.97 954.52L1314.36 959.963C1319.42 965.073 1320.26 965.439 1328.11 965.939C1332.71 966.232 1336.47 966.98 1336.47 967.601C1336.47 968.222 1335.88 968.732 1335.16 968.732C1334.44 968.732 1333.33 970.091 1332.7 971.752C1331.79 974.14 1330.35 974.907 1325.81 975.419C1322.66 975.775 1318.32 977.313 1316.19 978.837C1313.6 980.678 1309.48 981.87 1303.92 982.389C1299.32 982.82 1295 983.836 1294.33 984.648C1293.65 985.459 1292.95 988.317 1292.77 990.998C1292.43 996.124 1295.05 999.432 1299.45 999.432C1300.63 999.432 1303.09 1000.61 1304.93 1002.06C1306.78 1003.51 1311.83 1005.25 1316.26 1005.97C1320.66 1006.68 1324.51 1007.51 1324.82 1007.83C1325.88 1008.88 1319.63 1014.56 1316.56 1015.33C1314.89 1015.75 1312.92 1017.21 1312.19 1018.58C1311.46 1019.95 1308.91 1021.43 1306.53 1021.88C1304.14 1022.33 1300.99 1024.08 1299.52 1025.77C1297.9 1027.63 1295.44 1028.85 1293.31 1028.85C1291.37 1028.86 1288.12 1030.29 1286.07 1032.05C1284.03 1033.81 1281.36 1035.25 1280.14 1035.25C1278.92 1035.25 1276.61 1036.31 1275.01 1037.61C1271.44 1040.5 1272.32 1043.62 1277.28 1045.74C1279.24 1046.57 1281.8 1048.06 1282.97 1049.03C1284.15 1050.01 1287.89 1051.52 1291.29 1052.39L1297.46 1053.97L1291.25 1055.53C1286.16 1056.82 1283.36 1058.8 1275.71 1066.56C1269.94 1072.41 1266.04 1077.5 1265.52 1079.88C1265.06 1082 1263.56 1085.16 1262.19 1086.89C1260.83 1088.62 1259.35 1092.82 1258.9 1096.22C1258.46 1099.62 1256.7 1104.82 1255 1107.76C1251.46 1113.89 1251.92 1121.04 1256.07 1124.6C1257.38 1125.72 1258.46 1127.33 1258.46 1128.17C1258.46 1129.02 1262.05 1131.62 1266.45 1133.97L1274.44 1138.22L1573.06 1138.94C1766.42 1139.4 1873.47 1140.11 1876.79 1140.94C1879.92 1141.73 1900.45 1142.06 1929.86 1141.79C1962.91 1141.5 1980.11 1141.82 1985.2 1142.85C1989.26 1143.67 1992.88 1144.05 1993.24 1143.68C1995.62 1141.3 2002.17 1068.57 2003.56 1029.17C2004.32 1007.43 2004.19 1004.55 2002.44 1004.55C2001.35 1004.55 1998.82 1002.54 1996.81 1000.08C1987.91 989.179 1986.43 987.122 1985.63 984.57C1985.17 983.08 1983.65 980.832 1982.26 979.575C1980.87 978.318 1979.73 976.538 1979.73 975.62C1979.73 974.701 1976.86 971.026 1973.34 967.452C1969.82 963.878 1966.95 960.481 1966.95 959.903C1966.95 959.323 1965.22 956.677 1963.11 954.021C1961 951.365 1959.27 948.581 1959.27 947.834C1959.27 947.088 1956.4 943.775 1952.88 940.472C1949.36 937.169 1946.48 933.879 1946.48 933.16C1946.48 932.441 1945.19 930.303 1943.61 928.407C1936.06 919.367 1932.95 915.479 1931.78 913.599C1926.99 905.939 1923.07 900.733 1918.5 895.969C1915.6 892.957 1913.23 889.959 1913.23 889.306C1913.23 888.654 1911.65 886.415 1909.72 884.33C1900.95 874.877 1899.17 872.64 1899.17 871.063C1899.17 870.135 1895.17 865.516 1890.28 860.798C1885.4 856.08 1881.06 851.16 1880.65 849.864C1880.24 848.568 1878.2 845.72 1876.11 843.533C1874.02 841.347 1872.31 839.015 1872.31 838.353C1872.31 837.691 1871.16 836.783 1869.76 836.338C1868.35 835.892 1866.86 834.172 1866.45 832.516C1866.03 830.861 1863.3 827.236 1860.37 824.461C1851.48 816.038 1840.34 803.809 1840.34 802.48C1840.34 801.79 1837.69 798.683 1834.45 795.573C1831.21 792.464 1827.9 789.241 1827.09 788.411C1826.29 787.581 1824.34 785.583 1822.75 783.971C1821.17 782.358 1819.88 780.372 1819.88 779.556C1819.88 778.739 1818.44 777.524 1816.68 776.855C1814.92 776.186 1813.48 774.75 1813.48 773.661C1813.48 772.574 1812.09 771.048 1810.38 770.271C1808.68 769.495 1806.97 767.636 1806.58 766.142C1806.19 764.647 1802.39 759.97 1798.13 755.749C1793.88 751.528 1786.81 744.346 1782.43 739.791C1764.01 720.618 1760.59 717.929 1750.55 714.764C1744.1 712.73 1742.39 712.655 1735.84 714.118C1721.01 717.436 1719.41 718.059 1715.29 722.158C1707.82 729.595 1703.5 734.7 1703.5 736.112C1703.5 736.873 1699.25 741.889 1694.06 747.261C1688.87 752.633 1684.24 758.293 1683.76 759.841C1683.29 761.387 1681.82 763 1680.48 763.424C1679.15 763.847 1677.74 765.173 1677.35 766.367C1676.71 768.354 1673 772.509 1664.72 780.506L1661.6 783.516L1656.01 778.587C1652.94 775.875 1649.72 772.711 1648.85 771.554C1647.98 770.397 1644.59 767.675 1641.32 765.503C1638.04 763.331 1634.54 760.392 1633.55 758.971C1632.55 757.551 1631.18 756.388 1630.49 756.388C1629.81 756.388 1626.53 753.593 1623.21 750.178C1619.89 746.763 1615.45 743.056 1613.34 741.941C1611.23 740.826 1608 738.297 1606.15 736.319C1595.41 724.794 1586.43 716.734 1584.34 716.734C1583.02 716.734 1581.37 715.438 1580.66 713.856C1579.95 712.274 1577.52 709.406 1575.26 707.484C1572.99 705.563 1567.8 700.813 1563.73 696.931C1559.65 693.049 1555.56 689.871 1554.63 689.871C1553.21 689.871 1541.18 679.088 1528.25 666.235C1526.46 664.46 1524.62 663.009 1524.15 663.009C1523.68 663.009 1521.93 661.713 1520.25 660.13C1508.55 649.077 1504.37 645.362 1502.45 644.322C1501.25 643.67 1495.64 638.685 1489.99 633.245C1484.35 627.804 1479.09 623.354 1478.31 623.354C1477.53 623.354 1475.32 621.771 1473.4 619.836C1464.32 610.694 1456.96 604.167 1455.72 604.167C1454.97 604.167 1449.58 599.562 1443.73 593.933C1437.89 588.305 1432.48 583.7 1431.72 583.7C1430.95 583.7 1427.39 580.822 1423.8 577.304C1419.35 572.946 1416.21 570.908 1413.95 570.908C1412.03 570.908 1409.49 569.606 1407.96 567.837C1406.21 565.836 1403.25 564.462 1399.45 563.892C1396.24 563.411 1391.96 561.79 1389.93 560.291C1385.32 556.875 1375.08 556.992 1369.22 560.528C1367.03 561.844 1363.16 563.292 1360.61 563.745C1358.06 564.197 1354.18 566.283 1351.99 568.378C1349.79 570.473 1347.27 572.187 1346.38 572.187C1344.3 572.187 1285.31 631.171 1285.31 633.249C1285.31 634.106 1283.87 635.751 1282.12 636.903C1280.36 638.056 1278.92 639.734 1278.92 640.633C1278.92 642.34 1276.18 643.821 1273.03 643.821C1272.02 643.821 1270.51 642.237 1269.67 640.303C1268.12 636.706 1263.14 629.952 1258.5 625.139C1257.07 623.657 1255.9 621.726 1255.9 620.846C1255.9 619.966 1254.6 617.653 1253.02 615.705C1250.38 612.459 1248.44 609.461 1243.11 600.393C1242.05 598.598 1238.98 594.829 1236.28 592.014C1233.58 589.2 1230.51 584.883 1229.45 582.421C1228.39 579.958 1225.37 575.353 1222.73 572.187C1220.09 569.021 1216.96 564.561 1215.78 562.274C1214.6 559.986 1213.08 558.116 1212.4 558.116C1211.73 558.116 1210.29 556.246 1209.21 553.959C1206.08 547.316 1201.56 540.365 1198.56 537.574C1197.04 536.154 1195.79 534.294 1195.79 533.442C1195.78 531.633 1187.48 522.299 1185.88 522.299C1185.28 522.299 1184.05 520.248 1183.15 517.739C1182.24 515.231 1180.66 512.858 1179.65 512.466C1178.63 512.076 1176.95 509.955 1175.92 507.754C1174.89 505.552 1172.32 501.161 1170.21 497.995C1168.1 494.829 1165.37 490.686 1164.15 488.788C1162.93 486.889 1160.63 484.743 1159.04 484.017C1157.45 483.293 1156.15 481.868 1156.15 480.852C1156.15 479.836 1154.79 477.376 1153.13 475.388C1151.46 473.399 1149.7 470.476 1149.2 468.892C1148.71 467.309 1147.19 465.418 1145.83 464.69C1144.47 463.963 1143.36 462.532 1143.36 461.513C1143.36 460.492 1140.5 456.628 1137.01 452.923C1133.51 449.219 1129.99 444.605 1129.18 442.671C1128.37 440.737 1127.21 439.153 1126.6 439.153C1126 439.153 1124.4 436.995 1123.04 434.356C1121.68 431.718 1118.74 427.832 1116.5 425.722C1114.26 423.611 1111.32 419.726 1109.96 417.087C1108.61 414.45 1106.92 412.29 1106.21 412.29C1105.51 412.29 1104.33 410.723 1103.61 408.807C1102.88 406.891 1101.49 404.445 1100.52 403.371C1099.55 402.296 1096.85 399.336 1094.52 396.792C1092.19 394.249 1089.13 390.248 1087.73 387.9C1083.96 381.609 1083.11 380.296 1077.5 372.108C1072.12 364.253 1068.53 358.475 1064.16 350.639C1062.71 348.039 1060.75 345.448 1059.8 344.883C1058.84 344.317 1057.25 342.386 1056.27 340.591C1051.43 331.782 1048.88 328.257 1043.29 322.673C1039.95 319.336 1037.21 315.793 1037.21 314.801C1037.21 312.808 1022.69 298.444 1020.67 298.444C1019.98 298.444 1018.27 297.216 1016.87 295.715C1014.5 293.173 1004.95 289.747 997.568 288.791C995.81 288.563 989.967 289.465 984.584 290.794ZM961.774 505.637C960.358 509.056 960.518 509.822 963.355 513.193C965.09 515.258 966.9 519.379 967.376 522.353C967.851 525.327 969.372 529.199 970.754 530.959C972.138 532.718 973.27 535.153 973.27 536.37C973.27 537.588 974.366 539.976 975.705 541.679C977.044 543.381 978.768 547.11 979.535 549.963C980.304 552.817 982.076 556.187 983.475 557.454C985.019 558.85 986.345 562.217 986.849 566.019C987.353 569.821 988.568 572.904 989.94 573.865C991.182 574.735 992.862 577.91 993.672 580.919C994.482 583.927 995.92 586.688 996.868 587.051C997.814 587.414 999.571 592.133 1000.77 597.538C1001.97 602.942 1003.69 609.379 1004.59 611.842C1006.95 618.282 1006.17 635.138 1003.02 645.74C1001.55 650.665 999.976 658.521 999.513 663.199C998.914 669.259 997.777 672.916 995.562 675.919C993.44 678.798 992.453 681.828 992.453 685.47C992.453 688.966 991.519 691.992 989.748 694.246C988.169 696.253 986.639 700.72 986.073 704.971C985.541 708.978 983.881 714.538 982.384 717.324C980.888 720.111 979.664 724.207 979.664 726.426C979.664 728.644 978.399 732.069 976.853 734.035C974.416 737.134 973.891 740.012 972.918 755.634C971.538 777.776 971.537 780.46 972.909 797.561C973.729 807.77 974.585 811.87 976.291 813.756C977.547 815.145 979.032 819.355 979.591 823.112C980.635 830.125 987.863 845.931 990.027 845.931C990.692 845.931 991.81 847.436 992.509 849.276C993.77 852.593 996.232 856.136 1003 864.375C1004.94 866.729 1006.52 869.315 1006.52 870.124C1006.52 870.933 1007.53 871.952 1008.76 872.387C1009.99 872.823 1013.59 875.883 1016.75 879.185C1019.92 882.488 1024.42 886.287 1026.77 887.627C1029.11 888.966 1032.56 890.926 1034.44 891.982C1036.32 893.039 1039.15 895.197 1040.73 896.779C1042.32 898.372 1045.18 899.656 1047.13 899.656C1049.07 899.656 1053.25 901.017 1056.41 902.68C1059.57 904.343 1064.43 906.12 1067.22 906.628C1070.01 907.135 1073.01 908.576 1073.89 909.828C1074.87 911.234 1077.95 912.432 1081.92 912.96C1085.5 913.435 1089.34 914.841 1090.6 916.137C1091.83 917.416 1094.74 919.103 1097.06 919.886C1099.38 920.67 1102.77 922.483 1104.59 923.914C1106.41 925.347 1108.69 926.519 1109.67 926.519C1110.64 926.519 1112.1 927.958 1112.9 929.717C1113.7 931.476 1115.09 932.915 1116 932.915C1116.9 932.915 1118.39 933.98 1119.31 935.282C1120.23 936.585 1122.73 938.556 1124.88 939.661C1129.67 942.127 1139.52 952.615 1139.52 955.243C1139.52 956.297 1140.96 958.103 1142.72 959.255C1144.48 960.408 1145.93 962.004 1145.95 962.803C1145.97 963.601 1147.7 966.516 1149.79 969.279C1151.88 972.043 1153.59 975.085 1153.59 976.039C1153.59 976.995 1154.5 979.168 1155.62 980.87C1160.78 988.754 1163.78 1015.26 1160.58 1024.7C1159.55 1027.74 1158.71 1032.77 1158.71 1035.89C1158.71 1040.2 1158.11 1041.87 1156.2 1042.89C1154.74 1043.67 1153.33 1046.23 1152.82 1049.02C1152.34 1051.65 1150.44 1055.6 1148.61 1057.8C1146.78 1060.01 1143.84 1063.71 1142.08 1066.03C1136.93 1072.83 1122.69 1086.46 1118.47 1088.63C1116.33 1089.73 1113.83 1091.7 1112.91 1093C1111.99 1094.3 1110.19 1095.37 1108.91 1095.37C1107.63 1095.37 1105.84 1096.27 1104.92 1097.37C1104.01 1098.47 1101.66 1100.2 1099.7 1101.22C1097.75 1102.23 1094.71 1104.49 1092.95 1106.25C1091.2 1108 1089 1109.44 1088.07 1109.44C1087.14 1109.44 1085.39 1110.59 1084.19 1112C1082.98 1113.41 1080.67 1114.56 1079.04 1114.56C1077.41 1114.56 1074.13 1116 1071.74 1117.76C1069.36 1119.51 1066.8 1120.95 1066.05 1120.95C1065.3 1120.95 1062.1 1122.32 1058.94 1123.99C1055.78 1125.66 1050.12 1127.69 1046.35 1128.49C1042.58 1129.29 1038.04 1131.08 1036.26 1132.48C1034.49 1133.88 1031.67 1135.02 1030.01 1135.02C1028.34 1135.02 1025.77 1136.23 1024.3 1137.71C1022.63 1139.38 1019.07 1140.74 1014.89 1141.31C1011.08 1141.83 1006.63 1143.43 1004.62 1145.02C1002.13 1146.97 999.285 1147.82 995.158 1147.82C988.24 1147.83 979.827 1149.92 977.107 1152.31C975.369 1153.84 972.533 1154.6 956.005 1157.94C953.192 1158.51 949.27 1159.63 947.29 1160.43C945.31 1161.23 942.145 1161.89 940.256 1161.89C938.367 1161.89 934.808 1163.13 932.346 1164.64C929.489 1166.39 924.504 1167.72 918.564 1168.31C912.44 1168.91 908.389 1170.01 906.723 1171.52C904.939 1173.14 901.068 1174.07 893.649 1174.68C886.594 1175.26 881.426 1176.46 878.014 1178.31C875.211 1179.83 871.411 1181.07 869.572 1181.07C867.732 1181.07 863.669 1182.44 860.542 1184.1C856.818 1186.08 851.472 1187.44 845.044 1188.04C838.291 1188.67 834.233 1189.74 832.035 1191.47C830.279 1192.86 825.578 1194.52 821.589 1195.17C817.6 1195.82 813.395 1197.2 812.243 1198.24C811.091 1199.29 807.574 1200.52 804.427 1200.99C801.28 1201.46 794.404 1203.21 789.15 1204.89C783.893 1206.56 777.819 1207.94 775.65 1207.94C773.452 1207.94 769.789 1209.35 767.373 1211.14C764.425 1213.31 761.378 1214.33 757.843 1214.33C754.753 1214.33 750.209 1215.63 746.64 1217.53C743.314 1219.3 738.499 1220.73 735.849 1220.73C732.832 1220.73 729.364 1221.91 726.467 1223.91C723.903 1225.69 719.068 1227.46 715.528 1227.92C712.039 1228.37 708.002 1229.81 706.554 1231.12C705.108 1232.43 701.079 1233.86 697.602 1234.3C694.126 1234.74 688.979 1236.39 686.165 1237.97C683.352 1239.55 678.583 1241.21 675.567 1241.68C672.553 1242.14 667.957 1243.66 665.356 1245.06C662.754 1246.45 659.978 1247.59 659.186 1247.59C658.395 1247.59 655.718 1248.97 653.238 1250.65C650.757 1252.34 646.218 1254.12 643.148 1254.61C640.079 1255.11 635.735 1256.57 633.493 1257.86C631.251 1259.15 626.776 1260.6 623.548 1261.08C620.084 1261.6 617.008 1262.92 616.038 1264.31C615.133 1265.6 612.062 1267.18 609.211 1267.82C606.362 1268.46 602.8 1270.22 601.296 1271.72C599.794 1273.22 597.203 1274.45 595.539 1274.45C593.875 1274.45 591.142 1275.51 589.464 1276.81C587.786 1278.11 583.666 1280.09 580.305 1281.22C576.945 1282.35 572.696 1284.46 570.861 1285.9C569.027 1287.34 566.76 1288.53 565.824 1288.53C564.89 1288.53 563.535 1289.62 562.817 1290.97C562.027 1292.44 559.48 1293.75 556.384 1294.28C553.565 1294.75 550.919 1295.69 550.505 1296.36C550.091 1297.03 547.552 1298.97 544.863 1300.67C542.173 1302.37 538.05 1305.72 535.698 1308.12C533.346 1310.52 529.553 1313.44 527.267 1314.61C524.981 1315.78 523.11 1317.31 523.11 1318.01C523.11 1318.71 521.615 1319.86 519.789 1320.55C517.963 1321.25 516.174 1322.94 515.814 1324.32C515.455 1325.69 513.94 1327.2 512.448 1327.68C507.71 1329.18 489.737 1346.43 488.979 1350.2C488.595 1352.1 486.91 1354.56 485.234 1355.66C483.558 1356.76 482.187 1358.47 482.187 1359.45C482.187 1360.44 480.748 1362.95 478.99 1365.04C477.231 1367.13 475.792 1369.75 475.792 1370.87C475.792 1371.98 474.409 1373.8 472.717 1374.91C471.026 1376.02 469.256 1378.48 468.786 1380.37C468.315 1382.27 466.825 1385.01 465.476 1386.46C464.127 1387.9 462.643 1391.93 462.179 1395.41C461.676 1399.18 460.123 1403.19 458.333 1405.35C456.15 1407.98 455.331 1410.56 455.331 1414.79C455.331 1418.61 454.34 1422.21 452.453 1425.25C449.706 1429.66 449.558 1431.29 449.182 1461.21L448.788 1492.55L452.059 1498.7C454.426 1503.14 455.331 1506.78 455.331 1511.87C455.331 1517.66 455.893 1519.46 458.528 1522.09C460.286 1523.85 461.725 1526.56 461.725 1528.11C461.724 1530.48 466.84 1542.48 470.834 1549.48C471.437 1550.53 473.169 1553.7 474.684 1556.51C476.199 1559.33 478.508 1562.38 479.813 1563.3C481.119 1564.22 482.187 1566 482.187 1567.26C482.187 1568.52 483.338 1570.59 484.744 1571.86C486.151 1573.14 487.302 1574.96 487.302 1575.93C487.302 1576.89 490.467 1580.84 494.336 1584.71C498.205 1588.58 501.37 1592.04 501.37 1592.39C501.37 1593.65 531.942 1623.67 533.225 1623.67C533.944 1623.67 535.125 1624.78 535.853 1626.14C536.581 1627.5 538.471 1629.01 540.054 1629.51C541.637 1630 545.296 1632.56 548.184 1635.2C551.071 1637.85 554.812 1640.72 556.496 1641.59C558.181 1642.47 561.108 1644.83 563.003 1646.85C565.391 1649.4 567.689 1650.53 570.492 1650.53C573.283 1650.53 575.316 1651.52 577.051 1653.73C578.434 1655.49 580.31 1656.93 581.219 1656.93C582.129 1656.93 584.244 1657.99 585.922 1659.28C587.6 1660.58 590.859 1662.28 593.166 1663.07C595.473 1663.85 598.247 1665.38 599.332 1666.47C600.415 1667.55 603.617 1668.81 606.446 1669.26C609.275 1669.71 613.118 1671.37 614.988 1672.94C616.856 1674.51 620.814 1676.2 623.784 1676.7C626.752 1677.2 630.649 1678.76 632.443 1680.17C634.236 1681.58 638.713 1683.16 642.391 1683.68C646.069 1684.2 651.093 1685.87 653.554 1687.4C656.016 1688.93 660.053 1690.18 662.526 1690.18C664.998 1690.18 669.247 1691.38 671.97 1692.84C674.693 1694.3 680.087 1696.01 683.957 1696.64C687.828 1697.27 692.051 1698.74 693.341 1699.91C694.821 1701.25 699.254 1702.38 705.348 1702.98C711.237 1703.55 715.889 1704.72 717.26 1705.96C718.616 1707.19 720.637 1707.7 722.349 1707.26C723.911 1706.85 726.767 1707.17 728.696 1707.97C730.626 1708.77 737.959 1709.92 744.993 1710.53C752.027 1711.14 760.947 1712.56 764.815 1713.68C769.931 1715.16 780.397 1715.94 803.181 1716.53C827.624 1717.17 835.181 1717.77 837.552 1719.25C840.246 1720.94 842.273 1720.93 855.456 1719.16C866.264 1717.72 887.223 1716.96 932.24 1716.4C969.939 1715.93 995.103 1715.13 996.573 1714.34C997.901 1713.63 1000.25 1713.19 1001.79 1713.38C1003.34 1713.56 1007.48 1713.05 1011 1712.26C1014.51 1711.47 1022.86 1710.46 1029.54 1710.03C1037.65 1709.5 1042.75 1708.53 1044.89 1707.11C1046.76 1705.86 1053.39 1704.34 1060.87 1703.44C1079.67 1701.19 1084.98 1700.23 1086.85 1698.74C1087.78 1698.01 1091.71 1696.98 1095.6 1696.45C1099.48 1695.92 1103.8 1694.46 1105.2 1693.2C1106.93 1691.63 1110.83 1690.64 1117.55 1690.06C1123.72 1689.52 1129.04 1688.25 1131.85 1686.64C1134.57 1685.08 1139.65 1683.83 1144.82 1683.45C1149.92 1683.08 1155.29 1681.77 1158.25 1680.18C1163.77 1677.22 1173.68 1674.62 1180.45 1674.37C1182.91 1674.27 1186.35 1673.19 1188.08 1671.96C1189.82 1670.73 1193.05 1669.72 1195.25 1669.72C1197.45 1669.72 1201.95 1668.28 1205.26 1666.52C1208.57 1664.76 1212.83 1663.32 1214.73 1663.32C1216.64 1663.32 1220.78 1661.97 1223.94 1660.31C1227.1 1658.65 1232.43 1656.93 1235.78 1656.49C1239.13 1656.05 1243.45 1654.59 1245.37 1653.24C1247.29 1651.89 1251.65 1650.45 1255.04 1650.03C1258.44 1649.61 1262.69 1648.12 1264.49 1646.7C1266.28 1645.29 1269.03 1644.14 1270.59 1644.14C1274.5 1644.14 1281.48 1641.58 1281.48 1640.15C1281.48 1639.5 1283.06 1638.28 1284.99 1637.44C1286.93 1636.61 1290.14 1634.6 1292.12 1632.99C1294.34 1631.2 1297.46 1630.07 1300.18 1630.07C1303.27 1630.07 1305.52 1629.09 1307.58 1626.87C1309.32 1624.99 1311.96 1623.67 1313.97 1623.67C1315.92 1623.67 1318.62 1622.37 1320.22 1620.67C1321.88 1618.9 1325.26 1617.32 1328.43 1616.82C1331.39 1616.36 1335.93 1614.54 1338.52 1612.79C1341.1 1611.03 1344.2 1609.6 1345.4 1609.6C1346.6 1609.6 1348.62 1608.44 1349.9 1607.03C1351.18 1605.62 1354.55 1603.84 1357.41 1603.07C1360.26 1602.31 1363.99 1600.58 1365.69 1599.24C1367.39 1597.9 1369.49 1596.81 1370.36 1596.81C1371.22 1596.81 1373.3 1595.73 1374.98 1594.41C1376.66 1593.1 1379.93 1591.61 1382.24 1591.1C1384.56 1590.6 1387.5 1589.06 1388.77 1587.7C1390.21 1586.15 1394.11 1584.72 1399.14 1583.91C1403.57 1583.2 1408.62 1581.49 1410.37 1580.12C1412.44 1578.49 1415.52 1577.62 1419.25 1577.62C1422.39 1577.62 1426.48 1576.81 1428.35 1575.81C1430.22 1574.82 1435.2 1573.02 1439.42 1571.81C1443.64 1570.6 1448.24 1568.57 1449.65 1567.3C1451.05 1566.03 1455.68 1564.42 1459.93 1563.74C1464.18 1563.06 1469.65 1561.36 1472.08 1559.96C1474.51 1558.57 1479.2 1557.05 1482.49 1556.58C1485.78 1556.12 1489.81 1554.71 1491.44 1553.45C1493.07 1552.18 1496.65 1550.79 1499.39 1550.36C1502.12 1549.93 1505.58 1548.45 1507.06 1547.06C1508.54 1545.68 1511.48 1544.14 1513.59 1543.65C1515.7 1543.15 1518.58 1541.72 1519.98 1540.47C1521.39 1539.22 1524.98 1537.54 1527.96 1536.75C1533.38 1535.32 1533.83 1534.7 1534.98 1527.09C1535.27 1525.14 1536.65 1524.36 1540.74 1523.81C1543.69 1523.42 1547.24 1522.07 1548.61 1520.83C1549.99 1519.58 1553.61 1518.25 1556.65 1517.86C1559.7 1517.48 1565.1 1515.81 1568.67 1514.15C1573.53 1511.89 1577.92 1511.03 1586.23 1510.72C1595.54 1510.37 1597.8 1509.85 1600.31 1507.5C1603.64 1504.37 1618.97 1502.09 1640.2 1501.59C1646.53 1501.44 1653.36 1500.9 1655.38 1500.39C1657.66 1499.81 1662.44 1500.33 1667.96 1501.76L1676.87 1504.05L1683.15 1500.54C1686.61 1498.61 1690.15 1497.02 1691.03 1497.01C1691.91 1497 1694.92 1495.06 1697.71 1492.69C1702.67 1488.5 1702.91 1488.43 1707.71 1490.13C1710.41 1491.08 1714.02 1492.96 1715.72 1494.3C1717.43 1495.64 1720.84 1497.12 1723.3 1497.58C1725.79 1498.05 1728.36 1499.53 1729.11 1500.92C1729.84 1502.3 1731.2 1503.43 1732.13 1503.43C1733.06 1503.43 1735.62 1505.15 1737.83 1507.26C1740.04 1509.37 1742.53 1511.1 1743.37 1511.1C1744.21 1511.1 1746.25 1512.37 1747.9 1513.93C1749.76 1515.67 1753.22 1517.02 1756.92 1517.44C1761.49 1517.97 1763.05 1518.72 1763.4 1520.56C1763.66 1521.89 1766.41 1525.63 1769.52 1528.87C1772.62 1532.11 1775.68 1536.63 1776.31 1538.9C1776.94 1541.18 1778.66 1544.57 1780.12 1546.43C1781.59 1548.3 1782.79 1551.07 1782.79 1552.59C1782.79 1554.12 1783.29 1555.91 1783.9 1556.58C1784.52 1557.25 1786 1561.25 1787.2 1565.47C1788.39 1569.69 1790.14 1574.87 1791.09 1576.98C1792.03 1579.09 1793.16 1583.41 1793.6 1586.57C1794.04 1589.74 1795.09 1596.58 1795.95 1601.77L1797.5 1611.2L1810.39 1593.45C1817.49 1583.69 1828.82 1567.35 1835.58 1557.15L1847.87 1538.6L1846.5 1532.85C1845.16 1527.21 1845.03 1523.28 1845.74 1509.32C1846.01 1504.1 1845.53 1501.79 1843.78 1499.86C1842.46 1498.4 1840.98 1493.86 1840.34 1489.36C1839.72 1484.99 1838.25 1480.35 1837.06 1479.04C1835.88 1477.73 1834.4 1473.94 1833.78 1470.61C1833.16 1467.28 1831.52 1463.36 1830.14 1461.89C1827.48 1459.05 1826.54 1453.37 1827.99 1448.94C1829.31 1444.95 1825.57 1420.48 1823.25 1417.91C1822.16 1416.72 1820.88 1413.24 1820.39 1410.2C1819.91 1407.15 1818.15 1403.2 1816.49 1401.41C1814.84 1399.62 1813.48 1397.5 1813.48 1396.69C1813.48 1395.88 1808.94 1390.37 1803.39 1384.45L1793.3 1373.69L1793.26 1365.34C1793.21 1357.77 1792.88 1356.72 1789.6 1354.02C1778.67 1345.01 1768.25 1340.33 1757.73 1339.7C1757.66 1339.7 1756.32 1338.58 1754.75 1337.21C1753.11 1335.79 1748.92 1334.36 1744.94 1333.87C1741.12 1333.39 1736.64 1331.93 1734.99 1330.63C1733.33 1329.33 1729.46 1327.88 1726.37 1327.42C1723.29 1326.96 1719.03 1325.53 1716.91 1324.26C1714.8 1322.99 1709.91 1321.55 1706.04 1321.07C1701.89 1320.54 1697.9 1319.16 1696.27 1317.68C1694.76 1316.3 1691.02 1314.89 1687.96 1314.54C1679.3 1313.54 1678.39 1313.09 1680.58 1310.9C1682.49 1308.99 1686.36 1307.97 1692.28 1307.81C1694.8 1307.74 1696.31 1306.66 1697.73 1303.91C1699.61 1300.26 1699.56 1300.03 1696.46 1298C1694.68 1296.83 1689.4 1295.08 1684.72 1294.09C1680.03 1293.11 1675.38 1291.62 1674.37 1290.79C1670.56 1287.62 1647.88 1280.87 1641.03 1280.86C1636.43 1280.85 1633.09 1280.07 1630.8 1278.46C1625.36 1274.63 1622.64 1274.33 1616.09 1276.81C1611.06 1278.72 1608.99 1278.91 1604.88 1277.81C1600.91 1276.75 1598.01 1276.93 1591.24 1278.66C1584.65 1280.35 1576.56 1280.9 1556.43 1281.04C1538.52 1281.16 1528.92 1281.74 1526.14 1282.86C1523.9 1283.76 1520.93 1284.2 1519.56 1283.83C1518.18 1283.47 1515.69 1284.03 1514.04 1285.06C1512.28 1286.16 1506.11 1287.27 1499.18 1287.72C1491.28 1288.24 1485.7 1289.32 1482.49 1290.96C1479.84 1292.32 1475.39 1293.83 1472.61 1294.32C1469.83 1294.81 1465.06 1296.42 1462.02 1297.89L1456.5 1300.58L1450.33 1297.11C1446.93 1295.2 1443.02 1293.64 1441.64 1293.64C1440.25 1293.64 1437.66 1292.49 1435.87 1291.08C1431.99 1288.03 1427.63 1287.8 1424.66 1290.49C1423.47 1291.57 1418.82 1293.03 1414.33 1293.73C1409.84 1294.44 1404.67 1296.1 1402.83 1297.43C1401 1298.75 1396.22 1300.45 1392.2 1301.19C1388.19 1301.93 1383.42 1303.7 1381.61 1305.13C1379.7 1306.63 1376.4 1307.72 1373.7 1307.72C1371.03 1307.72 1366.91 1309.06 1363.96 1310.88C1361.15 1312.61 1357.73 1314.05 1356.37 1314.07C1355.01 1314.09 1352.68 1315.25 1351.19 1316.65C1349.7 1318.05 1345.35 1319.79 1341.52 1320.51C1337.53 1321.26 1333.73 1322.85 1332.63 1324.22C1331.58 1325.53 1328.57 1326.98 1325.95 1327.44C1323.34 1327.9 1320.42 1329.39 1319.48 1330.74C1318.49 1332.14 1315.48 1333.55 1312.44 1334.04C1309.51 1334.51 1305.27 1336.26 1303 1337.93C1300.74 1339.6 1297.92 1340.97 1296.75 1340.97C1295.57 1340.97 1293.14 1342.13 1291.34 1343.54C1289.55 1344.95 1286.16 1346.44 1283.82 1346.85C1277.39 1347.96 1272.79 1349.95 1272.02 1351.96C1271.64 1352.95 1270.19 1353.76 1268.8 1353.76C1267.41 1353.76 1265.52 1354.77 1264.6 1356C1263.68 1357.23 1260.76 1359.25 1258.1 1360.48C1255.44 1361.71 1252.93 1363.58 1252.52 1364.63C1252.12 1365.69 1251.07 1366.56 1250.18 1366.56C1249.3 1366.56 1246.4 1368.28 1243.75 1370.39C1241.09 1372.5 1238.14 1374.23 1237.19 1374.23C1236.24 1374.23 1234.73 1375.41 1233.85 1376.86C1232.96 1378.3 1228.02 1381.82 1222.87 1384.67C1217.72 1387.53 1213.2 1390.66 1212.83 1391.64C1212.45 1392.62 1211.42 1393.42 1210.53 1393.42C1209.65 1393.42 1207.54 1394.5 1205.86 1395.83C1204.17 1397.16 1200.56 1398.86 1197.83 1399.62C1195.1 1400.37 1191.66 1402.09 1190.18 1403.43C1188.2 1405.23 1184.82 1406.07 1177.49 1406.59C1172 1406.98 1166.82 1407.84 1165.98 1408.49C1163.18 1410.68 1159.12 1411 1156.02 1409.28C1151.14 1406.57 1143.35 1407.18 1137.6 1410.72C1134.79 1412.45 1130.62 1413.87 1128.33 1413.88C1125.73 1413.88 1123.1 1414.96 1121.31 1416.76C1118.12 1419.96 1105.12 1423.3 1103.14 1421.43C1102.47 1420.8 1101.16 1420.28 1100.22 1420.28C1099.28 1420.28 1096.56 1418.32 1094.17 1415.94L1089.83 1411.59L1095.81 1410.7C1102.05 1409.76 1114.68 1403.07 1115.82 1400.09C1117.07 1396.86 1112.86 1390.86 1109.35 1390.86C1107.57 1390.86 1105.01 1390.27 1103.66 1389.55C1102.32 1388.84 1098.29 1387.69 1094.7 1387.01C1091.11 1386.33 1086.7 1384.61 1084.9 1383.2C1083.1 1381.78 1080.84 1380.63 1079.88 1380.63C1075.76 1380.63 1078.61 1378.34 1083.57 1377.67C1092.12 1376.53 1099.26 1366.9 1094.44 1363.02C1093.56 1362.32 1089.83 1361.1 1086.15 1360.33C1082.46 1359.55 1078.29 1357.76 1076.87 1356.34C1075.46 1354.92 1073.44 1353.76 1072.38 1353.76C1071.33 1353.76 1070.46 1353.19 1070.46 1352.48C1070.46 1351.78 1069.36 1350.11 1068.02 1348.76C1065.62 1346.36 1065.7 1346.3 1073.28 1344.96C1085.94 1342.73 1088.19 1338.61 1078.92 1334.64C1075.83 1333.31 1072.88 1331.55 1072.37 1330.71C1071.85 1329.88 1069.49 1328.39 1067.11 1327.39C1064.73 1326.4 1062.79 1324.82 1062.79 1323.88C1062.79 1322.94 1061.49 1321.55 1059.91 1320.79C1057.15 1319.45 1057.18 1319.4 1060.87 1319.3C1067.04 1319.15 1074.18 1316.73 1075.41 1314.37C1077 1311.35 1075.13 1307.13 1070.97 1304.32C1065.78 1300.82 1050 1285.28 1050 1283.67C1050 1282.9 1048.88 1281.49 1047.51 1280.53C1045.81 1279.34 1044.61 1276.22 1043.72 1270.69C1041.69 1258.09 1036.17 1254.42 1034.01 1264.25C1033.56 1266.28 1032.02 1269.44 1030.58 1271.27C1029.13 1273.11 1027.42 1276.98 1026.77 1279.89C1026.12 1282.79 1024.43 1286.36 1023.02 1287.81C1021.61 1289.26 1018.49 1292.67 1016.08 1295.39C1013.67 1298.11 1009.82 1301.27 1007.54 1302.42C1005.25 1303.57 1002.5 1306.24 1001.43 1308.35C1000.36 1310.46 999.346 1312.43 999.175 1312.72C999.003 1313 997.852 1312.35 996.617 1311.27C995.381 1310.19 992.456 1308.33 990.114 1307.14C987.569 1305.85 985.128 1303.24 984.042 1300.64C983.043 1298.25 981.075 1295.68 979.667 1294.92C978.259 1294.17 977.107 1292.42 977.107 1291.04C977.107 1289.66 975.901 1287.32 974.427 1285.85C972.562 1283.98 971.363 1280.39 970.481 1274.01C968.382 1258.86 965.387 1257.86 958.586 1270.02C956.014 1274.62 953.579 1280.43 953.174 1282.93C952.768 1285.42 951.63 1287.78 950.646 1288.16C949.105 1288.75 946.648 1292.67 940.659 1304.1C939.956 1305.44 938.109 1306.86 936.555 1307.25C935.001 1307.64 933.01 1308.83 932.13 1309.89C931.25 1310.95 927.435 1313.19 923.651 1314.86C919.868 1316.54 916.999 1318.35 917.274 1318.89C917.549 1319.42 918.75 1322 919.943 1324.62C922.651 1330.55 925.346 1332.02 933.541 1332.02C937.104 1332.02 940.02 1332.53 940.02 1333.16C940.02 1333.79 937.862 1336.1 935.224 1338.28C932.587 1340.46 929.042 1343.4 927.349 1344.81C925.654 1346.21 923.218 1347.37 921.935 1347.37C920.652 1347.37 916.876 1349.98 913.544 1353.17C905.105 1361.26 906.428 1363.13 921.188 1364C933.009 1364.69 935.835 1365.78 930.78 1367.7C929.02 1368.37 927.25 1369.78 926.849 1370.82C926.109 1372.75 923.277 1374.57 913.652 1379.29C910.755 1380.71 907.677 1382.73 906.81 1383.78C905.943 1384.82 903.133 1386.05 900.567 1386.52C894.387 1387.63 892.702 1389.15 892.702 1393.6C892.702 1396.56 893.528 1397.64 896.858 1399.04C904.348 1402.19 910.071 1403.65 914.853 1403.65C917.44 1403.65 919.558 1404.23 919.558 1404.93C919.558 1405.63 919.027 1406.21 918.377 1406.21C917.728 1406.21 915.569 1407.55 913.582 1409.19C910.129 1412.04 898.758 1416.44 894.845 1416.44C893.827 1416.44 891.346 1417.3 889.331 1418.35C887.316 1419.4 884.355 1420.27 882.75 1420.27C881.145 1420.28 877.772 1421.14 875.257 1422.19C871.698 1423.68 870.884 1424.6 871.591 1426.35C872.091 1427.58 873.038 1430.07 873.693 1431.88C874.379 1433.77 877.171 1436.37 880.276 1438.01C883.242 1439.57 887.107 1441.69 888.865 1442.7C890.623 1443.72 895.083 1444.56 898.776 1444.57C902.47 1444.58 905.49 1445.16 905.49 1445.86C905.49 1446.57 904.613 1447.14 903.54 1447.14C902.468 1447.14 901.044 1448.58 900.375 1450.34C899.706 1452.1 898.394 1453.54 897.458 1453.54C896.522 1453.54 893.847 1454.95 891.514 1456.67C889.18 1458.39 885.676 1460.15 883.724 1460.58C881.774 1461.01 879.176 1462.47 877.951 1463.82C876.727 1465.17 873.647 1466.65 871.105 1467.1C868.564 1467.56 865.334 1468.94 863.927 1470.18C862.52 1471.42 860.074 1472.83 858.491 1473.31C852.434 1475.14 852.144 1484.24 858.142 1484.24C859.482 1484.24 860.935 1484.81 861.369 1485.52C861.839 1486.28 860.345 1486.8 857.692 1486.8C855.234 1486.8 851.603 1487.47 849.623 1488.3C844.816 1490.31 831.04 1491.73 807.018 1492.69C788.11 1493.44 786.692 1493.32 776.259 1490.14C768.683 1487.82 762.416 1486.8 755.859 1486.8C746.854 1486.8 745.629 1486.42 730.465 1478.95C721.702 1474.63 712.754 1469.86 710.58 1468.35C705.775 1465.02 691.934 1451.49 691.884 1450.08C691.865 1449.52 690.139 1446.8 688.048 1444.04C685.957 1441.27 684.247 1438.23 684.247 1437.27C684.247 1436.31 682.953 1433.78 681.37 1431.63C678.79 1428.14 678.492 1426.26 678.492 1413.46C678.492 1398.25 678.881 1397.03 690.441 1376.15C693.168 1371.22 719.569 1344.81 721.766 1344.81C722.682 1344.81 724.682 1343.37 726.21 1341.61C727.74 1339.85 729.778 1338.41 730.741 1338.41C731.704 1338.41 734.665 1336.69 737.32 1334.58C739.975 1332.46 742.832 1330.74 743.667 1330.74C744.503 1330.74 746.51 1329.33 748.127 1327.61C749.745 1325.88 752.684 1324.12 754.656 1323.69C756.629 1323.25 758.899 1322.11 759.7 1321.14C760.5 1320.18 762.815 1319.03 764.843 1318.58C766.872 1318.13 769.854 1316.74 771.469 1315.49C773.084 1314.23 776.472 1312.53 778.997 1311.71C781.52 1310.88 785.516 1308.78 787.877 1307.04C790.238 1305.3 793.261 1303.88 794.596 1303.88C795.93 1303.88 798.487 1302.72 800.274 1301.32C802.063 1299.91 804.405 1298.76 805.479 1298.76C806.554 1298.76 809.785 1297.39 812.66 1295.71C815.535 1294.04 820.317 1292.26 823.286 1291.77C826.254 1291.28 830.091 1289.76 831.812 1288.41C833.534 1287.06 837.723 1285.59 841.123 1285.16C845.22 1284.63 848.289 1283.34 850.231 1281.33C852.315 1279.17 854.577 1278.29 858.067 1278.29C860.869 1278.29 863.657 1277.47 864.567 1276.37C865.443 1275.32 867.442 1274.45 869.008 1274.45C872.494 1274.45 879.38 1272.35 883.954 1269.88C885.825 1268.87 888.224 1268.38 889.286 1268.79C890.347 1269.2 892.557 1268.69 894.197 1267.66C895.836 1266.63 899.453 1265.39 902.233 1264.9C905.014 1264.41 909.331 1262.97 911.824 1261.71C914.319 1260.44 918.95 1258.99 922.115 1258.48C925.281 1257.97 929.597 1256.53 931.707 1255.27C933.817 1254.01 938.133 1252.58 941.298 1252.1C946.819 1251.26 949.849 1250.45 961.121 1246.84C963.934 1245.94 968.538 1244.82 971.352 1244.37C974.165 1243.91 977.47 1242.64 978.695 1241.54C980.085 1240.29 984.777 1239.2 991.174 1238.64C997.481 1238.08 1002.28 1236.98 1003.65 1235.76C1004.88 1234.68 1009.33 1233.08 1013.55 1232.23C1017.77 1231.37 1023.24 1229.66 1025.7 1228.44C1028.17 1227.21 1034.09 1225.86 1038.88 1225.43C1044.62 1224.92 1048.65 1223.81 1050.73 1222.17C1052.47 1220.8 1056.9 1219.28 1060.58 1218.79C1064.26 1218.3 1069.06 1216.81 1071.26 1215.48C1073.45 1214.14 1078.3 1212.47 1082.04 1211.76C1085.77 1211.05 1089.82 1209.58 1091.02 1208.49C1092.23 1207.39 1096.73 1206 1101.02 1205.4C1105.57 1204.75 1110.22 1203.19 1112.19 1201.64C1114.05 1200.18 1116.53 1198.98 1117.71 1198.98C1118.88 1198.98 1121.71 1197.61 1123.99 1195.92C1126.27 1194.24 1130.62 1192.49 1133.66 1192.03C1137.11 1191.51 1140.29 1190.01 1142.17 1188.01C1144.41 1185.63 1146 1185.01 1148.49 1185.55C1151.09 1186.13 1152.55 1185.44 1155.26 1182.4C1157.17 1180.26 1159.36 1178.52 1160.13 1178.52C1160.9 1178.52 1163.22 1177.1 1165.27 1175.37C1167.33 1173.64 1170.9 1171.7 1173.21 1171.06C1175.52 1170.42 1179.96 1167.53 1183.08 1164.63C1186.21 1161.73 1189.23 1159.35 1189.81 1159.34C1191.55 1159.32 1215.97 1134.11 1216.8 1131.47C1217.23 1130.12 1220.14 1126.23 1223.26 1122.83C1226.39 1119.42 1229.32 1114.88 1229.77 1112.72C1230.23 1110.57 1231.61 1107.65 1232.84 1106.24C1234.07 1104.84 1235.74 1101.71 1236.55 1099.29C1237.36 1096.87 1238.88 1093.95 1239.92 1092.8C1240.97 1091.65 1242.19 1087.87 1242.65 1084.4C1243.1 1080.94 1244.76 1075.8 1246.35 1072.98C1248.18 1069.71 1249.44 1064.87 1249.83 1059.55C1250.22 1054.19 1251.41 1049.64 1253.16 1046.76C1257.94 1038.92 1256.75 1004.79 1251.26 992.203C1250.3 989.986 1249.5 984.908 1249.5 980.918C1249.5 975.593 1248.69 972.243 1246.43 968.32C1244.74 965.38 1242.97 960.581 1242.5 957.653C1242.03 954.726 1240.55 951.336 1239.21 950.122C1237.86 948.907 1236.41 946.026 1235.98 943.72C1235.55 941.414 1233.81 938.227 1232.12 936.637C1230.43 935.048 1229.04 932.92 1229.04 931.908C1229.04 930.896 1227.56 928.262 1225.76 926.054C1219.65 918.599 1214.98 912.101 1214.98 911.079C1214.98 910.52 1213.89 909.717 1212.56 909.293C1211.22 908.871 1209.83 907.35 1209.45 905.915C1209.08 904.479 1207.65 903.01 1206.27 902.651C1204.9 902.291 1203.14 900.608 1202.37 898.908C1201.6 897.209 1200.13 895.819 1199.1 895.819C1198.08 895.819 1196.87 894.634 1196.41 893.187C1195.95 891.739 1194.33 890.01 1192.8 889.345C1191.28 888.678 1187.45 886.131 1184.28 883.684C1181.12 881.236 1176.4 878.076 1173.8 876.663C1171.2 875.248 1168.58 873.205 1167.97 872.122C1167.37 871.04 1164.69 869.8 1162.02 869.366C1159.35 868.933 1155.81 867.225 1154.16 865.57C1152.15 863.567 1149.66 862.56 1146.71 862.56C1143.85 862.56 1140.93 861.428 1138.48 859.362C1135.84 857.14 1133.15 856.164 1129.66 856.164C1125.9 856.164 1123.94 855.362 1121.86 852.966C1119.97 850.792 1117.75 849.762 1114.91 849.749C1112.62 849.739 1109.31 848.895 1107.55 847.874C1105.79 846.853 1102.05 844.832 1099.24 843.384C1096.42 841.935 1092.68 839.96 1090.93 838.994C1089.17 838.028 1085.51 836.172 1082.79 834.868C1072.87 830.106 1070.62 828.617 1070.03 826.439C1069.7 825.216 1067.94 823.647 1066.11 822.953C1064.29 822.258 1062.79 820.794 1062.79 819.699C1062.79 818.604 1061.95 817.387 1060.93 816.994C1059.21 816.336 1057.59 814.138 1050.64 803.086C1049.23 800.847 1047.08 798.018 1045.85 796.799C1044.62 795.579 1043.61 792.735 1043.61 790.48C1043.61 788.225 1042.82 785.243 1041.86 783.856C1039.28 780.152 1038.28 773.107 1037.65 754.298C1037.14 739.309 1037.43 736.145 1040.34 724.936C1042.15 717.982 1043.61 708.813 1043.61 704.403C1043.61 700.02 1044.24 694.813 1045.02 692.833C1048.81 683.207 1050.03 671.712 1050.22 643.821L1050.42 615.04L1047.01 608.654C1045.14 605.141 1043.61 600.246 1043.61 597.775C1043.61 593.346 1035.61 578.583 1033.21 578.583C1032.62 578.583 1031.31 576.713 1030.31 574.426C1029.3 572.139 1024.4 566.016 1019.42 560.82C1014.44 555.624 1010.36 550.845 1010.36 550.202C1010.36 549.053 1000.35 537.976 993.412 531.438C991.477 529.616 989.893 527.534 989.889 526.811C989.884 525.685 986.808 522.169 979.439 514.865C968.996 504.512 966.024 501.872 964.792 501.854C963.999 501.843 962.64 503.544 961.774 505.637ZM412.489 771.151C424.445 771.588 440.75 774.715 443.367 777.075C444.671 778.252 447.466 779.622 449.576 780.121C451.686 780.62 454.563 782.053 455.97 783.305C457.377 784.556 460.974 786.23 463.963 787.023C466.952 787.818 469.398 789.009 469.398 789.67C469.398 790.333 471.595 791.995 474.28 793.365C476.964 794.735 479.912 796.762 480.83 797.868C481.748 798.975 483.592 799.88 484.929 799.88C486.278 799.88 488.004 801.302 488.814 803.078C489.614 804.837 490.946 806.276 491.772 806.276C492.598 806.276 494.812 808.003 496.692 810.114C498.573 812.224 500.941 813.951 501.957 813.951C502.972 813.951 508.12 818.269 513.395 823.545C518.67 828.822 523.788 833.139 524.769 833.139C525.749 833.139 527.646 834.352 528.987 835.833C530.327 837.315 533.437 839.646 535.899 841.012C546.436 846.862 548.113 847.965 549.721 850.105C550.652 851.345 553.535 853.52 556.125 854.939C558.716 856.356 562.296 858.506 564.079 859.718C565.861 860.929 569.244 863.072 571.593 864.479C573.944 865.886 577.376 868.254 579.222 869.74C581.067 871.226 583.873 872.848 585.456 873.345C587.039 873.84 588.905 875.312 589.602 876.615C590.301 877.918 592.889 879.651 595.356 880.465C597.824 881.279 599.842 882.506 599.842 883.192C599.842 883.876 601.712 885.283 603.998 886.318C606.285 887.353 610.744 890.209 613.91 892.667C617.075 895.124 621.391 897.948 623.501 898.944C625.611 899.937 628.274 901.801 629.418 903.082C630.563 904.363 634.503 907.139 638.175 909.25C641.846 911.361 646.377 914.301 648.243 915.785C650.109 917.269 653.437 919.407 655.638 920.535C657.839 921.663 659.978 923.472 660.392 924.553C660.808 925.634 662.538 926.519 664.238 926.519C666.123 926.519 668.145 927.766 669.422 929.717C670.575 931.476 672.323 932.915 673.308 932.915C674.292 932.915 676.809 934.354 678.899 936.113C680.988 937.871 683.609 939.31 684.721 939.31C685.835 939.31 687.688 940.749 688.841 942.508C689.993 944.267 691.653 945.706 692.531 945.706C693.409 945.706 696.299 947.433 698.954 949.544C701.609 951.654 704.537 953.381 705.461 953.381C706.384 953.381 707.696 954.389 708.378 955.62C709.599 957.828 715.451 961.635 723.572 965.505C725.859 966.595 727.728 968.075 727.728 968.794C727.728 969.513 730.175 971.228 733.163 972.606C736.152 973.984 741.188 977.127 744.354 979.592C750.328 984.243 754.857 986.64 757.666 986.64C758.567 986.64 760.346 987.791 761.618 989.198C762.891 990.605 764.563 991.773 765.333 991.792C766.103 991.812 768.995 993.539 771.757 995.63C774.521 997.721 777.475 999.432 778.324 999.432C779.173 999.432 780.81 1000.87 781.962 1002.63C783.115 1004.39 784.828 1005.83 785.771 1005.83C786.712 1005.83 789.656 1007.55 792.311 1009.67C794.966 1011.78 797.784 1013.5 798.573 1013.5C799.362 1013.5 800.723 1014.65 801.597 1016.05C802.541 1017.56 805.217 1018.91 808.196 1019.39C811.138 1019.86 814.301 1021.45 815.859 1023.24C817.318 1024.92 819.333 1026.29 820.34 1026.29C821.345 1026.29 823.878 1027.73 825.968 1029.49C828.058 1031.25 830.333 1032.69 831.025 1032.69C831.716 1032.69 833.027 1033.59 833.939 1034.69C836.624 1037.92 848.262 1045.08 852.417 1046.05C854.528 1046.55 857.405 1047.99 858.812 1049.27C860.218 1050.54 862.664 1051.98 864.247 1052.46C865.829 1052.94 867.124 1053.87 867.124 1054.52C867.124 1055.18 868.193 1056.78 869.499 1058.09C871.813 1060.4 871.527 1060.49 858.429 1061.29C851.035 1061.74 810.871 1062.11 769.176 1062.11C718.5 1062.11 692.175 1062.56 689.772 1063.48C687.796 1064.23 674.666 1065.12 660.594 1065.46C646.523 1065.79 630.407 1066.62 624.78 1067.29C619.153 1067.96 581.996 1068.52 542.208 1068.53C486.28 1068.54 467.985 1068.94 461.575 1070.28C456.263 1071.39 448.065 1071.82 438.75 1071.49C427.845 1071.09 423.024 1071.43 419.447 1072.87C415.586 1074.41 403.784 1074.92 357.315 1075.57C315.991 1076.14 297.345 1076.87 290.636 1078.17C284.756 1079.31 277.92 1079.7 272.093 1079.22C267.016 1078.8 259.569 1079.07 255.544 1079.83C251.149 1080.65 216.665 1081.5 169.221 1081.94C125.768 1082.35 88.4889 1082.98 86.3788 1083.33C84.2687 1083.69 77.6505 1084.28 71.6719 1084.64C65.6932 1085.01 60.2555 1085.85 59.5866 1086.5C58.0584 1088 28.1905 1088.09 28.1905 1086.59C28.1905 1085.99 29.6293 1083.37 31.3877 1080.78C33.1461 1078.19 34.5848 1075.76 34.5848 1075.39C34.5848 1074.28 44.9232 1064.67 46.1125 1064.67C46.711 1064.67 47.5576 1063.55 47.9924 1062.18C48.4273 1060.81 49.8749 1059.34 51.2101 1058.91C52.5452 1058.49 53.9839 1057.05 54.4072 1055.72C54.8305 1054.38 56.2692 1052.94 57.6044 1052.52C58.9395 1052.09 60.3808 1050.65 60.8079 1049.3C61.2351 1047.95 65.1484 1043.37 69.5055 1039.11C82.8939 1026.01 92.5506 1016.35 97.6404 1010.97C100.318 1008.14 103.247 1005.83 104.15 1005.83C105.053 1005.83 106.447 1004.39 107.247 1002.63C108.049 1000.87 109.616 999.432 110.731 999.432C111.845 999.432 117.289 995.114 122.826 989.838C128.364 984.561 133.507 980.244 134.256 980.244C135.004 980.244 140.119 975.739 145.623 970.233C151.129 964.726 156.596 959.852 157.773 959.4C158.95 958.948 159.913 957.711 159.913 956.652C159.913 955.593 161.64 953.833 163.75 952.742C165.86 951.651 167.587 949.971 167.587 949.01C167.587 948.048 168.881 946.933 170.464 946.531C172.047 946.129 177.945 941.106 183.572 935.372C200.4 918.222 205.184 913.796 207.837 912.924C209.225 912.467 213.058 909.295 216.353 905.875C219.65 902.455 222.987 899.656 223.768 899.656C224.551 899.656 225.823 898.266 226.597 896.567C227.372 894.867 229.128 893.183 230.501 892.824C231.875 892.464 233.311 890.977 233.692 889.517C234.073 888.058 235.346 886.864 236.52 886.864C237.694 886.864 244.101 881.361 250.759 874.637C257.415 867.911 264.876 861.352 267.338 860.062C269.8 858.772 274.404 855.055 277.569 851.803C287.502 841.597 289.777 839.535 291.105 839.535C291.815 839.535 294.671 837.184 297.451 834.309C300.231 831.436 304.521 827.998 306.983 826.669C309.444 825.341 313.745 821.936 316.54 819.102C319.334 816.269 322.303 813.951 323.138 813.951C323.974 813.951 327.951 810.785 331.977 806.916C336.004 803.046 340.087 799.88 341.053 799.88C342.018 799.88 344.058 798.441 345.588 796.682C347.116 794.924 349.038 793.485 349.856 793.485C350.676 793.485 352.368 792.355 353.618 790.975C354.867 789.593 357.838 787.82 360.22 787.035C362.602 786.248 365.143 784.5 365.865 783.149C366.588 781.798 367.942 780.693 368.874 780.693C369.807 780.693 372.684 779.257 375.269 777.502C377.853 775.749 382.281 773.943 385.108 773.491C387.935 773.038 392.375 771.914 394.973 770.992C397.573 770.068 400.851 769.664 402.258 770.092C403.665 770.522 408.268 770.998 412.489 771.151ZM1012.91 806.991C1012.91 810.554 1012.42 812.516 1011.64 812.033C1010.93 811.598 1010.36 808.974 1010.36 806.201C1010.36 803.427 1010.93 801.16 1011.64 801.16C1012.34 801.16 1012.91 803.784 1012.91 806.991ZM1020.08 821.047C1020.98 824.649 1020.2 826.167 1018.12 824.877C1016.4 823.819 1016.31 817.789 1018.01 817.789C1018.7 817.789 1019.63 819.255 1020.08 821.047ZM1033.7 837.848C1038.8 843.252 1044.08 848.576 1045.43 849.68C1046.79 850.784 1049.9 853.557 1052.35 855.844C1054.79 858.131 1057.56 860.002 1058.51 860.002C1059.46 860.002 1060.23 860.94 1060.23 862.088C1060.23 865.091 1051.54 863.5 1049.13 860.055C1048.12 858.619 1046.57 857.443 1045.67 857.443C1042.62 857.443 1023.47 835.961 1022.87 831.857C1022.56 829.748 1022.79 828.022 1023.37 828.022C1023.95 828.022 1028.6 832.444 1033.7 837.848ZM1753.76 846.018C1757.13 846.673 1762.14 847.21 1764.89 847.21C1768.31 847.21 1770.26 847.911 1771.11 849.448C1772.33 851.655 1778.79 855.88 1785.67 858.98C1787.61 859.852 1789.53 861.622 1789.94 862.914C1790.35 864.208 1792.07 865.794 1793.77 866.44C1795.47 867.084 1796.86 868.425 1796.86 869.416C1796.86 870.409 1798.3 872.163 1800.05 873.315C1801.81 874.468 1803.25 876.16 1803.25 877.075C1803.25 877.991 1807.85 883.537 1813.46 889.4C1819.08 895.262 1824.01 901.119 1824.42 902.417C1824.83 903.712 1825.73 904.773 1826.42 904.773C1827.11 904.773 1828.48 906.684 1829.46 909.021C1830.43 911.358 1833.48 915.531 1836.24 918.295C1838.99 921.059 1842.22 925.222 1843.42 927.543C1844.61 929.866 1846.37 932.066 1847.32 932.434C1848.28 932.799 1849.41 934.497 1849.84 936.205C1850.27 937.914 1851.46 939.31 1852.48 939.31C1853.5 939.31 1855.28 941.131 1856.43 943.354C1857.58 945.578 1859.91 948.888 1861.61 950.709C1863.31 952.531 1866.27 956.323 1868.19 959.138C1870.1 961.952 1872.68 965.007 1873.91 965.926C1875.14 966.845 1876.15 968.463 1876.15 969.521C1876.15 970.577 1879.02 974.487 1882.54 978.205C1886.06 981.925 1888.94 985.613 1888.94 986.4C1888.94 987.187 1890.66 989.597 1892.77 991.757C1894.88 993.916 1896.61 996.33 1896.61 997.122C1896.61 997.913 1899.77 1001.88 1903.64 1005.94C1907.51 1009.99 1910.68 1014.2 1910.68 1015.28C1910.68 1016.36 1911.83 1017.87 1913.23 1018.62C1914.64 1019.37 1915.79 1020.75 1915.79 1021.69C1915.79 1022.62 1917.52 1025.56 1919.63 1028.21C1921.74 1030.87 1923.46 1033.82 1923.46 1034.77C1923.46 1035.73 1924.62 1037.22 1926.02 1038.1C1929.5 1040.28 1929.24 1042.74 1925.37 1044.21C1923.43 1044.94 1881.61 1045.43 1819.72 1045.44C1761.56 1045.45 1715.28 1045.97 1712.63 1046.64C1707.21 1048.01 1496.62 1049.99 1492.57 1048.71C1490 1047.89 1490.08 1047.68 1494.04 1045.04C1496.35 1043.5 1499.11 1040.52 1500.18 1038.42C1501.24 1036.32 1504.24 1032.59 1506.85 1030.13C1509.45 1027.67 1512.32 1024.88 1513.23 1023.94C1514.13 1023 1522.06 1014.82 1530.85 1005.77C1539.65 996.713 1548.85 987.005 1551.32 984.189C1553.78 981.374 1556.77 978.73 1557.96 978.313C1559.16 977.895 1560.48 976.463 1560.91 975.127C1561.33 973.792 1562.77 972.353 1564.1 971.929C1565.44 971.506 1566.86 970.125 1567.26 968.861C1567.66 967.596 1569.42 965.911 1571.16 965.115C1572.91 964.321 1574.34 962.833 1574.34 961.81C1574.34 960.786 1575.46 959.593 1576.83 959.158C1578.2 958.723 1579.68 957.246 1580.11 955.874C1580.55 954.503 1581.37 953.381 1581.93 953.381C1582.5 953.381 1590.85 945.61 1600.48 936.113C1610.12 926.615 1618.4 918.844 1618.9 918.844C1619.4 918.844 1624.1 914.823 1629.36 909.909C1634.62 904.993 1639.62 900.963 1640.47 900.954C1641.33 900.944 1644.04 898.921 1646.51 896.458C1648.97 893.996 1651.58 891.981 1652.3 891.981C1653.03 891.981 1653.62 891.125 1653.62 890.079C1653.62 889.034 1655.5 887.294 1657.78 886.216C1664.42 883.079 1671.37 878.561 1674.16 875.565C1675.58 874.041 1677.31 872.793 1678 872.793C1678.7 872.793 1679.81 871.354 1680.48 869.595C1681.19 867.732 1682.71 866.397 1684.13 866.397C1685.47 866.397 1687.31 865.492 1688.23 864.385C1689.15 863.279 1691.99 861.306 1694.55 860.002C1697.1 858.697 1699.9 856.784 1700.75 855.752C1701.61 854.719 1704.31 853.498 1706.75 853.042C1709.19 852.584 1712.19 851.163 1713.42 849.882C1714.92 848.313 1718.3 847.328 1723.79 846.852C1728.27 846.464 1732.56 845.519 1733.33 844.75C1734.76 843.313 1742.23 843.777 1753.76 846.018ZM1071.2 867.829C1071.58 868.449 1069.84 868.956 1067.34 868.956C1063.19 868.956 1061.72 867.893 1063.46 866.154C1064.42 865.198 1070.37 866.487 1071.2 867.829ZM1083.6 874.912C1082.73 875.262 1081 875.284 1079.76 874.959C1078.52 874.634 1079.22 874.348 1081.33 874.322C1083.44 874.296 1084.46 874.561 1083.6 874.912ZM1119.06 888.143C1119.06 888.847 1117.66 889.423 1115.94 889.423C1114.22 889.423 1112.46 888.847 1112.03 888.143C1111.56 887.398 1112.87 886.864 1115.15 886.864C1117.3 886.864 1119.06 887.44 1119.06 888.143ZM1145.17 899.54C1157.6 905.927 1166.9 912.647 1180.73 925.24C1190.25 933.912 1197.1 943.015 1203.46 955.443C1206.14 960.679 1208.94 965.707 1209.7 966.617C1210.45 967.525 1211.94 972.024 1213 976.614C1214.07 981.203 1215.91 987.208 1217.1 989.957C1220.24 997.197 1221.03 1033.67 1218.31 1046.12C1213.54 1068.03 1212.16 1073.06 1210.45 1074.96C1209.44 1076.08 1207.93 1078.94 1207.1 1081.32C1206.27 1083.71 1204.39 1087.53 1202.93 1089.82C1201.47 1092.11 1198.6 1096.74 1196.57 1100.12C1194.54 1103.48 1191.5 1108.31 1189.83 1110.83C1185.78 1116.93 1168.52 1133.2 1162.7 1136.41C1158.08 1138.96 1150.87 1143.92 1147.21 1147.08C1146.15 1148 1143.64 1149.14 1141.63 1149.62C1139.63 1150.1 1136.32 1151.61 1134.28 1152.99C1132.24 1154.37 1128.93 1156.6 1126.92 1157.95C1124.91 1159.3 1120.74 1161.08 1117.65 1161.9C1114.56 1162.73 1110.23 1164.5 1108.04 1165.84C1105.85 1167.18 1103.24 1168.28 1102.25 1168.28C1101.26 1168.28 1097.01 1169.99 1092.81 1172.08C1088.61 1174.17 1084.29 1175.9 1083.2 1175.92C1082.12 1175.94 1079.07 1177.06 1076.41 1178.42C1073.76 1179.77 1069.18 1181.27 1066.23 1181.74C1063.28 1182.22 1057.42 1183.94 1053.2 1185.56C1048.98 1187.17 1043.24 1188.89 1040.45 1189.37C1037.67 1189.85 1033.93 1191 1032.14 1191.91C1030.36 1192.83 1024.3 1194.57 1018.67 1195.8C1013.04 1197.02 1006.5 1198.82 1004.13 1199.78C1001.75 1200.75 996.091 1202.14 991.546 1202.86C987.001 1203.59 982.036 1204.98 980.515 1205.96C978.991 1206.94 974.869 1208.13 971.352 1208.62C967.835 1209.1 962.484 1210.57 959.462 1211.87C956.44 1213.18 950.397 1214.86 946.034 1215.62C941.67 1216.38 935.405 1218.12 932.11 1219.5C928.814 1220.88 924.786 1222.02 923.158 1222.04C921.53 1222.05 917.732 1223.18 914.717 1224.55C911.703 1225.92 905.085 1227.9 900.01 1228.96C894.936 1230.02 888.503 1232.05 885.718 1233.48C882.931 1234.91 879.19 1236.08 877.405 1236.09C875.619 1236.1 871.281 1237.52 867.764 1239.25C864.247 1240.98 859.969 1242.41 858.257 1242.44C856.544 1242.46 852.804 1243.59 849.944 1244.96C847.085 1246.33 842.155 1248.4 838.989 1249.56C831.473 1252.32 814.75 1258.28 805.189 1261.6C801.017 1263.05 796.692 1265.07 795.578 1266.08C794.463 1267.09 791.073 1268.47 788.045 1269.15C785.015 1269.83 781.571 1271.22 780.389 1272.24C779.209 1273.26 776.346 1274.73 774.027 1275.51C771.708 1276.28 768.322 1278.09 766.501 1279.52C764.681 1280.96 762.23 1282.13 761.054 1282.13C759.879 1282.13 757.009 1283.54 754.675 1285.26C752.341 1286.98 748.784 1288.75 746.768 1289.2C744.753 1289.64 742.769 1290.54 742.36 1291.21C741.949 1291.87 738.922 1293.86 735.63 1295.63C732.34 1297.4 727.057 1300.55 723.892 1302.63C720.727 1304.72 716.162 1307.34 713.748 1308.46C703.565 1313.19 664.729 1349.39 662.268 1356.45C661.559 1358.49 660.514 1360.16 659.947 1360.16C657.931 1360.16 650.02 1377.76 646.408 1390.29C641.469 1407.42 641.463 1417.97 646.381 1434.99C649.884 1447.11 654.015 1456.43 659.445 1464.47C664.067 1471.31 684.915 1492.16 690.322 1495.35C693.31 1497.11 695.757 1499.1 695.757 1499.78C695.757 1500.45 697.916 1501.89 700.553 1502.98C703.191 1504.07 706.211 1505.7 707.267 1506.61C708.322 1507.52 711.199 1508.68 713.661 1509.2C716.123 1509.71 720.439 1511.46 723.252 1513.08C726.066 1514.69 731.245 1516.43 734.762 1516.94C738.279 1517.45 743.458 1518.68 746.272 1519.67C754.604 1522.63 784.546 1525.67 804.46 1525.58C824.445 1525.49 869.653 1522.14 877.995 1520.14C889.782 1517.3 896.675 1516.35 910.487 1515.63C918.509 1515.21 929.409 1513.73 934.706 1512.35C940.003 1510.96 947.352 1509.82 951.037 1509.82C954.721 1509.82 963.389 1508.73 970.298 1507.4C977.208 1506.07 987.167 1504.59 992.43 1504.1C997.692 1503.61 1004.02 1502.33 1006.5 1501.25C1008.97 1500.17 1013.01 1499.13 1015.47 1498.95C1021.18 1498.52 1035.29 1494.91 1038.91 1492.95C1040.44 1492.13 1044.57 1490.73 1048.08 1489.85C1054.55 1488.24 1069.49 1482.58 1073.02 1480.41C1091.06 1469.31 1095.8 1467.89 1105.43 1470.69C1111.71 1472.52 1112.85 1472.51 1118.56 1470.62C1122 1469.48 1125.97 1467.51 1127.37 1466.25C1128.78 1464.99 1131.66 1463.56 1133.77 1463.06C1135.88 1462.56 1138.75 1461.15 1140.16 1459.93C1141.73 1458.56 1145.74 1457.44 1150.54 1457.03C1154.84 1456.67 1160.6 1455.22 1163.33 1453.81C1175.08 1447.77 1185.06 1443.3 1186.84 1443.3C1187.9 1443.3 1190.5 1442.23 1192.63 1440.94C1194.75 1439.64 1198.78 1437.84 1201.58 1436.94C1204.37 1436.04 1207.6 1434.49 1208.74 1433.49C1209.89 1432.5 1213.16 1430.41 1216.02 1428.86C1222.85 1425.15 1229.64 1421.06 1236.72 1416.4C1239.88 1414.32 1244.41 1411.71 1246.78 1410.61C1249.15 1409.51 1254.43 1405.91 1258.5 1402.61C1262.58 1399.31 1268 1395.18 1270.55 1393.42C1273.1 1391.66 1277.26 1388.64 1279.79 1386.7C1282.32 1384.77 1285.32 1383.18 1286.46 1383.18C1287.6 1383.18 1291.11 1381.83 1294.27 1380.17C1297.43 1378.51 1301.71 1376.75 1303.78 1376.25C1305.84 1375.75 1309.01 1374.3 1310.81 1373.03C1312.61 1371.76 1315.53 1370.29 1317.28 1369.75C1319.04 1369.22 1321.92 1367.78 1323.68 1366.56C1325.44 1365.33 1328.31 1363.89 1330.07 1363.36C1331.83 1362.82 1334.71 1361.39 1336.47 1360.17C1338.23 1358.95 1341.81 1357.26 1344.44 1356.41C1347.07 1355.55 1349.53 1354.36 1349.9 1353.75C1350.27 1353.15 1353.59 1351.77 1357.27 1350.69C1360.95 1349.61 1366.24 1347.56 1369.03 1346.13C1371.81 1344.7 1375.01 1343.53 1376.14 1343.53C1377.26 1343.53 1379.29 1342.72 1380.64 1341.73C1382.77 1340.17 1383.61 1340.21 1386.96 1342.03C1390.02 1343.7 1394.37 1344.11 1408.08 1344.04C1422.63 1343.96 1426.56 1343.49 1433.02 1341.1C1437.24 1339.53 1443.28 1337.75 1446.45 1337.15C1449.61 1336.55 1453.93 1335.18 1456.04 1334.13C1458.15 1333.07 1463.62 1331.54 1468.19 1330.73C1472.76 1329.91 1478.23 1328.21 1480.34 1326.94C1482.45 1325.67 1488.19 1324.22 1493.11 1323.71C1498.02 1323.21 1505.5 1321.77 1509.73 1320.51C1514.21 1319.18 1526.23 1317.63 1538.53 1316.78C1550.13 1315.98 1565.4 1314.72 1572.46 1313.98C1579.52 1313.25 1585.85 1312.79 1586.53 1312.97C1587.21 1313.15 1591.17 1312.56 1595.33 1311.65C1604.16 1309.73 1622.91 1310.83 1628.26 1313.58C1630.21 1314.59 1632.28 1317.19 1633.1 1319.67C1634.16 1322.9 1635.87 1324.6 1639.87 1326.4C1642.82 1327.73 1647.01 1330.6 1649.19 1332.78C1653.69 1337.29 1663.79 1343.53 1666.57 1343.53C1667.6 1343.53 1670.43 1344.55 1672.87 1345.79C1675.3 1347.03 1684.2 1350.24 1692.64 1352.91C1729.14 1364.46 1733.38 1365.92 1734.95 1367.49C1735.85 1368.4 1736.98 1371.71 1737.45 1374.84C1738.36 1380.9 1739.44 1382.32 1744.24 1383.8C1747.29 1384.73 1755.07 1389.49 1758.39 1392.44C1759.39 1393.33 1761.76 1394.92 1763.66 1395.98C1769.96 1399.47 1776.44 1406.13 1777.19 1409.86C1778.04 1414.12 1775.18 1420.47 1771.13 1423.31C1766.69 1426.42 1768.8 1433.07 1777.11 1442.11C1780.94 1446.27 1784.07 1450.47 1784.07 1451.44C1784.07 1452.4 1785.22 1454.66 1786.63 1456.45C1790 1460.74 1789.85 1463.53 1785.88 1470.65C1782.64 1476.45 1781.07 1477.67 1779.7 1475.46C1778.78 1473.97 1763.22 1463.7 1755.29 1459.35C1748.84 1455.8 1736.59 1453.16 1727.16 1453.28C1724.35 1453.31 1717.9 1453.45 1712.84 1453.58C1705.91 1453.77 1702.28 1453.2 1698.13 1451.26C1691.27 1448.06 1666.61 1446.32 1660.12 1448.58C1656.07 1449.99 1655.97 1450.2 1656.77 1455.56C1657.44 1460.06 1657.13 1461.55 1655.08 1463.6C1652.18 1466.5 1647.31 1467.16 1620.58 1468.3C1609.6 1468.77 1600.12 1469.84 1596.93 1470.98C1594 1472.02 1586.71 1473.47 1580.73 1474.2C1572.84 1475.17 1566.36 1477.04 1557.07 1481.04C1550.04 1484.06 1542.33 1486.95 1539.95 1487.45C1537.57 1487.95 1532.68 1489.73 1529.08 1491.4C1525.48 1493.08 1521.68 1494.46 1520.62 1494.47C1519.57 1494.48 1516.98 1495.41 1514.87 1496.54C1507.54 1500.45 1493.09 1506.18 1486.37 1507.84C1482.65 1508.76 1478.62 1510.36 1477.42 1511.41C1476.21 1512.45 1473.23 1513.69 1470.79 1514.15C1466.18 1515.02 1459.24 1520.61 1459.24 1523.45C1459.24 1525.7 1446.58 1533.62 1441.22 1534.74C1438.82 1535.24 1435.06 1536.69 1432.87 1537.95C1430.67 1539.21 1426.35 1540.65 1423.27 1541.16C1420.19 1541.66 1415.66 1543.13 1413.2 1544.41C1410.39 1545.88 1405.01 1546.95 1398.78 1547.29C1390.96 1547.7 1388.22 1548.39 1385.99 1550.47C1384.42 1551.93 1381.42 1553.53 1379.31 1554.03C1377.2 1554.52 1374.32 1555.95 1372.91 1557.21C1371.51 1558.46 1367.98 1560.11 1365.07 1560.88C1362.16 1561.66 1359.1 1563.12 1358.25 1564.13C1357.41 1565.15 1354.61 1566.65 1352.03 1567.48C1349.45 1568.3 1346.19 1570 1344.78 1571.24C1343.37 1572.49 1340.41 1573.89 1338.2 1574.36C1335.98 1574.82 1333.19 1576.29 1331.99 1577.62C1330.79 1578.95 1328.17 1580.39 1326.18 1580.83C1324.18 1581.27 1316.94 1584.47 1310.08 1587.94C1303.23 1591.41 1296.94 1594.25 1296.11 1594.25C1295.29 1594.25 1293.19 1595.37 1291.45 1596.74C1289.71 1598.1 1285.46 1599.92 1282 1600.78C1278.55 1601.63 1274.43 1603.32 1272.85 1604.54C1271.28 1605.76 1268.05 1607.12 1265.68 1607.56C1263.31 1608 1260.33 1609.51 1259.07 1610.9C1257.71 1612.4 1255.14 1613.44 1252.76 1613.44C1250.55 1613.44 1248.05 1614.12 1247.22 1614.96C1246.38 1615.79 1243.2 1616.34 1240.14 1616.19C1236.75 1616.01 1231.07 1617.16 1225.58 1619.14C1220.63 1620.93 1215.17 1622.39 1213.44 1622.39C1211.31 1622.39 1208.97 1624.03 1206.22 1627.45C1203.2 1631.21 1200.92 1632.71 1197.37 1633.27C1194.75 1633.68 1189.72 1635.13 1186.2 1636.49C1182.68 1637.85 1175.92 1639.77 1171.17 1640.75C1166.43 1641.74 1161.72 1643.23 1160.71 1644.06C1159.71 1644.89 1153.73 1646.35 1147.42 1647.3C1141.11 1648.25 1134.59 1649.87 1132.94 1650.91C1131.28 1651.94 1127.34 1653.15 1124.18 1653.6C1121.01 1654.05 1114.97 1655.51 1110.75 1656.84C1106.53 1658.18 1099.94 1659.98 1096.11 1660.84C1092.28 1661.7 1086.82 1663.42 1083.96 1664.66C1081.11 1665.9 1074.46 1667.29 1069.18 1667.75C1060.63 1668.51 1046.31 1671.28 1031.46 1675.06C1009.54 1680.65 964.691 1682.72 862.648 1682.86C801.844 1682.94 767.981 1681.43 756.622 1678.12C753.014 1677.07 743.385 1675.39 735.226 1674.39C726.622 1673.33 719.076 1671.69 717.258 1670.5C715.534 1669.37 710.423 1668.08 705.899 1667.63C701.376 1667.19 694.383 1665.46 690.36 1663.79C686.337 1662.13 681.725 1660.77 680.11 1660.77C678.496 1660.77 675.01 1659.61 672.364 1658.19C669.718 1656.77 664.547 1654.98 660.873 1654.22C657.199 1653.46 652.85 1651.98 651.206 1650.94C649.563 1649.9 645.535 1648.25 642.254 1647.27C638.974 1646.29 634.009 1644.32 631.224 1642.89C628.437 1641.47 625.206 1640.3 624.042 1640.3C622.88 1640.3 620.556 1639.23 618.878 1637.93C617.2 1636.62 613.678 1634.85 611.05 1633.99C608.422 1633.14 605.913 1631.86 605.474 1631.14C605.036 1630.43 602.294 1628.74 599.382 1627.39C596.47 1626.03 591.498 1623.22 588.332 1621.14C585.167 1619.06 580.563 1616.17 578.101 1614.71C571.63 1610.87 565.549 1606.43 558.362 1600.28C549.23 1592.48 525.678 1568.87 521.192 1563.03C519.082 1560.28 516.174 1556.54 514.73 1554.71C510.221 1549.02 503.927 1538.87 503.927 1537.3C503.927 1536.48 502.834 1534.81 501.496 1533.6C500.159 1532.39 498.71 1529.5 498.274 1527.18C497.839 1524.86 496.376 1521.96 495.023 1520.74C493.67 1519.51 492.173 1516.7 491.696 1514.49C491.221 1512.27 489.983 1508.8 488.947 1506.78C481.927 1493.04 481.712 1434.71 488.633 1421.79C490.012 1419.22 491.139 1416.27 491.139 1415.23C491.139 1412.06 502.817 1389.7 509.645 1379.8C520.151 1364.57 536.597 1348.61 552.227 1338.48C555.908 1336.1 558.919 1333.73 558.919 1333.22C558.919 1332.71 561.109 1331.42 563.787 1330.35C566.464 1329.27 569.412 1327.49 570.337 1326.37C571.263 1325.25 572.769 1324.34 573.684 1324.34C574.599 1324.34 576.975 1323 578.962 1321.35C580.951 1319.7 584.475 1317.71 586.794 1316.92C589.112 1316.13 592.499 1314.31 594.32 1312.88C596.14 1311.44 598.304 1310.27 599.127 1310.27C599.951 1310.27 602.574 1308.83 604.958 1307.07C607.341 1305.31 610.195 1303.88 611.299 1303.88C612.404 1303.88 615.314 1302.8 617.765 1301.5C620.217 1300.19 623.661 1298.67 625.419 1298.13C627.178 1297.59 630.114 1296.09 631.944 1294.8C633.774 1293.51 638.09 1291.84 641.536 1291.09C644.981 1290.33 649.341 1288.6 651.224 1287.23C653.108 1285.87 657.136 1284.36 660.176 1283.9C663.216 1283.43 668.288 1281.69 671.448 1280.03C674.608 1278.37 677.944 1277.01 678.86 1277.01C679.777 1277.01 683.23 1275.57 686.534 1273.81C689.837 1272.06 694.207 1270.62 696.247 1270.62C698.285 1270.62 702.317 1269.49 705.208 1268.12C715.156 1263.39 727.1 1258.88 732.795 1257.7C735.932 1257.05 740.687 1255.38 743.36 1253.99C746.033 1252.59 750.66 1251.09 753.641 1250.65C756.622 1250.21 760.499 1248.94 762.258 1247.84C764.016 1246.73 769.195 1245.12 773.767 1244.26C778.339 1243.4 784.666 1241.74 787.826 1240.57C790.987 1239.39 796.497 1237.89 800.071 1237.23C803.644 1236.57 808.806 1234.89 811.54 1233.5C814.274 1232.1 818.441 1230.96 820.799 1230.96C823.157 1230.96 827.784 1229.84 831.08 1228.47C834.375 1227.09 839.661 1225.3 842.826 1224.49C845.991 1223.68 850.041 1222.27 851.825 1221.34C853.609 1220.42 859.55 1218.74 865.024 1217.61C870.499 1216.48 876.232 1214.76 877.766 1213.79C879.298 1212.81 883.142 1211.63 886.307 1211.16C889.473 1210.68 896.188 1208.9 901.229 1207.2C906.27 1205.49 911.738 1204.07 913.378 1204.04C915.019 1204.01 918.663 1203.14 921.476 1202.09C924.29 1201.05 931.483 1199.12 937.462 1197.8C959.648 1192.9 974.647 1188.89 993.092 1182.95C996.609 1181.81 1003.23 1180.01 1007.8 1178.93C1012.37 1177.86 1019.05 1175.6 1022.63 1173.91C1026.22 1172.22 1030.54 1170.84 1032.23 1170.83C1033.91 1170.82 1038.17 1169.4 1041.69 1167.67C1045.21 1165.94 1048.96 1164.51 1050.02 1164.48C1051.09 1164.46 1054.23 1163.23 1057.01 1161.74C1059.79 1160.24 1064.75 1158.23 1068.03 1157.25C1071.31 1156.28 1074.68 1154.66 1075.51 1153.65C1076.35 1152.64 1078.65 1151.46 1080.63 1151.03C1082.6 1150.6 1086.12 1148.83 1088.46 1147.11C1090.79 1145.39 1093.56 1143.98 1094.62 1143.98C1095.68 1143.98 1098.59 1142.64 1101.09 1141C1103.59 1139.37 1107.96 1136.49 1110.82 1134.61C1113.67 1132.73 1116.54 1131.18 1117.21 1131.17C1117.88 1131.16 1120.04 1129.87 1122.03 1128.29C1130.19 1121.81 1135.79 1117.58 1140.18 1114.56C1148.42 1108.89 1167.42 1089.85 1173.39 1081.3C1180.28 1071.42 1187.09 1057.56 1189.4 1048.68C1190.32 1045.16 1191.99 1040.56 1193.11 1038.45C1196.17 1032.7 1196.06 987.717 1192.98 982.163C1191.81 980.052 1189.87 974.439 1188.66 969.69C1187.45 964.94 1185.65 960.381 1184.66 959.559C1183.67 958.735 1182.02 956.289 1181.01 954.123C1173.59 938.305 1147.47 910.181 1133.6 903.079C1131.4 901.952 1129.26 900.145 1128.85 899.064C1128.43 897.983 1127.28 897.098 1126.29 897.098C1123.99 897.098 1121.34 893.964 1122.59 892.713C1124.51 890.78 1133.29 893.433 1145.17 899.54ZM1014.21 1321.08C1010.99 1322.86 1009.08 1322.62 1009.08 1320.43C1009.08 1319.77 1010.95 1319.25 1013.23 1319.27L1017.39 1319.32L1014.21 1321.08ZM996.289 1333.3C993.776 1334.92 989.895 1334.92 989.895 1333.3C989.895 1332.59 991.765 1332.03 994.051 1332.04C997.205 1332.05 997.745 1332.36 996.289 1333.3ZM1560.27 1833.45C1559.12 1834.2 1558.96 1834.7 1559.87 1834.71C1560.71 1834.72 1561.75 1834.16 1562.19 1833.45C1563.17 1831.87 1562.72 1831.87 1560.27 1833.45ZM1540.37 1846.96C1537.99 1848.87 1538 1848.89 1540.77 1847.55C1542.35 1846.78 1543.64 1845.89 1543.64 1845.56C1543.64 1844.58 1542.98 1844.87 1540.37 1846.96ZM1506.39 1867.56C1504.8 1869.49 1504.91 1869.55 1507.51 1868.16C1510.49 1866.57 1511.22 1865.43 1509.27 1865.43C1508.65 1865.43 1507.36 1866.39 1506.39 1867.56ZM1417.68 1914.03C1417.24 1914.75 1417.75 1914.97 1418.89 1914.53C1421.1 1913.68 1421.51 1912.76 1419.67 1912.76C1419.01 1912.76 1418.11 1913.33 1417.68 1914.03ZM1387.62 1926.83C1385.92 1927.94 1385.92 1928.07 1387.62 1928.07C1388.68 1928.07 1390.4 1927.52 1391.46 1926.83C1393.16 1925.73 1393.16 1925.59 1391.46 1925.59C1390.4 1925.59 1388.68 1926.15 1387.62 1926.83ZM1371.64 1933.23C1370.63 1934.86 1373.59 1934.86 1376.11 1933.23C1377.67 1932.22 1377.51 1931.99 1375.23 1931.97C1373.69 1931.96 1372.07 1932.53 1371.64 1933.23ZM1354.37 1940.27C1352.38 1942.66 1354.02 1942.66 1358.21 1940.27C1361.22 1938.54 1361.25 1938.43 1358.68 1938.39C1357.19 1938.37 1355.25 1939.21 1354.37 1940.27ZM1339.02 1946.02C1337.32 1947.12 1337.32 1947.26 1339.02 1947.26C1340.08 1947.26 1341.81 1946.7 1342.86 1946.02C1344.57 1944.92 1344.57 1944.78 1342.86 1944.78C1341.81 1944.78 1340.08 1945.34 1339.02 1946.02ZM1271.81 1967.19C1269.48 1969.05 1269.6 1969.11 1273.8 1968.3C1276.26 1967.82 1279.43 1966.97 1280.84 1966.4C1282.86 1965.59 1282.45 1965.35 1278.84 1965.29C1276.34 1965.25 1273.17 1966.1 1271.81 1967.19ZM1256.94 1972.48C1257.86 1972.85 1258.96 1972.8 1259.39 1972.38C1259.81 1971.95 1259.06 1971.65 1257.71 1971.71C1256.22 1971.77 1255.92 1972.07 1256.94 1972.48ZM1243.11 1975.44C1240.77 1976.95 1242.79 1976.95 1246.31 1975.44C1247.99 1974.72 1248.21 1974.32 1246.95 1974.27C1245.89 1974.23 1244.16 1974.76 1243.11 1975.44ZM1219.45 1980.58C1216.64 1981.96 1215.49 1982.84 1216.89 1982.53C1218.3 1982.23 1221.6 1981.59 1224.24 1981.13C1226.87 1980.66 1228.7 1979.77 1228.32 1979.14C1227.27 1977.44 1225.13 1977.79 1219.45 1980.58ZM1231.36 1978.87C1232.28 1979.24 1233.39 1979.2 1233.81 1978.77C1234.24 1978.35 1233.48 1978.05 1232.13 1978.1C1230.64 1978.16 1230.34 1978.47 1231.36 1978.87ZM801.663 1985.27C802.585 1985.64 803.689 1985.59 804.114 1985.17C804.538 1984.74 803.784 1984.44 802.436 1984.5C800.946 1984.56 800.643 1984.86 801.663 1985.27ZM1186.54 1986.65C1184.38 1987.54 1182.92 1988.57 1183.28 1988.94C1183.9 1989.56 1203.6 1985.94 1204.53 1985.03C1205.74 1983.84 1189.89 1985.27 1186.54 1986.65ZM808.058 1986.55C808.98 1986.92 810.083 1986.87 810.508 1986.45C810.932 1986.02 810.178 1985.72 808.83 1985.78C807.34 1985.84 807.037 1986.14 808.058 1986.55ZM1168.7 1991.67C1169.62 1992.04 1170.72 1991.99 1171.15 1991.57C1171.57 1991.14 1170.82 1990.84 1169.47 1990.89C1167.98 1990.95 1167.68 1991.26 1168.7 1991.67ZM843.146 1992.95C844.376 1993.28 846.391 1993.28 847.622 1992.95C848.852 1992.63 847.845 1992.37 845.384 1992.37C842.922 1992.37 841.915 1992.63 843.146 1992.95ZM1145.92 1993.35C1144.86 1994.03 1142.45 1994.6 1140.56 1994.61C1138.66 1994.62 1136.75 1995.23 1136.29 1995.96C1135.78 1996.79 1136.59 1997.06 1138.46 1996.66C1140.1 1996.32 1146.48 1995.37 1152.63 1994.56C1158.79 1993.75 1163.82 1992.86 1163.82 1992.58C1163.82 1991.49 1147.72 1992.18 1145.92 1993.35ZM851.539 1994.22C852.461 1994.59 853.565 1994.55 853.989 1994.12C854.414 1993.7 853.659 1993.4 852.311 1993.45C850.821 1993.51 850.518 1993.82 851.539 1994.22ZM1123.86 1998.04C1124.74 1998.39 1126.17 1998.39 1127.05 1998.04C1127.93 1997.68 1127.21 1997.39 1125.45 1997.39C1123.7 1997.39 1122.98 1997.68 1123.86 1998.04ZM892.702 1999.64C895.867 2000.22 904.787 2001.02 912.524 2001.4C923.208 2001.94 925.053 2001.82 920.197 2000.93C916.68 2000.28 907.76 1999.48 900.375 1999.17C891.068 1998.76 888.713 1998.91 892.702 1999.64ZM1093.12 1999.87C1091.87 2000.6 1089.57 2001.1 1088.01 2000.97C1082.44 2000.52 1076.86 2001.04 1076.86 2002.01C1076.86 2002.54 1081.6 2002.59 1087.41 2002.11C1093.21 2001.62 1099.69 2001.14 1101.8 2001.04C1105.13 2000.87 1105.29 2000.7 1103.07 1999.75C1099.57 1998.24 1095.84 1998.29 1093.12 1999.87ZM1109.79 1999.37C1111.37 1999.68 1113.96 1999.68 1115.54 1999.37C1117.13 1999.06 1115.83 1998.82 1112.67 1998.82C1109.5 1998.82 1108.21 1999.06 1109.79 1999.37ZM952.488 2004.49C954.07 2004.79 956.661 2004.79 958.243 2004.49C959.825 2004.18 958.531 2003.93 955.366 2003.93C952.201 2003.93 950.907 2004.18 952.488 2004.49ZM1045.21 2004.5C1047.14 2004.79 1050.3 2004.79 1052.24 2004.5C1054.17 2004.21 1052.59 2003.97 1048.72 2003.97C1044.85 2003.97 1043.27 2004.21 1045.21 2004.5ZM995.97 2005.81C999.663 2006.06 1005.7 2006.06 1009.4 2005.81C1013.09 2005.55 1010.07 2005.34 1002.68 2005.34C995.298 2005.34 992.276 2005.55 995.97 2005.81Z" fill="#336C7B"/>
</g>
</g>
<defs>
<filter id="filter0_d_3884_684" x="0" y="0" width="2008" height="2008" filterUnits="userSpaceOnUse" color-interpolation-filters="sRGB">
<feFlood flood-opacity="0" result="BackgroundImageFix"/>
<feColorMatrix in="SourceAlpha" type="matrix" values="0 0 0 0 0 0 0 0 0 0 0 0 0 0 0 0 0 0 127 0" result="hardAlpha"/>
<feOffset dy="4"/>
<feGaussianBlur stdDeviation="2"/>
<feComposite in2="hardAlpha" operator="out"/>
<feColorMatrix type="matrix" values="0 0 0 0 0 0 0 0 0 0 0 0 0 0 0 0 0 0 0.25 0"/>
<feBlend mode="normal" in2="BackgroundImageFix" result="effect1_dropShadow_3884_684"/>
<feBlend mode="normal" in="SourceGraphic" in2="effect1_dropShadow_3884_684" result="shape"/>
</filter>
<clipPath id="clip0_3884_684">
<rect x="4" width="2000" height="2000" rx="200" fill="white"/>
</clipPath>
<clipPath id="clip1_3884_684">
<rect width="25" height="25" fill="white" transform="translate(991 988)"/>
</clipPath>
</defs>
</svg>
