<svg width="2008" height="2000" viewBox="0 0 2008 2000" fill="none" xmlns="http://www.w3.org/2000/svg">
<g filter="url(#filter0_d_3881_698)">
<path fill-rule="evenodd" clip-rule="evenodd" d="M980.362 245.929C972.584 247.353 967.465 250.747 963.622 257.033C962.168 259.41 959.305 261.845 957.258 262.444C948.617 264.969 936.521 273.516 931.209 280.851C928.204 285.003 924 289.45 921.867 290.733C919.736 292.016 915.76 296.982 913.032 301.767C909.927 307.215 906.12 311.629 902.854 313.569C899.983 315.274 896.137 319.431 894.308 322.808C892.477 326.183 888.823 330.934 886.185 333.362C883.549 335.792 878.115 343.426 874.109 350.328C870.104 357.229 864.375 365.652 861.378 369.047C858.167 372.686 855.079 378.199 853.857 382.483C852.147 388.481 850.862 390.224 846.49 392.468C841.234 395.169 835.672 403.224 835.672 408.135C835.672 409.531 833.199 412.577 830.178 414.906C826.471 417.762 823.411 422.074 820.773 428.159C818.623 433.12 814.712 439.088 812.083 441.424C807.262 445.706 798.892 461.28 797.257 469.011C796.705 471.624 794.886 473.908 792.404 475.105C787.44 477.5 783.598 483.076 782.411 489.609C781.441 494.95 776.961 501.692 774.381 501.692C772.009 501.692 767.712 507.928 764.326 516.289C762.646 520.434 759.533 525.323 757.409 527.152C752.313 531.54 747.017 541.039 744.151 550.936C742.26 557.463 740.91 559.456 736.855 561.72C733.595 563.539 731.195 566.377 729.894 569.955C728.801 572.957 727.023 577.849 725.941 580.826C724.858 583.803 722.283 587.508 720.216 589.061C714.576 593.294 712.381 596.992 707.74 610.064C704.334 619.659 702.674 622.436 699.193 624.369C694.718 626.853 693.312 629.354 689.669 641.292C688.054 646.584 686.267 649.134 682.521 651.487C678.746 653.857 676.472 657.128 673.215 664.868C668.526 676.013 658.966 687.572 652.996 689.317C649.189 690.429 647.814 689.129 641.292 678.258C639.957 676.033 636.472 672.791 633.546 671.053C630.608 669.307 626.718 665.112 624.859 661.683C623.007 658.268 619.163 654.089 616.317 652.399C613.471 650.708 608.469 646.184 605.204 642.346C601.937 638.508 596.537 632.783 593.203 629.625C584.486 621.368 568.532 604.401 558.993 593.244C554.471 587.954 548.798 582.464 546.386 581.043C543.974 579.623 540.448 575.598 538.552 572.099C536.073 567.528 533.102 564.708 527.991 562.076C522.847 559.427 520.415 557.108 519.202 553.694C517.01 547.534 513.735 544.207 507.417 541.721C504.131 540.428 501.014 537.567 498.772 533.789C494.084 525.885 488.891 523.079 471.295 518.941C462.794 516.943 454.853 514.111 452.667 512.301C448.984 509.251 448.577 509.23 440.543 511.707C398.321 524.72 399.004 524.415 395.785 531.663C394.551 534.443 391.621 537.439 388.793 538.814C382.438 541.908 360.865 567.87 359.27 574.347C358.601 577.068 356.685 580.087 355.016 581.057C349.194 584.437 345.406 590.052 343.325 598.392C341.905 604.075 339.699 608.409 336.497 611.802C329.798 618.899 327.006 624.827 324.559 637.13C322.768 646.142 321.492 648.924 316.636 654.42C310.846 660.974 308.125 668.718 305.655 685.681C305.066 689.719 302.72 694.301 298.373 699.888C291.617 708.574 290.825 711.002 286.703 735.669C284.838 746.836 283.714 750.059 280.418 753.707C274.636 760.106 272.918 764.769 270.595 780.358C268.048 797.445 266.291 803.896 263.89 804.969C261.089 806.221 255.092 819.036 253.013 828.21C251.998 832.693 250.749 841.303 250.237 847.345C249.486 856.23 248.665 859.022 245.943 861.96C244.091 863.959 242.113 865.593 241.546 865.593C239.521 865.593 235.011 879.079 234.203 887.552C232.506 905.333 229.416 917.157 225.453 921.041C219.916 926.465 217.652 932.698 215.297 949.002C212.551 968.017 212.435 968.415 207.817 974.539C201.928 982.349 198.397 993.074 195.746 1011.21C193.509 1026.52 193.072 1027.8 188.635 1032.06C183.436 1037.05 180.414 1045.81 178.969 1060.09C177.531 1074.3 175.706 1080.36 171.025 1086.45C164.435 1095.04 163.453 1098 160.707 1117.61C157.952 1137.28 157.82 1137.68 152.534 1142.86C148.551 1146.76 146.448 1153.1 141.377 1176.52C139.035 1187.32 137.04 1193.04 134.531 1196.12C129.098 1202.8 127.41 1207.53 125.068 1222.63C121.847 1243.4 120.601 1247.95 117.08 1251.84C111.759 1257.71 108.619 1267.01 105.552 1285.96C103.135 1300.89 101.982 1304.81 98.8637 1308.71C92.2915 1316.91 88.517 1328.91 85.3245 1351.72C83.9424 1361.6 82.9833 1364.21 78.9934 1368.97C73.1606 1375.93 72.3053 1378.51 69.2219 1398.39C66.7163 1414.55 66.0846 1416.53 59.4355 1429.05C55.7123 1436.06 53.592 1444.95 49.8243 1469.32C48.1513 1480.15 47.0494 1483.38 43.6346 1487.48C38.2006 1494.01 34.7131 1505.03 32.9148 1521.35C30.5319 1542.98 30.2423 1544.18 25.9155 1550.49C23.6323 1553.81 21.1833 1558.29 20.4721 1560.44C18.3774 1566.77 15.5203 1586.39 13.357 1609.32C12.2443 1621.1 10.3207 1634.15 9.08143 1638.34C7.84215 1642.52 6.04249 1650.18 5.08069 1655.35C3.4346 1664.21 3.51273 1665.18 6.40754 1671.82C8.09809 1675.7 10.8771 1684.02 12.5824 1690.3C14.9532 1699.04 17.1435 1703.52 21.8986 1709.37C30.2975 1719.7 37.255 1722.02 59.9488 1722.02C82.1414 1722.02 89.3576 1720.21 95.8342 1713.05C98.9068 1709.65 104.284 1706.13 109.691 1703.97C122.56 1698.84 126.789 1695.91 130.171 1689.8C131.829 1686.8 135.759 1682.88 138.905 1681.08C144.719 1677.77 147.57 1674.34 151.597 1665.8C152.832 1663.18 156.368 1659.54 159.453 1657.71C162.64 1655.81 166.033 1652.22 167.309 1649.38C168.545 1646.64 172.992 1640.51 177.192 1635.76C181.392 1631.01 185.749 1624.95 186.871 1622.3C187.994 1619.64 191.297 1614.96 194.212 1611.9C200.301 1605.49 207.468 1593.89 209.473 1587.2C210.228 1584.67 213.075 1580.65 215.796 1578.26C222.088 1572.74 223.528 1570.48 225.403 1563.19C226.467 1559.05 228.56 1556.01 232.351 1553.09C236.326 1550.03 238.782 1546.33 241.543 1539.23C243.862 1533.28 247.109 1527.96 249.985 1525.41C255.176 1520.8 260.793 1509.8 263.083 1499.77C264.018 1495.67 265.555 1492.84 267.164 1492.24C270.629 1490.96 277.993 1481.03 277.993 1477.63C277.993 1473.78 284.208 1463.61 287.256 1462.48C290.944 1461.12 296.301 1450.95 299.609 1439.02C301.249 1433.12 303.244 1428.7 304.274 1428.7C307.975 1428.7 314.217 1420.61 316.386 1413.01C317.921 1407.63 320.192 1403.79 323.821 1400.44C327.124 1397.39 330.926 1391.31 334.156 1383.9C336.967 1377.46 341.695 1369.13 344.664 1365.4C347.632 1361.66 351.16 1354.92 352.504 1350.42C353.848 1345.91 356.224 1341.04 357.786 1339.58C363.623 1334.15 366.862 1329.35 371.056 1319.95C373.426 1314.63 377.966 1306.9 381.141 1302.78C384.331 1298.64 387.907 1291.8 389.133 1287.5C390.621 1282.28 393.104 1277.98 396.691 1274.4C400.149 1270.96 403.976 1264.46 407.55 1255.95C410.951 1247.87 415.273 1240.42 418.809 1236.55C422.423 1232.6 425.175 1227.82 426.24 1223.63C427.975 1216.82 429.45 1214.59 435.983 1208.91C438.047 1207.12 441.559 1200.96 443.787 1195.22C446.158 1189.12 450.564 1181.54 454.412 1176.95C458.94 1171.55 461.712 1166.48 463.32 1160.67C465.085 1154.3 466.726 1151.5 470.048 1149.22C475.095 1145.75 477.257 1142.21 480.497 1132.1C481.779 1128.1 486.106 1120.78 490.232 1115.63C495.62 1108.91 498.231 1104.09 499.742 1098.07C500.887 1093.51 502.532 1089.09 503.398 1088.25C504.263 1087.41 506.659 1085.25 508.72 1083.45C510.782 1081.65 514.599 1074.95 517.201 1068.56C519.804 1062.18 522.496 1056.95 523.186 1056.95C525.895 1056.95 535.196 1040.84 537.261 1032.57C538.546 1027.42 540.373 1023.48 541.735 1022.93C546.153 1021.12 551.498 1013.92 552.891 1007.9C553.734 1004.25 556.588 999.215 560.043 995.277C566.963 987.388 570.808 980.143 573.1 970.685C574.926 963.144 577.824 958.137 580.363 958.137C583.087 958.137 589.213 949.425 590.599 943.579C591.352 940.403 594.859 934.413 598.634 929.851C602.319 925.4 607.354 916.892 609.824 910.946C612.784 903.823 615.87 898.915 618.866 896.562C621.68 894.355 624.133 890.606 625.293 886.743C626.326 883.306 627.807 878.489 628.586 876.038C629.365 873.586 632.377 869.751 635.278 867.516C640.832 863.237 645.694 853.906 648.345 842.441C649.407 837.845 651 835.137 653.536 833.609C658.821 830.428 661.377 826.624 664.197 817.752C665.972 812.168 668.096 808.846 671.573 806.217C674.884 803.714 678.069 798.917 681.469 791.316C684.226 785.152 689.345 776.559 692.843 772.222C696.89 767.206 700.057 761.346 701.549 756.115C703.28 750.048 704.94 747.264 707.879 745.493C711.834 743.112 717.117 734.871 717.126 731.069C717.136 727.756 723.006 718.401 726.114 716.75C729.453 714.974 737.967 697.933 739.339 690.274C740.024 686.452 741.375 684.599 744.633 683.013C749.803 680.499 754.332 674.272 755.501 668.07C756.365 663.496 758.33 660.712 764.419 655.442C766.348 653.771 770.212 647.257 773.007 640.966C775.803 634.676 780.804 626.251 784.123 622.248C788.073 617.481 790.965 612.065 792.499 606.563C793.945 601.376 795.95 597.503 797.737 596.449C802.868 593.422 806.171 589.006 809.577 580.624C811.409 576.111 814.739 570.628 816.975 568.438C821.744 563.765 829.756 548.847 830.979 542.362C831.573 539.208 833.499 536.758 837.339 534.273C841.615 531.505 843.644 528.669 846.426 521.568C849.102 514.737 851.305 511.567 855.148 509.02C858.586 506.744 861.553 502.845 864.096 497.269C866.19 492.681 870.891 485.117 874.544 480.465C881.208 471.973 886.86 460.623 886.86 455.73C886.86 454.261 888.785 452.16 891.238 450.951C897.087 448.07 900.199 443.73 902.269 435.567C903.635 430.179 905.06 428.145 909.231 425.633C913.126 423.288 915.527 420.11 918.568 413.27C921.544 406.58 924.025 403.252 927.646 401.089C930.621 399.312 933.67 395.749 935.207 392.258C936.626 389.038 939.208 384.776 940.947 382.786C942.687 380.795 949.898 372.678 956.973 364.747C964.049 356.817 970.224 349.15 970.697 347.71C971.169 346.27 975.454 342.926 980.218 340.278C988.967 335.416 991.324 333.138 993.933 327.024C995.183 324.095 996.695 323.605 1005.67 323.206C1013.98 322.839 1016.31 323.255 1017.76 325.361C1023.31 333.464 1028.37 338.564 1030.86 338.564C1032.43 338.564 1036.11 341.52 1039.14 345.23C1045.73 353.277 1043.77 351.002 1059.42 368.724C1066.53 376.776 1073.92 386.272 1075.85 389.825C1077.78 393.378 1081.96 398.303 1085.14 400.769C1088.69 403.512 1092.01 407.837 1093.7 411.921C1096.99 419.892 1099.1 422.52 1105.09 426.074C1108.68 428.21 1110.07 430.485 1111.94 437.28C1114.12 445.179 1117.64 450.154 1122.59 452.338C1123.71 452.827 1126.67 458.309 1129.19 464.519C1131.97 471.38 1136.1 478.39 1139.73 482.382C1143.01 485.995 1147.32 492.701 1149.3 497.283C1151.84 503.136 1154.42 506.546 1157.96 508.75C1161.08 510.69 1163.79 513.983 1165.07 517.377C1169.29 528.633 1170.62 530.752 1176.18 535.095C1179.3 537.542 1181.86 540.592 1181.86 541.871C1181.86 546.03 1186.1 553.885 1192.79 562.12C1196.39 566.554 1201.12 574.759 1203.3 580.354C1207.26 590.528 1209.31 593.462 1214.61 596.538C1216.18 597.448 1218.47 601.528 1219.75 605.7C1222.54 614.777 1224.09 617.077 1230.67 621.919C1233.46 623.969 1235.75 626.54 1235.75 627.631C1235.75 628.723 1237.85 634.724 1240.42 640.967C1243.78 649.142 1246.36 653.189 1249.62 655.431C1254.26 658.616 1255.14 660.149 1259.82 673.034C1261.82 678.537 1263.77 681.156 1267.34 683.137C1270.93 685.131 1272.48 687.237 1273.45 691.418C1275.16 698.823 1282.2 711.664 1287.28 716.657C1289.52 718.854 1293.24 725.207 1295.54 730.774C1298.35 737.547 1301.29 742.088 1304.45 744.503C1309.29 748.213 1310.39 750.206 1311.81 757.891C1312.27 760.338 1315.49 765.848 1318.98 770.135C1322.47 774.422 1327.75 783.359 1330.71 789.997C1334.73 798.982 1337.54 803.179 1341.74 806.417C1346.39 810.004 1347.75 812.252 1349.5 819.244C1351.03 825.394 1353.03 829.153 1356.77 832.933C1359.72 835.908 1363.88 842.782 1366.47 848.952C1368.97 854.897 1372.75 861.603 1374.87 863.853C1383.56 873.051 1385.03 875.401 1386.57 882.494C1387.72 887.805 1389.79 891.682 1393.89 896.179C1397.22 899.831 1401.82 907.624 1404.89 914.825C1408.11 922.357 1411.93 928.749 1414.65 931.167C1417.4 933.606 1420.9 939.506 1423.73 946.439C1427.25 955.067 1429.29 958.198 1432.39 959.691C1435.37 961.131 1436.8 963.211 1437.81 967.589C1439.41 974.514 1445.97 985.96 1453.67 995.295C1456.65 998.909 1459.84 1004.56 1460.74 1007.84C1462.68 1014.87 1465.4 1018.81 1470.37 1021.8C1472.98 1023.38 1474.55 1026.25 1476.08 1032.23C1477.51 1037.82 1480.18 1042.95 1484.37 1048.12C1487.78 1052.32 1492.74 1061.02 1495.39 1067.45C1498.67 1075.38 1502.06 1080.89 1505.91 1084.56C1510.09 1088.55 1511.98 1091.8 1513.08 1096.86C1514.06 1101.39 1516.82 1106.61 1521.21 1112.2C1524.87 1116.87 1530.03 1125.99 1532.68 1132.49C1536.37 1141.53 1538.58 1144.99 1542.12 1147.2C1546.91 1150.21 1548.06 1152.25 1550.95 1162.83C1551.89 1166.28 1555.55 1172.7 1559.09 1177.09C1562.63 1181.48 1567.38 1189.72 1569.66 1195.39C1572.42 1202.25 1575.74 1207.55 1579.59 1211.23C1583.87 1215.31 1585.8 1218.6 1587.01 1223.87C1588.12 1228.69 1590.41 1232.91 1594.09 1236.91C1597.59 1240.71 1601.64 1247.97 1605.41 1257.19C1609.32 1266.76 1612.57 1272.51 1615.13 1274.42C1620.19 1278.19 1621.8 1280.77 1623.69 1288.11C1624.55 1291.46 1627.82 1297.46 1630.95 1301.45C1634.09 1305.44 1639.32 1314.21 1642.57 1320.93C1646.31 1328.65 1650.12 1334.32 1652.89 1336.32C1656.15 1338.67 1658.05 1341.92 1660.23 1348.89C1662.19 1355.13 1664.83 1359.96 1668.12 1363.3C1670.96 1366.18 1675.19 1373.37 1678.07 1380.21C1681.01 1387.2 1685.51 1394.82 1688.98 1398.68C1692.84 1402.96 1695.66 1407.93 1697.11 1413.02C1698.58 1418.18 1701.08 1422.56 1704.5 1425.96C1707.51 1428.97 1711.96 1436.3 1715.2 1443.62C1718.24 1450.51 1723.05 1458.66 1725.88 1461.73C1728.71 1464.8 1732.63 1471.26 1734.59 1476.09C1736.63 1481.11 1740.32 1486.87 1743.22 1489.56C1746.57 1492.65 1749.08 1496.85 1750.6 1501.87C1751.86 1506.05 1756.03 1514.01 1759.86 1519.54C1763.69 1525.07 1768.21 1533.25 1769.91 1537.72C1772.77 1545.23 1779.77 1554.18 1782.8 1554.18C1783.51 1554.18 1785.32 1557.54 1786.83 1561.63C1790.03 1570.33 1793.62 1575.2 1798.63 1577.62C1801.24 1578.88 1803.05 1581.85 1805.27 1588.51C1807.14 1594.12 1811.13 1601.29 1815.59 1607.02C1819.59 1612.17 1824.61 1619.86 1826.74 1624.1C1829.07 1628.75 1832.57 1633.06 1835.52 1634.93C1838.21 1636.63 1841.82 1640.81 1843.52 1644.2C1845.24 1647.6 1848.45 1652.37 1850.68 1654.81C1859.29 1664.25 1861.56 1667.01 1864.64 1671.76C1866.39 1674.46 1870 1677.87 1872.67 1679.34C1875.34 1680.81 1879.26 1685.03 1881.38 1688.7C1885.65 1696.13 1889.27 1698.72 1902.9 1704.12C1908.47 1706.33 1913.22 1709.34 1914.78 1711.65C1919.88 1719.19 1927.9 1721.23 1952.38 1721.23C1977.72 1721.23 1982.33 1720 1989.61 1711.29C2003.32 1694.89 2007.31 1664.16 2001.25 1621.63C1999.72 1610.85 1998.06 1596.73 1997.57 1590.26C1996.3 1573.63 1994.56 1567.07 1989.04 1558.1C1984.07 1550.03 1980.72 1537.6 1980.69 1527.04C1980.64 1515.1 1976.58 1499.56 1970.9 1489.66C1966.08 1481.26 1964.99 1477.61 1962.18 1460.42C1959.18 1442.14 1954.49 1427.27 1950.92 1424.7C1948.27 1422.79 1945.84 1413.93 1943.68 1398.26C1941.74 1384.28 1937.58 1370.73 1935.18 1370.61C1931.52 1370.43 1929.48 1365.4 1927.5 1351.74C1924.09 1328.13 1920.68 1316.63 1915.3 1310.54C1910.99 1305.67 1910.38 1303.79 1907.88 1287.6C1905 1269.01 1902.75 1262.36 1895.93 1252.41C1893.64 1249.06 1891.76 1246.18 1891.76 1246.02C1891.76 1242.57 1885.91 1209.64 1884.79 1206.76C1883.92 1204.56 1881.3 1201.38 1878.97 1199.7C1875.07 1196.89 1874.53 1195.45 1872.39 1182.09C1868.92 1160.5 1865.34 1149.02 1860.03 1142.46C1857.48 1139.31 1855.12 1135.19 1854.78 1133.31C1854.45 1131.43 1853.15 1122.95 1851.91 1114.47C1849.61 1098.82 1849.69 1099.02 1838.59 1081.21C1837.49 1079.45 1835.4 1069.7 1833.93 1059.54C1831.25 1041 1828.29 1032.53 1822.98 1028.2C1821.21 1026.76 1819.34 1020.79 1816.95 1009.01C1812.95 989.315 1810.07 981.003 1804.36 972.685C1801.3 968.235 1799.93 964.038 1798.84 955.784C1796.43 937.628 1793.53 928.016 1788.2 920.492C1782.64 912.652 1780.71 906.353 1778.62 889.259C1777.08 876.585 1773.21 866.959 1768.48 864.01C1764.63 861.607 1762.45 856.094 1762.42 848.657C1762.36 833.018 1757.88 818.519 1748.45 803.388C1746.62 800.45 1744.75 794.069 1743.84 787.702C1741.32 770.052 1738.44 761.018 1732.98 753.667C1728.44 747.573 1727.48 744.743 1724.8 729.709C1721.72 712.419 1718.44 703.444 1713.83 699.678C1710.12 696.658 1708.34 692.053 1706.43 680.529C1704.09 666.501 1701.22 659.277 1696.3 655.062C1691.78 651.181 1688.36 644.735 1688.36 640.086C1688.36 631.404 1683.85 620.091 1677.58 613.063C1673.21 608.152 1670.53 603.523 1669.36 598.835C1666.88 588.895 1664.52 585.226 1659.31 583.223C1655.67 581.825 1654.46 580.282 1653.39 575.694C1651.52 567.619 1648.6 563.318 1642.57 559.732C1639.7 558.034 1636.97 555.217 1636.5 553.471C1634.99 547.932 1629.16 541.177 1624.26 539.296C1621.22 538.124 1618.39 535.381 1616.34 531.59C1612.23 524.003 1606.54 520.975 1589.62 517.369C1582.06 515.757 1573.28 513.537 1570.12 512.436C1565.11 510.694 1563.79 510.781 1560.01 513.103C1557.63 514.573 1549.11 517.228 1541.1 519.005C1523.14 522.988 1518.38 525.541 1514.7 533.157C1512.44 537.834 1510.41 539.658 1505.19 541.677C1500.83 543.362 1497.12 546.235 1494.4 550.026C1492.11 553.206 1489.71 556.512 1489.06 557.375C1488.41 558.238 1485.46 560.625 1482.52 562.678C1479.57 564.733 1475.84 569.156 1474.22 572.51C1472.56 575.959 1469.13 579.902 1466.33 581.595C1463.61 583.239 1453.8 593.122 1444.54 603.556C1435.28 613.99 1425.03 624.808 1421.76 627.595C1415.68 632.786 1394.33 655.909 1384.81 667.612C1383.21 669.579 1379.79 672.402 1377.2 673.886C1374.62 675.37 1370.75 679.654 1368.61 683.405C1365.07 689.586 1364.31 690.139 1360.51 689.308C1355.44 688.199 1346.07 676.335 1340.14 663.532C1337.58 658 1333.93 653.037 1330.18 649.986C1325.6 646.27 1323.85 643.561 1322.48 638.111C1321.32 633.477 1318.72 628.834 1314.91 624.606C1311.71 621.062 1306.69 612.688 1303.74 605.996C1300.25 598.063 1296.4 591.927 1292.67 588.363C1288.89 584.744 1286.5 580.908 1285.59 577.008C1283.85 569.473 1280 563.8 1274.99 561.383C1271.88 559.885 1270.7 557.938 1269.49 552.318C1267.73 544.169 1261.83 533.453 1256.15 528.084C1254.02 526.078 1250.35 520.13 1247.98 514.869C1244.91 508.055 1242.2 504.338 1238.55 501.951C1234.42 499.251 1232.88 496.839 1230.59 489.542C1228.52 482.913 1226.16 478.934 1221.81 474.7C1218.54 471.518 1215.46 467.005 1214.95 464.671C1213.72 458.926 1206.7 446.942 1201.6 441.839C1199.3 439.546 1195.59 433.547 1193.35 428.507C1190.57 422.267 1187.88 418.534 1184.91 416.806C1178.53 413.096 1176.89 411.146 1176.06 406.326C1175.02 400.297 1170.09 393.47 1164.96 390.976C1161.54 389.314 1160.43 387.645 1159.69 383.063C1159.04 378.994 1156.43 374.397 1150.99 367.713C1146.73 362.465 1141.22 354.641 1138.77 350.328C1136.31 346.014 1130.61 338.129 1126.09 332.806C1121.58 327.482 1113.17 317.247 1107.41 310.062C1082.91 279.489 1069.86 267.708 1055.7 263.376C1051.5 262.09 1049.39 260.273 1047.29 256.117C1042.65 246.972 1037.78 245.493 1010.79 245.057C997.824 244.847 984.131 245.239 980.362 245.929ZM955.203 439.088C953.895 439.976 951.07 444.718 948.924 449.629C946.7 454.719 942.466 461.021 939.076 464.29C935.017 468.2 931.574 473.731 928.239 481.696C925.057 489.293 921.628 494.902 918.418 497.752C915.473 500.366 912.235 505.428 910.378 510.312C908.203 516.041 905.804 519.503 902.381 521.855C898.91 524.24 896.555 527.676 894.269 533.696C892.498 538.36 888.299 545.78 884.939 550.185C881.58 554.591 876.418 563.304 873.468 569.548C870.518 575.794 866.813 581.832 865.233 582.967C863.655 584.104 860.577 589.619 858.394 595.227C856.211 600.833 852.098 608.374 849.255 611.984C846.411 615.594 841.614 624.195 838.597 631.096C835.579 637.998 830.97 645.983 828.355 648.843C825.739 651.701 822.347 657.347 820.817 661.391C819.287 665.433 815.395 671.918 812.168 675.8C808.941 679.682 804.132 687.928 801.483 694.125C798.631 700.794 794.812 707.037 792.123 709.424C789.626 711.644 786.526 716.455 785.236 720.117C780.691 733.014 778.813 736.618 775.594 738.624C773.806 739.74 770.42 744.235 768.068 748.614C765.717 752.995 760.613 761.52 756.728 767.559C752.843 773.598 748.634 781.715 747.376 785.597C746.116 789.48 742.458 795.611 739.244 799.223C735.828 803.063 731.719 810.109 729.351 816.19C727.123 821.911 722.551 830.152 719.189 834.506C715.108 839.791 712.374 845.236 710.962 850.891C709.335 857.408 707.585 860.53 703.369 864.437C699.415 868.101 696.48 873.069 692.823 882.284C690.036 889.306 685.607 897.822 682.981 901.205C680.356 904.588 676.607 911.656 674.65 916.911C672.313 923.186 669.276 928.165 665.802 931.415C662.893 934.138 658.769 940.386 656.64 945.3C654.509 950.216 649.948 958.601 646.503 963.937C643.059 969.273 639.279 976.922 638.106 980.932C636.931 984.945 634.004 990.518 631.601 993.316C624.824 1001.21 623.217 1005.17 622.314 1016.21C620.998 1032.32 625.841 1070.25 630.235 1078.25C633.344 1083.91 636.295 1097.68 640.374 1125.53C643.261 1145.25 645.45 1155.42 648.479 1163.18C658.064 1187.73 658.092 1211.43 648.551 1223.87C645.849 1227.4 641.39 1233.56 638.643 1237.58C635.289 1242.48 630.215 1247.05 623.192 1251.49C617.441 1255.12 611.163 1259.81 609.242 1261.89C607.32 1263.98 599.743 1269.43 592.404 1274.01C571.642 1286.95 555.463 1298.29 549.982 1303.73C547.226 1306.47 541.87 1309.97 538.076 1311.53C534.267 1313.09 528.046 1317.59 524.175 1321.59C520.322 1325.58 512.757 1331.21 507.364 1334.11C501.971 1337.01 494.598 1342.45 490.979 1346.19C487.022 1350.29 480.68 1354.65 475.069 1357.15C468.998 1359.85 463.958 1363.43 460.64 1367.38C457.835 1370.73 453.024 1374.67 449.947 1376.15C435.64 1383.03 431.867 1385.29 427.823 1389.4C425.436 1391.83 420.073 1395.82 415.907 1398.28C411.714 1400.75 406.778 1405.21 404.849 1408.27C402.933 1411.31 397.854 1418.15 393.561 1423.46C389.269 1428.78 385.757 1433.78 385.757 1434.58C385.757 1435.38 382.814 1439.55 379.217 1443.85C374.554 1449.42 372.404 1453.43 371.726 1457.83C369.362 1473.15 368.413 1475.23 360.712 1482C354.714 1487.27 352.408 1490.66 349.285 1498.77C347.132 1504.35 342.691 1512.93 339.415 1517.83C336.139 1522.72 331.592 1531.37 329.312 1537.05C327.033 1542.72 323.354 1549.24 321.138 1551.54C318.922 1553.84 315.321 1559.79 313.138 1564.76C310.953 1569.72 306.633 1577.31 303.536 1581.62C300.44 1585.92 295.774 1594.39 293.166 1600.44C290.559 1606.48 286.758 1613.9 284.722 1616.92C282.685 1619.94 278.178 1628.02 274.705 1634.87C271.232 1641.72 266.662 1649.62 264.547 1652.42C262.433 1655.23 259.152 1661.12 257.257 1665.51C255.361 1669.9 251.998 1675.43 249.782 1677.78C247.567 1680.14 243.664 1687 241.108 1693.02C238.553 1699.05 234.991 1705.77 233.192 1707.96C228.26 1713.96 220.07 1727.97 220.07 1730.41C220.07 1731.59 218.316 1736.6 216.172 1741.55L212.275 1750.55L217.182 1752.95C228.255 1758.35 233.651 1757.11 252.033 1744.91C255.166 1742.84 262.137 1740.32 267.524 1739.32C285.767 1735.94 293.797 1733.23 306.634 1726.15C317.023 1720.42 321.693 1718.8 331.382 1717.54C345.082 1715.75 355.03 1712.25 360.837 1707.19C368.107 1700.84 372.947 1698.75 384.487 1696.95C393.734 1695.52 398.628 1693.6 410.678 1686.7C422.07 1680.18 428.766 1677.47 439.639 1675C456.828 1671.08 465.618 1667.83 472.367 1662.89C475.18 1660.83 483.06 1657.72 489.879 1655.98C513.459 1649.98 519.825 1647.81 528.545 1642.79C539.112 1636.71 551.388 1631.96 564.736 1628.79C570.194 1627.49 579.287 1623.68 584.942 1620.31C597.881 1612.62 609.424 1610.08 630.921 1610.18C648.568 1610.26 663.165 1613.29 678.189 1620C690.594 1625.54 699.694 1627.74 720.571 1630.24C743.997 1633.03 766.092 1637.62 776.775 1641.9C787.325 1646.13 814.215 1652.58 826.243 1653.76C839.499 1655.08 850.475 1658.43 860.186 1664.14C868.271 1668.89 887.751 1673.36 900.44 1673.38C909.873 1673.4 933.25 1678.78 947.138 1684.13C962.765 1690.16 971.835 1692.03 987.349 1692.44C998.148 1692.73 1000.11 1692.35 1003.85 1689.25C1007.91 1685.88 1008.09 1685.25 1008.09 1674.91V1664.09L1000.15 1655.02C994.918 1649.03 990.505 1641.94 987.195 1634.18C984.437 1627.71 979.334 1618.88 975.856 1614.57C972.379 1610.26 967.526 1602.33 965.071 1596.97C962.617 1591.59 955.382 1580.59 948.992 1572.5C942.603 1564.42 934.647 1553.7 931.313 1548.69C924.042 1537.75 917.84 1532.25 907.434 1527.49C903.157 1525.54 897.536 1522.03 894.943 1519.69C889.055 1514.4 884.903 1511.92 871.565 1505.73C865.745 1503.03 858.669 1498.53 855.839 1495.73C853.009 1492.94 847.769 1489.38 844.194 1487.82C825.912 1479.83 822.559 1478.06 818.834 1474.46C814.677 1470.44 803.936 1464.41 797.927 1462.72C796.06 1462.19 792.641 1459.61 790.331 1456.98L786.129 1452.19L788.482 1440.05C791.501 1424.49 794.124 1417.4 800.537 1407.51C803.389 1403.12 807.248 1396.03 809.114 1391.76C810.979 1387.49 814.148 1382.23 816.155 1380.07C818.162 1377.92 821.794 1372.62 824.225 1368.31C826.656 1364 830.556 1358.1 832.892 1355.2C835.228 1352.3 839.495 1344.47 842.375 1337.8C845.255 1331.13 849.086 1323.62 850.889 1321.11C852.691 1318.6 856.382 1312.5 859.092 1307.55C861.801 1302.6 865.717 1297.53 867.794 1296.28C869.871 1295.03 877.284 1292.83 884.267 1291.38C891.25 1289.93 901.509 1286.99 907.066 1284.83C947.044 1269.32 972.159 1268.23 988.938 1281.27C993.176 1284.56 1001.49 1289.5 1007.42 1292.24C1013.35 1294.97 1023.05 1300.23 1028.97 1303.92C1034.9 1307.6 1043.99 1312.65 1049.18 1315.13C1054.37 1317.61 1062.55 1322.3 1067.36 1325.55C1072.17 1328.81 1080.24 1333.31 1085.3 1335.56C1090.35 1337.81 1097.63 1342.11 1101.47 1345.12C1109.86 1351.71 1115.96 1355.41 1124.96 1359.4C1128.68 1361.04 1134.05 1364.57 1136.92 1367.24C1145.17 1374.93 1158.59 1380.07 1170.42 1380.07C1180.28 1380.07 1180.48 1379.99 1181.29 1375.76C1181.74 1373.39 1182.36 1370.35 1182.67 1369.02C1182.97 1367.68 1181.81 1364.35 1180.07 1361.61C1176.67 1356.24 1174.38 1350.35 1169.64 1334.79C1167.96 1329.29 1165.17 1322.82 1163.43 1320.41C1160.52 1316.38 1158.4 1311.41 1151.43 1292.25C1150.01 1288.38 1146.84 1282.11 1144.36 1278.33C1139.71 1271.21 1135.86 1261.96 1134.16 1253.81C1133.63 1251.22 1130.6 1244.16 1127.43 1238.12C1121.22 1226.26 1120.2 1223.47 1116.01 1206.68C1114.27 1199.68 1111.96 1194.22 1109.71 1191.78C1103.32 1184.84 1100.87 1179.44 1098.21 1166.46C1095.96 1155.51 1094.72 1152.58 1089.63 1146.25C1085.63 1141.27 1082.99 1136.1 1081.57 1130.45C1077.72 1115.23 1074.47 1110.56 1058.61 1097.44C1042.46 1084.09 1037.89 1081.86 1019.3 1078.23C1006.79 1075.79 992.641 1070.54 991.191 1067.81C989.658 1064.92 980.401 1060.49 973.745 1059.46C957.495 1056.95 939.483 1051.58 931.313 1046.82C918.878 1039.58 914.576 1038.22 899.405 1036.68C880.933 1034.81 872.673 1031.45 861.848 1021.41C856.886 1016.8 852.395 1013.04 851.869 1013.04C851.344 1013.04 849.839 1010.71 848.526 1007.87C846.636 1003.78 846.257 1000.11 846.709 990.226C847.28 977.769 848.651 972.939 855.128 960.599C856.907 957.21 858.74 951.916 859.2 948.835C861.678 932.261 865.767 920.379 870.987 914.583C873.887 911.363 877.403 906.177 878.799 903.062C880.195 899.946 884.128 894.299 887.541 890.514C890.953 886.727 895.511 880.455 897.67 876.573C899.83 872.691 903.783 867.798 906.456 865.7C909.128 863.602 913.192 858.662 915.486 854.72C917.782 850.78 923.108 842.967 927.323 837.359C931.538 831.752 936.934 823.282 939.314 818.537C941.693 813.792 945.104 807.522 946.893 804.605C951.901 796.43 952.762 790.526 954.233 754.227C956.69 693.581 957.796 682.03 966.327 627.959C969.348 608.803 972.451 566.284 973.707 526.788C974.16 512.554 975.173 489.699 975.957 476.001C977.548 448.19 977.134 445.866 969.63 440.465C964.973 437.113 958.961 436.541 955.203 439.088ZM1120.11 572.271C1117.81 574.952 1115.38 579.756 1114.72 582.947C1114.05 586.136 1112.24 594.996 1110.69 602.637C1108.95 611.228 1106.55 618.548 1104.41 621.826C1099.43 629.431 1096.97 638.708 1096.16 653.056C1095.04 672.551 1091.83 688.143 1086.91 697.966C1081.92 707.937 1079.23 719.33 1076.24 743.247C1073.85 762.377 1070.86 775.024 1068.1 777.69C1064.99 780.7 1062.31 790.981 1057.87 816.968C1055.16 832.843 1052.15 845.363 1049.2 853.045C1043.75 867.26 1042.3 873.743 1041.13 889.121C1040.64 895.591 1039.31 905.23 1038.18 910.543C1036.29 919.375 1036.31 920.98 1038.4 929.343C1043 947.761 1044.93 949.921 1061.92 955.674C1069.19 958.134 1074.54 961.023 1077.29 963.972C1084.56 971.766 1085.85 972.492 1099.23 976.352C1106.41 978.424 1114.98 982.055 1118.26 984.421C1128.42 991.732 1133.36 994.312 1144.21 997.973C1150.04 999.938 1158.47 1004.35 1163.22 1007.93C1168.43 1011.85 1177.15 1016.29 1185.57 1019.31C1193.98 1022.32 1202.14 1026.48 1206.45 1029.94C1210.34 1033.06 1218.32 1037.55 1224.18 1039.92C1230.04 1042.29 1235.87 1045.5 1237.12 1047.06C1240.59 1051.37 1246.34 1071.34 1247.29 1082.4C1247.87 1089.05 1247.48 1095.3 1246.1 1101.66C1244.98 1106.83 1243.65 1115.66 1243.16 1121.26C1240.99 1145.94 1238.49 1159.35 1234.53 1167.51C1228.02 1180.95 1225.83 1192.05 1225.73 1212.24C1225.62 1236.09 1226.89 1239.05 1243.83 1254.14C1257.36 1266.19 1277.39 1281.53 1291.53 1290.67C1296.2 1293.69 1303.31 1299.07 1307.33 1302.62C1311.35 1306.17 1318.01 1311.3 1322.12 1314C1326.24 1316.7 1332.17 1321.67 1335.3 1325.03C1338.43 1328.4 1344.74 1333.73 1349.32 1336.87C1360.39 1344.46 1360.6 1344.67 1369.71 1357.25C1374.05 1363.24 1381.16 1371.97 1385.5 1376.66C1389.85 1381.34 1396.66 1390.98 1400.63 1398.09C1404.61 1405.2 1410.4 1413.38 1413.48 1416.27C1416.57 1419.16 1421.15 1425.43 1423.66 1430.21C1426.17 1434.99 1431.16 1442.42 1434.75 1446.74C1438.35 1451.05 1443.61 1459.52 1446.45 1465.56C1449.29 1471.6 1454.83 1480.42 1458.76 1485.17C1464.07 1491.58 1466.62 1496.29 1468.69 1503.55C1470.22 1508.91 1471.48 1514.32 1471.48 1515.56C1471.48 1520.1 1459.59 1524.89 1445.29 1526.11C1430.85 1527.35 1395.9 1532.15 1394.62 1533.07C1394.19 1533.37 1386.31 1535.1 1377.1 1536.91C1367.89 1538.72 1355.5 1541.69 1349.57 1543.5C1338.92 1546.76 1324.27 1554.24 1322.69 1557.22C1321.58 1559.3 1327.14 1562.43 1340.82 1567.4C1347.11 1569.7 1357.08 1574.42 1362.96 1577.91C1368.85 1581.39 1381.51 1587.05 1391.1 1590.47C1400.69 1593.9 1412.68 1599.14 1417.74 1602.11C1422.8 1605.07 1433.6 1609.32 1441.74 1611.54C1452.06 1614.36 1458.15 1616.95 1461.89 1620.11C1468.49 1625.67 1475.58 1628.4 1496.4 1633.39C1505.95 1635.67 1515.87 1639.17 1520.65 1641.94C1530.99 1647.94 1540.78 1652.02 1554.46 1656.03C1560.46 1657.78 1568.8 1661.62 1572.98 1664.55C1578.17 1668.19 1586.11 1671.49 1597.96 1674.92C1607.52 1677.69 1617.07 1681.05 1619.18 1682.38C1628.98 1688.59 1633.51 1690.61 1648.28 1695.34C1657.9 1698.42 1667.14 1702.55 1671.85 1705.87C1685.09 1715.18 1687.14 1716.07 1702.38 1719.06C1713.83 1721.3 1718.74 1723.07 1723.92 1726.81C1728.06 1729.81 1738.64 1734.32 1751.58 1738.6C1763.11 1742.42 1774.06 1746.83 1775.91 1748.39C1781.2 1752.87 1783.89 1753.54 1789.54 1751.77C1794.73 1750.14 1794.77 1750.08 1792.87 1745.82C1791.82 1743.45 1790.54 1738.71 1790.02 1735.29C1788.6 1725.87 1782.66 1710.95 1777.73 1704.44C1775.31 1701.24 1772.02 1695.6 1770.41 1691.89C1768.79 1688.19 1765.39 1682.45 1762.84 1679.15C1760.3 1675.84 1757.01 1669.84 1755.54 1665.81C1750.73 1652.59 1747.46 1646.02 1742.94 1640.45C1740.48 1637.43 1736.9 1631.29 1734.98 1626.8C1733.05 1622.31 1729.1 1616.08 1726.2 1612.95C1723.3 1609.82 1719.03 1602.66 1716.73 1597.03C1714.42 1591.4 1710.18 1583.52 1707.32 1579.51C1704.46 1575.5 1700.76 1569.04 1699.11 1565.16C1697.45 1561.28 1693.48 1554.82 1690.28 1550.82C1687.08 1546.81 1682.64 1538.84 1680.41 1533.11C1678.18 1527.38 1674.27 1519.86 1671.73 1516.41C1669.19 1512.95 1665.19 1505.93 1662.85 1500.81C1660.51 1495.69 1657.18 1489.55 1655.47 1487.16C1653.75 1484.77 1650.48 1478.51 1648.21 1473.26C1645.94 1468 1641.32 1459.94 1637.95 1455.34C1634.58 1450.74 1630.45 1442.74 1628.77 1437.56C1626.59 1430.82 1623.74 1425.94 1618.77 1420.41C1613.75 1414.83 1611.03 1410.13 1608.94 1403.44C1607.34 1398.35 1603.55 1390.83 1600.5 1386.74C1597.46 1382.64 1593.57 1375.61 1591.86 1371.11C1590.15 1366.61 1586.14 1359.84 1582.95 1356.08C1579.16 1351.61 1575.88 1345.46 1573.49 1338.36C1571.48 1332.38 1567.43 1324.11 1564.5 1319.99C1561.58 1315.86 1557.71 1308.75 1555.92 1304.18C1554.12 1299.62 1550.51 1293.39 1547.89 1290.34C1545.27 1287.29 1540.52 1278.9 1537.34 1271.7C1534.15 1264.49 1529.63 1256.1 1527.28 1253.06C1524.94 1250.02 1521.47 1243.96 1519.58 1239.59C1517.69 1235.23 1513.95 1228.6 1511.27 1224.86C1508.59 1221.13 1504.2 1212.83 1501.52 1206.42C1498.83 1200 1494.09 1191.46 1490.98 1187.42C1487.87 1183.39 1483.66 1176.2 1481.62 1171.46C1479.59 1166.71 1476.51 1161.07 1474.79 1158.91C1473.06 1156.75 1469.23 1149.28 1466.28 1142.31C1463.33 1135.33 1458.68 1126.96 1455.97 1123.7C1453.25 1120.44 1449.32 1113.36 1447.25 1107.97C1445.17 1102.58 1441.4 1095.76 1438.88 1092.82C1436.36 1089.88 1431.65 1081.85 1428.41 1074.96C1425.18 1068.08 1420.78 1060.08 1418.64 1057.19C1416.5 1054.3 1413.34 1048.21 1411.61 1043.66C1409.88 1039.11 1406.35 1032.65 1403.77 1029.31C1401.19 1025.97 1396.63 1017.58 1393.64 1010.68C1390.66 1003.78 1385.99 995.664 1383.27 992.645C1380.55 989.625 1376.24 982.214 1373.69 976.175C1371.13 970.136 1367.16 962.725 1364.85 959.705C1362.54 956.686 1358.08 949.627 1354.95 944.02C1351.81 938.412 1347.37 931.785 1345.1 929.293C1342.82 926.802 1339.88 921.281 1338.56 917.025C1337.25 912.77 1333.48 905.633 1330.19 901.166C1326.9 896.697 1321.95 887.396 1319.19 880.494C1316.44 873.592 1312.31 866.013 1310.02 863.653C1307.73 861.292 1304.37 855.956 1302.56 851.796C1300.75 847.636 1296.93 840.744 1294.06 836.482C1291.19 832.219 1286.75 823.87 1284.19 817.928C1281.62 811.985 1277.3 804.574 1274.59 801.458C1271.87 798.342 1268.09 791.677 1266.19 786.648C1264.29 781.618 1259.74 773.325 1256.08 768.22C1252.41 763.114 1247.52 755.072 1245.2 750.349C1242.88 745.626 1239.28 740.354 1237.21 738.635C1235.13 736.915 1231.56 730.929 1229.26 725.334C1226.97 719.738 1223.17 713.186 1220.82 710.773C1218.48 708.361 1214.18 700.739 1211.27 693.838C1207.89 685.816 1203.65 678.69 1199.5 674.085C1194.94 669.014 1192.74 665.162 1192.09 661.082C1191.44 657.079 1189.09 652.868 1184.49 647.483C1180.82 643.193 1177.82 638.809 1177.82 637.742C1177.82 632.941 1169.6 616.452 1164.67 611.352C1161.68 608.257 1157.66 602.119 1155.75 597.713C1153.83 593.307 1150.68 588.429 1148.75 586.871C1146.82 585.314 1141.96 580.687 1137.94 576.59C1133.93 572.491 1130.1 569.139 1129.43 569.139C1128.75 569.139 1127.33 568.747 1126.25 568.267C1125.13 567.768 1122.51 569.478 1120.11 572.271Z" fill="#336C7B"/>
</g>
<defs>
<filter id="filter0_d_3881_698" x="0" y="0" width="2008" height="2008" filterUnits="userSpaceOnUse" color-interpolation-filters="sRGB">
<feFlood flood-opacity="0" result="BackgroundImageFix"/>
<feColorMatrix in="SourceAlpha" type="matrix" values="0 0 0 0 0 0 0 0 0 0 0 0 0 0 0 0 0 0 127 0" result="hardAlpha"/>
<feOffset dy="4"/>
<feGaussianBlur stdDeviation="2"/>
<feComposite in2="hardAlpha" operator="out"/>
<feColorMatrix type="matrix" values="0 0 0 0 0 0 0 0 0 0 0 0 0 0 0 0 0 0 0.25 0"/>
<feBlend mode="normal" in2="BackgroundImageFix" result="effect1_dropShadow_3881_698"/>
<feBlend mode="normal" in="SourceGraphic" in2="effect1_dropShadow_3881_698" result="shape"/>
</filter>
</defs>
</svg>
