<svg width="138" height="382" viewBox="0 0 138 382" fill="none" xmlns="http://www.w3.org/2000/svg">
<path d="M20.0504 367.324L29.1466 375.898L29.1466 375.898L20.0504 367.324ZM12.568 1.48297C5.66494 1.56541 0.135732 7.22829 0.218177 14.1314L1.5617 126.623C1.64415 133.526 7.30702 139.056 14.2101 138.973C21.1132 138.891 26.6424 133.228 26.5599 126.325L25.3657 26.3319L125.359 25.1377C132.262 25.0552 137.791 19.3923 137.708 12.4893C137.626 5.58621 131.963 0.0569991 125.06 0.139444L12.568 1.48297ZM10.9543 358.75L5.6211 364.408L23.8135 381.556L29.1466 375.898L10.9543 358.75ZM3.98464 22.9258C97.5014 114.235 100.602 263.64 10.9542 358.75L29.1466 375.898C128.147 270.865 124.723 105.874 21.4499 5.03831L3.98464 22.9258Z" fill="black"/>
</svg>
