<svg width="138" height="392" viewBox="0 0 138 392" fill="none" xmlns="http://www.w3.org/2000/svg">
<path d="M119.683 377.294L127.966 367.933L127.966 367.933L119.683 377.294ZM126.136 10.5517C133.011 11.179 138.076 17.2608 137.448 24.1358L127.226 136.17C126.599 143.045 120.517 148.11 113.642 147.483C106.767 146.856 101.702 140.774 102.33 133.899L111.416 34.3125L11.8296 25.2262C4.95458 24.599 -0.110205 18.5172 0.517071 11.6422C1.14435 4.76716 7.22615 -0.297623 14.1011 0.329653L126.136 10.5517ZM127.966 367.933L133.284 372.639L116.716 391.361L111.399 386.655L127.966 367.933ZM132.999 32.6054C28.9634 119.244 26.5775 278.212 127.966 367.933L111.399 386.655C-1.45935 286.784 1.19646 109.834 117.001 13.3946L132.999 32.6054Z" fill="black"/>
</svg>
