<svg width="2008" height="2008" viewBox="0 0 2008 2008" fill="none" xmlns="http://www.w3.org/2000/svg">
<g filter="url(#filter0_d_3894_2223)">
<g clip-path="url(#clip0_3894_2223)">
<circle cx="1004" cy="1000" r="1000" fill="#2707A9"/>
<path d="M385 425H933.862C940.048 425 946.007 427.293 950.593 431.423L951.032 431.828L1008.2 485.847C1022.13 499.002 1040.56 506.331 1059.71 506.331H1181.61C1209.78 506.331 1235.53 490.551 1248.35 465.549L1248.95 464.352L1261.38 438.993C1265.58 430.428 1274.29 425 1283.83 425H1400C1413.81 425 1425 436.193 1425 450V650C1425 691.421 1458.58 725 1500 725H1622C1635.81 725 1647 736.193 1647 750V1250C1647 1263.81 1635.81 1275 1622 1275H1620.92C1579.49 1275 1545.92 1308.58 1545.92 1350V1550C1545.92 1563.81 1534.72 1575 1520.92 1575H1003.75C989.94 1575 978.747 1563.81 978.747 1550V1442.81C978.747 1406.45 950.484 1376.42 914.298 1374.12L913.441 1374.07C874.096 1372.05 841.088 1403.41 841.088 1442.81V1550C841.088 1563.81 829.895 1575 816.088 1575H385C371.193 1575 360 1563.81 360 1550V450C360 436.193 371.193 425 385 425Z" fill="#3E4EB5" stroke="white" stroke-width="50"/>
<path d="M731.498 797.587C713.782 797.587 696.792 790.823 684.264 778.783C671.737 766.742 664.699 750.412 664.699 733.384C664.699 716.356 671.737 700.026 684.264 687.986C696.792 675.945 713.782 669.181 731.498 669.181C749.215 669.181 766.205 675.945 778.733 687.986C791.26 700.026 798.298 716.356 798.298 733.384C798.298 741.815 796.57 750.164 793.213 757.954C789.856 765.743 784.935 772.821 778.733 778.783C772.53 784.745 765.166 789.474 757.061 792.7C748.957 795.927 740.271 797.587 731.498 797.587ZM731.498 553.615C681.893 553.615 634.319 572.555 599.243 606.268C564.167 639.982 544.461 685.706 544.461 733.384C544.461 868.211 731.498 1170.99 731.498 1170.99C731.498 1170.99 918.536 868.211 918.536 733.384C918.536 685.706 898.83 639.982 863.754 606.268C828.678 572.555 781.104 553.615 731.498 553.615Z" fill="white"/>
</g>
</g>
<defs>
<filter id="filter0_d_3894_2223" x="0" y="0" width="2008" height="2008" filterUnits="userSpaceOnUse" color-interpolation-filters="sRGB">
<feFlood flood-opacity="0" result="BackgroundImageFix"/>
<feColorMatrix in="SourceAlpha" type="matrix" values="0 0 0 0 0 0 0 0 0 0 0 0 0 0 0 0 0 0 127 0" result="hardAlpha"/>
<feOffset dy="4"/>
<feGaussianBlur stdDeviation="2"/>
<feComposite in2="hardAlpha" operator="out"/>
<feColorMatrix type="matrix" values="0 0 0 0 0 0 0 0 0 0 0 0 0 0 0 0 0 0 0.25 0"/>
<feBlend mode="normal" in2="BackgroundImageFix" result="effect1_dropShadow_3894_2223"/>
<feBlend mode="normal" in="SourceGraphic" in2="effect1_dropShadow_3894_2223" result="shape"/>
</filter>
<clipPath id="clip0_3894_2223">
<rect x="4" width="2000" height="2000" rx="200" fill="white"/>
</clipPath>
</defs>
</svg>
