<svg width="2008" height="2008" viewBox="0 0 2008 2008" fill="none" xmlns="http://www.w3.org/2000/svg">
<g filter="url(#filter0_d_3882_793)">
<g clip-path="url(#clip0_3882_793)">
<path d="M1004 86C871.392 86 744.215 138.678 650.447 232.447C556.678 326.215 504 453.392 504 586C504 1086 1004 1961.5 1004 1961.5C1004 1961.5 1504 1086 1504 586C1504 453.392 1451.32 326.215 1357.55 232.447C1263.79 138.678 1136.61 86 1004 86ZM1004 886C924.435 886 848.129 854.393 791.868 798.132C735.607 741.871 704 665.565 704 586C704 506.435 735.607 430.129 791.868 373.868C848.129 317.607 924.435 286 1004 286C1083.56 286 1159.87 317.607 1216.13 373.868C1272.39 430.129 1304 506.435 1304 586C1304 665.565 1272.39 741.871 1216.13 798.132C1159.87 854.393 1083.56 886 1004 886Z" fill="url(#paint0_linear_3882_793)"/>
<circle cx="1004" cy="604" r="400" fill="white"/>
<path d="M1001.66 905.955C961.508 905.955 925.712 898.568 894.273 883.795C863.023 869.023 838.212 848.663 819.841 822.716C801.47 796.769 791.905 767.034 791.148 733.511H910.466C911.792 756.049 921.261 774.326 938.875 788.341C956.489 802.356 977.417 809.364 1001.66 809.364C1020.98 809.364 1038.02 805.102 1052.8 796.58C1067.76 787.867 1079.41 775.841 1087.74 760.5C1096.26 744.97 1100.52 727.167 1100.52 707.091C1100.52 686.636 1096.17 668.644 1087.45 653.114C1078.93 637.583 1067.09 625.462 1051.94 616.75C1036.79 608.038 1019.46 603.587 999.955 603.398C982.909 603.398 966.337 606.902 950.239 613.909C934.33 620.917 921.924 630.481 913.023 642.602L803.648 623L831.205 316.182H1186.89V416.75H932.625L917.568 562.489H920.977C931.205 548.095 946.64 536.163 967.284 526.693C987.928 517.223 1011.03 512.489 1036.6 512.489C1071.64 512.489 1102.89 520.727 1130.35 537.205C1157.81 553.682 1179.5 576.314 1195.41 605.102C1211.32 633.701 1219.18 666.655 1218.99 703.966C1219.18 743.17 1210.09 778.019 1191.72 808.511C1173.53 838.814 1148.06 862.678 1115.3 880.102C1082.72 897.337 1044.84 905.955 1001.66 905.955Z" fill="black"/>
</g>
</g>
<defs>
<filter id="filter0_d_3882_793" x="0" y="0" width="2008" height="2008" filterUnits="userSpaceOnUse" color-interpolation-filters="sRGB">
<feFlood flood-opacity="0" result="BackgroundImageFix"/>
<feColorMatrix in="SourceAlpha" type="matrix" values="0 0 0 0 0 0 0 0 0 0 0 0 0 0 0 0 0 0 127 0" result="hardAlpha"/>
<feOffset dy="4"/>
<feGaussianBlur stdDeviation="2"/>
<feComposite in2="hardAlpha" operator="out"/>
<feColorMatrix type="matrix" values="0 0 0 0 0 0 0 0 0 0 0 0 0 0 0 0 0 0 0.25 0"/>
<feBlend mode="normal" in2="BackgroundImageFix" result="effect1_dropShadow_3882_793"/>
<feBlend mode="normal" in="SourceGraphic" in2="effect1_dropShadow_3882_793" result="shape"/>
</filter>
<linearGradient id="paint0_linear_3882_793" x1="1004" y1="86" x2="1004" y2="1961.5" gradientUnits="userSpaceOnUse">
<stop stop-color="#EA7171"/>
<stop offset="0.658654" stop-color="#870303"/>
<stop offset="1" stop-color="#DB2424"/>
</linearGradient>
<clipPath id="clip0_3882_793">
<rect x="4" width="2000" height="2000" rx="200" fill="white"/>
</clipPath>
</defs>
</svg>
