<svg width="2008" height="2008" viewBox="0 0 2008 2008" fill="none" xmlns="http://www.w3.org/2000/svg">
<g filter="url(#filter0_d_3882_778)">
<g clip-path="url(#clip0_3882_778)">
<path d="M1004 86C871.392 86 744.215 138.678 650.447 232.447C556.678 326.215 504 453.392 504 586C504 1086 1004 1961.5 1004 1961.5C1004 1961.5 1504 1086 1504 586C1504 453.392 1451.32 326.215 1357.55 232.447C1263.79 138.678 1136.61 86 1004 86ZM1004 886C924.435 886 848.129 854.393 791.868 798.132C735.607 741.871 704 665.565 704 586C704 506.435 735.607 430.129 791.868 373.868C848.129 317.607 924.435 286 1004 286C1083.56 286 1159.87 317.607 1216.13 373.868C1272.39 430.129 1304 506.435 1304 586C1304 665.565 1272.39 741.871 1216.13 798.132C1159.87 854.393 1083.56 886 1004 886Z" fill="url(#paint0_linear_3882_778)"/>
<circle cx="1004" cy="604" r="400" fill="white"/>
<path d="M799.159 871V782.364L1006.26 590.602C1023.88 573.557 1038.65 558.216 1050.58 544.58C1062.7 530.943 1071.89 517.591 1078.14 504.523C1084.39 491.265 1087.51 476.966 1087.51 461.625C1087.51 444.58 1083.63 429.902 1075.86 417.591C1068.1 405.091 1057.49 395.527 1044.05 388.898C1030.6 382.08 1015.35 378.67 998.307 378.67C980.504 378.67 964.973 382.269 951.716 389.466C938.458 396.663 928.231 406.985 921.034 420.432C913.837 433.879 910.239 449.883 910.239 468.443H793.477C793.477 430.375 802.095 397.326 819.33 369.295C836.564 341.265 860.712 319.58 891.773 304.239C922.833 288.898 958.629 281.227 999.159 281.227C1040.83 281.227 1077.09 288.614 1107.97 303.386C1139.03 317.97 1163.17 338.235 1180.41 364.182C1197.64 390.129 1206.26 419.864 1206.26 453.386C1206.26 475.356 1201.91 497.042 1193.19 518.443C1184.67 539.845 1169.42 563.614 1147.45 589.75C1125.48 615.697 1094.52 646.852 1054.56 683.216L969.614 766.455V770.432H1213.93V871H799.159Z" fill="black"/>
</g>
</g>
<defs>
<filter id="filter0_d_3882_778" x="0" y="0" width="2008" height="2008" filterUnits="userSpaceOnUse" color-interpolation-filters="sRGB">
<feFlood flood-opacity="0" result="BackgroundImageFix"/>
<feColorMatrix in="SourceAlpha" type="matrix" values="0 0 0 0 0 0 0 0 0 0 0 0 0 0 0 0 0 0 127 0" result="hardAlpha"/>
<feOffset dy="4"/>
<feGaussianBlur stdDeviation="2"/>
<feComposite in2="hardAlpha" operator="out"/>
<feColorMatrix type="matrix" values="0 0 0 0 0 0 0 0 0 0 0 0 0 0 0 0 0 0 0.25 0"/>
<feBlend mode="normal" in2="BackgroundImageFix" result="effect1_dropShadow_3882_778"/>
<feBlend mode="normal" in="SourceGraphic" in2="effect1_dropShadow_3882_778" result="shape"/>
</filter>
<linearGradient id="paint0_linear_3882_778" x1="1004" y1="86" x2="1004" y2="1961.5" gradientUnits="userSpaceOnUse">
<stop stop-color="#EA7171"/>
<stop offset="0.658654" stop-color="#870303"/>
<stop offset="1" stop-color="#DB2424"/>
</linearGradient>
<clipPath id="clip0_3882_778">
<rect x="4" width="2000" height="2000" rx="200" fill="white"/>
</clipPath>
</defs>
</svg>
