<svg width="2008" height="2008" viewBox="0 0 2008 2008" fill="none" xmlns="http://www.w3.org/2000/svg">
<g filter="url(#filter0_d_3882_788)">
<g clip-path="url(#clip0_3882_788)">
<path d="M1004 86C871.392 86 744.215 138.678 650.447 232.447C556.678 326.215 504 453.392 504 586C504 1086 1004 1961.5 1004 1961.5C1004 1961.5 1504 1086 1504 586C1504 453.392 1451.32 326.215 1357.55 232.447C1263.79 138.678 1136.61 86 1004 86ZM1004 886C924.435 886 848.129 854.393 791.868 798.132C735.607 741.871 704 665.565 704 586C704 506.435 735.607 430.129 791.868 373.868C848.129 317.607 924.435 286 1004 286C1083.56 286 1159.87 317.607 1216.13 373.868C1272.39 430.129 1304 506.435 1304 586C1304 665.565 1272.39 741.871 1216.13 798.132C1159.87 854.393 1083.56 886 1004 886Z" fill="url(#paint0_linear_3882_788)"/>
<circle cx="1004" cy="604" r="400" fill="white"/>
<path d="M740.352 780.727V683.852L983.25 301.182H1066.77V435.273H1017.34L864.216 677.602V682.148H1209.39V780.727H740.352ZM1019.61 883V751.182L1021.89 708.284V301.182H1137.23V883H1019.61Z" fill="black"/>
</g>
</g>
<defs>
<filter id="filter0_d_3882_788" x="0" y="0" width="2008" height="2008" filterUnits="userSpaceOnUse" color-interpolation-filters="sRGB">
<feFlood flood-opacity="0" result="BackgroundImageFix"/>
<feColorMatrix in="SourceAlpha" type="matrix" values="0 0 0 0 0 0 0 0 0 0 0 0 0 0 0 0 0 0 127 0" result="hardAlpha"/>
<feOffset dy="4"/>
<feGaussianBlur stdDeviation="2"/>
<feComposite in2="hardAlpha" operator="out"/>
<feColorMatrix type="matrix" values="0 0 0 0 0 0 0 0 0 0 0 0 0 0 0 0 0 0 0.25 0"/>
<feBlend mode="normal" in2="BackgroundImageFix" result="effect1_dropShadow_3882_788"/>
<feBlend mode="normal" in="SourceGraphic" in2="effect1_dropShadow_3882_788" result="shape"/>
</filter>
<linearGradient id="paint0_linear_3882_788" x1="1004" y1="86" x2="1004" y2="1961.5" gradientUnits="userSpaceOnUse">
<stop stop-color="#EA7171"/>
<stop offset="0.658654" stop-color="#870303"/>
<stop offset="1" stop-color="#DB2424"/>
</linearGradient>
<clipPath id="clip0_3882_788">
<rect x="4" width="2000" height="2000" rx="200" fill="white"/>
</clipPath>
</defs>
</svg>
