<svg width="2008" height="2008" viewBox="0 0 2008 2008" fill="none" xmlns="http://www.w3.org/2000/svg">
<g filter="url(#filter0_d_3882_783)">
<g clip-path="url(#clip0_3882_783)">
<path d="M1004 86C871.392 86 744.215 138.678 650.447 232.447C556.678 326.215 504 453.392 504 586C504 1086 1004 1961.5 1004 1961.5C1004 1961.5 1504 1086 1504 586C1504 453.392 1451.32 326.215 1357.55 232.447C1263.79 138.678 1136.61 86 1004 86ZM1004 886C924.435 886 848.129 854.393 791.868 798.132C735.607 741.871 704 665.565 704 586C704 506.435 735.607 430.129 791.868 373.868C848.129 317.607 924.435 286 1004 286C1083.56 286 1159.87 317.607 1216.13 373.868C1272.39 430.129 1304 506.435 1304 586C1304 665.565 1272.39 741.871 1216.13 798.132C1159.87 854.393 1083.56 886 1004 886Z" fill="url(#paint0_linear_3882_783)"/>
<circle cx="1004" cy="604" r="400" fill="white"/>
<path d="M1004.22 890.955C961.792 890.955 924.008 883.663 890.864 869.08C857.909 854.307 831.867 834.042 812.739 808.284C793.799 782.337 784.045 752.413 783.477 718.511H907.341C908.098 732.716 912.739 745.216 921.261 756.011C929.973 766.617 941.527 774.856 955.92 780.727C970.314 786.598 986.508 789.534 1004.5 789.534C1023.25 789.534 1039.82 786.22 1054.22 779.591C1068.61 772.962 1079.88 763.777 1088.02 752.034C1096.17 740.292 1100.24 726.75 1100.24 711.409C1100.24 695.879 1095.88 682.148 1087.17 670.216C1078.65 658.095 1066.34 648.625 1050.24 641.807C1034.33 634.989 1015.39 631.58 993.42 631.58H939.159V541.239H993.42C1011.98 541.239 1028.36 538.019 1042.57 531.58C1056.96 525.14 1068.14 516.239 1076.09 504.875C1084.05 493.322 1088.02 479.875 1088.02 464.534C1088.02 449.951 1084.52 437.167 1077.51 426.182C1070.69 415.008 1061.03 406.295 1048.53 400.045C1036.22 393.795 1021.83 390.67 1005.35 390.67C988.686 390.67 973.439 393.701 959.614 399.761C945.788 405.633 934.708 414.061 926.375 425.045C918.042 436.03 913.591 448.909 913.023 463.682H795.125C795.693 430.159 805.258 400.614 823.818 375.045C842.379 349.477 867.379 329.496 898.818 315.102C930.447 300.519 966.148 293.227 1005.92 293.227C1046.07 293.227 1081.2 300.519 1111.32 315.102C1141.43 329.686 1164.82 349.383 1181.49 374.193C1198.34 398.814 1206.68 426.466 1206.49 457.148C1206.68 489.723 1196.55 516.902 1176.09 538.682C1155.83 560.462 1129.41 574.288 1096.83 580.159V584.705C1139.63 590.197 1172.21 605.064 1194.56 629.307C1217.09 653.36 1228.27 683.473 1228.08 719.648C1228.27 752.792 1218.7 782.242 1199.39 808C1180.26 833.758 1153.84 854.023 1120.12 868.795C1086.41 883.568 1047.78 890.955 1004.22 890.955Z" fill="black"/>
</g>
</g>
<defs>
<filter id="filter0_d_3882_783" x="0" y="0" width="2008" height="2008" filterUnits="userSpaceOnUse" color-interpolation-filters="sRGB">
<feFlood flood-opacity="0" result="BackgroundImageFix"/>
<feColorMatrix in="SourceAlpha" type="matrix" values="0 0 0 0 0 0 0 0 0 0 0 0 0 0 0 0 0 0 127 0" result="hardAlpha"/>
<feOffset dy="4"/>
<feGaussianBlur stdDeviation="2"/>
<feComposite in2="hardAlpha" operator="out"/>
<feColorMatrix type="matrix" values="0 0 0 0 0 0 0 0 0 0 0 0 0 0 0 0 0 0 0.25 0"/>
<feBlend mode="normal" in2="BackgroundImageFix" result="effect1_dropShadow_3882_783"/>
<feBlend mode="normal" in="SourceGraphic" in2="effect1_dropShadow_3882_783" result="shape"/>
</filter>
<linearGradient id="paint0_linear_3882_783" x1="1004" y1="86" x2="1004" y2="1961.5" gradientUnits="userSpaceOnUse">
<stop stop-color="#EA7171"/>
<stop offset="0.658654" stop-color="#870303"/>
<stop offset="1" stop-color="#DB2424"/>
</linearGradient>
<clipPath id="clip0_3882_783">
<rect x="4" width="2000" height="2000" rx="200" fill="white"/>
</clipPath>
</defs>
</svg>
