<svg width="2008" height="2008" viewBox="0 0 2008 2008" fill="none" xmlns="http://www.w3.org/2000/svg">
<g filter="url(#filter0_d_3829_701)">
<rect x="4" width="2000" height="2000" rx="200" fill="#336C7B"/>
<g filter="url(#filter1_d_3829_701)">
<path d="M204 1450.27V610.852L224.087 563.503C230.786 547.713 239.488 532.851 249.979 519.282L285.601 473.207L816.471 169.281L1035.72 285.678L523.233 622.604C468.163 658.808 434.465 719.819 433.143 785.711L418.935 1493.99V1574.36L204 1450.27Z" fill="white"/>
<path d="M471.438 1610.7V811.124L494.379 733.098L520.349 695.031C532.919 676.608 548.481 660.416 566.393 647.127L596.611 624.707L1097.3 322.32L1287.6 433.175L775.666 761.425C718.86 797.849 684.251 860.462 683.628 927.94L676.981 1647.03V1721.24L471.438 1610.7Z" fill="white"/>
<path d="M742.57 1760.97V950.805L757.967 880.597L781.295 841.826C794.763 819.443 812.486 799.915 833.461 784.345L861.431 763.584L1353.19 469.512L1585.99 606.848L1070.04 927.685C1012.03 963.762 976.438 1026.96 975.667 1095.27L967.667 1804.38V1891.53L742.57 1760.97Z" fill="white"/>
<path d="M1126.86 952.653L1792.46 534.938L1804 1148.5L1792.72 1188.22C1781.23 1228.66 1757.3 1264.45 1724.31 1290.51L1694.37 1314.16L1269.12 1561.12V1308.62L1582.13 1112.92C1599.12 1102.3 1611.73 1085.93 1617.67 1066.79V1066.79C1618.91 1062.78 1619.55 1058.6 1619.55 1054.4V928.943L1339.33 1096.46L1312.92 1120.8C1304.32 1128.73 1297.17 1138.11 1291.81 1148.51L1269.12 1192.53V1308.62V1561.12V1760.04L1038.48 1895.84V1106L1046.53 1073.04C1055.55 1036.05 1074.95 1002.4 1102.45 976.051L1126.86 952.653Z" fill="white"/>
<path d="M1161.97 142.491L1760 493.235L1584.17 607.785L816.477 168.973L867.901 142.491L923.636 118.165L973.213 108.311L1012.26 104.997C1020.08 104.335 1027.94 104.593 1035.69 105.766L1091.15 114.162L1161.97 142.491Z" fill="white"/>
</g>
</g>
<defs>
<filter id="filter0_d_3829_701" x="0" y="0" width="2008" height="2008" filterUnits="userSpaceOnUse" color-interpolation-filters="sRGB">
<feFlood flood-opacity="0" result="BackgroundImageFix"/>
<feColorMatrix in="SourceAlpha" type="matrix" values="0 0 0 0 0 0 0 0 0 0 0 0 0 0 0 0 0 0 127 0" result="hardAlpha"/>
<feOffset dy="4"/>
<feGaussianBlur stdDeviation="2"/>
<feComposite in2="hardAlpha" operator="out"/>
<feColorMatrix type="matrix" values="0 0 0 0 0 0 0 0 0 0 0 0 0 0 0 0 0 0 0.25 0"/>
<feBlend mode="normal" in2="BackgroundImageFix" result="effect1_dropShadow_3829_701"/>
<feBlend mode="normal" in="SourceGraphic" in2="effect1_dropShadow_3829_701" result="shape"/>
</filter>
<filter id="filter1_d_3829_701" x="200" y="104.639" width="1608" height="1799.2" filterUnits="userSpaceOnUse" color-interpolation-filters="sRGB">
<feFlood flood-opacity="0" result="BackgroundImageFix"/>
<feColorMatrix in="SourceAlpha" type="matrix" values="0 0 0 0 0 0 0 0 0 0 0 0 0 0 0 0 0 0 127 0" result="hardAlpha"/>
<feOffset dy="4"/>
<feGaussianBlur stdDeviation="2"/>
<feComposite in2="hardAlpha" operator="out"/>
<feColorMatrix type="matrix" values="0 0 0 0 0 0 0 0 0 0 0 0 0 0 0 0 0 0 0.25 0"/>
<feBlend mode="normal" in2="BackgroundImageFix" result="effect1_dropShadow_3829_701"/>
<feBlend mode="normal" in="SourceGraphic" in2="effect1_dropShadow_3829_701" result="shape"/>
</filter>
</defs>
</svg>
