<svg width="2008" height="2008" viewBox="0 0 2008 2008" fill="none" xmlns="http://www.w3.org/2000/svg">
<g filter="url(#filter0_d_3829_753)">
<g clip-path="url(#clip0_3829_753)">
<rect x="-96" y="-100" width="2200" height="2200" rx="200" fill="#336C7B"/>
<g filter="url(#filter1_d_3829_753)">
<path d="M1004 250L1829 571.429V678.571H1719C1719 693.08 1713.13 705.636 1701.38 716.239C1689.64 726.842 1675.74 732.143 1659.7 732.143H348.297C332.255 732.143 318.362 726.842 306.617 716.239C294.872 705.636 289 693.08 289 678.571H179V571.429L1004 250ZM399 785.714H619V1428.57H729V785.714H949V1428.57H1059V785.714H1279V1428.57H1389V785.714H1609V1428.57H1659.7C1675.74 1428.57 1689.64 1433.87 1701.38 1444.48C1713.13 1455.08 1719 1467.63 1719 1482.14V1535.71H289V1482.14C289 1467.63 294.872 1455.08 306.617 1444.48C318.362 1433.87 332.255 1428.57 348.297 1428.57H399V785.714ZM1769.7 1589.29C1785.74 1589.29 1799.64 1594.59 1811.38 1605.19C1823.13 1615.79 1829 1628.35 1829 1642.86V1750H179V1642.86C179 1628.35 184.872 1615.79 196.617 1605.19C208.362 1594.59 222.255 1589.29 238.297 1589.29H1769.7Z" fill="white"/>
</g>
</g>
</g>
<defs>
<filter id="filter0_d_3829_753" x="0" y="0" width="2008" height="2008" filterUnits="userSpaceOnUse" color-interpolation-filters="sRGB">
<feFlood flood-opacity="0" result="BackgroundImageFix"/>
<feColorMatrix in="SourceAlpha" type="matrix" values="0 0 0 0 0 0 0 0 0 0 0 0 0 0 0 0 0 0 127 0" result="hardAlpha"/>
<feOffset dy="4"/>
<feGaussianBlur stdDeviation="2"/>
<feComposite in2="hardAlpha" operator="out"/>
<feColorMatrix type="matrix" values="0 0 0 0 0 0 0 0 0 0 0 0 0 0 0 0 0 0 0.25 0"/>
<feBlend mode="normal" in2="BackgroundImageFix" result="effect1_dropShadow_3829_753"/>
<feBlend mode="normal" in="SourceGraphic" in2="effect1_dropShadow_3829_753" result="shape"/>
</filter>
<filter id="filter1_d_3829_753" x="100" y="250" width="1808" height="1508" filterUnits="userSpaceOnUse" color-interpolation-filters="sRGB">
<feFlood flood-opacity="0" result="BackgroundImageFix"/>
<feColorMatrix in="SourceAlpha" type="matrix" values="0 0 0 0 0 0 0 0 0 0 0 0 0 0 0 0 0 0 127 0" result="hardAlpha"/>
<feOffset dy="4"/>
<feGaussianBlur stdDeviation="2"/>
<feComposite in2="hardAlpha" operator="out"/>
<feColorMatrix type="matrix" values="0 0 0 0 0 0 0 0 0 0 0 0 0 0 0 0 0 0 0.25 0"/>
<feBlend mode="normal" in2="BackgroundImageFix" result="effect1_dropShadow_3829_753"/>
<feBlend mode="normal" in="SourceGraphic" in2="effect1_dropShadow_3829_753" result="shape"/>
</filter>
<clipPath id="clip0_3829_753">
<rect x="4" width="2000" height="2000" rx="200" fill="white"/>
</clipPath>
</defs>
</svg>
