<svg width="259" height="223" viewBox="0 0 259 223" fill="none" xmlns="http://www.w3.org/2000/svg">
<path d="M213 62.25C222.167 62.25 230.167 64.6667 237 69.5C243.833 74.1667 249.167 81.0833 253 90.25C256.833 99.4167 258.75 110.5 258.75 123.5C258.75 138.167 256.583 151 252.25 162C247.917 173.167 241.917 182.583 234.25 190.25C226.583 197.917 217.667 204.083 207.5 208.75C197.333 213.417 186.25 216.833 174.25 219C162.417 221.167 150.167 222.25 137.5 222.25H131C107.5 222.25 87.4167 218.583 70.75 211.25C54.25 204.083 40.75 194.167 30.25 181.5C19.75 168.833 12.0833 154.167 7.25 137.5C2.41667 120.833 9.23872e-07 103 9.23872e-07 84C9.23872e-07 73.8333 0.833334 63.8333 2.5 54C4.16667 44.1667 6.83334 35.25 10.5 27.25C14.3333 19.0833 19.5 12.5833 26 7.75C32.5 2.91666 40.5833 0.499989 50.25 0.499989C57.75 0.499989 64.1667 2.08332 69.5 5.24999C74.8333 8.41666 78.9167 12.75 81.75 18.25C84.75 23.5833 86.25 29.75 86.25 36.75C86.25 44.4167 84.6667 51.0833 81.5 56.75C78.3333 62.25 73.8333 66.5 68 69.5C62.3333 72.3333 55.6667 73.75 48 73.75C40 73.75 32.5 71.75 25.5 67.75C18.6667 63.5833 12.25 57.6667 6.25 50L13 32.5C18.1667 40.3333 23.25 46.25 28.25 50.25C33.25 54.0833 39.0833 56 45.75 56C51.5833 56 56.3333 54.3333 60 51C63.8333 47.6667 65.75 42.6667 65.75 36C65.75 30 64.1667 25.4167 61 22.25C58 19.0833 53.9167 17.5 48.75 17.5C43.5833 17.5 39.25 19.3333 35.75 23C32.4167 26.5 29.75 31.0833 27.75 36.75C25.75 42.25 24.25 48.0833 23.25 54.25C22.25 60.0833 21.5833 65.75 21.25 71.25C21.0833 76.75 21 81.4167 21 85.25C21 103.083 23.3333 119.25 28 133.75C32.6667 148.083 39.6667 160.417 49 170.75C58.5 181.083 70.1667 189 84 194.5C98 200.167 114.25 203 132.75 203H136.5C150.833 203 164.083 201.583 176.25 198.75C188.583 195.917 199.25 191.333 208.25 185C217.25 178.667 224.25 170.333 229.25 160C234.25 149.833 236.75 137.417 236.75 122.75C236.75 113.25 235.667 105.417 233.5 99.25C231.333 92.9167 228.167 88.1667 224 85C220 81.8333 215.083 80.25 209.25 80.25C204.583 80.25 200.25 81.1667 196.25 83C192.25 84.8333 188.583 86.9167 185.25 89.25V71C188.417 68.6667 192.333 66.6667 197 65C201.667 63.1667 207 62.25 213 62.25ZM98.5 142V3.49999H229V21.5H185.25V142H163.75V21.5H120V142H98.5Z" fill="black"/>
</svg>
