<svg width="2008" height="2008" viewBox="0 0 2008 2008" fill="none" xmlns="http://www.w3.org/2000/svg">
<g filter="url(#filter0_d_3829_760)">
<g clip-path="url(#clip0_3829_760)">
<rect x="4" width="2000" height="2000" rx="200" fill="#336C7B"/>
<g filter="url(#filter1_d_3829_760)">
<path d="M1542.2 742.5C1595.07 742.5 1641.87 754.2 1682.6 777.6C1724.2 801 1756.7 836.1 1780.1 882.9C1804.37 929.7 1816.5 988.633 1816.5 1059.7C1816.5 1142.9 1801.77 1214.83 1772.3 1275.5C1742.83 1336.17 1702.53 1386.87 1651.4 1427.6C1601.13 1469.2 1543.5 1502.13 1478.5 1526.4C1414.37 1550.67 1346.77 1568 1275.7 1578.4C1205.5 1589.67 1135.73 1595.3 1066.4 1595.3H1009.2C880.933 1595.3 766.1 1579.7 664.7 1548.5C563.3 1517.3 477.067 1471.37 406 1410.7C334.933 1350.03 280.767 1274.63 243.5 1184.5C206.233 1094.37 187.6 990.367 187.6 872.5C187.6 806.633 194.533 746.833 208.4 693.1C222.267 638.5 243.067 591.7 270.8 552.7C299.4 513.7 334.067 483.8 374.8 463C416.4 442.2 464.5 431.8 519.1 431.8C573.7 431.8 618.767 441.333 654.3 460.4C689.833 479.467 715.833 506.333 732.3 541C749.633 575.667 758.3 615.967 758.3 661.9C758.3 700.9 750.067 736.867 733.6 769.8C717.133 802.733 691.133 829.167 655.6 849.1C620.067 869.033 573.267 879 515.2 879C473.6 879 432.867 870.767 393 854.3C353.133 836.967 317.6 808.367 286.4 768.5L322.8 620.3C350.533 662.767 378.7 693.1 407.3 711.3C436.767 729.5 467.1 738.6 498.3 738.6C523.433 738.6 544.667 731.667 562 717.8C579.333 703.067 588 680.1 588 648.9C588 616.833 580.633 595.167 565.9 583.9C552.033 571.767 535.567 565.7 516.5 565.7C487.9 565.7 464.067 575.233 445 594.3C425.933 612.5 410.767 637.2 399.5 668.4C388.233 698.733 380.433 732.1 376.1 768.5C372.633 788.433 370.467 807.933 369.6 827C368.733 846.067 368.3 863.4 368.3 879C368.3 969.133 382.6 1049.73 411.2 1120.8C440.667 1191.87 482.7 1252.1 537.3 1301.5C592.767 1350.9 660.367 1388.17 740.1 1413.3C819.833 1439.3 910.4 1452.3 1011.8 1452.3H1074.2C1148.73 1452.3 1218.93 1444.5 1284.8 1428.9C1351.53 1413.3 1410.03 1389.47 1460.3 1357.4C1511.43 1326.2 1551.3 1285.47 1579.9 1235.2C1608.5 1184.93 1622.8 1125.57 1622.8 1057.1C1622.8 1018.1 1617.6 985.6 1607.2 959.6C1596.8 933.6 1582.07 914.1 1563 901.1C1544.8 888.1 1522.27 881.6 1495.4 881.6C1473.73 881.6 1456.4 884.2 1443.4 889.4C1430.4 894.6 1418.27 900.667 1407 907.6V772.4C1424.33 764.6 1443.83 757.667 1465.5 751.6C1487.17 745.533 1512.73 742.5 1542.2 742.5ZM827.2 1178V447.4H1594.2V586.5H1407V1178H1213.3V586.5H1020.9V1178H827.2Z" fill="white"/>
</g>
</g>
</g>
<defs>
<filter id="filter0_d_3829_760" x="0" y="0" width="2008" height="2008" filterUnits="userSpaceOnUse" color-interpolation-filters="sRGB">
<feFlood flood-opacity="0" result="BackgroundImageFix"/>
<feColorMatrix in="SourceAlpha" type="matrix" values="0 0 0 0 0 0 0 0 0 0 0 0 0 0 0 0 0 0 127 0" result="hardAlpha"/>
<feOffset dy="4"/>
<feGaussianBlur stdDeviation="2"/>
<feComposite in2="hardAlpha" operator="out"/>
<feColorMatrix type="matrix" values="0 0 0 0 0 0 0 0 0 0 0 0 0 0 0 0 0 0 0.25 0"/>
<feBlend mode="normal" in2="BackgroundImageFix" result="effect1_dropShadow_3829_760"/>
<feBlend mode="normal" in="SourceGraphic" in2="effect1_dropShadow_3829_760" result="shape"/>
</filter>
<filter id="filter1_d_3829_760" x="183.602" y="431.801" width="1636.9" height="1171.5" filterUnits="userSpaceOnUse" color-interpolation-filters="sRGB">
<feFlood flood-opacity="0" result="BackgroundImageFix"/>
<feColorMatrix in="SourceAlpha" type="matrix" values="0 0 0 0 0 0 0 0 0 0 0 0 0 0 0 0 0 0 127 0" result="hardAlpha"/>
<feOffset dy="4"/>
<feGaussianBlur stdDeviation="2"/>
<feComposite in2="hardAlpha" operator="out"/>
<feColorMatrix type="matrix" values="0 0 0 0 0 0 0 0 0 0 0 0 0 0 0 0 0 0 0.25 0"/>
<feBlend mode="normal" in2="BackgroundImageFix" result="effect1_dropShadow_3829_760"/>
<feBlend mode="normal" in="SourceGraphic" in2="effect1_dropShadow_3829_760" result="shape"/>
</filter>
<clipPath id="clip0_3829_760">
<rect x="4" width="2000" height="2000" rx="200" fill="white"/>
</clipPath>
</defs>
</svg>
