<svg width="2008" height="2008" viewBox="0 0 2008 2008" fill="none" xmlns="http://www.w3.org/2000/svg">
<g filter="url(#filter0_d_3829_885)">
<rect x="4" width="2000" height="2000" rx="200" fill="#336C7B"/>
<path d="M613.721 1276.23C625.133 1276.37 631.883 1263.7 635.159 1252.76C647.273 1212.31 648.209 1168.59 637.859 1127.66L621.101 1128.61C627.023 1153.68 608.861 1181.84 583.571 1186.79C579.946 1211.08 583.441 1235.91 593.633 1258.26C597.593 1266.89 604.217 1276.12 613.721 1276.23ZM1448.8 1171.74C1433.62 1168.08 1434.34 1146 1425.04 1133.47C1410.65 1114.1 1380.23 1124.2 1359.19 1135.97C1326.79 1154.08 1293.1 1170.87 1261.6 1190.53C1224.52 1213.66 1220.84 1259.52 1215.03 1298.4C1212.13 1317.81 1201.78 1333.92 1219.49 1346.21C1252.99 1369.47 1300.17 1314.46 1333.94 1309.46C1378.88 1302.8 1381.53 1366.17 1409.03 1389.92C1415.17 1395.13 1422.37 1398.95 1430.13 1401.12C1437.89 1403.29 1446.02 1403.76 1453.98 1402.48C1461.91 1401.08 1469.45 1397.97 1476.06 1393.38C1482.68 1388.79 1488.23 1382.82 1492.32 1375.88C1498.73 1350.71 1509.67 1334.89 1524.5 1313.49C1535.23 1298.01 1546.48 1280.48 1543.64 1261.86C1541.14 1245.5 1528.43 1232.97 1518.71 1219.56C1507.16 1203.38 1499.38 1184.8 1495.94 1165.22C1492.51 1145.63 1493.5 1125.52 1498.85 1106.36C1483.55 1106.27 1477.58 1125.82 1475.27 1140.96C1472.95 1156.08 1463.68 1175.32 1448.8 1171.74ZM1049.52 944.129L1047.07 951.977C1061.47 958.277 1069.55 973.307 1077.44 986.897C1085.29 1000.41 1093.96 1013.5 1104.37 1025.16C1116.25 1038.42 1130.15 1049.72 1145.55 1058.64C1172.78 1074.45 1203.67 1082.57 1234.15 1090.5C1255.17 1095.98 1276.41 1101.48 1298.12 1102.29C1319.83 1103.1 1342.38 1098.82 1360.09 1086.24C1314.68 1083.86 1268.35 1085.46 1224.7 1072.67C1185.28 1061.03 1150.09 1038.22 1123.39 1006.98C1112.65 994.367 1103.38 980.471 1091.84 968.537C1080.3 956.603 1065.94 946.505 1049.52 944.129Z" fill="white"/>
<path d="M1241.02 1041.67C1244.88 1041.9 1248.91 1041.85 1252.33 1040.09C1260.46 1035.89 1261.31 1024.89 1262.32 1015.8C1264 1000.8 1268.91 986.336 1276.72 973.413C1280.48 967.221 1284.93 961.335 1287.3 954.495C1289.68 947.655 1289.55 939.357 1284.75 933.939C1279.24 927.711 1269.36 927.297 1261.63 930.393C1253.91 933.489 1247.68 939.321 1241.15 944.433C1230.82 952.515 1219.26 959.067 1209.65 968.013C1200.04 976.941 1192.3 989.091 1192.69 1002.21C1193.04 1013.63 1199.71 1024.3 1208.93 1031.07C1218.13 1037.82 1229.61 1040.97 1241.02 1041.67ZM1397.73 1008.08C1394.98 1020.27 1405.49 1031.54 1416.51 1037.44C1427.52 1043.34 1440.32 1046.93 1448.65 1056.23C1455.22 1063.58 1458.03 1073.44 1462.86 1082.03C1467.66 1090.61 1476.25 1098.66 1486.02 1097.4C1494.88 1096.26 1501.75 1087.79 1510.66 1087.64C1520.51 1087.48 1527.19 1097.07 1533.31 1104.81C1539.43 1112.55 1550.32 1119.75 1558.35 1114.03C1564.77 1109.46 1564.09 1099.05 1559.07 1092.99C1554.04 1086.92 1546.2 1084.1 1538.74 1081.54C1538.08 1078.53 1538.21 1075.4 1539.13 1072.46C1540.05 1069.52 1541.72 1066.87 1543.98 1064.78L1477.6 1025.49C1468.56 1020.14 1457.83 1014.63 1448.1 1018.52C1440.86 1021.42 1435.03 1029.25 1427.32 1028.06C1420.92 1027.07 1417.39 1020.36 1413.79 1014.96C1410.19 1009.56 1403.13 1004.5 1397.73 1008.08ZM1407.58 582.831C1402.93 571.581 1394.17 560.007 1398.36 548.595C1399.23 546.237 1400.65 543.951 1400.45 541.449C1400.09 537.129 1395.39 534.843 1391.63 532.701C1376.11 523.881 1368.77 505.971 1359.93 490.473C1351.09 474.975 1336.5 459.333 1318.75 461.259L1340.31 489.339C1355.72 509.409 1371.43 530.055 1378.72 554.265C1386.01 578.475 1383.21 607.419 1365.17 625.167C1359.75 630.495 1353.24 634.599 1347.55 639.639C1341.86 644.679 1336.82 651.105 1335.85 658.647C1334.88 666.189 1339.21 674.775 1346.65 676.395C1351.51 677.457 1356.49 675.513 1360.98 673.335C1377.81 665.163 1393.12 652.977 1402.52 636.777C1411.92 620.577 1414.72 600.129 1407.58 582.831ZM1405.42 1427.64C1403.82 1429.89 1403.51 1432.79 1403.26 1435.55L1400.5 1465.59C1404.82 1467.8 1409.63 1463.79 1412.67 1460.01C1421.41 1449.15 1428.68 1437.18 1434.29 1424.42C1429.56 1426.24 1424.3 1424.73 1419.31 1423.95C1414.35 1423.16 1408.35 1423.52 1405.42 1427.64Z" fill="white"/>
<path d="M1004 146.943C533.44 146.943 151.984 528.399 151.984 998.955C151.984 1469.51 533.44 1850.97 1004 1850.97C1474.55 1850.97 1856.01 1469.51 1856.01 998.955C1856.01 528.399 1474.55 146.943 1004 146.943ZM1285.34 271.647C1268.4 278.973 1251.62 287.685 1235.08 294.813C1173.81 321.201 1105.8 326.241 1039.26 330.939L935.002 338.301C934.426 349.137 925.084 358.821 914.284 359.793C903.484 360.765 892.558 352.935 890.038 342.387C856.774 366.705 812.098 374.607 772.498 363.213C772.552 348.399 793.432 338.769 804.736 348.363C810.874 328.149 794.026 306.747 773.956 300.123C753.886 293.499 732.052 297.567 711.334 301.689C687.376 306.459 662.878 311.427 641.854 323.865C620.83 336.321 603.568 357.903 603.046 382.329L735.148 325.197L665.218 387.171C651.088 399.681 634.924 412.983 616.06 412.173C597.196 411.363 580.654 386.685 593.866 373.203C568.756 390.987 537.202 394.011 506.35 398.853C641.476 286.551 814.978 218.943 1004 218.943C1103.18 218.943 1198 237.735 1285.34 271.647ZM422.632 479.637C442.81 478.269 463.672 486.495 476.722 502.047C492.472 520.803 495.982 548.955 485.326 571.023L526.996 566.811L531.838 589.005L572.122 591.597C570.322 619.479 551.026 645.453 524.854 655.263C498.682 665.073 467.074 658.125 447.4 638.289C433.432 646.119 417.538 628.479 416.692 612.477C415.846 596.475 422.488 580.383 419.266 564.687C415.504 546.435 398.728 534.753 380.098 531.333C393.541 513.51 407.732 496.262 422.632 479.637ZM1159.08 1763.43C1161.96 1755.93 1162.92 1747.88 1160.9 1739.98C1174.27 1741.81 1187.87 1740.77 1200.8 1736.93C1213.73 1733.08 1225.69 1726.53 1235.89 1717.7C1247.12 1690.32 1231.34 1657.85 1207.38 1640.49C1183.42 1623.14 1153.23 1617.33 1124.15 1611.96C1060.19 1600.17 995.374 1607.36 931.402 1614.86C878.59 1621.05 818.92 1632.47 781.624 1673.99C766.126 1691.24 756.046 1714.26 753.238 1737.37C445.816 1632.68 223.984 1341.33 223.984 998.955C223.984 961.821 226.774 925.335 231.814 889.551C241.282 902.223 255.538 911.403 271.144 910.971L319.258 1112.19C339.202 1195.59 360.208 1281.36 410.536 1350.78C421.138 1365.42 434.098 1379.91 451.576 1384.52C479.998 1392 509.14 1369.38 520.318 1342.18C531.496 1314.98 529.66 1284.51 529.588 1255.1C529.476 1123.02 567.836 993.772 639.982 883.143C611.128 893.349 573.292 901.197 554.698 876.897C546.364 866.007 544.834 851.535 543.61 837.891L530.866 696.123C554.975 750.944 569.192 809.598 572.86 869.373C618.802 862.765 662.102 843.858 698.176 814.653C708.58 806.211 719.038 795.411 719.344 782.019C720.208 744.975 652.402 743.355 644.626 707.121C645.958 713.367 757.45 747.531 771.184 755.559C809.092 777.717 820.432 824.697 839.26 863.109C846.082 877.023 847.792 893.439 856.486 906.327C862.768 915.615 873.64 922.689 884.746 921.177C909.262 917.829 925.624 857.583 936.244 837.315C956.944 797.769 980.452 772.605 1011.68 812.871C1038.18 847.053 1074.3 886.347 1092.21 925.821C1106.4 957.069 1110.79 998.505 1157.72 996.669C1162.76 996.471 1129.37 946.179 1126.65 942.777C1110.54 922.635 1101.38 902.619 1090.59 878.175C1104.22 895.581 1123.71 909.729 1145.76 911.439C1167.8 913.131 1191.65 899.343 1196.31 877.743C1200.97 856.143 1179.84 831.717 1158.45 837.315C1152.95 825.021 1163.46 810.765 1175.91 805.635C1188.37 800.505 1202.37 801.153 1215.53 798.309C1263.07 788.013 1289.28 724.131 1262.66 683.415C1248.98 662.499 1224.19 637.263 1240.25 618.111C1249.68 606.861 1268.79 608.841 1279.61 618.759C1290.43 628.677 1294.66 643.815 1296.86 658.341L1310.46 655.137C1322.99 594.531 1334.06 528.165 1305.23 473.391C1297.09 457.929 1285.8 439.569 1294.86 424.629C1300.02 416.115 1310.21 412.299 1317.79 405.837C1325.37 399.375 1329.65 386.019 1321.52 380.277L1347.24 381.429C1345.31 423.801 1377.37 465.183 1418.88 473.949C1398.84 421.734 1383.86 367.714 1374.15 312.633C1617.98 444.663 1783.97 702.819 1783.97 999.027C1784.01 1375.97 1515.14 1691.31 1159.08 1763.43Z" fill="white"/>
<path d="M1623.36 1429.5L1485.23 1543.47C1548.28 1537.34 1605.38 1490.23 1623.36 1429.5Z" fill="white"/>
</g>
<defs>
<filter id="filter0_d_3829_885" x="0" y="0" width="2008" height="2008" filterUnits="userSpaceOnUse" color-interpolation-filters="sRGB">
<feFlood flood-opacity="0" result="BackgroundImageFix"/>
<feColorMatrix in="SourceAlpha" type="matrix" values="0 0 0 0 0 0 0 0 0 0 0 0 0 0 0 0 0 0 127 0" result="hardAlpha"/>
<feOffset dy="4"/>
<feGaussianBlur stdDeviation="2"/>
<feComposite in2="hardAlpha" operator="out"/>
<feColorMatrix type="matrix" values="0 0 0 0 0 0 0 0 0 0 0 0 0 0 0 0 0 0 0.25 0"/>
<feBlend mode="normal" in2="BackgroundImageFix" result="effect1_dropShadow_3829_885"/>
<feBlend mode="normal" in="SourceGraphic" in2="effect1_dropShadow_3829_885" result="shape"/>
</filter>
</defs>
</svg>
